# Created by Kenney (www.kenney.nl)

mtllib obstacle-end.mtl

g obstacle-end

v -0.2897778 0.2223543 0 1 1 1
v -0.2598076 0.15 0 1 1 1
v -0.3179422 0.2223543 0.1051111 1 1 1
v -0.2919873 0.15 0.1200962 1 1 1
v -0.212132 0.08786797 0 1 1 1
v -0.250699 0.08786797 0.143934 1 1 1
v -0.15 0.04019238 0 1 1 1
v -0.1968911 0.04019238 0.175 1 1 1
v -0.07764569 0.01022225 0 1 1 1
v -0.1342305 0.01022225 0.2111771 1 1 1
v 0 0 0 1 1 1
v -0.06698728 0 0.25 1 1 1
v -0.3948889 0.2223543 0.1820578 1 1 1
v -0.3799038 0.15 0.2080127 1 1 1
v -0.356066 0.08786797 0.249301 1 1 1
v -0.325 0.04019238 0.3031089 1 1 1
v -0.2888228 0.01022225 0.3657695 1 1 1
v -0.25 0 0.4330127 1 1 1
v -0.5 0.15 0.2401924 1 1 1
v -0.5 0.2223543 0.2102222 1 1 1
v -0.5 0.08786797 0.287868 1 1 1
v -0.5 0.04019238 0.35 1 1 1
v -0.5 0.01022225 0.4223543 1 1 1
v -0.5 0 0.5 1 1 1
v -0.75 0 0.4330127 1 1 1
v -0.7111772 0.01022225 0.3657695 1 1 1
v -0.675 0.04019238 0.3031089 1 1 1
v -0.643934 0.08786797 0.249301 1 1 1
v -0.6200962 0.15 0.2080127 1 1 1
v -0.6051111 0.2223543 0.1820578 1 1 1
v -0.6820578 0.2223543 0.1051111 1 1 1
v -0.7080127 0.15 0.1200962 1 1 1
v -0.749301 0.08786797 0.143934 1 1 1
v -0.8031089 0.04019238 0.175 1 1 1
v -0.8657695 0.01022225 0.2111771 1 1 1
v -0.9330127 0 0.25 1 1 1
v -1 0 0 1 1 1
v -0.9223543 0.01022225 0 1 1 1
v -0.85 0.04019238 0 1 1 1
v -0.787868 0.08786797 0 1 1 1
v -0.7401924 0.15 0 1 1 1
v -0.7102222 0.2223543 0 1 1 1
v -0.7 0.3 0 1 1 1
v -0.3 0.3 0 1 1 1
v -0.3267949 0.3 0.09999999 1 1 1
v -0.4 0.3 0.1732051 1 1 1
v -0.5 0.3 0.2 1 1 1
v -0.6 0.3 0.1732051 1 1 1
v -0.6732051 0.3 0.09999999 1 1 1

vn 0.8968088 0.3714704 0.2402992
vn 0.8384338 0.4965457 0.2246577
vn 0.8001032 0.3826835 0.4619398
vn 0.7451528 0.5095715 0.4302141
vn 0.6841637 0.7059132 0.1833211
vn 0.6027174 0.7180824 0.347979
vn 0.4793757 0.8681589 0.1284483
vn 0.4186193 0.8754107 0.24169
vn 0.2378327 0.9692133 0.06372708
vn 0.2063887 0.9711874 0.1191585
vn 0.1304464 0.9908391 0.03495302
vn 0.113039 0.9914449 0.06526309
vn 0.4619398 0.3826835 0.8001032
vn 0.4302141 0.5095716 0.7451528
vn 0.347979 0.7180825 0.6027173
vn 0.24169 0.8754107 0.4186193
vn 0.1191585 0.9711874 0.2063887
vn 0.0652631 0.9914449 0.113039
vn 0 0.5095716 0.8604283
vn 0 0.3826834 0.9238795
vn 0 0.7180825 0.695958
vn 0 0.8754107 0.4833799
vn 0 0.9711874 0.2383171
vn 0 0.9914449 0.1305262
vn -0.0652631 0.9914449 0.113039
vn -0.1191585 0.9711874 0.2063887
vn -0.24169 0.8754107 0.4186193
vn -0.347979 0.7180825 0.6027173
vn -0.4302141 0.5095716 0.7451528
vn -0.4619398 0.3826835 0.8001032
vn -0.8001032 0.3826835 0.4619398
vn -0.7451528 0.5095715 0.4302141
vn -0.6027174 0.7180824 0.347979
vn -0.4186193 0.8754107 0.24169
vn -0.2063887 0.9711874 0.1191585
vn -0.113039 0.9914449 0.0652631
vn 0 0 -1
vn -0.2378327 0.9692133 0.06372708
vn -0.1304464 0.9908391 0.03495302
vn -0.4793757 0.8681589 0.1284483
vn -0.6841637 0.7059132 0.1833211
vn -0.8384338 0.4965457 0.2246577
vn -0.8968088 0.3714704 0.2402992
vn 0 -1 0
vn 0 1 0
vn 0.8586164 0.1305262 0.4957224
vn 0.4957224 0.1305262 0.8586164
vn 0.9582091 0.1261506 0.2567514
vn 0 0.1305262 0.9914449
vn -0.4957224 0.1305262 0.8586164
vn -0.8586164 0.1305262 0.4957224
vn -0.9582091 0.1261506 0.2567514

vt 0.34375 0.1732362
vt 0.34375 0.125
vt 0.34375 0.08357865
vt 0.34375 0.05179492
vt 0.34375 0.03181484
vt 0.34375 0.025
vt 0.34375 0.225
vt 0.59375 0.225
vt 0.21875 0.225
vt 0.21875 0.1732362

usemtl colormap

f 3/1/3 2/2/2 1/1/1
f 2/2/2 3/1/3 4/2/4
f 4/2/4 5/3/5 2/2/2
f 5/3/5 4/2/4 6/3/6
f 5/3/5 8/4/8 7/4/7
f 8/4/8 5/3/5 6/3/6
f 7/4/7 10/5/10 9/5/9
f 10/5/10 7/4/7 8/4/8
f 9/5/9 12/6/12 11/6/11
f 12/6/12 9/5/9 10/5/10
f 13/1/13 4/2/4 3/1/3
f 4/2/4 13/1/13 14/2/14
f 4/2/4 15/3/15 6/3/6
f 15/3/15 4/2/4 14/2/14
f 6/3/6 16/4/16 8/4/8
f 16/4/16 6/3/6 15/3/15
f 8/4/8 17/5/17 10/5/10
f 17/5/17 8/4/8 16/4/16
f 10/5/10 18/6/18 12/6/12
f 18/6/18 10/5/10 17/5/17
f 13/1/13 19/2/19 14/2/14
f 19/2/19 13/1/13 20/1/20
f 14/2/14 21/3/21 15/3/15
f 21/3/21 14/2/14 19/2/19
f 15/3/15 22/4/22 16/4/16
f 22/4/22 15/3/15 21/3/21
f 16/4/16 23/5/23 17/5/17
f 23/5/23 16/4/16 22/4/22
f 17/5/17 24/6/24 18/6/18
f 24/6/24 17/5/17 23/5/23
f 23/5/23 25/6/25 24/6/24
f 25/6/25 23/5/23 26/5/26
f 22/4/22 26/5/26 23/5/23
f 26/5/26 22/4/22 27/4/27
f 28/3/28 22/4/22 21/3/21
f 22/4/22 28/3/28 27/4/27
f 19/2/19 28/3/28 21/3/21
f 28/3/28 19/2/19 29/2/29
f 20/1/20 29/2/29 19/2/19
f 29/2/29 20/1/20 30/1/30
f 32/2/32 30/1/30 31/1/31
f 30/1/30 32/2/32 29/2/29
f 32/2/32 28/3/28 29/2/29
f 28/3/28 32/2/32 33/3/33
f 33/3/33 27/4/27 28/3/28
f 27/4/27 33/3/33 34/4/34
f 34/4/34 26/5/26 27/4/27
f 26/5/26 34/4/34 35/5/35
f 35/5/35 25/6/25 26/5/26
f 25/6/25 35/5/35 36/6/36
f 38/5/37 11/6/37 37/6/37
f 11/6/37 38/5/37 9/5/37
f 9/5/37 38/5/37 39/4/37
f 9/5/37 39/4/37 7/4/37
f 7/4/37 39/4/37 40/3/37
f 7/4/37 40/3/37 5/3/37
f 5/3/37 40/3/37 41/2/37
f 5/3/37 41/2/37 2/2/37
f 2/2/37 41/2/37 42/1/37
f 2/2/37 42/1/37 1/1/37
f 1/1/37 42/1/37 43/7/37
f 1/1/37 43/7/37 44/7/37
f 38/5/38 36/6/36 35/5/35
f 36/6/36 38/5/38 37/6/39
f 39/4/40 35/5/35 34/4/34
f 35/5/35 39/4/40 38/5/38
f 40/3/41 34/4/34 33/3/33
f 34/4/34 40/3/41 39/4/40
f 40/3/41 32/2/32 41/2/42
f 32/2/32 40/3/41 33/3/33
f 41/2/42 31/1/31 42/1/43
f 31/1/31 41/2/42 32/2/32
f 12/6/44 37/6/44 11/6/44
f 37/6/44 12/6/44 18/6/44
f 37/6/44 18/6/44 24/6/44
f 37/6/44 24/6/44 25/6/44
f 37/6/44 25/6/44 36/6/44
f 43/8/45 45/8/45 44/8/45
f 45/8/45 43/8/45 46/8/45
f 46/8/45 43/8/45 47/8/45
f 47/8/45 43/8/45 48/8/45
f 48/8/45 43/8/45 49/8/45
f 46/9/47 3/10/46 45/9/46
f 3/10/46 46/9/47 13/10/47
f 45/9/46 1/10/48 44/9/48
f 1/10/48 45/9/46 3/10/46
f 46/9/47 20/10/49 13/10/47
f 20/10/49 46/9/47 47/9/49
f 47/9/49 30/10/50 20/10/49
f 30/10/50 47/9/49 48/9/50
f 31/10/51 48/9/50 49/9/51
f 48/9/50 31/10/51 30/10/50
f 42/10/52 49/9/51 43/9/52
f 49/9/51 42/10/52 31/10/51

g obstacle-end




usemtl colormap

f 3/1/3 2/2/2 1/1/1
f 2/2/2 3/1/3 4/2/4
f 4/2/4 5/3/5 2/2/2
f 5/3/5 4/2/4 6/3/6
f 5/3/5 8/4/8 7/4/7
f 8/4/8 5/3/5 6/3/6
f 7/4/7 10/5/10 9/5/9
f 10/5/10 7/4/7 8/4/8
f 9/5/9 12/6/12 11/6/11
f 12/6/12 9/5/9 10/5/10
f 13/1/13 4/2/4 3/1/3
f 4/2/4 13/1/13 14/2/14
f 4/2/4 15/3/15 6/3/6
f 15/3/15 4/2/4 14/2/14
f 6/3/6 16/4/16 8/4/8
f 16/4/16 6/3/6 15/3/15
f 8/4/8 17/5/17 10/5/10
f 17/5/17 8/4/8 16/4/16
f 10/5/10 18/6/18 12/6/12
f 18/6/18 10/5/10 17/5/17
f 13/1/13 19/2/19 14/2/14
f 19/2/19 13/1/13 20/1/20
f 14/2/14 21/3/21 15/3/15
f 21/3/21 14/2/14 19/2/19
f 15/3/15 22/4/22 16/4/16
f 22/4/22 15/3/15 21/3/21
f 16/4/16 23/5/23 17/5/17
f 23/5/23 16/4/16 22/4/22
f 17/5/17 24/6/24 18/6/18
f 24/6/24 17/5/17 23/5/23
f 23/5/23 25/6/25 24/6/24
f 25/6/25 23/5/23 26/5/26
f 22/4/22 26/5/26 23/5/23
f 26/5/26 22/4/22 27/4/27
f 28/3/28 22/4/22 21/3/21
f 22/4/22 28/3/28 27/4/27
f 19/2/19 28/3/28 21/3/21
f 28/3/28 19/2/19 29/2/29
f 20/1/20 29/2/29 19/2/19
f 29/2/29 20/1/20 30/1/30
f 32/2/32 30/1/30 31/1/31
f 30/1/30 32/2/32 29/2/29
f 32/2/32 28/3/28 29/2/29
f 28/3/28 32/2/32 33/3/33
f 33/3/33 27/4/27 28/3/28
f 27/4/27 33/3/33 34/4/34
f 34/4/34 26/5/26 27/4/27
f 26/5/26 34/4/34 35/5/35
f 35/5/35 25/6/25 26/5/26
f 25/6/25 35/5/35 36/6/36
f 38/5/37 11/6/37 37/6/37
f 11/6/37 38/5/37 9/5/37
f 9/5/37 38/5/37 39/4/37
f 9/5/37 39/4/37 7/4/37
f 7/4/37 39/4/37 40/3/37
f 7/4/37 40/3/37 5/3/37
f 5/3/37 40/3/37 41/2/37
f 5/3/37 41/2/37 2/2/37
f 2/2/37 41/2/37 42/1/37
f 2/2/37 42/1/37 1/1/37
f 1/1/37 42/1/37 43/7/37
f 1/1/37 43/7/37 44/7/37
f 38/5/38 36/6/36 35/5/35
f 36/6/36 38/5/38 37/6/39
f 39/4/40 35/5/35 34/4/34
f 35/5/35 39/4/40 38/5/38
f 40/3/41 34/4/34 33/3/33
f 34/4/34 40/3/41 39/4/40
f 40/3/41 32/2/32 41/2/42
f 32/2/32 40/3/41 33/3/33
f 41/2/42 31/1/31 42/1/43
f 31/1/31 41/2/42 32/2/32
f 12/6/44 37/6/44 11/6/44
f 37/6/44 12/6/44 18/6/44
f 37/6/44 18/6/44 24/6/44
f 37/6/44 24/6/44 25/6/44
f 37/6/44 25/6/44 36/6/44
f 43/8/45 45/8/45 44/8/45
f 45/8/45 43/8/45 46/8/45
f 46/8/45 43/8/45 47/8/45
f 47/8/45 43/8/45 48/8/45
f 48/8/45 43/8/45 49/8/45
f 46/9/47 3/10/46 45/9/46
f 3/10/46 46/9/47 13/10/47
f 45/9/46 1/10/48 44/9/48
f 1/10/48 45/9/46 3/10/46
f 46/9/47 20/10/49 13/10/47
f 20/10/49 46/9/47 47/9/49
f 47/9/49 30/10/50 20/10/49
f 30/10/50 47/9/49 48/9/50
f 31/10/51 48/9/50 49/9/51
f 48/9/50 31/10/51 30/10/50
f 42/10/52 49/9/51 43/9/52
f 49/9/51 42/10/52 31/10/51

