# This file uses centimeters as units for non-parametric coordinates.

mtllib FlatBlock_2.mtl
g default
v 33.000000 -0.000000 36.000000
v 43.000000 -0.000000 36.000000
v 33.000000 0.000000 26.000000
v 43.000000 0.000000 26.000000
v 33.000000 2.000000 36.000000
v 43.000000 2.000000 36.000000
v 43.000000 2.000000 26.000000
v 33.000000 2.000000 26.000000
vt 0.609962 0.498181
vt 0.609962 0.001993
vt 0.709201 0.001993
vt 0.709201 0.498181
vt 0.811066 0.998008
vt 0.811066 0.501820
vt 0.910303 0.501820
vt 0.910303 0.998008
vt 0.001817 0.001993
vt 0.498005 0.001993
vt 0.498005 0.498181
vt 0.001817 0.498181
vt 0.505078 0.498181
vt 0.505078 0.001993
vt 0.604315 0.001993
vt 0.604315 0.498181
vt 0.814082 0.001993
vt 0.814082 0.498181
vt 0.714844 0.498181
vt 0.714844 0.001993
vn 0.000000 1.000000 0.000000
vn 0.000000 1.000000 0.000000
vn 0.000000 1.000000 0.000000
vn 0.000000 1.000000 0.000000
vn 0.000000 0.000000 1.000000
vn 0.000000 0.000000 1.000000
vn 0.000000 0.000000 1.000000
vn 0.000000 0.000000 1.000000
vn 1.000000 0.000000 0.000000
vn 1.000000 0.000000 0.000000
vn 1.000000 0.000000 0.000000
vn 1.000000 0.000000 0.000000
vn 0.000000 0.000000 -1.000000
vn 0.000000 0.000000 -1.000000
vn 0.000000 0.000000 -1.000000
vn 0.000000 0.000000 -1.000000
vn -1.000000 0.000000 0.000000
vn -1.000000 0.000000 0.000000
vn -1.000000 0.000000 0.000000
vn -1.000000 0.000000 0.000000
s off
g FlatBlock_2
usemtl lambert3SG
f 5/9/1 6/10/2 7/11/3 8/12/4
usemtl lambert4SG
f 1/13/5 2/14/6 6/15/7 5/16/8
f 2/1/9 4/2/10 7/3/11 6/4/12
f 4/17/13 3/18/14 8/19/15 7/20/16
f 3/5/17 1/6/18 5/7/19 8/8/20
