# This file uses centimeters as units for non-parametric coordinates.

mtllib FlatBlock__Half_4.mtl
g default
v 22.000000 0.000000 51.000000
v 32.000000 0.000000 51.000000
v 32.000000 4.000000 51.000000
v 22.000000 4.000000 51.000000
v 22.000000 0.000000 56.000000
v 22.000000 4.000000 56.000000
v 32.000000 4.000000 56.000000
v 32.000000 0.000000 56.000000
vt 0.998008 0.930338
vt 0.751477 0.930338
vt 0.751477 0.622176
vt 0.998008 0.622176
vt 0.498810 0.930338
vt 0.498810 0.622176
vt 0.745341 0.622176
vt 0.745341 0.930338
vt 0.001992 0.618185
vt 0.001992 0.001860
vt 0.310154 0.001860
vt 0.310154 0.618185
vt 0.564447 0.001856
vt 0.564447 0.618181
vt 0.317917 0.618181
vt 0.317917 0.001856
vt 0.817812 0.001859
vt 0.817812 0.618184
vt 0.571281 0.618184
vt 0.571281 0.001859
vn 0.000000 1.000000 0.000000
vn 0.000000 1.000000 0.000000
vn 0.000000 1.000000 0.000000
vn 0.000000 1.000000 0.000000
vn 1.000000 0.000000 0.000000
vn 1.000000 0.000000 0.000000
vn 1.000000 0.000000 0.000000
vn 1.000000 0.000000 0.000000
vn 0.000000 0.000000 -1.000000
vn 0.000000 0.000000 -1.000000
vn 0.000000 0.000000 -1.000000
vn 0.000000 0.000000 -1.000000
vn -1.000000 0.000000 0.000000
vn -1.000000 0.000000 0.000000
vn -1.000000 0.000000 0.000000
vn -1.000000 0.000000 0.000000
vn 0.000000 0.000000 1.000000
vn 0.000000 0.000000 1.000000
vn 0.000000 0.000000 1.000000
vn 0.000000 0.000000 1.000000
s off
g FlatBlock__Half_4
usemtl lambert3SG
f 6/9/1 7/10/2 3/11/3 4/12/4
usemtl lambert4SG
f 7/1/5 8/2/6 2/3/7 3/4/8
f 2/13/9 1/14/10 4/15/11 3/16/12
f 1/5/13 5/6/14 6/7/15 4/8/16
f 7/17/17 6/18/18 5/19/19 8/20/20
