# This file uses centimeters as units for non-parametric coordinates.

mtllib FlatBlock_1.mtl
g default
v 33.000000 -0.000000 25.000000
v 43.000000 -0.000000 25.000000
v 33.000000 0.000000 15.000000
v 43.000000 0.000000 15.000000
v 33.000000 1.000000 25.000000
v 43.000000 1.000000 25.000000
v 43.000000 1.000000 15.000000
v 33.000000 1.000000 15.000000
vt 0.775695 0.689937
vt 0.775695 0.001378
vt 0.844550 0.001378
vt 0.844550 0.689937
vt 0.929153 0.689937
vt 0.929153 0.001378
vt 0.998009 0.001378
vt 0.998009 0.689937
vt 0.001992 0.001376
vt 0.690551 0.001376
vt 0.690551 0.689935
vt 0.001992 0.689935
vt 0.698969 0.689937
vt 0.698969 0.001378
vt 0.767825 0.001378
vt 0.767825 0.689937
vt 0.921281 0.001381
vt 0.921281 0.689939
vt 0.852425 0.689939
vt 0.852425 0.001381
vn 0.000000 1.000000 0.000000
vn 0.000000 1.000000 0.000000
vn 0.000000 1.000000 0.000000
vn 0.000000 1.000000 0.000000
vn 0.000000 0.000000 1.000000
vn 0.000000 0.000000 1.000000
vn 0.000000 0.000000 1.000000
vn 0.000000 0.000000 1.000000
vn 1.000000 0.000000 0.000000
vn 1.000000 0.000000 0.000000
vn 1.000000 0.000000 0.000000
vn 1.000000 0.000000 0.000000
vn 0.000000 0.000000 -1.000000
vn 0.000000 0.000000 -1.000000
vn 0.000000 0.000000 -1.000000
vn 0.000000 0.000000 -1.000000
vn -1.000000 0.000000 0.000000
vn -1.000000 0.000000 0.000000
vn -1.000000 0.000000 0.000000
vn -1.000000 0.000000 0.000000
s off
g FlatBlock_1
usemtl lambert3SG
f 5/9/1 6/10/2 7/11/3 8/12/4
usemtl lambert4SG
f 1/13/5 2/14/6 6/15/7 5/16/8
f 2/1/9 4/2/10 7/3/11 6/4/12
f 4/17/13 3/18/14 8/19/15 7/20/16
f 3/5/17 1/6/18 5/7/19 8/8/20
