# This file uses centimeters as units for non-parametric coordinates.

mtllib FlatBlock__Half_3.mtl
g default
v 22.000000 0.000000 39.000000
v 32.000000 0.000000 39.000000
v 32.000000 3.000000 39.000000
v 22.000000 3.000000 39.000000
v 22.000000 0.000000 44.000000
v 22.000000 3.000000 44.000000
v 32.000000 3.000000 44.000000
v 32.000000 0.000000 44.000000
vt 0.940065 0.998008
vt 0.741613 0.998008
vt 0.741613 0.667256
vt 0.940065 0.667256
vt 0.537383 0.998008
vt 0.537383 0.667256
vt 0.735835 0.667256
vt 0.735835 0.998008
vt 0.001877 0.663496
vt 0.001877 0.001992
vt 0.332628 0.001992
vt 0.332628 0.663496
vt 0.538297 0.001992
vt 0.538297 0.663496
vt 0.339847 0.663496
vt 0.339847 0.001992
vt 0.743909 0.001992
vt 0.743909 0.663496
vt 0.545457 0.663496
vt 0.545457 0.001992
vn 0.000000 1.000000 0.000000
vn 0.000000 1.000000 0.000000
vn 0.000000 1.000000 0.000000
vn 0.000000 1.000000 0.000000
vn 1.000000 0.000000 0.000000
vn 1.000000 0.000000 0.000000
vn 1.000000 0.000000 0.000000
vn 1.000000 0.000000 0.000000
vn 0.000000 0.000000 -1.000000
vn 0.000000 0.000000 -1.000000
vn 0.000000 0.000000 -1.000000
vn 0.000000 0.000000 -1.000000
vn -1.000000 0.000000 0.000000
vn -1.000000 0.000000 0.000000
vn -1.000000 0.000000 0.000000
vn -1.000000 0.000000 0.000000
vn 0.000000 0.000000 1.000000
vn 0.000000 0.000000 1.000000
vn 0.000000 0.000000 1.000000
vn 0.000000 0.000000 1.000000
s off
g FlatBlock__Half_3
usemtl lambert3SG
f 6/9/1 7/10/2 3/11/3 4/12/4
usemtl lambert4SG
f 7/1/5 8/2/6 2/3/7 3/4/8
f 2/13/9 1/14/10 4/15/11 3/16/12
f 1/5/13 5/6/14 6/7/15 4/8/16
f 7/17/17 6/18/18 5/19/19 8/20/20
