# This file uses centimeters as units for non-parametric coordinates.

mtllib Ledge_Stairs__SML_R.mtl
g default
v 98.000000 -0.000000 37.000000
v 96.000000 -0.000000 37.000000
v 94.000000 -0.000000 37.000000
v 92.000000 -0.000000 37.000000
v 90.000000 -0.000000 37.000000
v 88.000000 -0.000000 37.000000
v 98.000000 0.000000 42.000000
v 88.000000 0.000000 42.000000
v 98.000000 0.000000 47.000000
v 96.000000 0.000000 47.000000
v 94.000000 0.000000 47.000000
v 92.000000 0.000000 47.000000
v 90.000000 0.000000 47.000000
v 88.000000 0.000000 47.000000
v 98.000000 1.000000 37.000000
v 96.000000 1.000000 37.000000
v 94.000000 1.000000 37.000000
v 92.000000 1.000000 37.000000
v 90.000000 1.000000 37.000000
v 88.000000 1.000000 37.000000
v 98.000000 1.000000 42.000000
v 90.000000 1.000000 42.000000
v 88.000000 1.000000 42.000000
v 98.000000 1.000000 47.000000
v 96.000000 1.000000 47.000000
v 94.000000 1.000000 47.000000
v 92.000000 1.000000 47.000000
v 90.000000 1.000000 47.000000
v 88.000000 1.000000 47.000000
v 98.000000 2.000000 37.000000
v 96.000000 2.000000 37.000000
v 94.000000 2.000000 37.000000
v 92.000000 2.000000 37.000000
v 90.000000 2.000000 37.000000
v 98.000000 2.000000 42.000000
v 92.000000 2.000000 42.000000
v 90.000000 2.000000 42.000000
v 98.000000 2.000000 47.000000
v 96.000000 2.000000 47.000000
v 94.000000 2.000000 47.000000
v 92.000000 2.000000 47.000000
v 90.000000 2.000000 47.000000
v 98.000000 3.000000 37.000000
v 96.000000 3.000000 37.000000
v 94.000000 3.000000 37.000000
v 92.000000 3.000000 37.000000
v 98.000000 3.000000 42.000000
v 94.000000 3.000000 42.000000
v 92.000000 3.000000 42.000000
v 98.000000 3.000000 47.000000
v 96.000000 3.000000 47.000000
v 94.000000 3.000000 47.000000
v 92.000000 3.000000 47.000000
v 98.000000 3.999999 37.000000
v 96.000000 3.999999 37.000000
v 94.000000 3.999999 37.000000
v 98.000000 3.999999 42.000000
v 96.000000 3.999999 42.000000
v 94.000000 3.999999 42.000000
v 98.000000 3.999999 47.000000
v 96.000000 3.999999 47.000000
v 94.000000 3.999999 47.000000
v 98.000000 4.999999 37.000000
v 96.000000 4.999999 37.000000
v 98.000000 4.999999 42.000000
v 96.000000 4.999999 42.000000
v 98.000000 4.999999 47.000000
v 96.000000 4.999999 47.000000
v 98.000000 0.000000 46.000000
v 98.000000 1.000000 46.000000
v 98.000000 2.000000 46.000000
v 98.000000 3.000000 46.000000
v 98.000000 4.000000 46.000000
v 98.000000 4.999999 46.000000
v 88.000000 1.000000 46.000000
v 88.000000 0.000000 46.000000
v 98.000000 0.000000 45.000000
v 88.000000 0.000000 45.000000
v 88.000000 1.000000 45.000000
v 90.000000 1.000000 45.000000
v 90.000000 2.000000 45.000000
v 92.000000 2.000000 45.000000
v 92.000000 3.000000 45.000000
v 94.000000 3.000000 45.000000
v 94.000000 3.999999 45.000000
v 96.000000 3.999999 45.000000
v 96.000000 4.999999 45.000000
v 98.000000 4.999999 45.000000
v 98.000000 4.000000 45.000000
v 98.000000 3.000000 45.000000
v 98.000000 2.000000 45.000000
v 98.000000 1.000000 45.000000
v 98.000000 8.250000 46.000000
v 98.000000 8.250000 47.000000
v 96.000000 7.250000 46.000000
v 96.000000 7.250000 47.000000
v 98.000000 8.250000 45.000000
v 96.000000 7.250000 45.000000
v 94.000000 6.250000 46.000000
v 94.000000 6.250000 47.000000
v 94.000000 6.250000 44.999996
v 92.000000 5.250000 46.000000
v 92.000000 5.250000 47.000000
v 92.000000 5.250000 44.999996
v 90.000000 4.250000 46.000000
v 90.000000 4.250000 47.000000
v 90.000000 4.250000 45.000000
v 88.000000 3.250000 46.000000
v 88.000000 3.250000 47.000000
v 88.000000 3.250000 45.000000
v 98.000000 0.000000 45.500000
v 88.000000 0.000000 45.500000
v 88.000000 1.000000 45.500000
v 88.000000 3.250000 45.500000
v 90.000000 4.250000 45.500000
v 92.000000 5.250000 45.500000
v 94.000000 6.250000 45.499996
v 96.000000 7.250000 45.500000
v 98.000000 8.250000 45.500000
v 98.000000 4.999999 45.500000
v 98.000000 4.000000 45.500000
v 98.000000 3.000000 45.500000
v 98.000000 2.000000 45.500000
v 98.000000 1.000000 45.500000
v 90.000000 3.750000 45.000000
v 88.000000 2.750000 45.000000
v 92.000000 4.750000 45.000000
v 94.000000 5.750000 45.000000
v 96.000000 6.750000 45.000000
v 96.000000 6.750000 47.000000
v 98.000000 7.750000 47.000000
v 98.000000 7.750000 46.000000
v 98.000000 7.750000 45.500000
v 98.000000 7.750000 45.000000
v 94.000000 5.750000 47.000000
v 92.000000 4.750000 47.000000
v 90.000000 3.750000 47.000000
v 88.000000 2.750000 47.000000
v 88.000000 2.750000 46.000000
v 88.000000 2.750000 45.500000
vt 0.318538 0.382208
vt 0.280517 0.382208
vt 0.280517 0.192101
vt 0.318538 0.192101
vt 0.280517 0.078036
vt 0.318538 0.078036
vt 0.280517 0.059025
vt 0.318538 0.059025
vt 0.280517 0.040015
vt 0.318538 0.040015
vt 0.385076 0.059025
vt 0.385076 0.078036
vt 0.280517 0.001993
vt 0.318538 0.001993
vt 0.385076 0.040015
vt 0.404086 0.059025
vt 0.404086 0.078036
vt 0.385076 0.001993
vt 0.404086 0.040015
vt 0.404086 0.001993
vt 0.449587 0.192101
vt 0.411565 0.192101
vt 0.411565 0.001993
vt 0.449587 0.001993
vt 0.449587 0.306165
vt 0.411565 0.306165
vt 0.487608 0.192101
vt 0.487608 0.001993
vt 0.449587 0.325176
vt 0.411565 0.325176
vt 0.487608 0.306165
vt 0.525630 0.192101
vt 0.525630 0.001993
vt 0.449587 0.344187
vt 0.411565 0.344187
vt 0.487608 0.325176
vt 0.525630 0.306165
vt 0.563652 0.192101
vt 0.563652 0.001993
vt 0.449587 0.382208
vt 0.411565 0.382208
vt 0.487608 0.344187
vt 0.525630 0.325176
vt 0.563652 0.306165
vt 0.601673 0.001993
vt 0.601673 0.192101
vt 0.487608 0.382208
vt 0.525630 0.344187
vt 0.563652 0.325176
vt 0.601673 0.306165
vt 0.525630 0.382208
vt 0.563652 0.344187
vt 0.601673 0.325176
vt 0.563652 0.382208
vt 0.601673 0.344187
vt 0.706232 0.306165
vt 0.706232 0.325176
vt 0.601673 0.382208
vt 0.706232 0.344187
vt 0.725243 0.306165
vt 0.725243 0.325176
vt 0.706232 0.382208
vt 0.725243 0.344187
vt 0.725243 0.382208
vt 0.121967 0.998008
vt 0.083946 0.998008
vt 0.083946 0.807900
vt 0.121967 0.807900
vt 0.083946 0.693835
vt 0.121967 0.693835
vt 0.167470 0.998008
vt 0.129448 0.998008
vt 0.129448 0.807900
vt 0.167470 0.807900
vt 0.129448 0.693835
vt 0.167470 0.693835
vt 0.212972 0.998008
vt 0.174952 0.998008
vt 0.174952 0.807900
vt 0.212972 0.807900
vt 0.174952 0.693835
vt 0.212972 0.693835
vt 0.258475 0.998008
vt 0.220454 0.998008
vt 0.220454 0.807900
vt 0.258475 0.807900
vt 0.220454 0.693835
vt 0.258475 0.693835
vt 0.255188 0.576043
vt 0.255188 0.385935
vt 0.331231 0.385935
vt 0.331231 0.576043
vt 0.331231 0.690108
vt 0.255188 0.690108
vt 0.173415 0.576043
vt 0.173415 0.385935
vt 0.249458 0.385935
vt 0.249458 0.576043
vt 0.249458 0.690108
vt 0.173415 0.690108
vt 0.091642 0.576043
vt 0.091642 0.385935
vt 0.167685 0.385935
vt 0.167685 0.576043
vt 0.167685 0.690108
vt 0.091642 0.690108
vt 0.009869 0.576043
vt 0.009869 0.385935
vt 0.085913 0.385935
vt 0.085913 0.576043
vt 0.085913 0.690108
vt 0.009869 0.690108
vt 0.001860 0.883942
vt 0.001860 0.693834
vt 0.077903 0.693834
vt 0.077903 0.883942
vt 0.077903 0.998007
vt 0.001860 0.998007
vt 0.077903 0.382207
vt 0.039881 0.382207
vt 0.039881 0.306164
vt 0.077903 0.306164
vt 0.020871 0.382207
vt 0.020871 0.306164
vt 0.039881 0.230121
vt 0.077903 0.230121
vt 0.001860 0.382207
vt 0.001860 0.306164
vt 0.020871 0.230121
vt 0.039881 0.154077
vt 0.077903 0.154077
vt 0.001860 0.230121
vt 0.020871 0.154077
vt 0.039881 0.078034
vt 0.077903 0.078034
vt 0.001860 0.154077
vt 0.020871 0.078034
vt 0.039881 0.001991
vt 0.077903 0.001991
vt 0.001860 0.078034
vt 0.020871 0.001991
vt 0.001860 0.001991
vt 0.121968 0.382208
vt 0.083947 0.382208
vt 0.083947 0.306165
vt 0.121968 0.306165
vt 0.083947 0.230122
vt 0.121968 0.230122
vt 0.159990 0.382208
vt 0.159990 0.306165
vt 0.083947 0.154079
vt 0.121968 0.154079
vt 0.159990 0.230122
vt 0.198012 0.382208
vt 0.198012 0.306165
vt 0.083947 0.078036
vt 0.121968 0.078036
vt 0.159990 0.154079
vt 0.198012 0.230122
vt 0.236033 0.382208
vt 0.236033 0.306165
vt 0.083947 0.001993
vt 0.121968 0.001993
vt 0.159990 0.078036
vt 0.198012 0.154079
vt 0.236033 0.230122
vt 0.274055 0.382208
vt 0.274055 0.306165
vt 0.894004 0.690106
vt 0.932026 0.690106
vt 0.932026 0.766151
vt 0.894004 0.766151
vt 0.894004 0.614065
vt 0.932026 0.614065
vt 0.855982 0.690106
vt 0.855982 0.766151
vt 0.894004 0.538021
vt 0.932026 0.538021
vt 0.855982 0.614065
vt 0.817962 0.690106
vt 0.817962 0.766151
vt 0.894004 0.461979
vt 0.932026 0.461979
vt 0.855982 0.538021
vt 0.817962 0.614065
vt 0.779940 0.690106
vt 0.779940 0.766151
vt 0.894004 0.385935
vt 0.932026 0.385935
vt 0.855982 0.461979
vt 0.817962 0.538021
vt 0.779940 0.614065
vt 0.741918 0.766151
vt 0.741918 0.690106
vt 0.789445 0.461979
vt 0.827467 0.385935
vt 0.751423 0.538021
vt 0.713401 0.614065
vt 0.675381 0.690106
vt 0.637359 0.766151
vt 0.770435 0.461979
vt 0.808455 0.385935
vt 0.732413 0.538021
vt 0.694391 0.614065
vt 0.656369 0.690106
vt 0.618347 0.766151
vt 0.593607 0.766152
vt 0.555585 0.690109
vt 0.574596 0.690109
vt 0.612617 0.766152
vt 0.489048 0.690109
vt 0.489048 0.766152
vt 0.517564 0.614065
vt 0.536575 0.614065
vt 0.451026 0.614065
vt 0.451026 0.690109
vt 0.479542 0.538022
vt 0.498553 0.538022
vt 0.413005 0.538022
vt 0.413005 0.614065
vt 0.441521 0.461979
vt 0.460532 0.461979
vt 0.374983 0.461979
vt 0.374983 0.538022
vt 0.403499 0.385936
vt 0.422510 0.385936
vt 0.336961 0.385936
vt 0.336961 0.461979
vn 0.000000 1.000000 0.000000
vn 0.000000 1.000000 0.000000
vn 0.000000 1.000000 0.000000
vn 0.000000 1.000000 0.000000
vn 0.000000 1.000000 0.000000
vn 0.000000 1.000000 0.000000
vn 0.000000 1.000000 0.000000
vn 0.000000 1.000000 0.000000
vn 0.000000 1.000000 0.000000
vn 0.000000 1.000000 0.000000
vn 0.000000 1.000000 0.000000
vn 0.000000 1.000000 0.000000
vn 0.000000 1.000000 0.000000
vn 0.000000 1.000000 0.000000
vn 0.000000 1.000000 0.000000
vn 0.000000 1.000000 0.000000
vn 0.000000 1.000000 0.000000
vn 0.000000 1.000000 0.000000
vn 0.000000 1.000000 0.000000
vn 0.000000 1.000000 0.000000
vn -0.447214 0.894427 0.000000
vn -0.447214 0.894427 0.000000
vn -0.447213 0.894427 0.000000
vn -0.447214 0.894427 0.000000
vn -0.447213 0.894427 0.000000
vn -0.447214 0.894427 0.000000
vn -0.447213 0.894427 0.000000
vn -0.447214 0.894427 0.000000
vn -0.447214 0.894427 0.000000
vn -0.447214 0.894427 0.000000
vn -0.447214 0.894427 0.000000
vn -0.447214 0.894427 0.000000
vn 0.000000 0.000000 -1.000000
vn 0.000000 0.000000 -1.000000
vn 0.000000 0.000000 -1.000000
vn 0.000000 0.000000 -1.000000
vn 0.000000 0.000000 -1.000000
vn 0.000000 0.000000 -1.000000
vn 0.000000 0.000000 -1.000000
vn 0.000000 0.000000 -1.000000
vn 0.000000 0.000000 -1.000000
vn 0.000000 0.000000 -1.000000
vn 0.000000 0.000000 -1.000000
vn 0.000000 0.000000 -1.000000
vn -1.000000 0.000000 0.000000
vn -1.000000 0.000000 0.000000
vn -1.000000 0.000000 0.000000
vn -1.000000 0.000000 0.000000
vn 1.000000 0.000000 0.000000
vn 1.000000 0.000000 0.000000
vn 1.000000 0.000000 0.000000
vn 1.000000 0.000000 0.000000
vn -1.000000 0.000000 0.000000
vn -1.000000 0.000000 0.000000
vn -1.000000 0.000000 0.000000
vn -1.000000 0.000000 0.000000
vn 1.000000 0.000000 0.000000
vn 1.000000 0.000000 0.000000
vn 1.000000 0.000000 0.000000
vn 1.000000 0.000000 0.000000
vn 0.000000 0.000000 1.000000
vn 0.000000 0.000000 1.000000
vn 0.000000 0.000000 1.000000
vn 0.000000 0.000000 1.000000
vn 0.000000 0.000000 1.000000
vn 0.000000 0.000000 1.000000
vn 0.000000 0.000000 1.000000
vn 0.000000 0.000000 1.000000
vn -0.000001 0.000000 1.000000
vn 0.000000 0.000000 1.000000
vn -0.000001 0.000000 1.000000
vn 0.000000 0.000000 1.000000
vn 0.000000 0.000000 -1.000000
vn 0.000000 0.000000 -1.000000
vn 0.000000 0.000000 -1.000000
vn 0.000000 0.000000 -1.000000
vn 0.000000 0.000000 -1.000000
vn -1.000000 0.000000 0.000000
vn -1.000000 0.000000 0.000000
vn -1.000000 0.000000 0.000000
vn -1.000000 0.000000 0.000000
vn 1.000000 0.000000 0.000000
vn 1.000000 0.000000 0.000000
vn 1.000000 0.000000 0.000000
vn 1.000000 0.000000 0.000000
vn 0.000000 0.000000 1.000000
vn 0.000000 0.000000 1.000000
vn 0.000000 0.000000 1.000000
vn -0.000001 0.000000 1.000000
vn -0.000001 0.000000 1.000000
vn 0.000000 0.000000 -1.000000
vn 0.000000 0.000000 -1.000000
vn 0.000000 0.000000 -1.000000
vn 0.000000 0.000000 -1.000000
vn -1.000000 0.000000 0.000000
vn -1.000000 0.000000 0.000000
vn -1.000000 0.000000 0.000000
vn -1.000000 0.000000 0.000000
vn 1.000000 0.000000 0.000000
vn 1.000000 0.000000 0.000000
vn 1.000000 0.000000 0.000000
vn 1.000000 0.000000 0.000000
vn 0.000000 0.000000 1.000000
vn 0.000000 0.000000 1.000000
vn -0.000001 0.000000 1.000000
vn -0.000001 0.000000 1.000000
vn 0.000000 0.000000 -1.000000
vn 0.000000 0.000000 -1.000000
vn 0.000000 0.000000 -1.000000
vn -1.000000 0.000000 0.000000
vn -1.000000 0.000000 0.000000
vn -1.000000 0.000000 0.000000
vn -1.000000 0.000000 0.000000
vn 1.000000 0.000000 0.000000
vn 1.000000 0.000000 0.000000
vn 1.000000 0.000000 0.000000
vn 1.000000 0.000000 0.000000
vn 0.000000 0.000000 1.000000
vn 0.000000 0.000000 1.000000
vn 0.000000 0.000000 1.000000
vn 0.000000 0.000000 -1.000000
vn 0.000000 0.000000 -1.000000
vn -1.000000 0.000000 0.000000
vn -1.000000 0.000000 0.000000
vn -1.000000 0.000000 0.000000
vn -1.000000 0.000000 0.000000
vn 1.000000 0.000000 0.000000
vn 1.000000 0.000000 0.000000
vn 1.000000 0.000000 0.000000
vn 1.000000 0.000000 0.000000
vn 0.000000 0.000000 1.000000
vn 0.000000 0.000000 1.000000
vn 1.000000 0.000000 0.000000
vn 1.000000 0.000000 0.000000
vn 1.000000 0.000000 0.000000
vn 1.000000 0.000000 0.000000
vn 1.000000 0.000000 0.000000
vn 1.000000 0.000000 0.000000
vn 0.000000 1.000000 0.000000
vn 0.000000 1.000000 0.000000
vn -1.000000 0.000000 0.000000
vn -1.000000 0.000000 0.000000
vn 0.000000 1.000000 0.000000
vn 0.000000 1.000000 0.000000
vn -1.000000 0.000000 0.000000
vn -1.000000 0.000000 0.000000
vn 0.000000 1.000000 0.000000
vn 0.000000 1.000000 0.000000
vn -1.000000 0.000000 0.000000
vn -1.000000 0.000000 0.000000
vn 0.000000 1.000000 0.000000
vn 0.000000 1.000000 0.000000
vn -1.000000 0.000000 0.000000
vn -1.000000 0.000000 0.000000
vn 0.000000 1.000000 0.000000
vn 0.000000 1.000000 0.000000
vn -1.000000 0.000000 0.000000
vn -1.000000 0.000000 0.000000
vn -1.000000 0.000000 0.000000
vn -1.000000 0.000000 0.000000
vn -0.447214 0.894427 0.000000
vn -0.447213 0.894427 0.000000
vn -0.447213 0.894428 0.000000
vn -0.447214 0.894427 0.000000
vn -0.447213 0.894427 0.000000
vn -0.447214 0.894427 0.000000
vn -0.447213 0.894427 0.000000
vn -0.447214 0.894427 0.000000
vn -0.447213 0.894427 0.000000
vn -0.447214 0.894427 0.000000
vn -0.447214 0.894427 0.000000
vn -0.447214 0.894427 0.000000
vn 1.000000 0.000000 0.000000
vn 1.000000 0.000000 0.000000
vn 1.000000 0.000000 0.000000
vn 1.000000 0.000000 0.000000
vn 1.000000 0.000000 0.000000
vn 1.000000 0.000000 0.000000
vn 1.000000 0.000000 0.000000
vn 1.000000 0.000000 0.000000
vn 1.000000 0.000000 0.000000
vn 1.000000 0.000000 0.000000
vn 0.000000 0.000000 1.000000
vn 0.000000 0.000000 1.000000
vn 0.000000 0.000000 1.000000
vn 0.000000 0.000000 1.000000
vn 1.000000 0.000000 0.000000
vn 1.000000 0.000000 0.000000
vn 1.000000 0.000000 0.000000
vn 1.000000 0.000000 0.000000
vn 0.000000 0.000000 -1.000000
vn 0.000000 -0.000000 -1.000000
vn 0.000000 -0.000001 -1.000000
vn 0.000000 0.000000 -1.000000
vn -0.000000 0.000000 1.000000
vn 0.000000 0.000000 1.000000
vn 0.000000 -0.000001 -1.000000
vn 0.000001 -0.000005 -1.000000
vn -0.000001 0.000000 1.000000
vn 0.000000 0.000000 1.000000
vn 0.000000 -0.000001 -1.000000
vn 0.000002 -0.000006 -1.000000
vn -0.000001 0.000000 1.000000
vn 0.000000 0.000000 1.000000
vn 0.000000 -0.000000 -1.000000
vn 0.000000 -0.000002 -1.000000
vn 0.000000 0.000000 -1.000000
vn 0.000000 0.000000 -1.000000
vn -1.000000 0.000000 0.000000
vn -1.000000 0.000000 0.000000
vn -1.000000 0.000000 0.000000
vn -1.000000 0.000000 0.000000
vn 0.000001 0.000000 -1.000000
vn 0.000001 0.000000 -1.000000
vn 0.000000 0.000000 -1.000000
vn 0.000000 0.000000 -1.000000
vn 0.000000 0.000000 -1.000000
vn 0.000000 0.000000 -1.000000
vn 0.000000 0.000000 -1.000000
vn 0.000000 0.000000 -1.000000
vn 0.000000 0.000000 -1.000000
vn 0.000000 0.000000 -1.000000
vn -0.000002 0.000000 1.000000
vn 0.000000 0.000000 1.000000
vn -1.000000 0.000000 0.000000
vn -1.000000 0.000000 0.000000
vn -1.000000 0.000000 0.000000
vn -1.000000 0.000000 0.000000
s 1
g Ledge_Stairs__SML_R
usemtl lambert3SG
f 65/89/1 63/90/2 64/91/3 66/92/4
s 2
f 58/95/5 55/96/6 56/97/7 59/98/8
s 3
f 48/101/9 45/102/10 46/103/11 49/104/12
s 4
f 36/107/13 33/108/14 34/109/15 37/110/16
s 5
f 22/113/17 19/114/18 20/115/19 23/116/20
s 6
f 94/119/21 93/120/22 95/121/23 96/122/24
f 96/122/24 95/121/23 99/125/25 100/126/26
f 100/126/26 99/125/25 102/130/27 103/131/28
f 103/131/28 102/130/27 105/134/29 106/135/30
f 106/135/30 105/134/29 108/138/31 109/139/32
s 7
usemtl lambert4SG
f 15/143/33 1/144/34 2/145/35 16/146/36
f 16/146/36 2/145/35 3/147/37 17/148/38
f 17/148/38 3/147/37 4/151/39 18/152/40
f 18/152/40 4/151/39 5/156/41 19/157/42
f 19/157/42 5/156/41 6/162/43 20/163/44
s 8
f 20/1/45 6/2/46 8/3/47 23/4/48
s 9
f 21/21/49 7/22/50 1/23/51 15/24/52
s 8
f 75/10/53 76/9/54 14/13/55 29/14/56
s 9
f 24/40/57 9/41/58 69/35/59 70/34/60
s 12
f 25/169/61 10/170/62 9/171/63 24/172/64
f 26/173/65 11/174/66 10/170/62 25/169/61
f 27/177/67 12/178/68 11/174/66 26/173/65
f 28/182/69 13/183/70 12/178/68 27/177/67
f 28/182/69 29/188/71 14/189/72 13/183/70
s 7
f 30/149/73 15/143/33 16/146/36 31/150/74
f 31/150/74 16/146/36 17/148/38 32/153/75
f 32/153/75 17/148/38 18/152/40 33/158/76
f 33/158/76 18/152/40 19/157/42 34/164/77
s 13
f 34/65/78 19/66/79 22/67/80 37/68/81
s 9
f 35/27/82 21/21/49 15/24/52 30/28/83
f 38/47/84 24/40/57 70/34/60 71/42/85
s 12
f 39/175/86 25/169/61 24/172/64 38/176/87
f 40/179/88 26/173/65 25/169/61 39/175/86
f 41/184/89 27/177/67 26/173/65 40/179/88
f 41/184/89 42/190/90 28/182/69 27/177/67
s 7
f 43/154/91 30/149/73 31/150/74 44/155/92
f 44/155/92 31/150/74 32/153/75 45/159/93
f 45/159/93 32/153/75 33/158/76 46/165/94
s 14
f 46/71/95 33/72/96 36/73/97 49/74/98
s 9
f 47/32/99 35/27/82 30/28/83 43/33/100
f 50/51/101 38/47/84 71/42/85 72/48/102
s 12
f 51/180/103 39/175/86 38/176/87 50/181/104
f 52/185/105 40/179/88 39/175/86 51/180/103
f 52/185/105 53/191/106 41/184/89 40/179/88
s 7
f 54/160/107 43/154/91 44/155/92 55/161/108
f 55/161/108 44/155/92 45/159/93 56/166/109
s 15
f 56/77/110 45/78/111 48/79/112 59/80/113
s 9
f 57/38/114 47/32/99 43/33/100 54/39/115
f 60/54/116 50/51/101 72/48/102 73/52/117
s 12
f 61/186/118 51/180/103 50/181/104 60/187/119
f 61/186/118 62/192/120 52/185/105 51/180/103
s 7
f 63/167/121 54/160/107 55/161/108 64/168/122
s 16
f 64/83/123 55/84/124 58/85/125 66/86/126
s 9
f 63/45/127 65/46/128 57/38/114 54/39/115
f 73/52/117 74/55/129 67/58/130 60/54/116
s 12
f 67/193/131 68/194/132 61/186/118 60/187/119
s 9
f 92/25/133 77/26/134 7/22/50 21/21/49
f 91/31/135 92/25/133 21/21/49 35/27/82
f 90/37/136 91/31/135 35/27/82 47/32/99
f 89/44/137 90/37/136 47/32/99 57/38/114
f 88/50/138 89/44/137 57/38/114 65/46/128
s 1
usemtl lambert3SG
f 87/93/139 88/94/140 65/89/1 66/92/4
s 16
usemtl lambert4SG
f 86/87/141 87/88/142 66/86/126 58/85/125
s 2
usemtl lambert3SG
f 85/99/143 86/100/144 58/95/5 59/98/8
s 15
usemtl lambert4SG
f 84/81/145 85/82/146 59/80/113 48/79/112
s 3
usemtl lambert3SG
f 83/105/147 84/106/148 48/101/9 49/104/12
s 14
usemtl lambert4SG
f 82/75/149 83/76/150 49/74/98 36/73/97
s 4
usemtl lambert3SG
f 81/111/151 82/112/152 36/107/13 37/110/16
s 13
usemtl lambert4SG
f 80/69/153 81/70/154 37/68/81 22/67/80
s 5
usemtl lambert3SG
f 79/117/155 80/118/156 22/113/17 23/116/20
s 8
usemtl lambert4SG
f 78/5/157 79/6/158 23/4/48 8/3/47
f 79/6/158 78/5/157 112/7/159 113/8/160
s 6
usemtl lambert2SG
f 114/141/161 115/137/162 107/140/163 110/142/164
f 115/137/162 116/133/165 104/136/166 107/140/163
f 116/133/165 117/129/167 101/132/168 104/136/166
f 117/129/167 118/124/169 98/128/170 101/132/168
f 118/124/169 119/123/171 97/127/172 98/128/170
s 9
usemtl lambert4SG
f 89/44/137 88/50/138 120/53/173 121/49/174
f 121/49/174 122/43/175 90/37/136 89/44/137
f 122/43/175 123/36/176 91/31/135 90/37/136
f 123/36/176 124/29/177 92/25/133 91/31/135
f 124/29/177 111/30/178 77/26/134 92/25/133
f 131/62/179 132/59/180 93/63/181 94/64/182
s 12
f 94/206/183 96/205/184 130/199/185 131/200/186
s 9
f 97/60/187 119/61/188 133/57/189 134/56/190
s 18
usemtl lambert2SG
f 134/207/191 129/208/192 98/209/193 97/210/194
s 12
usemtl lambert4SG
f 135/198/195 130/199/185 96/205/184 100/204/196
s 18
usemtl lambert2SG
f 129/208/192 128/213/197 101/214/198 98/209/193
s 12
usemtl lambert4SG
f 136/197/199 135/198/195 100/204/196 103/203/200
s 18
usemtl lambert2SG
f 128/213/197 127/217/201 104/218/202 101/214/198
s 12
usemtl lambert4SG
f 137/195/203 136/197/199 103/203/200 106/201/204
s 18
usemtl lambert2SG
f 127/217/201 125/221/205 107/222/206 104/218/202
f 125/221/205 126/225/207 110/226/208 107/222/206
s 8
usemtl lambert4SG
f 113/8/160 112/7/159 76/9/54 75/10/53
s 6
usemtl lambert3SG
f 108/138/31 105/134/29 115/137/162 114/141/161
f 105/134/29 102/130/27 116/133/165 115/137/162
f 102/130/27 99/125/25 117/129/167 116/133/165
f 99/125/25 95/121/23 118/124/169 117/129/167
f 95/121/23 93/120/22 119/123/171 118/124/169
s 9
usemtl lambert4SG
f 119/61/188 93/63/181 132/59/180 133/57/189
f 121/49/174 120/53/173 74/55/129 73/52/117
f 73/52/117 72/48/102 122/43/175 121/49/174
f 72/48/102 71/42/85 123/36/176 122/43/175
f 71/42/85 70/34/60 124/29/177 123/36/176
f 70/34/60 69/35/59 111/30/178 124/29/177
s 8
f 79/6/158 113/8/160 140/11/209 126/12/210
f 113/8/160 75/10/53 139/15/211 140/11/209
f 75/10/53 29/14/56 138/18/212 139/15/211
s 18
f 79/227/213 126/225/207 125/221/205 80/228/214
f 81/223/215 125/221/205 127/217/201 82/224/216
f 83/219/217 127/217/201 128/213/197 84/220/218
f 85/215/219 128/213/197 129/208/192 86/216/220
s 12
f 131/200/186 130/199/185 68/194/132 67/193/131
s 9
f 74/55/129 132/59/180 131/62/179 67/58/130
f 133/57/189 132/59/180 74/55/129 120/53/173
f 134/56/190 133/57/189 120/53/173 88/50/138
s 18
f 87/211/221 129/208/192 134/207/191 88/212/222
s 12
f 61/186/118 130/199/185 135/198/195 62/192/120
f 52/185/105 135/198/195 136/197/199 53/191/106
f 41/184/89 136/197/199 137/195/203 42/190/90
f 29/188/71 28/182/69 137/195/203 138/196/223
f 138/196/223 137/195/203 106/201/204 109/202/224
s 8
f 139/15/211 138/18/212 109/20/225 108/19/226
f 140/11/209 139/15/211 108/19/226 114/16/227
f 126/12/210 140/11/209 114/16/227 110/17/228
