# This file uses centimeters as units for non-parametric coordinates.

mtllib Ledge_Block_SML_G.mtl
g default
v 99.000000 0.000000 47.000000
v 109.000000 0.000000 47.000000
v 99.000000 5.000000 47.000000
v 109.000000 5.000000 47.000000
v 99.000000 5.000000 37.000000
v 109.000000 5.000000 37.000000
v 99.000000 0.000000 37.000000
v 109.000000 0.000000 37.000000
v 99.000000 0.000000 42.000000
v 109.000000 0.000000 42.000000
v 109.000000 5.000000 42.000000
v 99.000000 5.000000 42.000000
v 109.000000 5.000000 45.000000
v 109.000000 0.000000 45.000000
v 99.000000 0.000000 45.000000
v 99.000000 5.000000 45.000000
v 109.000000 5.000000 46.000000
v 109.000000 0.000000 46.000000
v 99.000000 0.000000 46.000000
v 99.000000 5.000000 46.000000
v 99.000000 4.500000 37.000000
v 109.000000 4.500000 37.000000
v 109.000000 4.500000 42.000000
v 109.000000 4.500000 45.000000
v 109.000000 4.500000 46.000000
v 109.000000 4.500000 47.000000
v 99.000000 4.500000 47.000000
v 99.000000 4.500000 46.000000
v 99.000000 4.500000 45.000000
v 99.000000 4.500000 42.000000
v 99.000000 0.000000 37.500000
v 109.000000 0.000000 37.500000
v 109.000000 4.500000 37.500000
v 109.000000 5.000000 37.500000
v 99.000000 5.000000 37.500000
v 99.000000 4.500000 37.500000
v 108.500000 5.000000 37.000000
v 108.500000 4.500000 37.000000
v 108.500000 0.000000 37.000000
v 108.500000 0.000000 47.000000
v 108.500000 4.500000 47.000000
v 108.500000 5.000000 47.000000
v 108.500000 5.000000 45.000000
v 108.500000 5.000000 42.000000
v 108.500000 5.000000 37.500000
v 108.500000 5.000000 37.000000
v 99.500000 5.000000 37.000000
v 99.500000 5.000000 37.500000
v 99.500000 5.000000 42.000000
v 99.500000 5.000000 45.000000
v 99.500000 5.000000 47.000000
v 99.500000 4.500000 47.000000
v 99.500000 0.000000 47.000000
v 99.500000 0.000000 37.000000
v 99.500000 4.500000 37.000000
v 99.500000 5.000000 37.000000
v 104.000000 5.000000 37.000000
v 104.000000 5.000000 37.500000
v 104.000000 5.000000 42.000000
v 104.000000 5.000000 45.000000
v 104.000000 5.000000 47.000000
v 104.000000 4.500000 47.000000
v 104.000000 0.000000 47.000000
v 104.000000 0.000000 37.000000
v 104.000000 4.500000 37.000000
v 104.000000 5.000000 37.000000
v 109.000000 5.000000 45.500000
v 99.000000 5.000000 45.500000
v 99.000000 4.500000 45.500000
v 99.000000 0.000000 45.500000
v 109.000000 0.000000 45.500000
v 109.000000 4.500000 45.500000
v 108.500000 8.250000 46.000000
v 108.500000 8.250000 45.500000
v 104.000000 8.250000 45.500000
v 104.000000 8.250000 46.000000
v 108.500000 8.250000 47.000000
v 104.000000 8.250000 47.000000
v 109.000000 8.250000 47.000000
v 109.000000 8.250000 46.000000
v 109.000000 8.250000 45.500000
v 99.000000 8.250000 46.000000
v 99.500000 8.250000 46.000000
v 99.500000 8.250000 45.500000
v 99.000000 8.250000 45.500000
v 99.000000 8.250000 47.000000
v 99.500000 8.250000 47.000000
v 108.500000 8.250000 45.000000
v 109.000000 8.250000 45.000000
v 104.000000 8.250000 45.000000
v 99.500000 8.250000 45.000000
v 99.000000 8.250000 45.000000
v 108.500000 7.750000 47.000000
v 109.000000 7.750000 47.000000
v 109.000000 7.750000 46.000000
v 109.000000 7.750000 45.500000
v 109.000000 7.750000 45.000000
v 108.500000 7.750000 45.000000
v 104.000000 7.750000 45.000000
v 99.500000 7.750000 45.000000
v 99.000000 7.750000 45.000000
v 99.000000 7.750000 45.500000
v 99.000000 7.750000 46.000000
v 99.000000 7.750000 47.000000
v 99.500000 7.750000 47.000000
v 104.000000 7.750000 47.000000
vt 0.427704 0.166893
vt 0.279293 0.166893
vt 0.279293 0.018482
vt 0.427704 0.018482
vt 0.427704 0.265834
vt 0.279293 0.265834
vt 0.279293 0.001992
vt 0.427704 0.001992
vt 0.444194 0.166893
vt 0.444194 0.018482
vt 0.444194 0.265834
vt 0.427704 0.282324
vt 0.279293 0.282324
vt 0.444194 0.001992
vt 0.444194 0.282324
vt 0.427704 0.298814
vt 0.279293 0.298814
vt 0.444194 0.298814
vt 0.534889 0.265834
vt 0.534889 0.282324
vt 0.427704 0.331794
vt 0.279293 0.331794
vt 0.444194 0.331794
vt 0.534889 0.298814
vt 0.551380 0.265834
vt 0.551380 0.282324
vt 0.534889 0.331794
vt 0.551380 0.298814
vt 0.551380 0.331794
vt 0.702438 0.401059
vt 0.702438 0.500000
vt 0.554027 0.500000
vt 0.554027 0.401059
vt 0.718929 0.401059
vt 0.718929 0.500000
vt 0.702438 0.648410
vt 0.554027 0.648410
vt 0.554027 0.384569
vt 0.702438 0.384569
vt 0.718929 0.384569
vt 0.718929 0.648410
vt 0.702438 0.664901
vt 0.554027 0.664901
vt 0.702438 0.368079
vt 0.554027 0.368079
vt 0.718929 0.368079
vt 0.809624 0.384569
vt 0.809624 0.401059
vt 0.718929 0.664901
vt 0.554027 0.335099
vt 0.702438 0.335099
vt 0.718929 0.335099
vt 0.809624 0.368079
vt 0.826114 0.384569
vt 0.826114 0.401059
vt 0.809624 0.335099
vt 0.826114 0.368079
vt 0.826114 0.335099
vt 0.515969 0.351589
vt 0.532458 0.351589
vt 0.532458 0.500000
vt 0.515969 0.500000
vt 0.532458 0.335099
vt 0.515969 0.335099
vt 0.548949 0.351589
vt 0.548949 0.500000
vt 0.532458 0.648411
vt 0.515969 0.648411
vt 0.482988 0.351589
vt 0.482988 0.500000
vt 0.548949 0.335099
vt 0.482988 0.335099
vt 0.548949 0.648411
vt 0.515969 0.664901
vt 0.532458 0.664901
vt 0.482988 0.648411
vt 0.548949 0.664901
vt 0.482988 0.664901
vt 0.461419 0.500000
vt 0.313008 0.500000
vt 0.313008 0.351589
vt 0.461419 0.351589
vt 0.313008 0.648411
vt 0.461419 0.648411
vt 0.214067 0.351589
vt 0.214067 0.500000
vt 0.313008 0.335099
vt 0.461419 0.335099
vt 0.477909 0.500000
vt 0.477909 0.351589
vt 0.214067 0.648411
vt 0.477909 0.648411
vt 0.461419 0.664901
vt 0.313008 0.664901
vt 0.214067 0.335099
vt 0.477909 0.335099
vt 0.214067 0.664901
vt 0.477909 0.664901
vt 0.001649 0.018482
vt 0.150060 0.018482
vt 0.150060 0.166893
vt 0.001649 0.166893
vt 0.001649 0.001992
vt 0.150060 0.001992
vt 0.166550 0.166893
vt 0.166550 0.018482
vt 0.150060 0.315305
vt 0.001649 0.315305
vt 0.166550 0.001992
vt 0.166550 0.315305
vt 0.257246 0.018482
vt 0.257246 0.166893
vt 0.150060 0.331794
vt 0.001649 0.331794
vt 0.257246 0.001992
vt 0.257246 0.315305
vt 0.166550 0.331794
vt 0.273736 0.018482
vt 0.273736 0.166893
vt 0.273736 0.001992
vt 0.273736 0.315305
vt 0.257246 0.331794
vt 0.273736 0.331794
vt 0.208989 0.351588
vt 0.208989 0.500000
vt 0.118293 0.500000
vt 0.118293 0.351588
vt 0.208989 0.648412
vt 0.118293 0.648412
vt 0.101802 0.500000
vt 0.101802 0.351588
vt 0.208989 0.335099
vt 0.118293 0.335099
vt 0.208989 0.664901
vt 0.118293 0.664901
vt 0.101802 0.648412
vt 0.101802 0.335099
vt 0.101802 0.664901
vt 0.018138 0.684695
vt 0.166550 0.684695
vt 0.166550 0.833107
vt 0.018138 0.833107
vt 0.018138 0.668206
vt 0.166550 0.668206
vt 0.166550 0.981519
vt 0.018138 0.981519
vt 0.001649 0.833107
vt 0.001649 0.684695
vt 0.001649 0.668206
vt 0.166550 0.998008
vt 0.018138 0.998008
vt 0.001649 0.981519
vt 0.001649 0.998008
vn 0.000000 0.000000 1.000000
vn 0.000000 0.000000 1.000000
vn 0.000000 0.000000 1.000000
vn 0.000000 0.000000 1.000000
vn 1.000000 0.000000 0.000000
vn 1.000000 0.000000 0.000000
vn 1.000000 0.000000 0.000000
vn 1.000000 0.000000 0.000000
vn 1.000000 0.000000 0.000000
vn 1.000000 0.000000 0.000000
vn -1.000000 0.000000 0.000000
vn -1.000000 0.000000 0.000000
vn -1.000000 0.000000 0.000000
vn -1.000000 0.000000 0.000000
vn 0.000000 1.000000 0.000000
vn 0.000000 1.000000 0.000000
vn 0.000000 1.000000 0.000000
vn 0.000000 1.000000 0.000000
vn 1.000000 0.000000 0.000000
vn 1.000000 0.000000 0.000000
vn 1.000000 0.000000 0.000000
vn 1.000000 0.000000 0.000000
vn -1.000000 0.000000 0.000000
vn -1.000000 0.000000 0.000000
vn -1.000000 0.000000 0.000000
vn -1.000000 0.000000 0.000000
vn -1.000000 0.000000 0.000000
vn -1.000000 0.000000 0.000000
vn -1.000000 0.000000 0.000000
vn -1.000000 0.000000 0.000000
vn 0.000000 1.000000 0.000000
vn 0.000000 1.000000 0.000000
vn 1.000000 0.000000 0.000000
vn 1.000000 0.000000 0.000000
vn -1.000000 0.000000 0.000000
vn -1.000000 0.000000 0.000000
vn -1.000000 0.000000 0.000000
vn -1.000000 0.000000 0.000000
vn 0.000000 1.000000 0.000000
vn 0.000000 1.000000 0.000000
vn 0.000000 1.000000 0.000000
vn 0.000000 1.000000 0.000000
vn 0.000000 1.000000 0.000000
vn 0.000000 1.000000 0.000000
vn 0.000000 0.000000 -1.000000
vn 0.000000 0.000000 -1.000000
vn 0.000000 0.000000 -1.000000
vn 0.000000 0.000000 -1.000000
vn 0.000000 0.000000 -1.000000
vn 0.000000 0.000000 -1.000000
vn 0.000000 0.000000 -1.000000
vn 0.000000 0.000000 -1.000000
vn -1.000000 0.000000 0.000000
vn -1.000000 0.000000 0.000000
vn 0.000000 0.000000 -1.000000
vn 0.000000 0.000000 -1.000000
vn 1.000000 0.000000 0.000000
vn 1.000000 0.000000 0.000000
vn 1.000000 0.000000 0.000000
vn 1.000000 0.000000 0.000000
vn 1.000000 0.000000 0.000000
vn 1.000000 0.000000 0.000000
vn 0.000000 0.000000 1.000000
vn 0.000000 0.000000 1.000000
vn -1.000000 0.000000 0.000000
vn -1.000000 0.000000 0.000000
vn -1.000000 0.000000 0.000000
vn 1.000000 0.000000 0.000000
vn 1.000000 0.000000 0.000000
vn 1.000000 0.000000 0.000000
vn 0.000000 1.000000 0.000000
vn 0.000000 1.000000 0.000000
vn -1.000000 0.000000 0.000000
vn -1.000000 0.000000 0.000000
vn -1.000000 0.000000 0.000000
vn 0.000000 0.000000 -1.000000
vn 0.000000 0.000000 -1.000000
vn 0.000000 0.000000 -1.000000
vn 0.000000 0.000000 1.000000
vn 0.000000 0.000000 1.000000
vn 0.000000 0.000000 1.000000
vn 0.000000 1.000000 0.000000
vn 0.000000 1.000000 0.000000
vn 0.000000 1.000000 0.000000
vn 0.000000 0.000000 -1.000000
vn 0.000000 0.000000 -1.000000
vn 0.000000 1.000000 0.000000
vn 0.000000 1.000000 0.000000
vn 0.000000 1.000000 0.000000
vn 0.000000 1.000000 0.000000
vn 0.000000 1.000000 0.000000
vn 0.000000 1.000000 0.000000
vn 0.000000 1.000000 0.000000
vn 0.000000 1.000000 0.000000
vn 0.000000 1.000000 0.000000
vn 0.000000 1.000000 0.000000
vn 0.000000 1.000000 0.000000
vn 0.000000 1.000000 0.000000
vn 0.000000 0.000000 -1.000000
vn 0.000000 0.000000 -1.000000
vn 0.000000 0.000000 -1.000000
vn 0.000000 0.000000 -1.000000
vn 0.000000 1.000000 0.000000
vn 0.000000 1.000000 0.000000
vn 0.000000 1.000000 0.000000
vn 0.000000 1.000000 0.000000
vn 0.000000 1.000000 0.000000
vn 0.000000 1.000000 0.000000
vn 0.000000 0.000000 1.000000
vn 0.000000 0.000000 1.000000
vn 0.000000 0.000000 1.000000
vn 0.000000 0.000000 1.000000
vn 0.000000 0.000000 1.000000
vn 0.000000 0.000000 1.000000
vn 0.000000 0.000000 -1.000000
vn 0.000000 0.000000 -1.000000
vn 0.000000 0.000000 -1.000000
vn 0.000000 0.000000 -1.000000
vn 0.000000 0.000000 -1.000000
vn 0.000000 0.000000 -1.000000
vn 0.000000 1.000000 0.000000
vn 0.000000 1.000000 0.000000
vn 0.000000 1.000000 0.000000
vn 0.000000 1.000000 0.000000
vn 0.000000 1.000000 0.000000
vn -1.000000 0.000000 0.000000
vn 0.000000 0.000000 1.000000
vn 0.000000 0.000000 1.000000
vn 0.000000 0.000000 1.000000
vn 0.000000 0.000000 1.000000
vn 0.000000 0.000000 1.000000
vn 0.000000 0.000000 1.000000
vn 1.000000 0.000000 0.000000
vn 1.000000 0.000000 0.000000
vn 1.000000 0.000000 0.000000
vn 1.000000 0.000000 0.000000
vn 1.000000 0.000000 0.000000
vn 1.000000 0.000000 0.000000
vn -1.000000 0.000000 0.000000
vn -1.000000 0.000000 0.000000
vn 0.000000 0.000000 1.000000
vn 0.000000 0.000000 1.000000
vn 0.000000 0.000000 1.000000
vn 0.000000 0.000000 1.000000
vn -1.000000 0.000000 0.000000
vn 1.000000 0.000000 0.000000
vn 1.000000 0.000000 0.000000
vn 0.000000 0.000000 -1.000000
vn 0.000000 0.000000 -1.000000
vn 0.000000 0.000000 -1.000000
vn 0.000000 0.000000 -1.000000
vn 0.000000 0.000000 -1.000000
vn -1.000000 0.000000 0.000000
s 1
g Ledge_Block_SML_G
usemtl lambert4SG
f 40/99/1 41/100/2 62/101/3 63/102/4
s 2
f 23/1/5 10/2/6 32/3/7 33/4/8
f 23/1/5 24/5/9 14/6/10 10/2/6
s 3
f 29/30/11 30/31/12 9/32/13 15/33/14
s 4
usemtl lambert3SG
f 73/59/15 74/60/16 75/61/17 76/62/18
s 2
usemtl lambert4SG
f 71/13/19 72/12/20 25/16/21 18/17/22
s 3
f 28/44/23 69/39/24 70/38/25 19/45/26
f 68/40/27 20/46/28 103/53/29 102/47/30
s 4
usemtl lambert3SG
f 77/69/31 73/59/15 76/62/18 78/70/32
s 2
usemtl lambert4SG
f 18/17/22 25/16/21 26/21/33 2/22/34
s 3
f 1/50/35 27/51/36 28/44/23 19/45/26
f 20/46/28 3/52/37 104/56/38 103/53/29
s 6
usemtl lambert3SG
f 58/79/39 59/80/40 44/81/41 45/82/42
f 43/85/43 44/81/41 59/80/40 60/86/44
s 7
usemtl lambert4SG
f 43/124/45 60/125/46 99/126/47 98/127/48
s 8
f 38/139/49 39/140/50 64/141/51 65/142/52
s 3
f 30/31/12 36/36/53 31/37/54 9/32/13
s 8
usemtl lambert2SG
f 65/142/52 66/147/55 37/148/56 38/139/49
s 2
usemtl lambert4SG
f 11/9/57 23/1/5 33/4/8 34/10/58
f 11/9/57 13/11/59 24/5/9 23/1/5
f 17/18/60 25/16/21 72/12/20 67/15/61
f 26/21/33 25/16/21 17/18/60 4/23/62
s 1
f 61/105/63 62/101/3 41/100/2 42/106/64
s 3
f 20/46/28 28/44/23 27/51/36 3/52/37
f 68/40/27 69/39/24 28/44/23 20/46/28
f 30/31/12 29/30/11 16/34/65 12/35/66
f 30/31/12 12/35/66 35/41/67 36/36/53
s 2
f 8/7/68 22/8/69 33/4/8 32/3/7
f 34/10/58 33/4/8 22/8/69 6/14/70
s 6
usemtl lambert2SG
f 57/89/71 58/79/39 45/82/42 46/90/72
s 3
usemtl lambert4SG
f 21/42/73 36/36/53 35/41/67 5/49/74
f 36/36/53 21/42/73 7/43/75 31/37/54
s 8
usemtl lambert2SG
f 22/143/76 38/139/49 37/148/56 6/149/77
usemtl lambert4SG
f 38/139/49 22/143/76 8/144/78 39/140/50
s 1
f 2/103/79 26/104/80 41/100/2 40/99/1
f 42/106/64 41/100/2 26/104/80 4/109/81
s 4
usemtl lambert3SG
f 73/59/15 77/69/31 79/72/82 80/64/83
f 81/63/84 74/60/16 73/59/15 80/64/83
s 7
usemtl lambert4SG
f 13/132/85 43/124/45 98/127/48 97/133/86
s 6
usemtl lambert3SG
f 44/81/41 43/85/43 13/95/87 11/87/88
f 44/81/41 11/87/88 34/88/89 45/82/42
usemtl lambert2SG
f 46/90/72 45/82/42 34/88/89 6/96/90
f 35/93/91 48/84/92 47/92/93 5/98/94
usemtl lambert3SG
f 35/93/91 12/94/95 49/83/96 48/84/92
f 12/94/95 16/97/97 50/91/98 49/83/96
s 7
usemtl lambert4SG
f 50/128/99 16/134/100 101/135/101 100/129/102
s 4
usemtl lambert3SG
f 82/74/103 83/68/104 84/67/105 85/75/106
f 86/78/107 87/76/108 83/68/104 82/74/103
s 1
usemtl lambert4SG
f 27/113/109 52/107/110 51/110/111 3/117/112
f 52/107/110 27/113/109 1/114/113 53/108/114
s 8
f 7/150/115 21/151/116 55/146/117 54/145/118
usemtl lambert2SG
f 5/153/119 56/152/120 55/146/117 21/151/116
s 6
f 48/84/92 58/79/39 57/89/71 47/92/93
usemtl lambert3SG
f 49/83/96 59/80/40 58/79/39 48/84/92
f 60/86/44 59/80/40 49/83/96 50/91/98
s 7
usemtl lambert4SG
f 60/125/46 50/128/99 100/129/102 99/126/47
s 4
usemtl lambert3SG
f 76/62/18 75/61/17 84/67/105 83/68/104
f 78/70/32 76/62/18 83/68/104 87/76/108
s 1
usemtl lambert4SG
f 52/107/110 62/101/3 61/105/63 51/110/111
f 63/102/4 62/101/3 52/107/110 53/108/114
s 8
f 65/142/52 64/141/51 54/145/118 55/146/117
usemtl lambert2SG
f 56/152/120 66/147/55 65/142/52 55/146/117
s 4
f 88/65/121 74/60/16 81/63/84 89/71/122
f 75/61/17 74/60/16 88/65/121 90/66/123
f 84/67/105 75/61/17 90/66/123 91/73/124
f 85/75/106 84/67/105 91/73/124 92/77/125
s 3
usemtl lambert4SG
f 16/34/65 68/40/27 102/47/30 101/48/126
f 16/34/65 29/30/11 69/39/24 68/40/27
f 70/38/25 69/39/24 29/30/11 15/33/14
s 2
f 14/6/10 24/5/9 72/12/20 71/13/19
f 67/15/61 72/12/20 24/5/9 13/11/59
s 1
f 106/112/127 93/111/128 77/118/129 78/119/130
f 93/111/128 94/115/131 79/120/132 77/118/129
s 2
f 94/27/133 95/24/134 80/28/135 79/29/136
f 95/24/134 96/20/137 81/26/138 80/28/135
s 3
f 102/47/30 103/53/29 82/57/139 85/54/140
s 1
f 104/122/141 105/116/142 87/121/143 86/123/144
s 3
f 103/53/29 104/56/38 86/58/145 82/57/139
s 1
f 105/116/142 106/112/127 78/119/130 87/121/143
s 2
f 96/20/137 97/19/146 89/25/147 81/26/138
s 7
usemtl lambert2SG
f 97/133/86 98/127/48 88/131/148 89/137/149
f 98/127/48 99/126/47 90/130/150 88/131/148
f 99/126/47 100/129/102 91/136/151 90/130/150
f 100/129/102 101/135/101 92/138/152 91/136/151
s 3
usemtl lambert4SG
f 101/48/126 102/47/30 85/54/140 92/55/153
s 1
f 4/109/81 94/115/131 93/111/128 42/106/64
s 2
f 17/18/60 95/24/134 94/27/133 4/23/62
f 67/15/61 96/20/137 95/24/134 17/18/60
f 13/11/59 97/19/146 96/20/137 67/15/61
s 1
f 51/110/111 105/116/142 104/122/141 3/117/112
f 61/105/63 106/112/127 105/116/142 51/110/111
f 42/106/64 93/111/128 106/112/127 61/105/63
