# This file uses centimeters as units for non-parametric coordinates.

mtllib ManPad_2.mtl
g default
v 77.000000 0.000000 36.000000
v 87.000000 0.000000 36.000000
v 77.000000 0.000000 26.000000
v 87.000000 0.000000 26.000000
v 77.000000 2.000000 36.000000
v 87.000000 2.000000 36.000000
v 87.000000 2.000000 26.000000
v 77.000000 2.000000 26.000000
v 77.000000 0.000000 31.000000
v 77.000000 2.000000 31.000000
v 87.000000 2.000000 31.000000
v 87.000000 0.000000 31.000000
v 77.000000 2.000000 26.500000
v 77.000000 0.000000 26.500000
v 87.000000 0.000000 26.500000
v 87.000000 2.000000 26.500000
v 77.000000 1.500000 36.000000
v 87.000000 1.500000 36.000000
v 87.000000 1.500000 31.000000
v 87.000000 1.500000 26.500000
v 87.000000 1.500000 26.000000
v 77.000000 1.500000 26.000000
v 77.000000 1.500000 26.500000
v 77.000000 1.500000 31.000000
vt 0.206117 0.026803
vt 0.206117 0.250086
vt 0.181308 0.250086
vt 0.181308 0.026803
vt 0.181308 0.498180
vt 0.206117 0.498180
vt 0.106879 0.250086
vt 0.106879 0.026803
vt 0.181308 0.001993
vt 0.206117 0.001993
vt 0.106879 0.498180
vt 0.106879 0.001993
vt 0.391071 0.473370
vt 0.391071 0.250086
vt 0.415880 0.250086
vt 0.415880 0.473370
vt 0.316643 0.473370
vt 0.316643 0.250086
vt 0.391071 0.001993
vt 0.415880 0.001993
vt 0.391071 0.498180
vt 0.415880 0.498180
vt 0.316643 0.001993
vt 0.316643 0.498180
vt 0.414114 0.749914
vt 0.910301 0.749914
vt 0.910301 0.973198
vt 0.414114 0.973198
vt 0.414114 0.501820
vt 0.910301 0.501820
vt 0.910301 0.998007
vt 0.414114 0.998007
vt 0.076245 0.498180
vt 0.076245 0.001993
vt 0.101054 0.001993
vt 0.101054 0.498180
vt 0.001817 0.498180
vt 0.001817 0.001993
vt 0.236571 0.001993
vt 0.236571 0.498180
vt 0.211760 0.498180
vt 0.211760 0.001993
vt 0.310999 0.001993
vt 0.310999 0.498180
vn 0.000000 0.000000 1.000000
vn 0.000000 0.000000 1.000000
vn 0.000000 0.000000 1.000000
vn 0.000000 0.000000 1.000000
vn 1.000000 0.000000 0.000000
vn 1.000000 0.000000 0.000000
vn 1.000000 0.000000 0.000000
vn 1.000000 0.000000 0.000000
vn 0.000000 0.000000 -1.000000
vn 0.000000 0.000000 -1.000000
vn 0.000000 0.000000 -1.000000
vn 0.000000 0.000000 -1.000000
vn -1.000000 0.000000 0.000000
vn -1.000000 0.000000 0.000000
vn -1.000000 0.000000 0.000000
vn -1.000000 0.000000 0.000000
vn 0.000000 1.000000 0.000000
vn 0.000000 1.000000 0.000000
vn 0.000000 1.000000 0.000000
vn 0.000000 1.000000 0.000000
vn -1.000000 0.000000 0.000000
vn -1.000000 0.000000 0.000000
vn 0.000000 1.000000 0.000000
vn 0.000000 1.000000 0.000000
vn 1.000000 0.000000 0.000000
vn 1.000000 0.000000 0.000000
vn -1.000000 0.000000 0.000000
vn -1.000000 0.000000 0.000000
vn 1.000000 0.000000 0.000000
vn 1.000000 0.000000 0.000000
vn 0.000000 1.000000 0.000000
vn 0.000000 1.000000 0.000000
vn 0.000000 0.000000 1.000000
vn 0.000000 0.000000 1.000000
vn 1.000000 0.000000 0.000000
vn 1.000000 0.000000 0.000000
vn 1.000000 0.000000 0.000000
vn 1.000000 0.000000 0.000000
vn 0.000000 0.000000 -1.000000
vn 0.000000 0.000000 -1.000000
vn -1.000000 0.000000 0.000000
vn -1.000000 0.000000 0.000000
vn -1.000000 0.000000 0.000000
vn -1.000000 0.000000 0.000000
s 1
g ManPad_2
usemtl lambert4SG
f 17/33/1 18/34/2 6/35/3 5/36/4
s 2
f 16/1/5 11/2/6 19/3/7 20/4/8
s 3
usemtl lambert2SG
f 21/39/9 22/40/10 8/41/11 7/42/12
s 4
usemtl lambert4SG
f 23/13/13 24/14/14 10/15/15 13/16/16
s 5
usemtl lambert3SG
f 10/25/17 11/26/18 16/27/19 13/28/20
s 4
usemtl lambert4SG
f 10/15/15 24/14/14 17/19/21 5/20/22
s 5
usemtl lambert3SG
f 5/29/23 6/30/24 11/26/18 10/25/17
s 2
usemtl lambert4SG
f 18/5/25 19/3/7 11/2/6 6/6/26
s 4
f 22/21/27 23/13/13 13/16/16 8/22/28
s 2
f 16/1/5 20/4/8 21/9/29 7/10/30
s 5
usemtl lambert2SG
f 13/28/20 16/27/19 7/31/31 8/32/32
s 1
usemtl lambert4SG
f 1/37/33 2/38/34 18/34/2 17/33/1
s 2
f 2/11/35 12/7/36 19/3/7 18/5/25
f 19/3/7 12/7/36 15/8/37 20/4/8
f 21/9/29 20/4/8 15/8/37 4/12/38
s 3
f 4/43/39 3/44/40 22/40/10 21/39/9
s 4
f 3/24/41 14/17/42 23/13/13 22/21/27
f 14/17/42 9/18/43 24/14/14 23/13/13
f 17/19/21 24/14/14 9/18/43 1/23/44
