# This file uses centimeters as units for non-parametric coordinates.

mtllib ManPad_CNR_3Grind.mtl
g default
v 110.000000 1.000000 25.000000
v 120.000000 1.000000 25.000000
v 120.000000 1.000000 15.000000
v 110.000000 -0.000000 25.000000
v 120.000000 -0.000000 25.000000
v 120.000000 0.000000 15.000000
v 115.000000 0.999998 15.000000
v 115.479164 1.000003 15.000000
v 115.210999 1.000003 16.693155
v 114.755280 0.999998 16.545086
v 114.480011 1.000003 18.160534
v 114.045082 0.999998 17.938927
v 113.345993 1.000003 19.340836
v 112.938927 0.999998 19.045086
v 111.915771 1.000003 20.125969
v 111.545082 0.999997 19.755283
v 110.000000 0.999998 20.000000
v 110.000000 1.000003 20.479168
v 110.000000 0.000002 20.000000
v 110.000000 -0.000003 20.479166
v 111.545082 0.000002 19.755283
v 112.938927 0.000002 19.045086
v 114.045082 0.000002 17.938927
v 114.755280 0.000003 16.545086
v 115.000000 0.000002 15.000000
v 115.479164 -0.000003 15.000000
v 115.479172 1.000000 25.000000
v 115.479172 1.000001 20.479170
v 120.000000 1.000000 20.479170
v 115.479172 -0.000000 25.000000
v 120.000000 -0.000000 20.479170
v 110.000000 0.500000 25.000000
v 115.479172 0.500000 25.000000
v 120.000000 0.500000 25.000000
v 120.000000 0.500000 20.479170
v 120.000000 0.500000 15.000000
v 115.479164 0.500000 15.000000
v 115.000000 0.500000 15.000000
v 114.755280 0.500000 16.545086
v 114.045082 0.500000 17.938927
v 112.938927 0.500000 19.045086
v 111.545082 0.500000 19.755283
v 110.000000 0.500000 20.000000
v 110.000000 0.500000 20.479166
v 120.000000 1.000000 24.434896
v 120.000000 0.500000 24.434896
v 120.000000 -0.000000 24.434896
v 110.000000 -0.000000 24.434896
v 110.000000 0.500000 24.434896
v 110.000000 1.000000 24.434896
v 115.479172 1.000000 24.434896
v 119.434891 1.000000 15.000000
v 119.434891 0.500000 15.000000
v 119.434891 -0.000000 15.000000
v 119.434898 -0.000000 25.000000
v 119.434898 0.500000 25.000000
v 119.434898 1.000000 25.000000
v 119.434898 1.000000 24.434896
v 119.434898 1.000000 20.479170
vt 0.150170 0.389005
vt 0.114855 0.389005
vt 0.114855 0.001992
vt 0.150170 0.001992
vt 0.150170 0.668413
vt 0.114855 0.668413
vt 0.079538 0.389005
vt 0.079538 0.001992
vt 0.114855 0.708327
vt 0.150170 0.708327
vt 0.079538 0.668413
vt 0.079538 0.708327
vt 0.990461 0.678444
vt 0.955145 0.678444
vt 0.955145 0.399038
vt 0.990461 0.399038
vt 0.955145 0.712289
vt 0.990461 0.712289
vt 0.919828 0.678444
vt 0.919828 0.399038
vt 0.955145 0.359122
vt 0.990461 0.359122
vt 0.919828 0.712289
vt 0.919828 0.359122
vt 0.878422 0.888873
vt 0.878422 0.790421
vt 0.913738 0.790421
vt 0.913738 0.888873
vt 0.843105 0.888873
vt 0.843105 0.790421
vt 0.878422 0.712289
vt 0.913738 0.712289
vt 0.878422 0.998008
vt 0.913738 0.998008
vt 0.843105 0.712289
vt 0.843105 0.998008
vt 0.543920 0.708327
vt 0.510075 0.708327
vt 0.492790 0.599192
vt 0.524979 0.588733
vt 0.442626 0.500741
vt 0.473346 0.485087
vt 0.543920 0.321314
vt 0.364494 0.422608
vt 0.393247 0.401719
vt 0.823327 0.321314
vt 0.823327 0.708327
vt 0.266043 0.372444
vt 0.292226 0.346263
vt 0.543920 0.041907
vt 0.823327 0.041907
vt 0.863243 0.321314
vt 0.863243 0.708327
vt 0.156908 0.321314
vt 0.156908 0.355160
vt 0.156908 0.041907
vt 0.543920 0.001992
vt 0.823327 0.001992
vt 0.863243 0.041907
vt 0.156908 0.001992
vt 0.863243 0.001992
vt 0.072610 0.321315
vt 0.037294 0.321315
vt 0.037294 0.041908
vt 0.072610 0.041908
vt 0.037294 0.708327
vt 0.072610 0.708327
vt 0.001977 0.321315
vt 0.001977 0.041908
vt 0.037294 0.001992
vt 0.072610 0.001992
vt 0.001977 0.708327
vt 0.001977 0.001992
vt 0.870633 0.355162
vt 0.870633 0.321316
vt 0.905953 0.321316
vt 0.905953 0.355162
vt 0.870633 0.041911
vt 0.905953 0.041911
vt 0.941268 0.321316
vt 0.941268 0.355162
vt 0.905953 0.001994
vt 0.870633 0.001994
vt 0.941268 0.041911
vt 0.941268 0.001994
vt 0.801700 0.810740
vt 0.801700 0.919875
vt 0.766380 0.919875
vt 0.766380 0.810740
vt 0.837015 0.810740
vt 0.837015 0.919875
vt 0.801700 0.712292
vt 0.766380 0.712292
vt 0.837015 0.712292
vn 0.000000 0.000000 1.000000
vn 0.000000 0.000000 1.000000
vn 0.000000 0.000000 1.000000
vn 0.000000 0.000000 1.000000
vn 1.000000 0.000000 0.000000
vn 1.000000 0.000000 0.000000
vn 1.000000 0.000000 0.000000
vn 1.000000 0.000000 0.000000
vn 0.000000 0.000000 -1.000000
vn 0.000000 0.000000 -1.000000
vn -0.000000 0.000000 -1.000000
vn 0.000000 0.000000 -1.000000
vn 0.000000 1.000000 0.000000
vn -0.000010 1.000000 -0.000002
vn -0.000009 1.000000 -0.000003
vn -0.000002 1.000000 -0.000001
vn -0.000008 1.000000 -0.000006
vn -0.000001 1.000000 -0.000001
vn -0.000006 1.000000 -0.000008
vn -0.000001 1.000000 -0.000001
vn -0.000003 1.000000 -0.000010
vn -0.000001 1.000000 -0.000002
vn -0.000002 1.000000 -0.000011
vn 0.000000 1.000000 0.000000
vn 0.000000 1.000000 0.000000
vn 0.000000 1.000000 0.000000
vn 0.000000 1.000000 0.000000
vn -1.000000 0.000000 0.000000
vn -1.000000 0.000000 0.000000
vn -1.000000 0.000000 0.000000
vn -1.000000 0.000000 0.000000
vn -0.309017 0.000000 -0.951057
vn -0.156434 0.000000 -0.987688
vn -0.156434 0.000000 -0.987688
vn -0.309017 0.000000 -0.951057
vn -0.453990 0.000000 -0.891007
vn -0.453990 0.000000 -0.891007
vn -0.809017 0.000000 -0.587785
vn -0.707108 0.000000 -0.707105
vn -0.707108 0.000000 -0.707105
vn -0.809018 0.000000 -0.587785
vn -0.951056 0.000000 -0.309018
vn -0.951056 0.000000 -0.309018
vn -0.987688 0.000000 -0.156436
vn -0.987688 0.000000 -0.156436
vn 0.000000 0.000000 -1.000000
vn -0.000000 0.000000 -1.000000
vn -1.000000 0.000000 0.000000
vn -1.000000 0.000000 0.000000
vn 0.000000 1.000000 0.000000
vn 0.000000 1.000000 0.000000
vn 0.000000 1.000000 0.000000
vn 1.000000 0.000000 0.000000
vn 1.000000 0.000000 0.000000
vn 0.000000 0.000000 1.000000
vn 0.000000 0.000000 1.000000
vn 0.000000 0.000000 1.000000
vn 0.000000 0.000000 1.000000
vn 0.000000 0.000000 1.000000
vn 1.000000 0.000000 0.000000
vn 1.000000 0.000000 0.000000
vn 1.000000 0.000000 0.000000
vn -0.000000 0.000000 -1.000000
vn -0.000000 0.000000 -1.000000
vn 0.000000 0.000000 -1.000000
vn -0.987688 0.000000 -0.156436
vn -0.951056 0.000000 -0.309018
vn -0.809017 0.000000 -0.587785
vn -0.707108 0.000000 -0.707106
vn -0.453989 0.000000 -0.891007
vn -0.309016 0.000000 -0.951057
vn -0.156434 0.000000 -0.987688
vn -1.000000 0.000000 0.000000
vn -1.000000 0.000000 0.000000
vn -1.000000 0.000000 0.000000
vn 1.000000 0.000000 0.000000
vn 1.000000 0.000000 0.000000
vn 1.000000 0.000000 0.000000
vn -1.000000 0.000000 0.000000
vn -1.000000 0.000000 0.000000
vn -1.000000 0.000000 0.000000
vn 0.000000 1.000000 0.000000
vn 0.000000 1.000000 0.000000
vn 0.000000 1.000000 0.000000
vn 0.000001 0.000000 -1.000000
vn 0.000000 0.000000 -1.000000
vn 0.000001 0.000000 -1.000000
vn 0.000000 0.000000 1.000000
vn 0.000000 0.000000 1.000000
vn 0.000000 0.000000 1.000000
vn 0.000000 1.000000 0.000000
vn 0.000000 1.000000 0.000000
vn 0.000000 1.000000 0.000000
vn 0.000000 1.000000 0.000000
s 1
g ManPad_CNR_3Grind
usemtl lambert2SG
f 27/62/1 33/63/2 56/64/3 57/65/4
s 2
f 29/1/5 35/2/6 36/3/7 3/4/8
s 3
usemtl lambert4SG
f 7/74/9 8/75/10 37/76/11 38/77/12
s 4
usemtl lambert2SG
f 8/37/13 7/38/14 10/39/15 9/40/16
f 9/40/16 10/39/15 12/41/17 11/42/18
f 11/42/18 12/41/17 14/44/19 13/45/20
f 13/45/20 14/44/19 16/48/21 15/49/22
f 15/49/22 16/48/21 17/55/23 18/54/24
usemtl lambert3SG
f 8/37/13 28/43/25 59/46/26 52/47/27
s 5
usemtl lambert4SG
f 18/13/28 44/14/29 49/15/30 50/16/31
s 6
usemtl lambert2SG
f 42/86/32 43/87/33 17/88/34 16/89/35
f 41/92/36 42/86/32 16/89/35 14/93/37
s 7
f 40/26/38 41/31/39 14/32/40 12/27/41
f 39/25/42 40/26/38 12/27/41 10/28/43
f 38/33/44 39/25/42 10/28/43 7/34/45
s 3
usemtl lambert4SG
f 37/76/11 8/75/10 52/78/46 53/79/47
s 5
f 43/17/48 44/14/29 18/13/28 17/18/49
s 4
usemtl lambert3SG
f 28/43/25 8/37/13 9/40/16 11/42/18
f 28/43/25 18/54/24 50/56/50 51/50/51
f 28/43/25 51/50/51 58/51/52 59/46/26
s 2
usemtl lambert2SG
f 35/2/6 29/1/5 45/5/53 46/6/54
s 1
f 32/66/55 33/63/2 27/62/1 1/67/56
usemtl lambert4SG
f 4/72/57 30/68/58 33/63/2 32/66/55
f 33/63/2 30/68/58 55/69/59 56/64/3
s 2
f 31/7/60 35/2/6 46/6/54 47/11/61
f 36/3/7 35/2/6 31/7/60 6/8/62
s 3
f 26/80/63 37/76/11 53/79/47 54/84/64
f 38/77/12 37/76/11 26/80/63 25/81/65
s 7
f 25/36/66 24/29/67 39/25/42 38/33/44
f 24/29/67 23/30/68 40/26/38 39/25/42
f 23/30/68 22/35/69 41/31/39 40/26/38
s 6
f 22/94/70 21/90/71 42/86/32 41/92/36
f 21/90/71 19/91/72 43/87/33 42/86/32
s 5
f 19/23/73 20/19/74 44/14/29 43/17/48
f 44/14/29 20/19/74 48/20/75 49/15/30
s 2
usemtl lambert2SG
f 34/9/76 46/6/54 45/5/53 2/10/77
usemtl lambert4SG
f 5/12/78 47/11/61 46/6/54 34/9/76
s 5
f 32/21/79 49/15/30 48/20/75 4/24/80
f 50/16/31 49/15/30 32/21/79 1/22/81
s 4
usemtl lambert2SG
f 1/60/82 27/57/83 51/50/51 50/56/50
f 51/50/51 27/57/83 57/58/84 58/51/52
s 3
usemtl lambert4SG
f 36/82/85 53/79/47 52/78/46 3/83/86
f 54/84/64 53/79/47 36/82/85 6/85/87
s 1
f 34/70/88 56/64/3 55/69/59 5/73/89
usemtl lambert2SG
f 57/65/4 56/64/3 34/70/88 2/71/90
s 4
f 45/59/91 58/51/52 57/58/84 2/61/92
f 29/52/93 59/46/26 58/51/52 45/59/91
f 52/47/27 59/46/26 29/52/93 3/53/94
usemtl lambert3SG
f 13/45/20 28/43/25 11/42/18
f 28/43/25 13/45/20 15/49/22 18/54/24
