# This file uses centimeters as units for non-parametric coordinates.

mtllib ManPad_6.mtl
g default
v 77.000000 0.000000 81.000000
v 87.000000 0.000000 81.000000
v 77.000000 0.000000 71.000000
v 87.000000 0.000000 71.000000
v 77.000000 6.000000 81.000000
v 87.000000 6.000000 81.000000
v 87.000000 6.000000 71.000000
v 77.000000 6.000000 71.000000
v 77.000000 0.000000 76.000000
v 77.000000 6.000000 76.000000
v 87.000000 6.000000 76.000000
v 87.000000 0.000000 76.000000
v 77.000000 6.000000 71.500000
v 77.000000 0.000000 71.500000
v 87.000000 0.000000 71.500000
v 87.000000 6.000000 71.500000
v 87.000000 5.500000 76.000000
v 87.000000 5.500000 81.000000
v 77.000000 5.500000 81.000000
v 77.000000 5.500000 76.000000
v 77.000000 5.500000 71.500000
v 77.000000 5.500000 71.000000
v 87.000000 5.500000 71.000000
v 87.000000 5.500000 71.500000
vt 0.505299 0.026800
vt 0.505299 0.250069
vt 0.505299 0.498147
vt 0.257222 0.250069
vt 0.257222 0.026800
vt 0.505299 0.001992
vt 0.257222 0.498147
vt 0.257222 0.001992
vt 0.926782 0.749931
vt 0.926782 0.973200
vt 0.678705 0.973200
vt 0.678705 0.749931
vt 0.926782 0.501853
vt 0.926782 0.998008
vt 0.678705 0.501853
vt 0.678705 0.998008
vt 0.176853 0.749930
vt 0.673008 0.749930
vt 0.673008 0.973199
vt 0.176853 0.973199
vt 0.176853 0.501853
vt 0.673008 0.501853
vt 0.673008 0.998007
vt 0.176853 0.998007
vt 0.249927 0.001992
vt 0.249927 0.498147
vt 0.001850 0.498147
vt 0.001850 0.001992
vt 0.512411 0.498147
vt 0.512411 0.001993
vt 0.760489 0.001993
vt 0.760489 0.498147
vt 0.499097 0.250069
vt 0.243725 0.001992
vt 0.499097 0.498147
vt 0.920581 0.501853
vt 0.243725 0.498147
vt 0.920581 0.749931
vt 0.920581 0.973200
vt 0.518614 0.498147
vt 0.920581 0.998008
vt 0.499097 0.001992
vt 0.518614 0.001993
vt 0.499097 0.026800
vn 0.000000 0.000000 1.000000
vn 0.000000 0.000000 1.000000
vn 0.000000 0.000000 1.000000
vn 0.000000 0.000000 1.000000
vn 1.000000 0.000000 0.000000
vn 1.000000 0.000000 0.000000
vn 1.000000 0.000000 0.000000
vn 1.000000 0.000000 0.000000
vn 0.000000 0.000000 -1.000000
vn 0.000000 0.000000 -1.000000
vn 0.000000 0.000000 -1.000000
vn 0.000000 0.000000 -1.000000
vn -1.000000 0.000000 0.000000
vn -1.000000 0.000000 0.000000
vn -1.000000 0.000000 0.000000
vn -1.000000 0.000000 0.000000
vn 0.000000 1.000000 0.000000
vn 0.000000 1.000000 0.000000
vn 0.000000 1.000000 0.000000
vn 0.000000 1.000000 0.000000
vn -1.000000 0.000000 0.000000
vn -1.000000 0.000000 0.000000
vn 0.000000 1.000000 0.000000
vn 0.000000 1.000000 0.000000
vn 1.000000 0.000000 0.000000
vn 1.000000 0.000000 0.000000
vn -1.000000 0.000000 0.000000
vn -1.000000 0.000000 0.000000
vn 1.000000 0.000000 0.000000
vn 1.000000 0.000000 0.000000
vn 0.000000 1.000000 0.000000
vn 0.000000 1.000000 0.000000
vn 1.000000 0.000000 0.000000
vn 1.000000 0.000000 0.000000
vn 0.000000 0.000000 1.000000
vn 0.000000 0.000000 1.000000
vn -1.000000 0.000000 0.000000
vn -1.000000 0.000000 0.000000
vn -1.000000 0.000000 0.000000
vn -1.000000 0.000000 0.000000
vn 0.000000 0.000000 -1.000000
vn 0.000000 0.000000 -1.000000
vn 1.000000 0.000000 0.000000
vn 1.000000 0.000000 0.000000
s 1
g ManPad_6
usemtl lambert4SG
f 1/27/1 2/28/2 18/34/3 19/37/4
s 2
f 12/4/5 15/5/6 24/44/7 17/33/8
s 3
f 4/31/9 3/32/10 22/40/11 23/43/12
s 4
f 14/11/13 9/12/14 20/38/15 21/39/16
s 5
usemtl lambert3SG
f 10/17/17 11/18/18 16/19/19 13/20/20
s 4
usemtl lambert4SG
f 9/12/14 1/15/21 19/36/22 20/38/15
s 5
usemtl lambert3SG
f 5/21/23 6/22/24 11/18/18 10/17/17
s 2
usemtl lambert4SG
f 2/7/25 12/4/5 17/33/8 18/35/26
s 4
f 3/16/27 14/11/13 21/39/16 22/41/28
s 2
f 15/5/6 4/8/29 23/42/30 24/44/7
s 5
usemtl lambert2SG
f 13/20/20 16/19/19 7/23/31 8/24/32
s 2
usemtl lambert4SG
f 18/35/26 17/33/8 11/2/33 6/3/34
s 1
f 19/37/4 18/34/3 6/25/35 5/26/36
s 4
f 10/9/37 20/38/15 19/36/22 5/13/38
f 21/39/16 20/38/15 10/9/37 13/10/39
f 22/41/28 21/39/16 13/10/39 8/14/40
s 3
usemtl lambert2SG
f 23/43/12 22/40/11 8/29/41 7/30/42
s 2
usemtl lambert4SG
f 16/1/43 24/44/7 23/42/30 7/6/44
f 16/1/43 11/2/33 17/33/8 24/44/7
