# This file uses centimeters as units for non-parametric coordinates.

mtllib ManPad_5.mtl
g default
v 77.000000 0.000000 69.000000
v 87.000000 0.000000 69.000000
v 77.000000 0.000000 59.000000
v 87.000000 0.000000 59.000000
v 77.000000 5.000000 69.000000
v 87.000000 5.000000 69.000000
v 87.000000 5.000000 59.000000
v 77.000000 5.000000 59.000000
v 77.000000 0.000000 64.000000
v 77.000000 5.000000 64.000000
v 87.000000 5.000000 64.000000
v 87.000000 0.000000 64.000000
v 77.000000 5.000000 59.500000
v 77.000000 0.000000 59.500000
v 87.000000 0.000000 59.500000
v 87.000000 5.000000 59.500000
v 77.000000 4.500000 69.000000
v 87.000000 4.500000 69.000000
v 87.000000 4.500000 64.000000
v 87.000000 4.500000 59.500000
v 87.000000 4.500000 59.000000
v 77.000000 4.500000 59.000000
v 77.000000 4.500000 59.500000
v 77.000000 4.500000 64.000000
vt 0.505299 0.026800
vt 0.505299 0.250069
vt 0.480491 0.250069
vt 0.480491 0.026800
vt 0.480491 0.498147
vt 0.505299 0.498147
vt 0.257222 0.250069
vt 0.257222 0.026800
vt 0.480491 0.001992
vt 0.505299 0.001992
vt 0.257222 0.498147
vt 0.257222 0.001992
vt 0.901975 0.973200
vt 0.901975 0.749931
vt 0.926782 0.749931
vt 0.926782 0.973200
vt 0.678705 0.973200
vt 0.678705 0.749931
vt 0.901975 0.501853
vt 0.926782 0.501853
vt 0.901975 0.998008
vt 0.926782 0.998008
vt 0.678705 0.501853
vt 0.678705 0.998008
vt 0.176853 0.749930
vt 0.673008 0.749930
vt 0.673008 0.973199
vt 0.176853 0.973199
vt 0.176853 0.501853
vt 0.673008 0.501853
vt 0.673008 0.998007
vt 0.176853 0.998007
vt 0.225120 0.498147
vt 0.225120 0.001992
vt 0.249927 0.001992
vt 0.249927 0.498147
vt 0.001850 0.498147
vt 0.001850 0.001992
vt 0.537221 0.001993
vt 0.537221 0.498147
vt 0.512411 0.498147
vt 0.512411 0.001993
vt 0.760489 0.001993
vt 0.760489 0.498147
vn 0.000000 0.000000 1.000000
vn 0.000000 0.000000 1.000000
vn 0.000000 0.000000 1.000000
vn 0.000000 0.000000 1.000000
vn 1.000000 0.000000 0.000000
vn 1.000000 0.000000 0.000000
vn 1.000000 0.000000 0.000000
vn 1.000000 0.000000 0.000000
vn 0.000000 0.000000 -1.000000
vn 0.000000 0.000000 -1.000000
vn 0.000000 0.000000 -1.000000
vn 0.000000 0.000000 -1.000000
vn -1.000000 0.000000 0.000000
vn -1.000000 0.000000 0.000000
vn -1.000000 0.000000 0.000000
vn -1.000000 0.000000 0.000000
vn 0.000000 1.000000 0.000000
vn 0.000000 1.000000 0.000000
vn 0.000000 1.000000 0.000000
vn 0.000000 1.000000 0.000000
vn -1.000000 0.000000 0.000000
vn -1.000000 0.000000 0.000000
vn 0.000000 1.000000 0.000000
vn 0.000000 1.000000 0.000000
vn 1.000000 0.000000 0.000000
vn 1.000000 0.000000 0.000000
vn -1.000000 0.000000 0.000000
vn -1.000000 0.000000 0.000000
vn 1.000000 0.000000 0.000000
vn 1.000000 0.000000 0.000000
vn 0.000000 1.000000 0.000000
vn 0.000000 1.000000 0.000000
vn 0.000000 0.000000 1.000000
vn 0.000000 0.000000 1.000000
vn 1.000000 0.000000 0.000000
vn 1.000000 0.000000 0.000000
vn 1.000000 0.000000 0.000000
vn 1.000000 0.000000 0.000000
vn 0.000000 0.000000 -1.000000
vn 0.000000 0.000000 -1.000000
vn -1.000000 0.000000 0.000000
vn -1.000000 0.000000 0.000000
vn -1.000000 0.000000 0.000000
vn -1.000000 0.000000 0.000000
s 1
g ManPad_5
usemtl lambert4SG
f 17/33/1 18/34/2 6/35/3 5/36/4
s 2
f 16/1/5 11/2/6 19/3/7 20/4/8
s 3
usemtl lambert2SG
f 21/39/9 22/40/10 8/41/11 7/42/12
s 4
usemtl lambert4SG
f 23/13/13 24/14/14 10/15/15 13/16/16
s 5
usemtl lambert3SG
f 10/25/17 11/26/18 16/27/19 13/28/20
s 4
usemtl lambert4SG
f 10/15/15 24/14/14 17/19/21 5/20/22
s 5
usemtl lambert3SG
f 5/29/23 6/30/24 11/26/18 10/25/17
s 2
usemtl lambert4SG
f 18/5/25 19/3/7 11/2/6 6/6/26
s 4
f 22/21/27 23/13/13 13/16/16 8/22/28
s 2
f 16/1/5 20/4/8 21/9/29 7/10/30
s 5
usemtl lambert2SG
f 13/28/20 16/27/19 7/31/31 8/32/32
s 1
usemtl lambert4SG
f 1/37/33 2/38/34 18/34/2 17/33/1
s 2
f 2/11/35 12/7/36 19/3/7 18/5/25
f 19/3/7 12/7/36 15/8/37 20/4/8
f 21/9/29 20/4/8 15/8/37 4/12/38
s 3
f 4/43/39 3/44/40 22/40/10 21/39/9
s 4
f 3/24/41 14/17/42 23/13/13 22/21/27
f 14/17/42 9/18/43 24/14/14 23/13/13
f 17/19/21 24/14/14 9/18/43 1/23/44
