# This file uses centimeters as units for non-parametric coordinates.

mtllib ManPad_Half_3_OneGrind.mtl
g default
v 66.000000 0.000000 45.000000
v 76.000000 0.000000 45.000000
v 76.000000 3.000000 45.000000
v 66.000000 3.000000 45.000000
v 66.000000 0.000000 50.000000
v 66.000000 3.000000 50.000000
v 76.000000 3.000000 50.000000
v 76.000000 0.000000 50.000000
v 66.000000 3.000000 45.500000
v 66.000000 0.000000 45.500000
v 76.000000 0.000000 45.500000
v 76.000000 3.000000 45.500000
v 76.000000 2.500000 50.000000
v 76.000000 2.500000 45.500000
v 76.000000 2.500000 45.000000
v 66.000000 2.500000 45.000000
v 66.000000 2.500000 45.500000
v 66.000000 2.500000 50.000000
vt 0.940065 0.700332
vt 0.940065 0.998008
vt 0.906991 0.998008
vt 0.906991 0.700332
vt 0.741615 0.998008
vt 0.741615 0.700332
vt 0.906991 0.667256
vt 0.940065 0.667256
vt 0.741615 0.667256
vt 0.702762 0.964933
vt 0.702762 0.667256
vt 0.735837 0.667256
vt 0.735837 0.964933
vt 0.537386 0.964933
vt 0.537386 0.667256
vt 0.702762 0.998008
vt 0.735837 0.998008
vt 0.537386 0.998008
vt 0.505346 0.663496
vt 0.207670 0.663496
vt 0.207670 0.001992
vt 0.505346 0.001992
vt 0.538422 0.001992
vt 0.538422 0.663496
vt 0.034954 0.001992
vt 0.034954 0.663496
vt 0.001877 0.663496
vt 0.001877 0.001992
vt 0.200330 0.001992
vt 0.200330 0.663496
vt 0.743908 0.001992
vt 0.743908 0.663496
vt 0.710834 0.663496
vt 0.710834 0.001992
vt 0.545457 0.663496
vt 0.545457 0.001992
vn 1.000000 0.000000 0.000000
vn 1.000000 0.000000 0.000000
vn 1.000000 0.000000 0.000000
vn 1.000000 0.000000 0.000000
vn 0.000000 0.000000 -1.000000
vn 0.000000 0.000000 -1.000000
vn 0.000000 0.000000 -1.000000
vn 0.000000 0.000000 -1.000000
vn -1.000000 0.000000 0.000000
vn -1.000000 0.000000 0.000000
vn -1.000000 0.000000 0.000000
vn -1.000000 0.000000 0.000000
vn 0.000000 1.000000 0.000000
vn 0.000000 1.000000 0.000000
vn 0.000000 1.000000 0.000000
vn 0.000000 1.000000 0.000000
vn -1.000000 0.000000 0.000000
vn -1.000000 0.000000 0.000000
vn 1.000000 0.000000 0.000000
vn 1.000000 0.000000 0.000000
vn 0.000000 1.000000 0.000000
vn 0.000000 1.000000 0.000000
vn 1.000000 0.000000 0.000000
vn 1.000000 0.000000 0.000000
vn 1.000000 0.000000 0.000000
vn 0.000000 0.000000 -1.000000
vn 0.000000 0.000000 -1.000000
vn -1.000000 0.000000 0.000000
vn -1.000000 0.000000 0.000000
vn -1.000000 0.000000 0.000000
vn 0.000000 0.000000 1.000000
vn 0.000000 0.000000 1.000000
vn 0.000000 0.000000 1.000000
vn 0.000000 0.000000 1.000000
vn 0.000000 0.000000 1.000000
vn 0.000000 0.000000 1.000000
s 1
g ManPad_Half_3_OneGrind
usemtl lambert4SG
f 12/1/1 7/2/2 13/3/3 14/4/4
s 2
usemtl lambert2SG
f 15/25/5 16/26/6 4/27/7 3/28/8
s 3
usemtl lambert4SG
f 17/10/9 18/11/10 6/12/11 9/13/12
s 4
usemtl lambert3SG
f 9/19/13 6/20/14 7/21/15 12/22/16
s 3
usemtl lambert4SG
f 16/16/17 17/10/9 9/13/12 4/17/18
s 1
f 12/1/1 14/4/4 15/7/19 3/8/20
s 4
usemtl lambert2SG
f 9/19/13 12/22/16 3/23/21 4/24/22
s 1
usemtl lambert4SG
f 13/3/3 8/5/23 11/6/24 14/4/4
f 15/7/19 14/4/4 11/6/24 2/9/25
s 2
f 2/29/26 1/30/27 16/26/6 15/25/5
s 3
f 1/18/28 10/14/29 17/10/9 16/16/17
f 10/14/29 5/15/30 18/11/10 17/10/9
s 5
f 7/31/31 6/32/32 18/33/33 13/34/34
f 13/34/34 18/33/33 5/35/35 8/36/36
