# This file uses centimeters as units for non-parametric coordinates.

mtllib ManPad_Half_6_OneGrind.mtl
g default
v 66.000000 0.000000 81.000000
v 76.000000 0.000000 81.000000
v 76.000000 6.000000 81.000000
v 66.000000 6.000000 81.000000
v 66.000000 0.000000 86.000000
v 66.000000 6.000000 86.000000
v 76.000000 6.000000 86.000000
v 76.000000 0.000000 86.000000
v 66.000000 6.000000 81.500000
v 66.000000 0.000000 81.500000
v 76.000000 0.000000 81.500000
v 76.000000 6.000000 81.500000
v 76.000000 5.500000 86.000000
v 76.000000 5.500000 81.500000
v 76.000000 5.500000 81.000000
v 66.000000 5.500000 81.000000
v 66.000000 5.500000 81.500000
v 66.000000 5.500000 86.000000
vt 0.998008 0.661204
vt 0.998008 0.942061
vt 0.966801 0.942061
vt 0.966801 0.661204
vt 0.685945 0.942061
vt 0.685945 0.661204
vt 0.966801 0.629998
vt 0.998008 0.629998
vt 0.685945 0.629998
vt 0.648604 0.910855
vt 0.648604 0.629998
vt 0.679809 0.629998
vt 0.679809 0.910855
vt 0.367747 0.910855
vt 0.367747 0.629998
vt 0.648604 0.942061
vt 0.679809 0.942061
vt 0.367747 0.942061
vt 0.602672 0.626007
vt 0.321815 0.626007
vt 0.321815 0.001881
vt 0.602672 0.001881
vt 0.633878 0.001881
vt 0.633878 0.626007
vt 0.033201 0.001879
vt 0.033201 0.626005
vt 0.001992 0.626005
vt 0.001992 0.001879
vt 0.314055 0.001879
vt 0.314055 0.626005
vt 0.953506 0.001880
vt 0.953506 0.626006
vt 0.922300 0.626006
vt 0.922300 0.001880
vt 0.641444 0.626006
vt 0.641444 0.001880
vn 1.000000 0.000000 0.000000
vn 1.000000 0.000000 0.000000
vn 1.000000 0.000000 0.000000
vn 1.000000 0.000000 0.000000
vn 0.000000 0.000000 -1.000000
vn 0.000000 0.000000 -1.000000
vn 0.000000 0.000000 -1.000000
vn 0.000000 0.000000 -1.000000
vn -1.000000 0.000000 0.000000
vn -1.000000 0.000000 0.000000
vn -1.000000 0.000000 0.000000
vn -1.000000 0.000000 0.000000
vn 0.000000 1.000000 0.000000
vn 0.000000 1.000000 0.000000
vn 0.000000 1.000000 0.000000
vn 0.000000 1.000000 0.000000
vn -1.000000 0.000000 0.000000
vn -1.000000 0.000000 0.000000
vn 1.000000 0.000000 0.000000
vn 1.000000 0.000000 0.000000
vn 0.000000 1.000000 0.000000
vn 0.000000 1.000000 0.000000
vn 1.000000 0.000000 0.000000
vn 1.000000 0.000000 0.000000
vn 1.000000 0.000000 0.000000
vn 0.000000 0.000000 -1.000000
vn 0.000000 0.000000 -1.000000
vn -1.000000 0.000000 0.000000
vn -1.000000 0.000000 0.000000
vn -1.000000 0.000000 0.000000
vn 0.000000 0.000000 1.000000
vn 0.000000 0.000000 1.000000
vn 0.000000 0.000000 1.000000
vn 0.000000 0.000000 1.000000
vn 0.000000 0.000000 1.000000
vn 0.000000 0.000000 1.000000
s 1
g ManPad_Half_6_OneGrind
usemtl lambert4SG
f 12/1/1 7/2/2 13/3/3 14/4/4
s 2
usemtl lambert2SG
f 15/25/5 16/26/6 4/27/7 3/28/8
s 3
usemtl lambert4SG
f 17/10/9 18/11/10 6/12/11 9/13/12
s 4
usemtl lambert3SG
f 9/19/13 6/20/14 7/21/15 12/22/16
s 3
usemtl lambert4SG
f 16/16/17 17/10/9 9/13/12 4/17/18
s 1
f 12/1/1 14/4/4 15/7/19 3/8/20
s 4
usemtl lambert2SG
f 9/19/13 12/22/16 3/23/21 4/24/22
s 1
usemtl lambert4SG
f 13/3/3 8/5/23 11/6/24 14/4/4
f 15/7/19 14/4/4 11/6/24 2/9/25
s 2
f 2/29/26 1/30/27 16/26/6 15/25/5
s 3
f 1/18/28 10/14/29 17/10/9 16/16/17
f 10/14/29 5/15/30 18/11/10 17/10/9
s 5
f 7/31/31 6/32/32 18/33/33 13/34/34
f 13/34/34 18/33/33 5/35/35 8/36/36
