# This file uses centimeters as units for non-parametric coordinates.

mtllib ManPad_Half_4_TwoGrind.mtl
g default
v 66.000000 0.000000 51.000000
v 76.000000 0.000000 51.000000
v 76.000000 4.000000 51.000000
v 66.000000 4.000000 51.000000
v 66.000000 0.000000 56.000000
v 66.000000 4.000000 56.000000
v 76.000000 4.000000 56.000000
v 76.000000 0.000000 56.000000
v 66.000000 4.000000 51.500000
v 66.000000 0.000000 51.500000
v 76.000000 0.000000 51.500000
v 76.000000 4.000000 51.500000
v 76.000000 3.500000 56.000000
v 76.000000 3.500000 51.500000
v 76.000000 3.500000 51.000000
v 66.000000 3.500000 51.000000
v 66.000000 3.500000 51.500000
v 66.000000 3.500000 56.000000
v 66.000000 0.000000 55.500000
v 66.000000 3.500000 55.500000
v 66.000000 4.000000 55.500000
v 76.000000 4.000000 55.500000
v 76.000000 3.500000 55.500000
v 76.000000 0.000000 55.500000
vt 0.998008 0.652991
vt 0.998008 0.899520
vt 0.967191 0.899520
vt 0.967191 0.652991
vt 0.998008 0.930337
vt 0.967191 0.930337
vt 0.751477 0.899520
vt 0.751477 0.652991
vt 0.967191 0.622175
vt 0.998008 0.622175
vt 0.751477 0.930337
vt 0.751477 0.622175
vt 0.714525 0.899521
vt 0.714525 0.652992
vt 0.745340 0.652992
vt 0.745340 0.899521
vt 0.498810 0.899521
vt 0.498810 0.652992
vt 0.714525 0.622175
vt 0.745340 0.622175
vt 0.714525 0.930337
vt 0.745340 0.930337
vt 0.498810 0.622175
vt 0.498810 0.930337
vt 0.532896 0.618184
vt 0.286367 0.618184
vt 0.286367 0.001860
vt 0.532896 0.001860
vt 0.255551 0.618184
vt 0.255551 0.001860
vt 0.563713 0.001860
vt 0.563713 0.618184
vt 0.032810 0.001856
vt 0.032810 0.618180
vt 0.001992 0.618180
vt 0.001992 0.001856
vt 0.248521 0.001856
vt 0.248521 0.618180
vt 0.817810 0.001859
vt 0.817810 0.618183
vt 0.786994 0.618183
vt 0.786994 0.001859
vt 0.571281 0.618183
vt 0.571281 0.001859
vn 1.000000 0.000000 0.000000
vn 1.000000 0.000000 0.000000
vn 1.000000 0.000000 0.000000
vn 1.000000 0.000000 0.000000
vn 0.000000 0.000000 -1.000000
vn 0.000000 0.000000 -1.000000
vn 0.000000 0.000000 -1.000000
vn 0.000000 0.000000 -1.000000
vn -1.000000 0.000000 0.000000
vn -1.000000 0.000000 0.000000
vn -1.000000 0.000000 0.000000
vn -1.000000 0.000000 0.000000
vn 0.000000 1.000000 0.000000
vn 0.000000 1.000000 0.000000
vn 0.000000 1.000000 0.000000
vn 0.000000 1.000000 0.000000
vn -1.000000 0.000000 0.000000
vn -1.000000 0.000000 0.000000
vn 1.000000 0.000000 0.000000
vn 1.000000 0.000000 0.000000
vn 0.000000 1.000000 0.000000
vn 0.000000 1.000000 0.000000
vn 1.000000 0.000000 0.000000
vn 1.000000 0.000000 0.000000
vn 1.000000 0.000000 0.000000
vn 0.000000 0.000000 -1.000000
vn 0.000000 0.000000 -1.000000
vn -1.000000 0.000000 0.000000
vn -1.000000 0.000000 0.000000
vn -1.000000 0.000000 0.000000
vn 0.000000 0.000000 1.000000
vn 0.000000 0.000000 1.000000
vn 0.000000 0.000000 1.000000
vn 0.000000 0.000000 1.000000
vn 0.000000 0.000000 1.000000
vn 0.000000 0.000000 1.000000
vn -1.000000 0.000000 0.000000
vn -1.000000 0.000000 0.000000
vn -1.000000 0.000000 0.000000
vn 0.000000 1.000000 0.000000
vn 0.000000 1.000000 0.000000
vn 1.000000 0.000000 0.000000
vn 1.000000 0.000000 0.000000
vn 1.000000 0.000000 0.000000
s 1
g ManPad_Half_4_TwoGrind
usemtl lambert4SG
f 12/1/1 22/2/2 23/3/3 14/4/4
s 2
usemtl lambert2SG
f 15/33/5 16/34/6 4/35/7 3/36/8
s 3
usemtl lambert4SG
f 17/13/9 20/14/10 21/15/11 9/16/12
s 4
usemtl lambert3SG
f 9/25/13 21/26/14 22/27/15 12/28/16
s 3
usemtl lambert4SG
f 16/21/17 17/13/9 9/16/12 4/22/18
s 1
f 12/1/1 14/4/4 15/9/19 3/10/20
s 4
usemtl lambert2SG
f 9/25/13 12/28/16 3/31/21 4/32/22
s 1
usemtl lambert4SG
f 14/4/4 23/3/3 24/7/23 11/8/24
f 15/9/19 14/4/4 11/8/24 2/12/25
s 2
f 2/37/26 1/38/27 16/34/6 15/33/5
s 3
f 1/24/28 10/17/29 17/13/9 16/21/17
f 10/17/29 19/18/30 20/14/10 17/13/9
s 5
usemtl lambert2SG
f 7/39/31 6/40/32 18/41/33 13/42/34
usemtl lambert4SG
f 13/42/34 18/41/33 5/43/35 8/44/36
s 3
f 18/19/37 20/14/10 19/18/30 5/23/38
f 21/15/11 20/14/10 18/19/37 6/20/39
s 4
usemtl lambert2SG
f 6/29/40 7/30/41 22/27/15 21/26/14
s 1
usemtl lambert4SG
f 7/5/42 13/6/43 23/3/3 22/2/2
f 24/7/23 23/3/3 13/6/43 8/11/44
