# This file uses centimeters as units for non-parametric coordinates.

mtllib Pyramid_2.mtl
g default
v 0.000000 -0.000001 36.000000
v 10.000000 2.000000 36.000000
v 10.000000 0.000000 36.000000
v 10.000000 0.000000 26.000000
vt 0.585844 0.501370
vt 0.685171 0.501370
vt 0.685171 0.998008
vt 0.001368 0.001992
vt 0.100695 0.001992
vt 0.001368 0.498630
vt 0.105868 0.498630
vt 0.105868 0.001992
vt 0.602506 0.001992
vn -0.000000 0.000000 1.000000
vn -0.000000 0.000000 1.000000
vn -0.000000 0.000000 1.000000
vn -0.192450 0.962251 -0.192450
vn -0.192450 0.962250 -0.192450
vn -0.192450 0.962251 -0.192450
vn 1.000000 0.000000 0.000000
vn 1.000000 0.000000 0.000000
vn 1.000000 0.000000 0.000000
s off
g Pyramid_2
usemtl lambert4SG
f 3/4/1 2/5/2 1/6/3
usemtl lambert3SG
f 1/7/4 2/8/5 4/9/6
usemtl lambert4SG
f 2/1/7 3/2/8 4/3/9
