# This file uses centimeters as units for non-parametric coordinates.

mtllib Pyramid_3.mtl
g default
v 0.000000 -0.000001 47.000000
v 10.000000 3.000000 47.000000
v 10.000000 0.000000 47.000000
v 10.000000 0.000000 37.000000
vt 0.553030 0.501404
vt 0.702011 0.501404
vt 0.702011 0.998008
vt 0.001401 0.001992
vt 0.150383 0.001992
vt 0.001401 0.498597
vt 0.155081 0.498596
vt 0.155081 0.001992
vt 0.651686 0.001992
vn -0.000000 0.000000 1.000000
vn -0.000000 0.000000 1.000000
vn -0.000000 0.000000 1.000000
vn -0.276172 0.920575 -0.276172
vn -0.276172 0.920575 -0.276172
vn -0.276172 0.920575 -0.276172
vn 1.000000 0.000000 0.000000
vn 1.000000 0.000000 0.000000
vn 1.000000 0.000000 0.000000
s off
g Pyramid_3
usemtl lambert4SG
f 3/4/1 2/5/2 1/6/3
usemtl lambert3SG
f 1/7/4 2/8/5 4/9/6
usemtl lambert4SG
f 2/1/7 3/2/8 4/3/9
