# This file uses centimeters as units for non-parametric coordinates.

mtllib Pyramid_5.mtl
g default
v 0.000000 -0.000001 69.000000
v 10.000000 5.000000 69.000000
v 10.000000 0.000000 69.000000
v 10.000000 0.000000 59.000000
vt 0.752616 0.000982
vt 0.998008 0.000982
vt 0.998008 0.491766
vt 0.001992 0.000982
vt 0.247384 0.000982
vt 0.001992 0.491767
vt 0.253652 0.491767
vt 0.253652 0.000982
vt 0.744437 0.000982
vn 0.000000 0.000000 1.000000
vn 0.000000 0.000000 1.000000
vn 0.000000 0.000000 1.000000
vn -0.408248 0.816497 -0.408248
vn -0.408249 0.816497 -0.408248
vn -0.408248 0.816497 -0.408248
vn 1.000000 0.000000 0.000000
vn 1.000000 0.000000 0.000000
vn 1.000000 0.000000 0.000000
s off
g Pyramid_5
usemtl lambert4SG
f 3/4/1 2/5/2 1/6/3
usemtl lambert3SG
f 1/7/4 2/8/5 4/9/6
usemtl lambert4SG
f 2/1/7 3/2/8 4/3/9
