# This file uses centimeters as units for non-parametric coordinates.

mtllib Pyramid_FiveSides.mtl
g default
v 140.482773 -0.000000 22.582747
v 144.500000 -0.000000 34.946484
v 157.500000 -0.000000 34.946484
v 161.517212 -0.000000 22.582748
v 151.000000 -0.000000 14.941540
v 151.000000 4.000000 26.000000
vt 0.250000 0.500000
vt 0.350000 0.500000
vt 0.450000 0.500000
vt 0.550000 0.500000
vt 0.650000 0.500000
vt 0.750000 0.500000
vt 0.500000 1.000000
vn -0.388188 0.912908 0.126130
vn -0.199933 0.940373 0.275184
vn -0.000000 1.000000 0.000000
vn 0.199933 0.940373 0.275184
vn 0.323498 0.940373 -0.105111
vn -0.000000 0.940373 -0.340146
vn -0.239913 0.912908 -0.330212
s 1
g Pyramid_FiveSides
usemtl lambert3SG
f 1/1/1 2/2/2 6/7/3
f 2/2/2 3/3/4 6/7/3
f 3/3/4 4/4/5 6/7/3
f 4/4/5 5/5/6 6/7/3
f 5/5/6 1/6/7 6/7/3
