# This file uses centimeters as units for non-parametric coordinates.

mtllib Pyramid_4.mtl
g default
v 0.000000 -0.000001 58.000000
v 10.000000 4.000000 58.000000
v 10.000000 0.000000 58.000000
v 10.000000 0.000000 48.000000
vt 0.643319 0.501684
vt 0.841848 0.501684
vt 0.841848 0.998008
vt 0.001680 0.001992
vt 0.200210 0.001992
vt 0.001680 0.498317
vt 0.205700 0.498317
vt 0.205700 0.001992
vt 0.702025 0.001992
vn 0.000001 0.000000 1.000000
vn 0.000001 0.000000 1.000000
vn 0.000001 0.000000 1.000000
vn -0.348156 0.870388 -0.348155
vn -0.348156 0.870388 -0.348155
vn -0.348156 0.870388 -0.348155
vn 1.000000 0.000000 0.000000
vn 1.000000 0.000000 0.000000
vn 1.000000 0.000000 0.000000
s off
g Pyramid_4
usemtl lambert4SG
f 3/4/1 2/5/2 1/6/3
usemtl lambert3SG
f 1/7/4 2/8/5 4/9/6
usemtl lambert4SG
f 2/1/7 3/2/8 4/3/9
