# This file uses centimeters as units for non-parametric coordinates.

mtllib Pyramid_1.mtl
g default
v 0.000000 -0.000001 25.000000
v 10.000000 1.000000 25.000000
v 10.000000 0.000000 25.000000
v 10.000000 0.000000 15.000000
vt 0.916198 0.001636
vt 0.998009 0.001636
vt 0.998009 0.819731
vt 0.001992 0.001637
vt 0.083801 0.001637
vt 0.001992 0.819732
vt 0.090451 0.819732
vt 0.090451 0.001636
vt 0.908546 0.001636
vn -0.000000 0.000000 1.000000
vn -0.000000 0.000000 1.000000
vn -0.000000 0.000000 1.000000
vn -0.099015 0.990148 -0.099015
vn -0.099015 0.990148 -0.099015
vn -0.099015 0.990148 -0.099015
vn 1.000000 0.000000 0.000000
vn 1.000000 0.000000 0.000000
vn 1.000000 0.000000 0.000000
s off
g Pyramid_1
usemtl lambert4SG
f 3/4/1 2/5/2 1/6/3
usemtl lambert3SG
f 1/7/4 2/8/5 4/9/6
usemtl lambert4SG
f 2/1/7 3/2/8 4/3/9
