# This file uses centimeters as units for non-parametric coordinates.

mtllib Quater_SML_Spine.mtl
g default
v -71.000000 0.000000 15.000036
v -71.000000 0.000000 24.999964
v -71.000000 0.061555 24.217827
v -71.000000 0.244715 23.454914
v -71.000000 0.544965 22.730045
v -71.000000 0.954913 22.061071
v -71.000000 1.464465 21.464464
v -71.000000 2.061073 20.954912
v -71.000000 2.730047 20.544964
v -71.000000 3.454915 20.244715
v -71.000000 4.217828 20.015388
v -71.000000 4.217826 19.984612
v -71.000000 3.454914 19.755285
v -71.000000 2.730046 19.455036
v -71.000000 2.061071 19.045088
v -71.000000 1.464463 18.535536
v -71.000000 0.954912 17.938927
v -71.000000 0.544965 17.269953
v -71.000000 0.244715 16.545086
v -71.000000 0.061555 15.782173
v -61.000000 0.061555 15.782173
v -61.000000 -0.000000 15.000036
v -61.000000 -0.000000 24.999964
v -61.000000 4.217826 19.984612
v -61.000000 3.454914 19.755285
v -61.000000 2.730046 19.455036
v -61.000000 2.061071 19.045088
v -61.000000 1.464463 18.535536
v -61.000000 0.954912 17.938927
v -61.000000 0.544965 17.269953
v -61.000004 0.244715 16.545086
v -61.000000 4.217828 20.015388
v -61.000000 3.454915 20.244715
v -61.000000 2.730047 20.544964
v -61.000000 2.061073 20.954912
v -61.000000 1.464465 21.464464
v -61.000000 0.954913 22.061071
v -61.000000 0.544965 22.730045
v -61.000000 0.244715 23.454914
v -61.000000 0.061555 24.217827
v -66.000000 0.000000 15.000036
v -66.000000 0.061555 15.782173
v -66.000000 0.244715 16.545086
v -66.000000 0.544965 17.269953
v -66.000000 0.954912 17.938927
v -66.000000 1.464463 18.535536
v -66.000000 2.061071 19.045088
v -66.000000 2.730046 19.455036
v -66.000000 3.454914 19.755285
v -66.000000 4.217826 19.984612
v -66.000000 4.217828 20.015388
v -66.000000 3.454915 20.244715
v -66.000000 2.730047 20.544964
v -66.000000 2.061073 20.954912
v -66.000000 1.464465 21.464464
v -66.000000 0.954913 22.061071
v -66.000000 0.544965 22.730045
v -66.000000 0.244715 23.454914
v -66.000000 0.061555 24.217827
v -66.000000 0.000000 24.999964
v -71.000000 0.000000 20.000000
v -61.000000 -0.000000 20.000000
v -61.000000 0.061555 20.000000
v -61.000000 0.244715 20.000000
v -61.000000 0.544965 20.000000
v -61.000000 0.954913 20.000000
v -61.000000 1.464464 20.000000
v -61.000000 2.061072 20.000000
v -61.000000 2.730046 20.000000
v -61.000000 3.454914 20.000000
v -61.000000 4.217827 20.000000
v -66.000000 4.217827 20.000000
v -71.000000 4.217827 20.000000
v -71.000000 3.454914 20.000000
v -71.000000 2.730046 20.000000
v -71.000000 2.061072 20.000000
v -71.000000 1.464464 20.000000
v -71.000000 0.954913 20.000000
v -71.000000 0.544965 20.000000
v -71.000000 0.244715 20.000000
v -71.000000 0.061555 20.000000
vt 0.824220 0.760137
vt 0.824220 0.824564
vt 0.412360 0.824564
vt 0.412360 0.760137
vt 0.824220 0.413971
vt 0.824220 0.432861
vt 0.412360 0.432861
vt 0.412360 0.413971
vt 0.824220 0.457593
vt 0.412360 0.457593
vt 0.824220 0.491362
vt 0.412360 0.491362
vt 0.824220 0.533335
vt 0.412360 0.533335
vt 0.824220 0.582479
vt 0.412360 0.582479
vt 0.824220 0.637585
vt 0.412360 0.637585
vt 0.824220 0.697294
vt 0.412360 0.697294
vt 0.824220 0.392546
vt 0.824220 0.411436
vt 0.412360 0.411436
vt 0.412360 0.392546
vt 0.824220 0.367813
vt 0.412360 0.367813
vt 0.824220 0.334045
vt 0.412360 0.334045
vt 0.824220 0.292071
vt 0.412360 0.292071
vt 0.824220 0.242927
vt 0.412360 0.242927
vt 0.824220 0.187822
vt 0.412360 0.187822
vt 0.824220 0.128113
vt 0.412360 0.128113
vt 0.824220 0.065270
vt 0.412360 0.065270
vt 0.412360 0.000843
vt 0.824220 0.000843
vt 0.824220 0.412703
vt 0.412360 0.412703
vt 0.000500 0.824564
vt 0.000500 0.760137
vt 0.000500 0.697294
vt 0.000500 0.637585
vt 0.000500 0.582479
vt 0.000500 0.533335
vt 0.000500 0.491362
vt 0.000500 0.457593
vt 0.000500 0.432861
vt 0.000500 0.413971
vt 0.000500 0.412703
vt 0.000500 0.411436
vt 0.000500 0.392546
vt 0.000500 0.367813
vt 0.000500 0.334045
vt 0.000500 0.292071
vt 0.000500 0.242927
vt 0.000500 0.187822
vt 0.000500 0.128113
vt 0.000500 0.065270
vt 0.000500 0.000843
vt 0.999500 0.414913
vt 0.999501 0.416171
vt 0.999501 0.415542
vt 0.968319 0.405540
vt 0.968319 0.425544
vt 0.968319 0.415542
vt 0.938693 0.393268
vt 0.938693 0.437815
vt 0.938693 0.415542
vt 0.911351 0.376513
vt 0.911351 0.454570
vt 0.911351 0.415542
vt 0.827113 0.204767
vt 0.858294 0.204767
vt 0.858294 0.214769
vt 0.827113 0.205396
vt 0.858294 0.194765
vt 0.827113 0.204138
vt 0.887920 0.204767
vt 0.887920 0.227040
vt 0.887920 0.182494
vt 0.915262 0.204767
vt 0.915262 0.243795
vt 0.915262 0.165738
vt 0.939646 0.204767
vt 0.939646 0.264621
vt 0.939646 0.144912
vt 0.960472 0.204767
vt 0.960472 0.289006
vt 0.960472 0.120528
vt 0.977227 0.204767
vt 0.977227 0.316347
vt 0.977227 0.093187
vt 0.989499 0.204767
vt 0.989499 0.345974
vt 0.989499 0.063560
vt 0.996985 0.204767
vt 0.996985 0.377155
vt 0.996985 0.032379
vt 0.999501 0.204767
vt 0.999501 0.409122
vt 0.999501 0.000412
vt 0.829628 0.587930
vt 0.829628 0.415542
vt 0.837114 0.415542
vt 0.837114 0.556749
vt 0.827113 0.619897
vt 0.827113 0.415542
vt 0.829628 0.243154
vt 0.837114 0.274335
vt 0.849386 0.415542
vt 0.849386 0.527122
vt 0.827113 0.211187
vt 0.849386 0.303961
vt 0.866141 0.415542
vt 0.866141 0.499780
vt 0.866141 0.331303
vt 0.886967 0.415542
vt 0.886967 0.475396
vt 0.886967 0.355687
vn 0.000000 0.987688 -0.156436
vn 0.000000 0.996917 -0.078459
vn 0.000000 0.996917 -0.078459
vn 0.000000 0.987688 -0.156436
vn 0.000000 0.305435 -0.952213
vn 0.000000 0.335339 -0.942097
vn 0.000000 0.335339 -0.942097
vn 0.000000 0.305435 -0.952213
vn 0.000000 0.453990 -0.891007
vn 0.000000 0.453990 -0.891007
vn 0.000000 0.587786 -0.809017
vn 0.000000 0.587786 -0.809017
vn 0.000000 0.707107 -0.707106
vn 0.000000 0.707107 -0.707106
vn 0.000000 0.809017 -0.587785
vn 0.000000 0.809017 -0.587785
vn 0.000000 0.891006 -0.453991
vn 0.000000 0.891006 -0.453991
vn 0.000000 0.951056 -0.309017
vn 0.000000 0.951057 -0.309017
vn 0.000000 0.335339 0.942097
vn 0.000000 0.305436 0.952213
vn 0.000000 0.305436 0.952213
vn 0.000000 0.335339 0.942097
vn 0.000000 0.453990 0.891007
vn 0.000000 0.453990 0.891007
vn 0.000000 0.587786 0.809017
vn 0.000000 0.587786 0.809017
vn 0.000000 0.707107 0.707107
vn 0.000000 0.707107 0.707107
vn 0.000000 0.809017 0.587786
vn 0.000000 0.809017 0.587786
vn 0.000000 0.891006 0.453991
vn 0.000000 0.891007 0.453991
vn 0.000000 0.951056 0.309017
vn 0.000000 0.951056 0.309017
vn 0.000000 0.987688 0.156436
vn 0.000000 0.987688 0.156436
vn 0.000000 0.996917 0.078459
vn 0.000000 0.996917 0.078459
vn -1.000000 0.000000 0.000000
vn -1.000000 0.000000 0.000000
vn -1.000000 0.000000 0.000000
vn -1.000000 0.000000 0.000000
vn 1.000000 -0.000025 0.000000
vn 1.000000 -0.000017 -0.000000
vn 1.000000 -0.000004 -0.000000
vn 1.000000 -0.000014 0.000000
vn 0.000000 1.000000 -0.000062
vn 0.000000 1.000000 -0.000062
vn -1.000000 0.000004 0.000000
vn -1.000000 0.000002 0.000000
vn -1.000000 0.000002 0.000000
vn -1.000000 0.000006 0.000000
vn -1.000000 0.000002 0.000000
vn -1.000000 0.000000 0.000000
vn -1.000000 0.000000 0.000000
vn -1.000000 0.000000 0.000000
vn -1.000000 0.000002 0.000000
vn -1.000000 0.000000 0.000000
vn -1.000000 -0.000008 0.000000
vn -1.000000 -0.000006 0.000000
vn -1.000000 -0.000003 0.000000
vn -1.000000 -0.000018 0.000000
vn -1.000000 0.000027 0.000000
vn -1.000000 0.000000 0.000000
vn 1.000000 -0.000027 0.000000
vn 1.000000 -0.000013 0.000000
vn 1.000000 0.000001 0.000000
vn 1.000000 0.000006 -0.000000
vn 1.000000 0.000001 0.000000
vn 1.000000 0.000005 0.000000
vn 1.000000 -0.000003 0.000000
vn 1.000000 -0.000001 0.000000
vn 1.000000 0.000002 0.000000
vn 1.000000 0.000001 0.000000
vn 1.000000 0.000000 0.000000
vn 1.000000 0.000000 0.000000
vn 1.000000 0.000000 0.000000
vn 1.000000 0.000000 0.000000
vn 1.000000 0.000004 0.000000
vn 1.000000 0.000003 0.000000
vn 0.000000 0.996917 -0.078459
vn 0.000000 0.987688 -0.156436
vn 0.000000 0.951056 -0.309017
vn 0.000000 0.891006 -0.453991
vn 0.000000 0.809017 -0.587785
vn 0.000000 0.707107 -0.707106
vn 0.000000 0.587786 -0.809017
vn 0.000000 0.453990 -0.891007
vn 0.000000 0.335339 -0.942097
vn 0.000000 0.305435 -0.952213
vn 0.000000 1.000000 -0.000062
vn 0.000000 0.305436 0.952213
vn 0.000000 0.335339 0.942097
vn 0.000000 0.453990 0.891007
vn 0.000000 0.587786 0.809017
vn 0.000000 0.707107 0.707107
vn 0.000000 0.809017 0.587786
vn 0.000000 0.891006 0.453991
vn 0.000000 0.951056 0.309017
vn 0.000000 0.987688 0.156436
vn 0.000000 0.996917 0.078459
vn 1.000000 0.000000 0.000000
vn 1.000000 -0.000003 -0.000000
vn 1.000000 -0.000016 -0.000001
vn 1.000000 0.000014 -0.000001
vn 1.000000 0.000000 0.000000
vn 1.000000 0.000000 0.000000
vn 1.000000 0.000002 0.000000
vn 1.000000 0.000006 0.000000
vn 1.000000 0.000000 0.000000
vn 1.000000 0.000000 0.000000
vn -1.000000 0.000000 0.000000
vn -1.000000 0.000000 0.000000
vn -1.000000 0.000003 0.000000
vn -1.000000 0.000001 0.000000
vn -1.000000 0.000007 0.000000
vn -1.000000 0.000002 0.000000
vn -1.000000 0.000000 0.000000
vn -1.000000 -0.000014 0.000000
vn -1.000000 0.000043 0.000000
vn -1.000000 0.000054 0.000000
s 1
g Quater_SML_Spine
usemtl lambert3SG
f 21/1/1 22/2/2 41/3/3 42/4/4
f 24/5/5 25/6/6 49/7/7 50/8/8
f 25/6/6 26/9/9 48/10/10 49/7/7
f 26/9/9 27/11/11 47/12/12 48/10/10
f 27/11/11 28/13/13 46/14/14 47/12/12
f 28/13/13 29/15/15 45/16/16 46/14/14
f 29/15/15 30/17/17 44/18/18 45/16/16
f 30/17/17 31/19/19 43/20/20 44/18/18
f 31/19/19 21/1/1 42/4/4 43/20/20
f 33/21/21 32/22/22 51/23/23 52/24/24
f 34/25/25 33/21/21 52/24/24 53/26/26
f 35/27/27 34/25/25 53/26/26 54/28/28
f 36/29/29 35/27/27 54/28/28 55/30/30
f 37/31/31 36/29/29 55/30/30 56/32/32
f 38/33/33 37/31/31 56/32/32 57/34/34
f 39/35/35 38/33/33 57/34/34 58/36/36
f 40/37/37 39/35/35 58/36/36 59/38/38
f 59/38/38 60/39/39 23/40/40 40/37/37
s 4
usemtl lambert4SG
f 73/76/41 74/77/42 10/78/43 11/79/44
s 5
f 40/106/45 63/107/46 64/108/47 39/109/48
s 1
usemtl lambert3SG
f 71/41/49 72/42/50 51/23/23 32/22/22
s 4
usemtl lambert4SG
f 75/82/51 76/85/52 8/86/53 9/83/54
f 74/77/42 75/82/51 9/83/54 10/78/43
f 78/91/55 79/94/56 5/95/57 6/92/58
f 76/85/52 77/88/59 7/89/60 8/86/53
f 77/88/59 78/91/55 6/92/58 7/89/60
f 80/97/61 81/100/62 3/101/63 4/98/64
f 79/94/56 80/97/61 4/98/64 5/95/57
f 81/100/62 61/103/65 2/104/66 3/101/63
s 5
f 23/110/67 62/111/68 63/107/46 40/106/45
f 38/115/69 65/114/70 66/118/71 37/119/72
f 39/109/48 64/108/47 65/114/70 38/115/69
f 36/122/73 67/121/74 68/75/75 35/74/76
f 37/119/72 66/118/71 67/121/74 36/122/73
f 33/68/77 70/69/78 71/66/79 32/65/80
f 35/74/76 68/75/75 69/72/81 34/71/82
f 34/71/82 69/72/81 70/69/78 33/68/77
s 1
usemtl lambert3SG
f 42/4/4 41/3/3 1/43/83 20/44/84
f 43/20/20 42/4/4 20/44/84 19/45/85
f 44/18/18 43/20/20 19/45/85 18/46/86
f 45/16/16 44/18/18 18/46/86 17/47/87
f 46/14/14 45/16/16 17/47/87 16/48/88
f 47/12/12 46/14/14 16/48/88 15/49/89
f 48/10/10 47/12/12 15/49/89 14/50/90
f 49/7/7 48/10/10 14/50/90 13/51/91
f 50/8/8 49/7/7 13/51/91 12/52/92
f 72/42/50 73/53/93 11/54/94 51/23/23
f 52/24/24 51/23/23 11/54/94 10/55/95
f 53/26/26 52/24/24 10/55/95 9/56/96
f 54/28/28 53/26/26 9/56/96 8/57/97
f 55/30/30 54/28/28 8/57/97 7/58/98
f 56/32/32 55/30/30 7/58/98 6/59/99
f 57/34/34 56/32/32 6/59/99 5/60/100
f 58/36/36 57/34/34 5/60/100 4/61/101
f 59/38/38 58/36/36 4/61/101 3/62/102
f 3/62/102 2/63/103 60/39/39 59/38/38
s 5
usemtl lambert4SG
f 63/107/46 62/111/68 22/116/104 21/112/105
f 64/108/47 63/107/46 21/112/105 31/113/106
f 65/114/70 64/108/47 31/113/106 30/117/107
f 66/118/71 65/114/70 30/117/107 29/120/108
f 67/121/74 66/118/71 29/120/108 28/123/109
f 68/75/75 67/121/74 28/123/109 27/73/110
f 69/72/81 68/75/75 27/73/110 26/70/111
f 70/69/78 69/72/81 26/70/111 25/67/112
f 71/66/79 70/69/78 25/67/112 24/64/113
s 1
usemtl lambert3SG
f 50/8/8 72/42/50 71/41/49 24/5/5
f 12/52/92 73/53/93 72/42/50 50/8/8
s 4
usemtl lambert4SG
f 13/80/114 74/77/42 73/76/41 12/81/115
f 14/84/116 75/82/51 74/77/42 13/80/114
f 15/87/117 76/85/52 75/82/51 14/84/116
f 16/90/118 77/88/59 76/85/52 15/87/117
f 17/93/119 78/91/55 77/88/59 16/90/118
f 18/96/120 79/94/56 78/91/55 17/93/119
f 19/99/121 80/97/61 79/94/56 18/96/120
f 20/102/122 81/100/62 80/97/61 19/99/121
f 1/105/123 61/103/65 81/100/62 20/102/122
