# This file uses centimeters as units for non-parametric coordinates.

mtllib Quater_SML_EuroGap_Half.mtl
g default
v -49.999981 -0.000005 26.000000
v -49.999939 0.073379 26.797258
v -49.999939 0.394244 28.199621
v -49.999939 0.968489 29.556744
v -49.999939 1.722439 30.812696
v -49.999939 2.573357 31.908161
v -49.999939 3.456928 32.791023
v -49.999939 3.830843 33.252831
v -49.999939 3.997989 33.745552
v -49.999981 4.001005 34.000015
v -50.000023 0.000000 36.000015
v -50.000023 4.000000 36.000015
v -50.000023 0.000000 35.000015
v -50.000023 4.000000 35.000015
v -50.000023 5.000000 35.000015
v -50.000023 5.000000 36.000015
v -50.000000 0.000010 34.000015
v -49.999950 -0.000014 26.798622
v -49.999954 -0.000010 28.199806
v -49.999954 -0.000006 29.554632
v -49.999958 -0.000000 30.812605
v -49.999958 0.000005 31.909084
v -49.999962 0.000011 32.792229
v -49.999962 0.000013 33.253872
v -49.999962 0.000015 33.747784
v -50.000023 4.750000 36.000015
v -50.000023 4.750000 35.000015
v -50.000023 5.000000 35.250015
v -50.000023 4.750000 35.250015
v -50.000023 4.000000 35.250015
v -50.000023 0.000000 35.250015
v -45.000004 -0.000010 26.000042
v -44.999977 0.073379 26.797258
v -44.999977 0.394244 28.199621
v -44.999977 0.968489 29.556744
v -44.999977 1.722439 30.812696
v -44.999977 2.573357 31.908161
v -44.999977 3.456928 32.791023
v -44.999977 3.830843 33.252831
v -44.999977 3.997989 33.745552
v -45.000000 4.001005 34.000015
v -45.000023 -0.000000 36.000015
v -45.000023 4.000000 36.000015
v -45.000023 -0.000000 35.000015
v -45.000023 4.000000 35.000015
v -45.000023 5.000000 36.000015
v -45.000023 5.000000 35.000015
v -45.000011 0.000010 34.000015
v -44.999989 -0.000014 26.798649
v -44.999989 -0.000010 28.199829
v -44.999992 -0.000006 29.554649
v -44.999992 -0.000000 30.812618
v -44.999992 0.000005 31.909092
v -44.999992 0.000011 32.792233
v -44.999992 0.000013 33.253876
v -44.999992 0.000015 33.747784
v -45.000023 4.750000 35.000015
v -45.000023 4.750000 36.000015
v -45.000023 -0.000000 35.250015
v -45.000023 4.000000 35.250015
v -45.000023 4.750000 35.250015
v -45.000023 5.000000 35.250015
vt 0.686390 0.816077
vt 0.686390 0.566783
vt 0.998008 0.566783
vt 0.998008 0.816077
vt 0.998008 0.862820
vt 0.686390 0.862820
vt 0.998008 0.878401
vt 0.686390 0.878401
vt 0.596215 0.629104
vt 0.596215 0.940722
vt 0.549472 0.940722
vt 0.549472 0.629104
vt 0.611796 0.629104
vt 0.611796 0.940722
vt 0.639494 0.051566
vt 0.639496 0.001880
vt 0.951113 0.001878
vt 0.951110 0.051566
vt 0.639494 0.138966
vt 0.951110 0.138966
vt 0.639494 0.223547
vt 0.951110 0.223547
vt 0.639494 0.301822
vt 0.951110 0.301822
vt 0.639494 0.370096
vt 0.951110 0.370096
vt 0.639494 0.425119
vt 0.951110 0.425119
vt 0.639494 0.453900
vt 0.951110 0.453900
vt 0.639494 0.484609
vt 0.951110 0.484609
vt 0.639496 0.500468
vt 0.951113 0.500468
vt 0.951116 0.562791
vt 0.639497 0.562791
vt 0.617931 0.940722
vt 0.617931 0.629104
vt 0.664674 0.629104
vt 0.664674 0.940722
vt 0.680255 0.629104
vt 0.680255 0.940722
vt 0.313610 0.578372
vt 0.313610 0.625115
vt 0.064316 0.625115
vt 0.064316 0.578372
vt 0.017573 0.625115
vt 0.017573 0.578372
vt 0.064316 0.562791
vt 0.313610 0.562791
vt 0.001992 0.625115
vt 0.001992 0.578372
vt 0.017573 0.562791
vt 0.064253 0.500468
vt 0.313610 0.500468
vt 0.001992 0.562791
vt 0.064441 0.484609
vt 0.313609 0.484748
vt 0.074858 0.453900
vt 0.313609 0.453965
vt 0.098162 0.425119
vt 0.313609 0.425194
vt 0.153229 0.370096
vt 0.313610 0.370153
vt 0.206262 0.301822
vt 0.313610 0.301817
vt 0.253250 0.223547
vt 0.313610 0.223415
vt 0.289039 0.138966
vt 0.313611 0.138978
vt 0.309037 0.051566
vt 0.313611 0.051651
vt 0.313610 0.001878
vt 0.569162 0.625112
vt 0.319867 0.625112
vt 0.319867 0.578369
vt 0.569162 0.578369
vt 0.319867 0.562789
vt 0.569162 0.562789
vt 0.615904 0.625112
vt 0.615904 0.578369
vt 0.319868 0.500465
vt 0.569224 0.500465
vt 0.615904 0.562789
vt 0.631485 0.625112
vt 0.631485 0.578369
vt 0.569036 0.484606
vt 0.319868 0.484745
vt 0.631485 0.562789
vt 0.558619 0.453898
vt 0.319868 0.453963
vt 0.535315 0.425116
vt 0.319868 0.425192
vt 0.480248 0.370093
vt 0.319867 0.370151
vt 0.427216 0.301820
vt 0.319867 0.301815
vt 0.380227 0.223544
vt 0.319867 0.223414
vt 0.344438 0.138964
vt 0.319866 0.138976
vt 0.324440 0.051563
vt 0.319866 0.051650
vt 0.319866 0.001878
vn -1.000000 0.000000 0.000000
vn -1.000000 0.000000 0.000000
vn -1.000000 0.000000 0.000000
vn -1.000000 0.000000 0.000000
vn -1.000000 0.000000 0.000000
vn -1.000000 0.000000 0.000000
vn -1.000000 0.000003 -0.000058
vn -1.000000 0.000003 -0.000058
vn -1.000000 0.000002 -0.000026
vn -1.000000 0.000002 -0.000025
vn -1.000000 0.000063 -0.000005
vn -1.000000 0.000133 0.000038
vn -1.000000 0.000064 -0.000004
vn -1.000000 0.000021 -0.000005
vn -1.000000 0.000024 -0.000006
vn -1.000000 0.000012 -0.000005
vn -1.000000 0.000012 -0.000005
vn -1.000000 0.000010 -0.000004
vn -1.000000 0.000010 -0.000004
vn -1.000000 0.000008 -0.000005
vn -1.000000 0.000008 -0.000005
vn -1.000000 0.000007 -0.000004
vn -1.000000 0.000007 -0.000004
vn -1.000000 0.000006 -0.000001
vn -1.000000 0.000006 -0.000002
vn -1.000000 0.000005 -0.000064
vn -1.000000 0.000006 -0.000055
vn -1.000000 0.000000 0.000000
vn -1.000000 0.000000 0.000000
vn -1.000000 0.000000 0.000000
vn -1.000000 0.000000 0.000000
vn 0.000000 0.984314 -0.176427
vn 0.000001 0.995790 -0.091663
vn 0.000001 0.995790 -0.091663
vn 0.000000 0.984314 -0.176425
vn 0.000000 0.951209 -0.308549
vn 0.000000 0.951209 -0.308549
vn 0.000000 0.891452 -0.453115
vn 0.000000 0.891452 -0.453115
vn 0.000000 0.825961 -0.563727
vn 0.000000 0.825961 -0.563727
vn 0.000000 0.751926 -0.659248
vn 0.000000 0.751926 -0.659248
vn 0.000000 0.730388 -0.683033
vn 0.000000 0.730388 -0.683033
vn 0.000000 0.869959 -0.493124
vn 0.000000 0.869959 -0.493124
vn 0.000000 0.975034 -0.222055
vn 0.000000 0.975037 -0.222044
vn 0.000000 0.999999 -0.001603
vn 0.000000 0.999999 -0.001603
vn 0.000000 0.000000 1.000000
vn 0.000000 0.000000 1.000000
vn 0.000000 0.000000 1.000000
vn 0.000000 0.000000 1.000000
vn 0.000000 1.000000 0.000000
vn 0.000000 1.000000 0.000000
vn 0.000000 1.000000 0.000000
vn 0.000000 1.000000 0.000000
vn 1.000000 0.000000 0.000000
vn 1.000000 0.000000 0.000000
vn 1.000000 0.000000 0.000000
vn 1.000000 0.000000 0.000000
vn 1.000000 0.000000 0.000000
vn 1.000000 0.000000 0.000000
vn 0.000000 0.000000 -1.000000
vn 0.000000 0.000000 -1.000000
vn 0.000000 0.000000 -1.000000
vn 0.000000 0.000000 -1.000000
vn 0.000000 0.000000 1.000000
vn 0.000000 0.000000 1.000000
vn 0.000000 1.000000 0.001005
vn 0.000000 1.000000 0.001005
vn 1.000000 -0.000001 0.000013
vn 1.000000 -0.000001 0.000014
vn 1.000000 -0.000001 0.000030
vn 1.000000 -0.000001 0.000030
vn 1.000000 -0.000130 -0.000019
vn 1.000000 -0.000058 0.000004
vn 1.000000 -0.000059 0.000004
vn 1.000000 -0.000028 0.000006
vn 1.000000 -0.000030 0.000006
vn 1.000000 -0.000012 0.000004
vn 1.000000 -0.000014 0.000004
vn 1.000000 -0.000008 0.000003
vn 1.000000 -0.000008 0.000003
vn 1.000000 -0.000005 0.000003
vn 1.000000 -0.000006 0.000003
vn 1.000000 -0.000004 0.000002
vn 1.000000 -0.000004 0.000002
vn 1.000000 -0.000004 0.000001
vn 1.000000 -0.000004 0.000001
vn 1.000000 -0.000003 0.000034
vn 1.000000 -0.000004 0.000029
vn 0.000000 0.000000 -1.000000
vn 0.000000 0.000000 -1.000000
vn 1.000000 0.000000 0.000000
vn 1.000000 0.000000 0.000000
vn 0.000000 0.000000 1.000000
vn 0.000000 0.000000 1.000000
vn 1.000000 0.000000 0.000000
vn 1.000000 0.000000 0.000000
vn 0.000000 1.000000 0.000000
vn 0.000000 1.000000 0.000000
s 1
g Quater_SML_EuroGap_Half
usemtl lambert4SG
f 31/43/1 11/44/2 12/45/3 30/46/4
f 12/45/3 26/47/5 29/48/6 30/46/4
f 10/54/7 17/55/8 13/50/9 14/49/10
f 2/71/11 1/73/12 18/72/13
f 3/69/14 2/71/11 18/72/13 19/70/15
f 4/67/16 3/69/14 19/70/15 20/68/17
f 5/65/18 4/67/16 20/68/17 21/66/19
f 6/63/20 5/65/18 21/66/19 22/64/21
f 7/61/22 6/63/20 22/64/21 23/62/23
f 8/59/24 7/61/22 23/62/23 24/60/25
f 9/57/26 8/59/24 24/60/25 25/58/27
f 10/54/7 9/57/26 25/58/27 17/55/8
f 26/47/5 16/51/28 28/52/29 29/48/6
f 27/53/30 29/48/6 28/52/29 15/56/31
f 29/48/6 27/53/30 14/49/10 30/46/4
f 14/49/10 13/50/9 31/43/1 30/46/4
s 4
usemtl lambert3SG
f 33/15/32 32/16/33 1/17/34 2/18/35
f 34/19/36 33/15/32 2/18/35 3/20/37
f 35/21/38 34/19/36 3/20/37 4/22/39
f 36/23/40 35/21/38 4/22/39 5/24/41
f 37/25/42 36/23/40 5/24/41 6/26/43
f 38/27/44 37/25/42 6/26/43 7/28/45
f 39/29/46 38/27/44 7/28/45 8/30/47
f 40/31/48 39/29/46 8/30/47 9/32/49
f 41/33/50 40/31/48 9/32/49 10/34/51
s 5
usemtl lambert4SG
f 12/1/52 11/2/53 42/3/54 43/4/55
s 6
usemtl lambert3SG
f 16/37/56 46/38/57 62/39/58 28/40/59
s 7
usemtl lambert4SG
f 43/74/60 42/75/61 59/76/62 60/77/63
f 58/80/64 43/74/60 60/77/63 61/81/65
s 8
f 27/9/66 57/10/67 45/11/68 14/12/69
s 5
f 58/5/70 26/6/71 12/1/52 43/4/55
s 4
usemtl lambert3SG
f 14/35/72 45/36/73 41/33/50 10/34/51
s 7
usemtl lambert4SG
f 45/79/74 44/78/75 48/82/76 41/83/77
f 32/104/78 33/102/79 49/103/80
f 33/102/79 34/100/81 50/101/82 49/103/80
f 34/100/81 35/98/83 51/99/84 50/101/82
f 35/98/83 36/96/85 52/97/86 51/99/84
f 36/96/85 37/94/87 53/95/88 52/97/86
f 37/94/87 38/92/89 54/93/90 53/95/88
f 38/92/89 39/90/91 55/91/92 54/93/90
f 39/90/91 40/87/93 56/88/94 55/91/92
f 40/87/93 41/83/77 48/82/76 56/88/94
s 8
usemtl lambert2SG
f 57/10/67 27/9/66 15/13/95 47/14/96
s 7
usemtl lambert4SG
f 46/85/97 58/80/64 61/81/65 62/86/98
s 5
f 26/6/71 58/5/70 46/7/99 16/8/100
s 7
f 60/77/63 59/76/62 44/78/75 45/79/74
f 45/79/74 57/84/101 61/81/65 60/77/63
f 62/86/98 61/81/65 57/84/101 47/89/102
s 6
usemtl lambert2SG
f 28/40/59 62/39/58 47/41/103 15/42/104
