# This file uses centimeters as units for non-parametric coordinates.

mtllib Quater_LRG_Corner.mtl
g default
v -61.000000 10.000000 68.000000
v -59.853996 6.374184 68.000000
v -58.582092 4.426691 68.000000
v -56.816368 2.865949 68.000000
v -54.625443 1.692126 68.000000
v -52.113533 0.877567 68.000000
v -49.399292 0.372416 68.000000
v -46.594563 0.110246 68.000000
v -43.000000 0.004558 68.000015
v -63.000000 10.000000 66.000000
v -63.000000 6.374184 64.853928
v -63.000000 4.426691 63.582027
v -63.000000 2.865949 61.816307
v -63.000000 1.692126 59.625378
v -63.000000 0.877567 57.113472
v -63.000000 0.372416 54.399227
v -63.000000 0.110246 51.594498
v -63.000008 0.004558 48.000015
v -43.000000 -0.006716 61.444248
v -46.753586 0.095129 61.650574
v -43.000000 -0.018796 56.813812
v -47.716507 0.085082 57.791401
v -43.000000 -0.022897 48.000000
v -49.747013 0.082029 54.745998
v -51.814030 -0.017662 48.000000
v -52.792000 0.086044 52.715416
v -56.444321 -0.005571 48.000000
v -56.650742 0.096171 51.752831
v -49.538292 0.372456 62.468895
v -50.316902 0.372469 59.366066
v -51.937340 0.372457 56.937271
v -54.366142 0.372436 55.316841
v -57.468971 0.372420 54.538231
v -52.220749 0.876568 63.264530
v -52.816643 0.876656 60.888653
v -54.045822 0.877570 59.046318
v -55.888290 0.878484 57.816986
v -58.264496 0.878570 57.220886
v -54.703346 1.692305 64.006599
v -55.130493 1.692288 62.302914
v -56.000084 1.692126 60.999657
v -57.303246 1.691965 60.130138
v -59.006744 1.691948 59.703125
v -56.868240 2.865927 64.662430
v -57.148106 2.865928 63.545151
v -57.707245 2.865947 62.707226
v -58.545189 2.865966 62.148071
v -59.662498 2.865969 61.868191
v -58.612869 4.426746 65.199684
v -58.774284 4.426739 64.554581
v -59.086784 4.426691 64.086395
v -59.554909 4.426642 63.774002
v -60.199837 4.426635 63.612709
v -59.869232 6.374200 65.597145
v -59.945427 6.374197 65.291977
v -60.084312 6.374184 65.083984
v -60.292259 6.374170 64.945190
v -60.597282 6.374167 64.869095
v -61.071747 10.000000 66.217926
v -61.094963 10.000000 66.124962
v -61.137985 10.000000 66.060516
v -61.202431 10.000000 66.017502
v -61.295403 10.000000 65.994286
v -62.918610 10.000000 67.915344
v -62.999992 0.000002 66.000000
v -62.999992 0.000000 67.999992
v -61.000000 0.000002 67.999992
v -59.853996 0.000000 67.999992
v -62.999985 0.000000 64.853928
v -58.582092 -0.000001 67.999992
v -62.999985 -0.000001 63.582027
v -56.816368 -0.000001 67.999992
v -62.999985 -0.000001 61.816307
v -54.625443 -0.000001 67.999992
v -62.999985 -0.000001 59.625378
v -52.113533 -0.000001 67.999992
v -62.999985 -0.000001 57.113472
v -49.399292 -0.000001 67.999992
v -62.999985 -0.000001 54.399227
v -46.594563 -0.000000 67.999992
v -62.999985 -0.000000 51.594498
v -63.000000 -0.000007 65.479996
v -63.000000 8.187092 65.479996
v -60.915504 8.187084 65.389359
v -60.712410 8.187085 65.440041
v -60.573372 8.187092 65.532837
v -60.480522 8.187099 65.671898
v -60.429794 8.187099 65.875061
v -60.479996 8.187092 68.000000
v -60.479996 -0.000007 68.000000
v -60.869995 9.546773 68.000000
v -60.911255 9.546775 66.132210
v -60.941353 9.546775 66.011696
v -60.996826 9.546773 65.928604
v -61.079926 9.546771 65.873138
v -61.200424 9.546771 65.843056
v -63.000000 9.546773 65.869995
v -61.500000 10.000000 67.978836
v -61.500000 0.000003 67.999992
v -62.979652 10.000000 66.500000
v -62.999985 0.000003 66.500000
v -61.063492 10.000000 66.422852
v -61.505157 10.000000 66.440636
v -61.506645 10.000000 65.994995
v -61.000000 9.546773 68.000000
v -63.000000 9.546773 66.000000
v -60.869995 0.000004 68.000000
v -63.000000 0.000004 65.869995
vt 0.000500 0.144006
vt 0.000499 0.000825
vt 0.261632 0.000825
vt 0.253414 0.150340
vt 0.446075 0.000825
vt 0.407135 0.188696
vt 0.797152 0.000825
vt 0.528441 0.269576
vt 0.797152 0.351911
vt 0.609324 0.390866
vt 0.797152 0.536347
vt 0.647667 0.544570
vt 0.797151 0.797477
vt 0.653974 0.797477
vt 0.536717 0.577162
vt 0.542254 0.797477
vt 0.000500 0.255726
vt 0.220818 0.261262
vt 0.344412 0.292276
vt 0.441157 0.356823
vt 0.505703 0.453568
vt 0.429860 0.608850
vt 0.434138 0.797477
vt 0.000500 0.363841
vt 0.189126 0.368111
vt 0.283763 0.391847
vt 0.357148 0.440809
vt 0.406116 0.514199
vt 0.330986 0.638415
vt 0.999501 0.766245
vt 0.801865 0.766245
vt 0.999501 0.756363
vt 0.801865 0.795890
vt 0.999501 0.794281
vt 0.990543 0.756363
vt 0.801865 0.756363
vt 0.990543 0.753794
vt 0.801865 0.753794
vt 0.963671 0.746086
vt 0.801865 0.746086
vt 0.801865 0.733714
vt 0.927842 0.733714
vt 0.889352 0.708577
vt 0.801865 0.708577
vt 0.858506 0.673679
vt 0.801865 0.673679
vt 0.835307 0.630379
vt 0.801865 0.630379
vt 0.819209 0.580735
vt 0.801865 0.580735
vt 0.809225 0.527092
vt 0.801865 0.527092
vt 0.804044 0.471660
vt 0.801865 0.471660
vt 0.801955 0.400619
vt 0.334083 0.797477
vt 0.000500 0.463897
vt 0.159567 0.467000
vt 0.227430 0.484014
vt 0.279342 0.518652
vt 0.313977 0.570561
vt 0.244746 0.664536
vt 0.246812 0.797477
vt 0.000500 0.551167
vt 0.133444 0.553233
vt 0.177948 0.564381
vt 0.211325 0.586653
vt 0.233597 0.620030
vt 0.175257 0.685939
vt 0.176479 0.797477
vt 0.000500 0.621500
vt 0.112044 0.622726
vt 0.137740 0.629156
vt 0.156389 0.641604
vt 0.168832 0.660250
vt 0.125212 0.701771
vt 0.125816 0.797477
vt 0.000500 0.672164
vt 0.096212 0.672770
vt 0.108367 0.675805
vt 0.116652 0.681338
vt 0.122181 0.689621
vt 0.100878 0.797477
vt 0.104488 0.714446
vt 0.085142 0.695099
vt 0.000500 0.697099
vt 0.093234 0.697120
vt 0.098773 0.700818
vt 0.102470 0.706356
vt 0.060249 0.796667
vt 0.062613 0.737934
vt 0.080364 0.737993
vt 0.080165 0.797477
vt 0.086417 0.725795
vt 0.085343 0.797477
vt 0.080393 0.729578
vt 0.079468 0.725875
vt 0.085218 0.720996
vt 0.077754 0.723308
vt 0.083009 0.717685
vt 0.075188 0.721594
vt 0.079699 0.715476
vt 0.071485 0.720670
vt 0.074899 0.714277
vt 0.000500 0.712633
vt 0.063322 0.720341
vt 0.000500 0.717812
vt 0.003872 0.794235
vt 0.001343 0.737728
vt 0.999410 0.000399
vt 0.999500 0.071438
vt 0.997321 0.071438
vt 0.999500 0.126870
vt 0.992140 0.126870
vt 0.999500 0.180513
vt 0.982157 0.180513
vt 0.999500 0.230157
vt 0.966058 0.230157
vt 0.999500 0.273458
vt 0.942859 0.273458
vt 0.999500 0.308355
vt 0.912013 0.308355
vt 0.873524 0.333492
vt 0.999500 0.333492
vt 0.999500 0.345865
vt 0.837694 0.345865
vt 0.999500 0.353573
vt 0.999500 0.356142
vt 0.810822 0.353573
vt 0.810822 0.356142
vt 0.801865 0.356142
vt 0.999500 0.395669
vt 0.801865 0.393996
vt 0.801865 0.366024
vt 0.999500 0.366024
vn 0.055553 0.998452 -0.002908
vn 0.028164 0.999600 -0.002391
vn 0.026075 0.999653 -0.003696
vn 0.050496 0.998700 -0.006970
vn 0.018015 0.999830 -0.003861
vn 0.032819 0.999392 -0.011757
vn 0.009730 0.999907 -0.009591
vn 0.019293 0.999630 -0.019157
vn 0.003977 0.999832 -0.017921
vn 0.011842 0.999396 -0.032685
vn 0.003605 0.999654 -0.026059
vn 0.006881 0.998706 -0.050395
vn 0.002220 0.999601 -0.028158
vn 0.002768 0.998456 -0.055478
vn 0.014680 0.991567 -0.128758
vn 0.003904 0.990812 -0.135188
vn 0.135120 0.990821 -0.004035
vn 0.128712 0.991572 -0.014743
vn 0.113010 0.992332 -0.050051
vn 0.085260 0.992717 -0.085107
vn 0.050150 0.992335 -0.112939
vn 0.022657 0.973370 -0.228117
vn 0.005273 0.970893 -0.239458
vn 0.239428 0.970899 -0.005453
vn 0.228048 0.973384 -0.022759
vn 0.197224 0.976623 -0.085501
vn 0.147469 0.978049 -0.147217
vn 0.085694 0.976608 -0.197215
vn 0.032430 0.929993 -0.366144
vn 0.007335 0.924040 -0.382226
vn 0.382390 0.923971 -0.007426
vn 0.366391 0.929892 -0.032531
vn 0.317363 0.938403 -0.136679
vn 0.237289 0.942058 -0.237110
vn 0.136653 0.938527 -0.317006
vn 0.040191 0.839682 -0.541589
vn 0.008687 0.828012 -0.560643
vn 0.560628 0.828023 -0.008670
vn 0.541565 0.839698 -0.040179
vn 0.470601 0.859147 -0.201001
vn 0.352811 0.866609 -0.352865
vn 0.200976 0.859123 -0.470655
vn 0.040911 0.678800 -0.733183
vn 0.008310 0.661797 -0.749637
vn 0.749633 0.661802 -0.008315
vn 0.733183 0.678798 -0.040933
vn 0.642648 0.716459 -0.271459
vn 0.484140 0.728805 -0.484202
vn 0.271386 0.716462 -0.642675
vn 0.027982 0.464318 -0.885227
vn -0.002301 0.447906 -0.894078
vn 0.892423 0.451197 -0.001284
vn 0.883963 0.466576 -0.030278
vn 0.792956 0.511182 -0.331531
vn 0.602005 0.525242 -0.601424
vn 0.332634 0.509023 -0.793883
vn -0.021158 0.297478 -0.954494
vn 0.002718 0.300911 -0.953648
vn 0.950031 0.311743 -0.016050
vn 0.951274 0.308304 0.005260
vn 0.865523 0.347163 -0.361037
vn 0.659576 0.358595 -0.660582
vn 0.361278 0.337368 -0.869288
vn 0.000000 1.000000 0.000000
vn 0.000000 1.000000 0.000000
vn -0.000628 0.982035 -0.188697
vn -0.001331 0.917892 -0.396829
vn -0.999768 0.005174 0.020931
vn -0.999768 0.005174 0.020931
vn -0.999705 0.004714 0.023821
vn -0.999825 0.004455 0.018180
vn -0.024755 0.004900 0.999682
vn -0.018890 0.004632 0.999811
vn -0.042166 0.002106 0.999108
vn 0.000061 -0.000000 1.000000
vn -0.000000 -0.000001 1.000000
vn -1.000000 -0.000002 -0.000003
vn -1.000000 -0.000000 -0.000006
vn -1.000000 -0.000000 -0.000001
vn -1.000000 -0.000001 -0.000008
vn -0.000015 -0.000000 1.000000
vn -0.000006 -0.000000 1.000000
vn 0.000001 -0.000001 1.000000
vn 0.000003 -0.000001 1.000000
vn 0.000000 -0.000002 1.000000
vn 0.000000 -0.000002 1.000000
vn -1.000000 -0.000004 0.000002
vn -1.000000 -0.000004 0.000002
vn 0.000000 -0.000002 1.000000
vn 0.000001 -0.000003 1.000000
vn -1.000000 -0.000005 0.000002
vn -1.000000 -0.000005 0.000002
vn 0.000001 -0.000004 1.000000
vn 0.000001 -0.000004 1.000000
vn -1.000000 -0.000008 0.000002
vn -1.000000 -0.000009 0.000002
vn 0.000000 -0.000008 1.000000
vn 0.000000 -0.000008 1.000000
vn -1.000000 -0.000015 0.000002
vn -1.000000 -0.000015 0.000002
vn 0.000000 -0.000017 1.000000
vn 0.000000 -0.000018 1.000000
vn -1.000000 -0.000030 0.000002
vn -1.000000 -0.000032 0.000002
vn -0.000002 -0.000040 1.000000
vn -0.000002 -0.000040 1.000000
vn -1.000000 -0.000086 0.000004
vn -1.000000 -0.000087 0.000004
vn -0.000003 -0.000069 1.000000
vn -1.000000 -0.000154 0.000006
vn -0.999177 0.002024 0.040514
vn -1.000000 -0.000001 0.000019
vn -1.000000 -0.000001 0.000028
vn -0.008400 0.300463 -0.953756
vn -0.026223 0.292315 -0.955962
vn 0.010944 0.425893 -0.904707
vn 0.293447 0.628233 -0.720564
vn 0.353434 0.369298 -0.859479
vn 0.537693 0.647974 -0.539459
vn 0.649841 0.391927 -0.651230
vn 0.717681 0.631039 -0.294489
vn 0.855483 0.378310 -0.353597
vn 0.896568 0.441032 -0.040705
vn 0.949501 0.313289 -0.017245
vn 0.952977 0.303035 -0.002204
vn 0.179759 0.983684 -0.007239
vn 0.411068 0.911454 -0.016549
vn -0.021744 0.005377 0.999749
vn -0.021744 0.005377 0.999749
vn -1.000000 -0.000001 0.000020
vn 0.000000 1.000000 0.000000
vn 0.000000 1.000000 0.000000
vn 0.000027 -0.000000 1.000000
vn -0.000000 -0.000000 1.000000
vn -1.000000 -0.000000 0.000008
s 1
g Quater_LRG_Corner
usemtl lambert3SG
f 8/1/1 9/2/2 19/3/3 20/4/4
f 20/4/4 19/3/3 21/5/5 22/6/6
f 22/6/6 21/5/5 23/7/7 24/8/8
f 24/8/8 23/7/7 25/9/9 26/10/10
f 26/10/10 25/9/9 27/11/11 28/12/12
f 28/12/12 27/11/11 18/13/13 17/14/14
f 33/15/15 28/12/12 17/14/14 16/16/16
f 7/17/17 8/1/1 20/4/4 29/18/18
f 29/18/18 20/4/4 22/6/6 30/19/19
f 30/19/19 22/6/6 24/8/8 31/20/20
f 31/20/20 24/8/8 26/10/10 32/21/21
f 32/21/21 26/10/10 28/12/12 33/15/15
f 38/22/22 33/15/15 16/16/16 15/23/23
f 6/24/24 7/17/17 29/18/18 34/25/25
f 34/25/25 29/18/18 30/19/19 35/26/26
f 35/26/26 30/19/19 31/20/20 36/27/27
f 36/27/27 31/20/20 32/21/21 37/28/28
f 37/28/28 32/21/21 33/15/15 38/22/22
f 43/29/29 38/22/22 15/23/23 14/56/30
f 5/57/31 6/24/24 34/25/25 39/58/32
f 39/58/32 34/25/25 35/26/26 40/59/33
f 40/59/33 35/26/26 36/27/27 41/60/34
f 41/60/34 36/27/27 37/28/28 42/61/35
f 42/61/35 37/28/28 38/22/22 43/29/29
f 48/62/36 43/29/29 14/56/30 13/63/37
f 4/64/38 5/57/31 39/58/32 44/65/39
f 44/65/39 39/58/32 40/59/33 45/66/40
f 45/66/40 40/59/33 41/60/34 46/67/41
f 46/67/41 41/60/34 42/61/35 47/68/42
f 47/68/42 42/61/35 43/29/29 48/62/36
f 53/69/43 48/62/36 13/63/37 12/70/44
f 3/71/45 4/64/38 44/65/39 49/72/46
f 49/72/46 44/65/39 45/66/40 50/73/47
f 50/73/47 45/66/40 46/67/41 51/74/48
f 51/74/48 46/67/41 47/68/42 52/75/49
f 52/75/49 47/68/42 48/62/36 53/69/43
f 58/76/50 53/69/43 12/70/44 11/77/51
f 2/78/52 3/71/45 49/72/46 54/79/53
f 54/79/53 49/72/46 50/73/47 55/80/54
f 55/80/54 50/73/47 51/74/48 56/81/55
f 56/81/55 51/74/48 52/75/49 57/82/56
f 57/82/56 52/75/49 53/69/43 58/76/50
f 83/83/57 84/84/58 58/76/50 11/77/51
f 54/79/53 88/85/59 89/86/60 2/78/52
f 55/80/54 87/87/61 88/85/59 54/79/53
f 56/81/55 86/88/62 87/87/61 55/80/54
f 57/82/56 85/89/63 86/88/62 56/81/55
f 58/76/50 84/84/58 85/89/63 57/82/56
f 100/90/64 103/91/65 104/92/66 10/93/67
s 3
usemtl lambert4SG
f 66/132/68 64/133/69 100/134/70 101/135/71
s 4
f 98/30/72 99/31/73 1/32/74
f 1/32/74 99/31/73 105/35/75
f 99/31/73 67/36/76 105/35/75
s 3
f 69/124/77 82/125/78 83/126/79 11/123/80
s 4
f 89/39/81 90/40/82 68/41/83 2/42/84
f 3/43/85 2/42/84 68/41/83 70/44/86
s 3
f 11/123/80 12/122/87 71/121/88 69/124/77
s 4
f 4/45/89 3/43/85 70/44/86 72/46/90
s 3
f 12/122/87 13/120/91 73/119/92 71/121/88
s 4
f 5/47/93 4/45/89 72/46/90 74/48/94
s 3
f 13/120/91 14/118/95 75/117/96 73/119/92
s 4
f 6/49/97 5/47/93 74/48/94 76/50/98
s 3
f 14/118/95 15/116/99 77/115/100 75/117/96
s 4
f 7/51/101 6/49/97 76/50/98 78/52/102
s 3
f 15/116/99 16/114/103 79/113/104 77/115/100
s 4
f 8/53/105 7/51/101 78/52/102 80/54/106
s 3
f 16/114/103 17/112/107 81/111/108 79/113/104
s 4
f 9/55/109 8/53/105 80/54/106
s 3
f 17/112/107 18/110/110 81/111/108
usemtl lambert2SG
f 10/131/111 97/129/112 106/130/113
s 1
f 96/94/114 97/95/115 63/96/116
f 63/96/116 97/95/115 104/92/66
f 10/93/67 104/92/66 97/95/115
f 63/96/116 62/97/117 95/98/118 96/94/114
f 62/97/117 61/99/119 94/100/120 95/98/118
f 61/99/119 60/101/121 93/102/122 94/100/120
f 60/101/121 59/103/123 92/104/124 93/102/122
f 92/104/124 59/103/123 91/105/125
f 59/103/123 102/106/126 91/105/125
f 102/106/126 1/107/127 91/105/125
usemtl lambert3SG
f 88/85/59 92/104/124 91/105/125 89/86/60
f 87/87/61 93/102/122 92/104/124 88/85/59
f 86/88/62 94/100/120 93/102/122 87/87/61
f 85/89/63 95/98/118 94/100/120 86/88/62
f 84/84/58 96/94/114 95/98/118 85/89/63
f 83/83/57 97/95/115 96/94/114 84/84/58
s 4
usemtl lambert4SG
f 66/33/128 99/31/73 98/30/72 64/34/129
s 3
f 100/134/70 10/131/111 101/135/71
f 10/131/111 106/130/113 101/135/71
f 101/135/71 106/130/113 65/128/130
s 1
usemtl lambert3SG
f 64/108/131 98/109/132 103/91/65 100/90/64
f 103/91/65 98/109/132 1/107/127 102/106/126
f 59/103/123 103/91/65 102/106/126
f 62/97/117 103/91/65 61/99/119
f 63/96/116 103/91/65 62/97/117
f 104/92/66 103/91/65 63/96/116
f 61/99/119 103/91/65 60/101/121
f 60/101/121 103/91/65 59/103/123
s 4
usemtl lambert2SG
f 105/35/75 91/37/133 1/32/74
usemtl lambert4SG
f 89/39/81 91/37/133 107/38/134 90/40/82
s 3
f 97/129/112 83/126/79 82/125/78 108/127/135
s 4
f 91/37/133 105/35/75 67/36/76 107/38/134
s 3
f 106/130/113 97/129/112 108/127/135 65/128/130
