# This file uses centimeters as units for non-parametric coordinates.

mtllib Quater_LRG_HighVert_.mtl
g default
v -22.000000 0.000001 87.000000
v -22.000000 0.000001 69.000008
v -22.000000 9.999996 87.000000
v -42.000000 9.999998 87.000000
v -42.000000 0.000001 69.000008
v -22.000000 6.374185 85.853928
v -42.000000 6.374185 85.853928
v -22.000000 4.426692 84.582016
v -42.000000 4.426692 84.582016
v -22.000000 2.865950 82.816299
v -42.000000 2.865950 82.816299
v -22.000000 1.692128 80.625374
v -42.000000 1.692128 80.625374
v -22.000000 0.877569 78.113464
v -42.000000 0.877569 78.113464
v -22.000000 0.372418 75.399223
v -42.000000 0.372418 75.399223
v -22.000000 0.110247 72.594490
v -42.000000 0.110247 72.594490
v -22.000000 0.006840 69.782166
v -42.000000 0.006839 69.781860
v -22.000000 8.187094 86.480011
v -42.000000 8.187094 86.480011
v -22.000000 -0.000001 75.399864
v -22.000000 0.000003 72.599876
v -22.000000 -0.000000 78.119652
v -22.000000 0.000003 80.619865
v -22.000000 0.000004 82.816071
v -22.000000 0.000001 84.579865
v -22.000000 0.000001 85.859879
v -22.000000 0.000001 86.480011
v -32.000000 0.000001 69.000008
v -32.000000 0.013676 69.783157
v -32.000000 0.110247 72.594490
v -32.000000 0.372418 75.399223
v -32.000000 0.877569 78.113464
v -32.000000 1.692128 80.625374
v -32.000000 2.865950 82.816299
v -32.000000 4.426692 84.582016
v -32.000000 6.374185 85.853928
v -32.000000 8.187094 86.480011
v -32.000000 10.000002 87.000000
v -22.000000 -0.000001 77.000008
v -22.000000 0.624993 77.000000
v -42.000000 0.624993 77.000000
v -32.000000 0.624993 77.000000
v -22.000000 0.000001 89.000000
v -22.000000 10.000002 89.000000
v -42.000000 10.000002 89.000000
v -42.000000 0.000001 89.000000
v -32.000000 10.000002 89.000000
v -32.000000 0.000001 89.000000
v -22.000000 0.000001 87.500000
v -22.000000 10.000002 87.500000
v -22.000000 12.180002 87.341278
v -32.000000 12.181509 87.341278
v -42.000000 12.180756 87.341278
v -22.000000 16.000002 87.418030
v -32.000000 16.000002 87.418030
v -42.000000 16.000002 87.418030
v -22.000000 16.000002 89.000000
v -32.000000 16.000002 89.000000
v -42.000000 16.000002 89.000000
v -22.000000 14.083128 87.431183
v -32.000000 14.090755 87.418030
v -42.000000 14.086943 87.424606
v -22.000000 15.520145 87.419693
v -32.000000 15.522690 87.418030
v -42.000000 15.522017 87.418854
v -22.000000 0.000001 87.250000
v -22.000000 10.000002 87.250000
v -22.000000 14.075502 89.000000
v -22.000000 12.180000 87.465652
v -22.000000 12.180002 89.000000
v -42.000000 0.000001 87.000000
v -42.000000 -0.000001 75.399864
v -42.000000 0.000003 72.599876
v -42.000000 -0.000000 78.119652
v -42.000000 0.000003 80.619865
v -42.000000 0.000004 82.816071
v -42.000000 0.000001 84.579865
v -42.000000 0.000001 85.859879
v -42.000000 0.000001 86.480011
v -42.000000 -0.000001 77.000008
v -42.000000 0.000001 87.500000
v -42.000000 10.000002 87.500000
v -42.000000 0.000001 87.250000
v -42.000000 10.000002 87.250000
v -42.000000 14.075502 89.000000
v -42.000000 12.180000 87.465652
v -42.000000 12.180002 89.000000
v -22.000000 0.000001 87.875000
v -22.000000 10.000002 87.875000
v -22.000000 12.180002 87.849243
v -22.000000 14.081223 87.823380
v -22.000000 16.000002 87.813522
v -32.000000 16.000002 87.813522
v -42.000000 16.000002 87.813522
v -42.000000 14.084082 87.818451
v -42.000000 12.180000 87.849243
v -42.000000 10.000002 87.875000
v -42.000000 0.000001 87.875000
v -42.000000 15.522362 87.814758
v -22.000000 15.520308 87.815994
vt 0.507414 0.729992
vt 0.511500 0.773702
vt 0.505696 0.773712
vt 0.505696 0.730075
vt 0.515436 0.798649
vt 0.505696 0.798649
vt 0.505803 0.686163
vt 0.519373 0.816002
vt 0.505696 0.816098
vt 0.532067 0.855149
vt 0.505696 0.855063
vt 0.550361 0.889293
vt 0.505696 0.889290
vt 0.574684 0.916811
vt 0.505696 0.916778
vt 0.605035 0.936633
vt 0.505696 0.936726
vt 0.633288 0.946391
vt 0.505696 0.946391
vt 0.661541 0.954494
vt 0.505696 0.954494
vt 0.661541 0.958390
vt 0.505696 0.958390
vt 0.695515 0.959813
vt 0.661541 0.962287
vt 0.505696 0.962287
vt 0.695515 0.961751
vt 0.661541 0.968131
vt 0.505696 0.968131
vt 0.725175 0.961214
vt 0.695515 0.967729
vt 0.661541 0.985663
vt 0.505696 0.985663
vt 0.725145 0.967326
vt 0.695515 0.985663
vt 0.747570 0.961035
vt 0.747572 0.967211
vt 0.725056 0.985663
vt 0.755048 0.961009
vt 0.755048 0.967173
vt 0.755048 0.985663
vt 0.253863 0.941835
vt 0.252144 0.941751
vt 0.252144 0.898114
vt 0.257948 0.898124
vt 0.252251 0.985668
vt 0.252144 0.873177
vt 0.261885 0.873177
vt 0.252144 0.855728
vt 0.265821 0.855824
vt 0.252144 0.816763
vt 0.278515 0.816677
vt 0.252144 0.782536
vt 0.296809 0.782533
vt 0.252144 0.755049
vt 0.321132 0.755015
vt 0.252144 0.735100
vt 0.351483 0.735193
vt 0.252144 0.725436
vt 0.379736 0.725436
vt 0.252144 0.717332
vt 0.407989 0.717332
vt 0.252144 0.713436
vt 0.407990 0.713436
vt 0.252144 0.709540
vt 0.407990 0.709540
vt 0.441975 0.712013
vt 0.252144 0.703696
vt 0.407990 0.703696
vt 0.441964 0.710075
vt 0.252144 0.686163
vt 0.407990 0.686163
vt 0.441964 0.704097
vt 0.471682 0.710715
vt 0.441964 0.686163
vt 0.471638 0.704577
vt 0.471504 0.686163
vt 0.494053 0.704634
vt 0.494047 0.710804
vt 0.501496 0.686163
vt 0.501496 0.710817
vt 0.501496 0.704654
vt 0.339880 0.016779
vt 0.679382 0.016779
vt 0.679382 0.035936
vt 0.339880 0.035936
vt 0.339880 0.105858
vt 0.339880 0.059000
vt 0.679382 0.059000
vt 0.679382 0.105858
vt 0.339880 0.170907
vt 0.679382 0.170907
vt 0.339880 0.251621
vt 0.679382 0.251621
vt 0.339880 0.344159
vt 0.679382 0.344159
vt 0.339880 0.444152
vt 0.339880 0.385179
vt 0.679382 0.385179
vt 0.679382 0.444152
vt 0.339880 0.547478
vt 0.679382 0.547478
vt 0.339880 0.651048
vt 0.679382 0.651084
vt 0.339880 0.679899
vt 0.679382 0.679899
vt 0.000377 0.651096
vt 0.000377 0.679899
vt 0.000377 0.547478
vt 0.000377 0.444152
vt 0.000377 0.385179
vt 0.000377 0.251621
vt 0.707123 0.156345
vt 0.707123 0.312190
vt 0.688632 0.312190
vt 0.688632 0.156345
vt 0.682468 0.312190
vt 0.682468 0.156345
vt 0.707123 0.000500
vt 0.688632 0.000500
vt 0.682468 0.000500
vt 0.000377 0.344159
vt 0.000377 0.170907
vt 0.000377 0.105858
vt 0.000377 0.059000
vt 0.000377 0.035936
vt 0.000377 0.016779
vt 0.339880 0.004207
vt 0.679382 0.004207
vt 0.000377 0.004207
vt 0.679382 0.001318
vt 0.339880 0.001379
vt 0.339880 0.001379
vt 0.679382 0.001379
vt 0.000377 0.001349
vt 0.000377 0.001379
vt 0.339880 0.001379
vt 0.679382 0.000895
vt 0.000377 0.001137
vt 0.000377 0.687810
vt 0.249729 0.687810
vt 0.093884 0.687810
vt 0.093884 0.999501
vt 0.093884 0.843655
vt 0.249729 0.843655
vt 0.249729 0.999501
vt 0.000377 0.999501
vt 0.000377 0.843655
vn 0.000002 0.210802 -0.977529
vn 0.000006 0.210812 -0.977527
vn 0.000000 0.301389 -0.953501
vn 0.000000 0.301389 -0.953501
vn 0.000000 0.654581 -0.755992
vn 0.000000 0.450590 -0.892731
vn 0.000000 0.450590 -0.892731
vn 0.000000 0.654581 -0.755992
vn 0.000000 0.822644 -0.568556
vn 0.000000 0.822644 -0.568556
vn 0.000000 0.921057 -0.389427
vn 0.000000 0.921057 -0.389427
vn 0.000000 0.959305 -0.282373
vn 0.000000 0.959305 -0.282373
vn 0.000000 0.993243 -0.116052
vn 0.000000 0.983119 -0.182969
vn 0.000000 0.983119 -0.182969
vn 0.000000 0.993243 -0.116052
vn 0.000000 0.997928 -0.064346
vn 0.000170 0.997928 -0.064347
vn 0.000000 0.999530 -0.030657
vn 0.000340 0.999530 -0.030656
vn 0.000000 0.999914 -0.013105
vn 0.000341 0.999914 -0.013104
vn 1.000000 0.000000 0.000000
vn 1.000000 0.000000 0.000000
vn 1.000000 0.000000 0.000000
vn 1.000000 0.000000 0.000000
vn 1.000000 0.000000 0.000000
vn 1.000000 0.000000 0.000000
vn 1.000000 0.000000 0.000000
vn 1.000000 0.000000 0.000000
vn 1.000000 0.000000 0.000000
vn 1.000000 0.000000 0.000000
vn 1.000000 0.000000 0.000000
vn 1.000000 0.000000 0.000000
vn 1.000000 0.000000 0.000000
vn 1.000000 0.000000 0.000000
vn 1.000000 0.000000 0.000000
vn 1.000000 0.000000 0.000000
vn 1.000000 0.000000 0.000000
vn 1.000000 0.000000 0.000000
vn 1.000000 0.000000 0.000000
vn -0.000340 0.999530 -0.030656
vn -0.000341 0.999914 -0.013106
vn -0.000170 0.997928 -0.064345
vn 0.000000 0.993243 -0.116052
vn 0.000000 0.983119 -0.182969
vn 0.000000 0.921057 -0.389427
vn 0.000000 0.959305 -0.282373
vn 0.000000 0.822644 -0.568556
vn 0.000000 0.654581 -0.755992
vn 0.000000 0.450590 -0.892731
vn 0.000000 0.301389 -0.953501
vn -0.000003 0.210793 -0.977531
vn 1.000000 0.000000 0.000000
vn 1.000000 0.000000 0.000000
vn 1.000000 0.000000 0.000000
vn 1.000000 0.000000 0.000000
vn 0.000000 0.000000 1.000000
vn 0.000000 0.000000 1.000000
vn 0.000000 0.000000 1.000000
vn 0.000000 0.000000 1.000000
vn 0.000000 0.000000 1.000000
vn 0.000000 0.000000 1.000000
vn 1.000000 0.000000 0.000000
vn 1.000000 0.000000 0.000000
vn 1.000000 0.000000 0.000000
vn 1.000000 0.000000 0.000000
vn 1.000000 0.000000 0.000000
vn 1.000000 0.000000 0.000000
vn 0.000080 0.102914 -0.994690
vn 0.000320 0.103342 -0.994646
vn -0.000160 0.102501 -0.994733
vn 0.000575 -0.003438 -0.999994
vn 0.000144 -0.002579 -0.999997
vn 0.000021 -0.001301 -0.999999
vn 0.000084 -0.001738 -0.999999
vn -0.000288 -0.001721 -0.999999
vn -0.000042 -0.000863 -1.000000
vn 0.000000 1.000000 0.000000
vn 0.000000 1.000000 0.000000
vn 0.000000 1.000000 0.000000
vn 0.000000 1.000000 0.000000
vn 0.000000 1.000000 0.000000
vn 0.000000 1.000000 0.000000
vn 0.000176 0.023145 -0.999732
vn 0.000703 0.023229 -0.999730
vn -0.000352 0.023093 -0.999733
vn 0.000000 0.000000 1.000000
vn 0.000000 0.000000 1.000000
vn 0.000000 0.000000 1.000000
vn 1.000000 0.000000 0.000000
vn 1.000000 0.000000 0.000000
vn 1.000000 0.000000 0.000000
vn 1.000000 0.000000 0.000000
vn 1.000000 0.000000 0.000000
vn 1.000000 0.000000 0.000000
vn 1.000000 0.000000 0.000000
vn 1.000000 0.000000 0.000000
vn 1.000000 0.000000 0.000000
vn 1.000000 0.000000 0.000000
vn -1.000000 0.000000 0.000000
vn -1.000000 0.000000 0.000000
vn -1.000000 0.000000 0.000000
vn -1.000000 0.000000 0.000000
vn -1.000000 0.000000 0.000000
vn -1.000000 0.000000 0.000000
vn -1.000000 0.000000 0.000000
vn -1.000000 0.000000 0.000000
vn -1.000000 0.000000 0.000000
vn -1.000000 0.000000 0.000000
vn -1.000000 0.000000 0.000000
vn -1.000000 0.000000 0.000000
vn -1.000000 0.000000 0.000000
vn -1.000000 0.000000 0.000000
vn -1.000000 0.000000 0.000000
vn -1.000000 0.000000 0.000000
vn -1.000000 0.000000 0.000000
vn -1.000000 0.000000 0.000000
vn -1.000000 0.000000 0.000000
vn -1.000000 0.000000 0.000000
vn -1.000000 0.000000 0.000000
vn -1.000000 0.000000 0.000000
vn -1.000000 0.000000 0.000000
vn -1.000000 0.000000 0.000000
vn -1.000000 0.000000 0.000000
vn -1.000000 0.000000 0.000000
vn -1.000000 0.000000 0.000000
vn -1.000000 0.000000 0.000000
vn -1.000000 0.000000 0.000000
vn -1.000000 0.000000 0.000000
vn -1.000000 0.000000 0.000000
vn -1.000000 0.000000 0.000000
vn -1.000000 0.000000 0.000000
vn -1.000000 0.000000 0.000000
vn -1.000000 0.000000 0.000000
vn -1.000000 0.000000 0.000000
vn -1.000000 0.000000 0.000000
vn -1.000000 0.000000 0.000000
vn -1.000000 0.000000 0.000000
vn -1.000000 0.000000 0.000000
vn 1.000000 0.000000 0.000000
vn 1.000000 0.000000 0.000000
vn 0.000000 1.000000 0.000000
vn 0.000000 1.000000 0.000000
vn 0.000000 1.000000 0.000000
vn -1.000000 0.000000 0.000000
s 1
g Quater_LRG_HighVert_
usemtl lambert3SG
f 42/83/1 3/84/2 22/85/3 41/86/4
f 39/87/5 40/88/6 6/89/7 8/90/8
f 38/91/9 39/87/5 8/90/8 10/92/10
f 37/93/11 38/91/9 10/92/10 12/94/12
f 36/95/13 37/93/11 12/94/12 14/96/14
f 35/97/15 46/98/16 44/99/17 16/100/18
f 34/101/19 35/97/15 16/100/18 18/102/20
f 33/103/21 34/101/19 18/102/20 20/104/22
f 32/105/23 33/103/21 20/104/22 2/106/24
f 40/88/6 41/86/4 22/85/3 6/89/7
s 4
usemtl lambert4SG
f 18/1/25 16/2/26 24/3/27 25/4/28
f 20/7/29 18/1/25 25/4/28
f 43/6/30 44/5/31 14/8/32 26/9/33
f 14/8/32 12/10/34 27/11/35 26/9/33
f 12/10/34 10/12/36 28/13/37 27/11/35
f 10/12/36 8/14/38 29/15/39 28/13/37
f 8/14/38 6/16/40 30/17/41 29/15/39
f 6/16/40 22/18/42 31/19/43 30/17/41
s 1
usemtl lambert3SG
f 21/107/44 33/103/21 32/105/23 5/108/45
f 19/109/46 34/101/19 33/103/21 21/107/44
f 17/110/47 35/97/15 34/101/19 19/109/46
f 45/111/48 46/98/16 35/97/15 17/110/47
f 13/112/49 37/93/11 36/95/13 15/122/50
f 11/123/51 38/91/9 37/93/11 13/112/49
f 9/124/52 39/87/5 38/91/9 11/123/51
f 7/125/53 40/88/6 39/87/5 9/124/52
f 23/126/54 41/86/4 40/88/6 7/125/53
f 4/127/55 42/83/1 41/86/4 23/126/54
s 4
usemtl lambert4SG
f 16/2/26 44/5/31 43/6/30 24/3/27
s 1
usemtl lambert3SG
f 15/122/50 36/95/13 46/98/16 45/111/48
f 44/99/17 46/98/16 36/95/13 14/96/14
s 4
usemtl lambert4SG
f 48/32/56 47/33/57 92/29/58 93/28/59
s 6
f 48/143/60 51/144/61 52/145/62 47/146/63
f 51/144/61 49/142/64 50/141/65 52/145/62
s 4
f 22/18/42 3/20/66 1/21/67 31/19/43
f 70/23/68 71/22/69 54/25/70 53/26/71
s 1
usemtl lambert3SG
f 3/84/2 42/83/1 56/128/72 55/129/73
f 42/83/1 4/127/55 57/130/74 56/128/72
usemtl lambert2SG
f 67/131/75 68/132/76 59/133/77 58/134/78
f 68/132/76 69/135/79 60/136/80 59/133/77
s 8
usemtl lambert3SG
f 62/113/81 61/114/82 96/115/83 97/116/84
f 63/119/85 62/113/81 97/116/84 98/120/86
s 1
f 55/129/73 56/128/72 65/137/87 64/138/88
f 56/128/72 57/130/74 66/139/89 65/137/87
s 6
usemtl lambert4SG
f 51/144/61 48/143/60 61/147/90 62/148/91
f 49/142/64 51/144/61 62/148/91 63/140/92
s 1
usemtl lambert3SG
f 68/132/76 67/131/75 64/138/88 65/137/87
f 66/139/89 69/135/79 68/132/76 65/137/87
s 4
usemtl lambert4SG
f 74/35/93 48/32/56 93/28/59 94/31/94
f 3/20/66 71/22/69 70/23/68 1/21/67
f 55/24/95 73/27/96 54/25/70 71/22/69
f 61/41/97 104/37/98 96/40/99
f 3/20/66 55/24/95 71/22/69
f 72/38/100 74/35/93 94/31/94 95/34/101
f 55/24/95 64/30/102 73/27/96
s 10
f 19/42/103 77/43/104 76/44/105 17/45/106
f 21/46/107 77/43/104 19/42/103
f 84/47/108 78/49/109 15/50/110 45/48/111
f 15/50/110 78/49/109 79/51/112 13/52/113
f 13/52/113 79/51/112 80/53/114 11/54/115
f 11/54/115 80/53/114 81/55/116 9/56/117
f 9/56/117 81/55/116 82/57/118 7/58/119
f 7/58/119 82/57/118 83/59/120 23/60/121
f 17/45/106 76/44/105 84/47/108 45/48/111
f 101/69/122 102/68/123 50/71/124 49/72/125
f 23/60/121 83/59/120 75/61/126 4/62/127
f 87/63/128 85/65/129 86/66/130 88/64/131
f 100/73/132 101/69/122 49/72/125 91/75/133
f 4/62/127 75/61/126 87/63/128 88/64/131
f 57/67/134 88/64/131 86/66/130 90/70/135
f 60/81/136 69/79/137 103/78/138 98/82/139
f 4/62/127 88/64/131 57/67/134
f 99/76/140 100/73/132 91/75/133 89/77/141
f 57/67/134 90/70/135 66/74/142
s 4
f 54/25/70 93/28/59 92/29/58 53/26/71
f 73/27/96 94/31/94 93/28/59 54/25/70
f 64/30/102 95/34/101 94/31/94 73/27/96
f 58/39/143 96/40/99 104/37/98 67/36/144
s 8
usemtl lambert2SG
f 58/117/145 59/118/146 97/116/84 96/115/83
f 59/118/146 60/121/147 98/120/86 97/116/84
s 10
usemtl lambert4SG
f 66/74/142 90/70/135 100/73/132 99/76/140
f 90/70/135 86/66/130 101/69/122 100/73/132
f 86/66/130 85/65/129 102/68/123 101/69/122
f 98/82/139 103/78/138 63/80/148
f 103/78/138 69/79/137 66/74/142 99/76/140
f 63/80/148 103/78/138 99/76/140 89/77/141
s 4
f 61/41/97 72/38/100 95/34/101 104/37/98
f 67/36/144 104/37/98 95/34/101 64/30/102
