# This file uses centimeters as units for non-parametric coordinates.

mtllib Quater_SML_HighVert_RL.mtl
g default
v -23.000000 0.000002 35.000000
v -23.000000 0.000000 26.000000
v -23.000000 5.000000 35.000000
v -33.000000 5.000000 35.000000
v -33.000000 0.000000 35.000000
v -33.000000 0.000000 26.000000
v -23.000000 3.187092 34.426960
v -33.000000 3.187092 34.426960
v -23.000000 2.213345 33.791008
v -33.000000 2.213345 33.791008
v -23.000000 1.432974 32.908150
v -33.000000 1.432974 32.908150
v -23.000000 0.846063 31.812683
v -33.000000 0.846063 31.812683
v -23.000000 0.438784 30.556728
v -33.000000 0.438784 30.556728
v -23.000000 0.186208 29.199608
v -33.000000 0.186208 29.199608
v -23.000000 0.055123 27.797245
v -33.000000 0.055123 27.797245
v -23.000000 0.003419 26.391079
v -33.000000 0.003419 26.390770
v -23.000000 4.093546 34.740002
v -33.000000 4.093546 34.740002
v -33.000000 0.000000 27.804649
v -33.000000 0.000000 29.199932
v -33.000000 0.000000 30.559021
v -33.000000 0.000000 31.810619
v -33.000000 0.000000 32.908035
v -33.000000 0.000000 33.789932
v -33.000000 0.000000 34.429932
v -33.000000 0.000000 34.739998
v -23.000000 -0.000001 29.199932
v -23.000000 0.000001 27.799934
v -23.000000 -0.000001 30.559822
v -23.000000 0.000001 31.809933
v -23.000000 0.000001 32.908035
v -23.000000 0.000000 33.789932
v -23.000000 0.000000 34.429932
v -23.000000 -0.000002 34.739998
v -28.000000 0.000000 26.000000
v -28.000002 0.006837 26.391571
v -28.000000 0.055123 27.797245
v -28.000000 0.186208 29.199608
v -28.000000 0.438784 30.556728
v -28.000000 0.846063 31.812683
v -28.000000 1.432974 32.908150
v -28.000000 2.213345 33.791008
v -28.000000 3.187092 34.426960
v -28.000000 4.093546 34.740002
v -28.001816 5.000000 35.000000
v -23.000000 -0.000001 30.000000
v -33.000000 0.000000 30.000000
v -23.000000 0.312496 30.000000
v -33.000000 0.312496 30.000000
v -28.000000 0.312496 30.000000
v -23.000000 0.000000 36.000000
v -23.000000 5.000000 36.000000
v -33.000000 5.000000 36.000000
v -33.000000 0.000000 36.000000
v -28.000000 5.000000 36.000000
v -28.000000 0.000000 36.000000
v -32.759102 0.000000 26.000000
v -32.759102 0.006837 26.391571
v -32.759098 0.055123 27.797245
v -32.759098 0.186208 29.199608
v -32.759102 0.312496 30.000000
v -32.759102 0.438784 30.556728
v -32.759098 0.846063 31.812683
v -32.759098 1.432974 32.908150
v -32.759098 2.213345 33.791008
v -32.759098 3.187092 34.426960
v -32.759098 4.093546 34.740002
v -32.760002 5.000000 35.000000
v -33.000000 0.000000 34.936302
v -33.000000 4.777919 34.936302
v -32.759098 4.777919 34.936302
v -23.000000 8.000000 36.000000
v -23.000000 8.000000 35.209999
v -31.994221 5.000000 35.000000
v -23.000000 7.760000 35.209999
v -31.988441 4.093546 34.740002
v -31.988441 3.187092 34.426960
v -31.988441 2.213345 33.791008
v -31.988441 1.432974 32.908150
v -31.988441 0.846063 31.812683
v -31.988443 0.438784 30.556728
v -31.988445 0.312496 29.999998
v -31.988441 0.186208 29.199608
v -31.988441 0.055123 27.797245
v -31.988443 0.006837 26.391571
v -31.988445 0.000000 25.999998
v -23.000000 7.040000 35.209999
v -23.000000 6.090000 35.169998
v -23.000000 8.000000 35.407501
v -33.000000 5.000000 35.250000
v -33.000000 0.000000 35.250000
v -28.000000 6.500000 36.000000
v -28.000000 6.502910 35.328903
v -27.999998 6.504203 35.105293
v -23.000000 7.250000 36.000000
v -28.000000 6.125000 36.000000
v -23.000000 6.125000 36.000000
v -28.000000 5.562500 36.000000
v -28.000000 6.230204 35.093601
v -28.000000 5.916070 35.094299
v -28.000000 5.483054 35.075340
v -23.000000 0.000002 35.250000
v -23.000000 5.000000 35.250000
v -23.000000 6.098750 35.377499
v -23.000000 7.092500 35.407501
v -23.000000 7.773125 35.407501
v -23.000000 7.812500 36.000000
vt 0.686524 0.036046
vt 0.343480 0.036046
vt 0.343356 0.016678
vt 0.686524 0.016678
vt 0.343480 0.106740
vt 0.343480 0.059366
vt 0.686524 0.059366
vt 0.686524 0.106740
vt 0.343480 0.172508
vt 0.686524 0.172508
vt 0.343480 0.254113
vt 0.686524 0.254113
vt 0.343480 0.347674
vt 0.686524 0.347674
vt 0.343480 0.448771
vt 0.343480 0.389147
vt 0.686524 0.389147
vt 0.686524 0.448771
vt 0.343480 0.553238
vt 0.686524 0.553238
vt 0.343480 0.657952
vt 0.686524 0.657988
vt 0.343480 0.687121
vt 0.686524 0.687121
vt 0.016965 0.687121
vt 0.016965 0.657952
vt 0.069838 0.657952
vt 0.069838 0.687121
vt 0.016965 0.553238
vt 0.069838 0.553238
vt 0.016965 0.448771
vt 0.069838 0.448771
vt 0.016965 0.389147
vt 0.069838 0.389147
vt 0.016965 0.347674
vt 0.154205 0.845732
vt 0.154205 0.999501
vt 0.000437 0.999501
vt 0.000437 0.845732
vt 0.171504 0.845732
vt 0.154205 0.691963
vt 0.000437 0.691963
vt 0.188803 0.691963
vt 0.188803 0.845732
vt 0.223401 0.691963
vt 0.200336 0.845732
vt 0.240700 0.691963
vt 0.246467 0.691963
vt 0.016965 0.254113
vt 0.069838 0.254113
vt 0.069838 0.347674
vt 0.016965 0.172508
vt 0.069838 0.172508
vt 0.016965 0.106740
vt 0.069838 0.106740
vt 0.016965 0.059366
vt 0.069838 0.059366
vt 0.016965 0.036046
vt 0.069838 0.036046
vt 0.069442 0.016678
vt 0.016965 0.021423
vt 0.000437 0.658011
vt 0.000437 0.687121
vt 0.000437 0.553238
vt 0.000437 0.448771
vt 0.000437 0.389147
vt 0.000437 0.347674
vt 0.000437 0.254113
vt 0.000437 0.172508
vt 0.000437 0.106740
vt 0.000437 0.059366
vt 0.000437 0.036046
vt 0.000437 0.021423
vt 0.000437 0.016678
vt 0.016903 0.016678
vt 0.343480 0.008834
vt 0.343480 0.009705
vt 0.343480 0.009653
vt 0.343480 0.011066
vt 0.686524 0.001035
vt 0.686524 0.001035
vt 0.686524 0.001035
vt 0.686524 0.004014
vt 0.494685 0.987476
vt 0.488919 0.987476
vt 0.494685 0.963180
vt 0.494685 0.969254
vt 0.471620 0.987476
vt 0.688359 0.308037
vt 0.688359 0.154269
vt 0.708998 0.154269
vt 0.711425 0.308037
vt 0.688359 0.000500
vt 0.706581 0.000500
vt 0.719113 0.308037
vt 0.715875 0.154269
vt 0.712655 0.000500
vt 0.872347 0.043754
vt 0.873937 0.000499
vt 0.874042 0.043982
vt 0.868315 0.086882
vt 0.874042 0.086892
vt 0.874042 0.111497
vt 0.864432 0.111497
vt 0.860548 0.128618
vt 0.874042 0.128689
vt 0.848022 0.167243
vt 0.874042 0.167180
vt 0.829973 0.200933
vt 0.874042 0.200930
vt 0.805973 0.228084
vt 0.874042 0.228051
vt 0.776027 0.247642
vt 0.874042 0.247734
vt 0.748150 0.257269
vt 0.874042 0.257269
vt 0.874042 0.263306
vt 0.727103 0.263306
vt 0.874042 0.265265
vt 0.720273 0.265265
vt 0.874042 0.272954
vt 0.720273 0.272954
vt 0.874042 0.296019
vt 0.720273 0.296019
vt 0.250351 0.735211
vt 0.254382 0.778339
vt 0.248656 0.778349
vt 0.248656 0.735293
vt 0.258266 0.802953
vt 0.248656 0.802953
vt 0.248761 0.691966
vt 0.262150 0.820075
vt 0.248656 0.820170
vt 0.274675 0.858700
vt 0.248656 0.858616
vt 0.292725 0.892390
vt 0.248656 0.892386
vt 0.316724 0.919541
vt 0.248656 0.919508
vt 0.346671 0.939099
vt 0.248656 0.939190
vt 0.374548 0.948726
vt 0.248656 0.948726
vt 0.402424 0.956722
vt 0.248656 0.956722
vt 0.402424 0.964411
vt 0.248656 0.964411
vt 0.435946 0.961950
vt 0.436215 0.968332
vt 0.402424 0.987476
vt 0.248656 0.987476
vt 0.465162 0.963180
vt 0.466776 0.969254
vt 0.437022 0.987476
vt 0.487305 0.963180
vt 0.487708 0.969254
vn 0.000000 0.301389 -0.953501
vn 0.000000 0.301385 -0.953503
vn -0.000000 0.231303 -0.972882
vn -0.000000 0.220472 -0.975393
vn 0.000000 0.654580 -0.755993
vn 0.000000 0.450589 -0.892732
vn 0.000000 0.450589 -0.892732
vn 0.000000 0.654580 -0.755993
vn 0.000000 0.822645 -0.568556
vn 0.000000 0.822645 -0.568556
vn 0.000000 0.921057 -0.389427
vn 0.000000 0.921057 -0.389427
vn 0.000000 0.959305 -0.282373
vn 0.000000 0.959305 -0.282373
vn 0.000000 0.993243 -0.116052
vn 0.000000 0.983119 -0.182969
vn 0.000000 0.983119 -0.182969
vn 0.000000 0.993243 -0.116052
vn 0.000095 0.997945 -0.064081
vn 0.000170 0.997928 -0.064347
vn 0.000189 0.999530 -0.030657
vn 0.000340 0.999530 -0.030656
vn 0.000190 0.999887 -0.015037
vn 0.000341 0.999914 -0.013104
vn -1.000000 0.000000 0.000000
vn -1.000000 0.000000 0.000000
vn -1.000000 0.000000 0.000000
vn -1.000000 0.000000 0.000000
vn -1.000000 0.000000 0.000000
vn -1.000000 0.000000 0.000000
vn -1.000000 0.000000 0.000000
vn -1.000000 0.000000 0.000000
vn -1.000000 0.000000 0.000000
vn -1.000000 0.000000 0.000000
vn -1.000000 0.000000 0.000000
vn -1.000000 0.000000 0.000000
vn -1.000000 0.000000 0.000000
vn -1.000000 0.000000 0.000000
vn -1.000000 0.000000 0.000000
vn -1.000000 0.000000 0.000000
vn -1.000000 0.000000 0.000000
vn -1.000000 0.000000 0.000000
vn -1.000000 0.000000 0.000000
vn -1.000000 0.000000 0.000000
vn -1.000000 0.000000 0.000000
vn 1.000000 0.000000 0.000000
vn 1.000000 0.000000 0.000000
vn 1.000000 0.000000 0.000000
vn 1.000000 0.000000 0.000000
vn 1.000000 0.000000 0.000000
vn 1.000000 0.000000 0.000000
vn 1.000000 0.000000 0.000000
vn 1.000000 0.000000 0.000000
vn 1.000000 0.000000 0.000000
vn 1.000000 0.000000 0.000000
vn 1.000000 0.000000 0.000000
vn 1.000000 0.000000 0.000000
vn 1.000000 0.000000 0.000000
vn 1.000000 0.000000 0.000000
vn 1.000000 0.000000 0.000000
vn 1.000000 0.000000 0.000000
vn 1.000000 0.000000 0.000000
vn 1.000000 0.000000 0.000000
vn 1.000000 0.000000 0.000000
vn -0.001683 0.999864 -0.016424
vn -0.001679 0.999529 -0.030661
vn 0.000000 0.999530 -0.030656
vn 0.000000 0.999848 -0.017459
vn -0.000837 0.997957 -0.063890
vn 0.000000 0.997966 -0.063748
vn 0.000000 0.993243 -0.116052
vn 0.000000 0.993243 -0.116052
vn -0.000000 0.983119 -0.182969
vn -0.000000 0.983119 -0.182969
vn -0.000000 0.959305 -0.282373
vn 0.000000 0.921058 -0.389427
vn 0.000000 0.921057 -0.389427
vn 0.000000 0.959305 -0.282373
vn 0.000000 0.822645 -0.568556
vn 0.000000 0.822645 -0.568556
vn 0.000000 0.654580 -0.755993
vn 0.000000 0.654580 -0.755993
vn 0.000000 0.450589 -0.892732
vn 0.000000 0.450588 -0.892732
vn 0.000002 0.303502 -0.952831
vn 0.000000 0.301610 -0.953431
vn 0.001725 0.196917 -0.980419
vn 0.000004 0.275712 -0.961240
vn 1.000000 0.000000 0.000000
vn 1.000000 0.000000 0.000000
vn 1.000000 0.000000 0.000000
vn 1.000000 0.000000 0.000000
vn -1.000000 0.000000 0.000000
vn -1.000000 0.000000 0.000000
vn -1.000000 0.000000 0.000000
vn -1.000000 0.000000 0.000000
vn 0.000000 0.000000 1.000000
vn 0.000000 0.000000 1.000000
vn 0.000000 0.000000 1.000000
vn 0.000000 0.000000 1.000000
vn -0.007041 0.999506 -0.030638
vn -0.007073 0.999889 -0.013108
vn -0.003515 0.997922 -0.064344
vn 0.000000 0.993243 -0.116052
vn 0.000000 0.983119 -0.182969
vn 0.000000 0.959305 -0.282374
vn 0.000000 0.921057 -0.389427
vn 0.000000 0.822646 -0.568555
vn 0.000000 0.654580 -0.755993
vn 0.000000 0.450589 -0.892731
vn 0.000000 0.304928 -0.952375
vn 0.000000 0.275713 -0.961240
vn -1.000000 0.000000 0.000000
vn -1.000000 0.000000 0.000000
vn 0.000000 0.275703 -0.961243
vn 0.000000 0.275706 -0.961242
vn 0.000000 0.000000 1.000000
vn 0.000000 0.000000 1.000000
vn 0.000000 0.000000 1.000000
vn 1.000000 0.000000 0.000000
vn 1.000000 0.000000 0.000000
vn 1.000000 0.000000 0.000000
vn 1.000000 0.000000 0.000000
vn 0.004312 0.058428 -0.998282
vn 0.010743 0.037407 -0.999242
vn 0.017274 0.018022 -0.999688
vn -0.287618 0.957743 0.001962
vn -0.287378 0.957815 0.002077
vn -0.287391 0.957811 0.002248
vn -0.287718 0.957713 0.002126
vn 0.017459 0.025893 -0.999512
vn 0.006037 0.105035 -0.994450
vn -0.288013 0.957623 0.002612
vn -0.287436 0.957796 0.002763
vn -0.287107 0.957896 0.002207
vn -0.287024 0.957920 0.002387
vn -0.286770 0.957995 0.002937
vn 1.000000 0.000000 0.000000
vn 1.000000 0.000000 0.000000
vn 0.000000 0.000000 1.000000
vn 0.000000 0.000000 1.000000
vn 0.000000 0.000000 1.000000
vn 0.000000 0.000000 1.000000
vn 1.000000 0.000000 0.000000
vn 1.000000 0.000000 0.000000
vn 0.015223 0.022739 -0.999626
vn 0.019944 0.009196 -0.999759
vn 0.018499 0.021043 -0.999607
vn 0.006886 0.098065 -0.995156
vn 0.000000 0.000000 1.000000
vn 1.000000 0.000000 0.000000
vn 1.000000 0.000000 0.000000
vn 1.000000 0.000000 0.000000
vn 1.000000 0.000000 0.000000
vn 1.000000 0.000000 0.000000
vn 1.000000 0.000000 0.000000
vn 0.000000 0.000000 1.000000
s 1
g Quater_SML_HighVert_RL
usemtl lambert3SG
f 23/1/1 50/2/2 51/3/3 3/4/4
f 48/5/5 49/6/6 7/7/7 9/8/8
f 47/9/9 48/5/5 9/8/8 11/10/10
f 46/11/11 47/9/9 11/10/10 13/12/12
f 45/13/13 46/11/11 13/12/12 15/14/14
f 44/15/15 56/16/16 54/17/17 17/18/18
f 43/19/19 44/15/15 17/18/18 19/20/20
f 42/21/21 43/19/19 19/20/20 21/22/22
f 41/23/23 42/21/21 21/22/22 2/24/24
f 49/6/6 50/2/2 23/1/1 7/7/7
s 4
usemtl lambert4SG
f 20/98/25 22/99/26 25/100/27
f 18/101/28 20/98/25 25/100/27 26/102/29
f 53/103/30 55/104/31 18/101/28 26/102/29
f 14/107/32 16/105/33 27/106/34 28/108/35
f 12/109/36 14/107/32 28/108/35 29/110/37
f 10/111/38 12/109/36 29/110/37 30/112/39
f 8/113/40 10/111/38 30/112/39 31/114/41
f 24/115/42 8/113/40 31/114/41 32/116/43
f 75/117/44 76/118/45 24/115/42 32/116/43
s 5
f 19/125/46 17/126/47 33/127/48 34/128/49
f 21/131/50 19/125/46 34/128/49
f 52/130/51 54/129/52 15/132/53 35/133/54
f 15/132/53 13/134/55 36/135/56 35/133/54
f 13/134/55 11/136/57 37/137/58 36/135/56
f 11/136/57 9/138/59 38/139/60 37/137/58
f 9/138/59 7/140/61 39/141/62 38/139/60
f 7/140/61 23/142/63 40/143/64 39/141/62
s 1
usemtl lambert3SG
f 63/25/65 64/26/66 91/27/67 92/28/68
f 64/26/66 65/29/69 90/30/70 91/27/67
f 65/29/69 66/31/71 89/32/72 90/30/70
f 66/31/71 67/33/73 88/34/74 89/32/72
f 68/35/75 69/49/76 86/50/77 87/51/78
f 69/49/76 70/52/79 85/53/80 86/50/77
f 70/52/79 71/54/81 84/55/82 85/53/80
f 71/54/81 72/56/83 83/57/84 84/55/82
f 72/56/83 73/58/85 82/59/86 83/57/84
f 80/60/87 82/59/86 73/58/85 77/61/88
s 5
usemtl lambert4SG
f 17/126/47 54/129/52 52/130/51 33/127/48
s 4
f 16/105/33 55/104/31 53/103/30 27/106/34
s 1
usemtl lambert3SG
f 67/33/73 68/35/75 87/51/78 88/34/74
f 54/17/17 56/16/16 45/13/13 15/14/14
s 5
usemtl lambert4SG
f 108/147/89 109/146/90 58/150/91 57/151/92
s 4
f 97/121/93 60/123/94 59/124/95 96/122/96
s 10
f 61/36/97 59/37/98 60/38/99 62/39/100
s 1
usemtl lambert3SG
f 22/62/101 64/26/66 63/25/65 6/63/102
f 20/64/103 65/29/69 64/26/66 22/62/101
f 18/65/104 66/31/71 65/29/69 20/64/103
f 55/66/105 67/33/73 66/31/71 18/65/104
f 16/67/106 68/35/75 67/33/73 55/66/105
f 14/68/107 69/49/76 68/35/75 16/67/106
f 12/69/108 70/52/79 69/49/76 14/68/107
f 10/70/109 71/54/81 70/52/79 12/69/108
f 8/71/110 72/56/83 71/54/81 10/70/109
f 24/72/111 73/58/85 72/56/83 8/71/110
f 76/73/112 77/61/88 73/58/85 24/72/111
s 4
usemtl lambert4SG
f 5/119/113 4/120/114 76/118/45 75/117/44
s 1
usemtl lambert2SG
f 4/74/115 74/75/116 77/61/88 76/73/112
f 80/60/87 77/61/88 74/75/116
s 10
usemtl lambert4SG
f 103/43/117 104/40/118 61/36/97 58/41/119
s 5
f 112/156/120 113/85/121 101/88/122 111/153/123
s 1
usemtl lambert2SG
f 4/74/124 100/76/125 105/77/126 80/60/87
s 14
usemtl lambert3SG
f 59/89/127 98/90/128 99/91/129 96/92/130
s 1
f 105/77/126 106/78/131 80/60/87
f 51/3/3 50/2/2 82/59/86 80/60/87
f 83/57/84 82/59/86 50/2/2 49/6/6
f 84/55/82 83/57/84 49/6/6 48/5/5
f 85/53/80 84/55/82 48/5/5 47/9/9
f 86/50/77 85/53/80 47/9/9 46/11/11
f 87/51/78 86/50/77 46/11/11 45/13/13
f 88/34/74 87/51/78 45/13/13 56/16/16
f 89/32/72 88/34/74 56/16/16 44/15/15
f 90/30/70 89/32/72 44/15/15 43/19/19
f 91/27/67 90/30/70 43/19/19 42/21/21
f 92/28/68 91/27/67 42/21/21 41/23/23
f 80/60/87 106/78/131 107/79/132
f 80/60/87 107/79/132 51/3/3
s 14
usemtl lambert2SG
f 4/95/133 96/92/130 99/91/129 100/96/134
s 4
usemtl lambert4SG
f 5/119/113 97/121/93 96/122/96 4/120/114
s 10
f 59/37/98 61/36/97 104/40/118
s 14
usemtl lambert3SG
f 99/91/129 98/90/128 78/93/135 95/94/136
usemtl lambert2SG
f 100/96/134 99/91/129 95/94/136 79/97/137
s 5
usemtl lambert4SG
f 23/142/63 3/144/138 1/145/139 40/143/64
s 10
f 113/47/140 102/44/141 101/45/142
f 59/37/98 102/44/141 98/46/143
f 101/45/142 102/44/141 104/40/118 103/43/117
f 59/37/98 104/40/118 102/44/141
s 5
f 109/146/90 110/149/144 103/154/145 58/150/91
f 110/149/144 111/153/123 101/88/122 103/154/145
s 1
usemtl lambert2SG
f 105/77/126 100/76/125 79/80/146 81/81/147
usemtl lambert3SG
f 81/81/147 93/82/148 106/78/131 105/77/126
f 107/79/132 106/78/131 93/82/148 94/83/149
f 51/3/3 107/79/132 94/83/149 3/4/4
s 10
usemtl lambert4SG
f 58/41/119 61/36/97 62/39/100 57/42/150
s 5
f 3/144/138 109/146/90 108/147/89 1/145/139
f 94/148/151 110/149/144 109/146/90 3/144/138
f 93/152/152 111/153/123 110/149/144 94/148/151
f 81/155/153 112/156/120 111/153/123 93/152/152
f 95/87/154 112/156/120 81/155/153 79/86/155
f 78/84/156 113/85/121 112/156/120 95/87/154
s 10
f 98/46/143 102/44/141 113/47/140 78/48/157
