# This file uses centimeters as units for non-parametric coordinates.

mtllib Quater_LRG_Bowl.mtl
g default
v -40.000000 0.000025 48.000000
v -22.000000 0.005693 48.000000
v -40.000000 10.000000 48.000000
v -38.853920 6.374184 48.000000
v -37.582020 4.426691 48.000000
v -35.816296 2.865949 48.000000
v -33.625366 1.692126 48.000000
v -31.113461 0.877567 48.000000
v -28.399216 0.372416 48.000000
v -25.594490 0.110246 48.000000
v -39.480003 8.187092 48.000000
v -30.000000 0.624992 48.000000
v -42.000000 0.000002 48.000000
v -42.000000 10.000004 48.000000
v -22.000000 10.000000 66.000000
v -22.000000 0.000005 66.000000
v -22.000000 6.374184 64.853920
v -22.000000 4.426691 63.582016
v -22.000000 2.865949 61.816299
v -22.000000 1.692126 59.625366
v -22.000000 0.877567 57.113461
v -22.000000 0.372416 54.399216
v -22.000000 0.110246 51.594490
v -22.000000 8.187092 65.480003
v -22.000000 0.624992 55.999996
v -22.008680 10.000000 68.000000
v -22.004341 -0.000000 68.000000
v -25.552389 0.110246 49.047012
v -25.310375 0.110246 50.009743
v -24.789919 0.110246 50.790367
v -24.009630 0.110246 51.311169
v -23.047028 0.110246 51.553020
v -28.326448 0.372416 49.798611
v -27.894777 0.372416 51.514153
v -26.942320 0.372416 52.942390
v -25.514236 0.372417 53.895138
v -23.798653 0.372417 54.326778
v -29.907761 0.624992 50.303650
v -29.368935 0.624992 52.446877
v -28.199726 0.624992 54.199638
v -26.446926 0.624992 55.368843
v -24.303661 0.624992 55.907700
v -31.005486 0.877567 50.730431
v -30.393194 0.877567 53.169132
v -29.103037 0.877567 55.102966
v -27.169168 0.877567 56.393105
v -24.730436 0.877567 57.005417
v -33.490700 1.692126 51.368294
v -32.707962 1.692126 54.482262
v -31.017044 1.692126 57.017113
v -28.482220 1.692126 58.708023
v -25.368286 1.692126 59.490738
v -35.656315 2.865949 52.000648
v -34.726032 2.865949 55.701530
v -32.715496 2.865949 58.715538
v -29.701511 2.865948 60.726097
v -26.000645 2.865949 61.656364
v -37.401634 4.426691 52.511417
v -36.352463 4.426691 56.685280
v -34.084770 4.426691 60.084766
v -30.685278 4.426691 62.352459
v -26.511419 4.426691 63.401630
v -38.658970 6.374184 52.873825
v -37.524075 6.374184 57.388531
v -35.068974 6.374184 61.068977
v -31.388535 6.374184 63.524071
v -26.873821 6.374184 64.658966
v -39.278671 8.187092 53.023270
v -38.101162 8.187092 57.706539
v -35.542419 8.187092 61.542419
v -31.706537 8.187092 64.101158
v -27.023272 8.187092 65.278671
v -27.075144 9.999998 65.667038
v -31.898632 10.000002 64.496170
v -35.855846 10.000003 61.875389
v -38.408913 9.999995 57.852291
v -39.707111 10.000000 53.070717
v -42.000004 10.000000 53.070717
v -42.000004 9.999995 57.852295
v -41.999989 10.000003 61.875389
v -27.075146 9.999998 68.000000
v -31.898632 10.000002 68.000000
v -35.855846 10.000003 67.999985
v -42.000000 10.000002 67.999992
v -22.000000 -0.000000 65.480003
v -22.000000 0.000000 64.853920
v -22.000000 -0.000001 63.582016
v -22.000000 -0.000001 61.816299
v -22.000000 -0.000001 59.625366
v -22.000000 0.000000 57.113461
v -22.000000 0.000002 55.999996
v -22.000000 -0.000001 54.399216
v -22.000000 -0.000003 51.594490
v -38.853920 0.000013 48.000000
v -37.582020 -0.000006 48.000000
v -35.816296 -0.000022 48.000000
v -33.625366 -0.000033 48.000000
v -31.113461 -0.000042 48.000000
v -30.000000 -0.000044 48.000000
v -28.399216 -0.000047 48.000000
v -25.594490 -0.000049 48.000000
v -39.480003 0.000032 48.000000
v -42.000004 -0.000000 53.070717
v -42.000004 -0.000005 57.852295
v -41.999989 0.000003 61.875389
v -42.000000 0.000002 67.999992
v -27.075146 -0.000002 68.000000
v -31.898632 0.000002 68.000000
v -35.855846 0.000003 67.999985
v -22.000000 9.546773 65.870003
v -27.062176 9.546772 65.569946
v -31.850609 9.546774 64.397415
v -35.777489 9.546776 61.792149
v -38.331974 9.546770 57.815857
v -39.600002 9.546773 53.058853
v -39.870003 9.546773 48.000000
v -22.000000 9.546773 66.000000
v -22.008499 9.540000 68.000000
v -40.000000 9.546771 48.000000
v -42.000000 9.546774 48.000000
v -42.000004 9.546774 53.070717
v -42.000004 9.546774 57.852295
v -41.999989 9.546774 61.875389
v -42.000000 9.546774 67.999992
v -35.855846 9.546774 67.999985
v -31.898632 9.546774 68.000000
v -27.075146 9.546774 68.000000
v -40.280334 10.000000 53.070717
v -27.075144 9.999998 66.250282
v -31.898632 10.000002 65.196938
v -39.127132 9.999995 57.852287
v -36.593143 10.000002 61.875389
v -35.855846 10.000002 62.610336
v -36.285938 10.000003 62.304115
v -22.002171 10.000000 66.500000
v -40.500000 10.000001 48.000000
v -38.976707 9.999995 57.852291
v -22.002117 9.545084 66.498459
v -22.001085 0.000003 66.500000
v -40.500000 9.546772 48.000000
v -40.499893 0.000019 48.000000
vt 0.845991 0.024151
vt 0.839262 0.024151
vt 0.839262 0.001884
vt 0.845991 0.001884
vt 0.839262 0.031574
vt 0.845991 0.031574
vt 0.697538 0.024153
vt 0.697538 0.001884
vt 0.697538 0.031574
vt 0.839262 0.033504
vt 0.819078 0.039294
vt 0.697538 0.039294
vt 0.792164 0.048588
vt 0.697538 0.048588
vt 0.763253 0.067470
vt 0.697538 0.067470
vt 0.740084 0.093682
vt 0.697537 0.093682
vt 0.722658 0.126207
vt 0.697537 0.126207
vt 0.710565 0.163497
vt 0.697537 0.163497
vt 0.706816 0.180027
vt 0.697537 0.180027
vt 0.703066 0.203791
vt 0.697537 0.203791
vt 0.699174 0.245428
vt 0.697537 0.245428
vt 0.697622 0.298790
vt 0.695281 0.695316
vt 0.654865 0.558166
vt 0.695281 0.556566
vt 0.556531 0.695316
vt 0.558156 0.654901
vt 0.567498 0.617738
vt 0.587588 0.587606
vt 0.617708 0.567502
vt 0.625852 0.451097
vt 0.695281 0.448301
vt 0.448266 0.695316
vt 0.451075 0.625888
vt 0.467737 0.559667
vt 0.504503 0.504535
vt 0.559629 0.467759
vt 0.606358 0.390072
vt 0.695281 0.386509
vt 0.386474 0.695316
vt 0.390034 0.606393
vt 0.410834 0.523663
vt 0.455966 0.456005
vt 0.523626 0.410872
vt 0.589884 0.347699
vt 0.695281 0.343528
vt 0.343493 0.695316
vt 0.347661 0.589919
vt 0.371296 0.495783
vt 0.421098 0.421135
vt 0.845990 0.667324
vt 0.845990 0.742537
vt 0.839262 0.742537
vt 0.839161 0.667321
vt 0.845990 0.814143
vt 0.839262 0.814143
vt 0.697537 0.742537
vt 0.697537 0.667260
vt 0.845990 0.872889
vt 0.839262 0.872889
vt 0.697537 0.814143
vt 0.845990 0.964101
vt 0.839262 0.964101
vt 0.697537 0.872889
vt 0.697537 0.964101
vt 0.495747 0.371335
vt 0.565262 0.251763
vt 0.695281 0.246566
vt 0.246531 0.695316
vt 0.251730 0.565297
vt 0.281944 0.445095
vt 0.347215 0.347247
vt 0.445062 0.281976
vt 0.540853 0.168168
vt 0.695281 0.161994
vt 0.161959 0.695316
vt 0.168135 0.540888
vt 0.204045 0.398030
vt 0.281653 0.281686
vt 0.397996 0.204077
vt 0.521136 0.100799
vt 0.695281 0.093836
vt 0.093801 0.695316
vt 0.100764 0.521171
vt 0.141263 0.360057
vt 0.228798 0.228833
vt 0.360021 0.141298
vt 0.507147 0.052265
vt 0.695281 0.044739
vt 0.044704 0.695316
vt 0.052230 0.507182
vt 0.096038 0.332910
vt 0.190807 0.190842
vt 0.332875 0.096073
vt 0.501378 0.028344
vt 0.695281 0.020572
vt 0.020537 0.695316
vt 0.028308 0.501413
vt 0.073762 0.320635
vt 0.172531 0.172566
vt 0.320600 0.073797
vt 0.499376 0.013352
vt 0.695281 0.000500
vt 0.695281 0.005518
vt 0.499877 0.017100
vt 0.313185 0.058549
vt 0.315039 0.062361
vt 0.160433 0.159713
vt 0.163457 0.162927
vt 0.064852 0.316415
vt 0.061882 0.315009
vt 0.015905 0.500040
vt 0.011770 0.499582
vt 0.005483 0.695316
vt 0.000465 0.695316
vt 0.845990 0.660220
vt 0.222094 0.973972
vt 0.297371 0.977233
vt 0.297371 0.999501
vt 0.222094 0.999501
vt 0.222094 0.965462
vt 0.297371 0.969810
vt 0.151110 0.954619
vt 0.151110 0.999501
vt 0.151110 0.956852
vt 0.151110 0.946190
vt 0.091386 0.919234
vt 0.091386 0.999500
vt 0.091386 0.908289
vt 0.085022 0.914674
vt 0.000465 0.999501
vt 0.000465 0.908289
vt 0.080476 0.908289
vt 0.042077 0.849543
vt 0.000465 0.849543
vt 0.052480 0.849543
vt 0.026440 0.777937
vt 0.000465 0.777937
vt 0.035098 0.777937
vt 0.022733 0.702627
vt 0.000465 0.702724
vt 0.030155 0.702595
vt 0.922982 0.329160
vt 0.922956 0.336560
vt 0.781257 0.336583
vt 0.781257 0.329160
vt 0.929710 0.329160
vt 0.929710 0.336583
vt 0.922881 0.358851
vt 0.781257 0.358851
vt 0.902797 0.321440
vt 0.922982 0.327230
vt 0.781257 0.321440
vt 0.929710 0.358851
vt 0.875883 0.312146
vt 0.781257 0.312146
vt 0.846972 0.293264
vt 0.781257 0.293264
vt 0.823803 0.267052
vt 0.781257 0.267052
vt 0.806377 0.234527
vt 0.781257 0.234527
vt 0.794285 0.197237
vt 0.781257 0.197237
vt 0.790535 0.180707
vt 0.781257 0.180707
vt 0.786785 0.156943
vt 0.781257 0.156943
vt 0.782893 0.115306
vt 0.781257 0.115306
vt 0.781341 0.061945
vt 0.704265 0.660220
vt 0.697537 0.660220
vt 0.845990 0.569299
vt 0.704265 0.569299
vt 0.697537 0.569299
vt 0.845990 0.509575
vt 0.704265 0.509575
vt 0.697537 0.509575
vt 0.845990 0.438591
vt 0.845990 0.363314
vt 0.704265 0.438591
vt 0.704265 0.363314
vt 0.697537 0.438591
vt 0.697537 0.363314
vn 0.000000 0.000000 -1.000000
vn 0.000000 0.000000 -1.000000
vn 0.000000 0.000000 -1.000000
vn 0.000000 0.000000 -1.000000
vn 0.999999 0.000028 0.001671
vn 0.999995 0.000217 0.003260
vn 0.999995 0.000218 0.003210
vn 0.999999 0.000027 0.001615
vn 0.016866 0.999716 -0.016865
vn 0.009940 0.997305 -0.072687
vn 0.002932 0.997302 -0.073350
vn 0.073356 0.997302 -0.002960
vn 0.072677 0.997306 -0.009958
vn 0.065829 0.997430 -0.028267
vn 0.049719 0.997526 -0.049701
vn 0.028277 0.997430 -0.065830
vn 0.016783 0.992606 -0.120216
vn 0.004908 0.992470 -0.122388
vn 0.122378 0.992471 -0.004930
vn 0.120196 0.992608 -0.016792
vn 0.107476 0.993111 -0.046674
vn 0.080916 0.993432 -0.080903
vn 0.046688 0.993110 -0.107488
vn 0.025165 0.982973 -0.182017
vn 0.007472 0.982329 -0.187015
vn 0.187002 0.982331 -0.007474
vn 0.182000 0.982977 -0.025162
vn 0.159803 0.984722 -0.069174
vn 0.119042 0.985727 -0.119039
vn 0.069184 0.984720 -0.159815
vn 0.038732 0.959126 -0.280316
vn 0.011402 0.958000 -0.286541
vn 0.286545 0.957999 -0.011400
vn 0.280323 0.959124 -0.038731
vn 0.250464 0.962053 -0.108267
vn 0.188640 0.963758 -0.188640
vn 0.108264 0.962055 -0.250457
vn 0.054419 0.917867 -0.393139
vn 0.015927 0.916777 -0.399082
vn 0.399086 0.916775 -0.015929
vn 0.393144 0.917865 -0.054422
vn 0.354815 0.922246 -0.153521
vn 0.268375 0.925175 -0.268375
vn 0.153518 0.922249 -0.354810
vn 0.079784 0.819288 -0.567805
vn 0.023078 0.816231 -0.577265
vn 0.577262 0.816233 -0.023082
vn 0.567800 0.819291 -0.079786
vn 0.512553 0.829055 -0.223512
vn 0.388919 0.835155 -0.388918
vn 0.223514 0.829052 -0.512557
vn 0.106322 0.652154 -0.750594
vn 0.030447 0.647584 -0.761386
vn 0.761383 0.647587 -0.030447
vn 0.750589 0.652159 -0.106322
vn 0.683237 0.666045 -0.299285
vn 0.521898 0.674720 -0.521896
vn 0.299287 0.666040 -0.683240
vn 0.126649 0.450403 -0.883797
vn 0.035786 0.446117 -0.894259
vn 0.894260 0.446116 -0.035785
vn 0.883797 0.450402 -0.126649
vn 0.811180 0.462657 -0.357680
vn 0.624038 0.470269 -0.624038
vn 0.357680 0.462657 -0.811181
vn 0.137257 0.288369 -0.947631
vn 0.042314 0.290740 -0.955866
vn 0.954635 0.294939 -0.041022
vn 0.947650 0.287501 -0.138930
vn 0.877604 0.283894 -0.386285
vn 0.677224 0.294476 -0.674279
vn 0.384324 0.292828 -0.875527
vn 0.144708 0.232932 -0.961666
vn 0.060448 0.243384 -0.968045
vn 0.051294 0.243387 -0.968572
vn 0.141377 0.233094 -0.962122
vn 0.387207 0.232019 -0.892322
vn 0.388548 0.231975 -0.891750
vn 0.693545 0.228836 -0.683103
vn 0.691552 0.228661 -0.685179
vn 0.895344 0.210632 -0.392420
vn 0.895455 0.210323 -0.392332
vn 0.961913 0.231249 -0.145767
vn 0.960924 0.231281 -0.152100
vn 0.966213 0.253359 -0.047338
vn 0.965883 0.253355 -0.053673
vn 0.000000 1.000000 0.000001
vn 0.000001 1.000000 0.000000
vn 0.000001 1.000000 0.000000
vn 0.000000 1.000000 0.000001
vn 0.000000 1.000000 -0.000001
vn 0.000000 1.000000 -0.000001
vn 0.000000 1.000000 -0.000001
vn -0.000000 1.000000 -0.000000
vn 0.000000 1.000000 -0.000001
vn -0.000000 1.000000 0.000000
vn 0.000000 1.000000 0.000000
vn 0.000000 1.000000 0.000000
vn -0.000000 1.000000 0.000000
vn 0.000000 1.000000 0.000000
vn 0.000000 1.000000 0.000000
vn 0.000000 1.000000 0.000000
vn 0.000000 1.000000 0.000000
vn -0.000000 1.000000 -0.000000
vn 0.000000 1.000000 0.000000
vn 1.000000 0.000000 0.000000
vn 1.000000 0.000000 0.000000
vn 1.000000 0.000000 0.000000
vn 1.000000 0.000000 0.000000
vn 1.000000 0.000000 0.000000
vn 1.000000 0.000000 0.000000
vn 1.000000 0.000000 0.000000
vn 1.000000 0.000000 0.000000
vn 1.000000 0.000000 0.000000
vn 1.000000 0.000000 0.000000
vn 1.000000 0.000000 0.000000
vn 1.000000 0.000000 0.000000
vn 1.000000 0.000000 0.000000
vn 1.000000 0.000000 0.000000
vn 1.000000 0.000000 0.000000
vn 1.000000 0.000000 0.000000
vn 1.000000 0.000000 0.000000
vn 1.000000 0.000000 0.000000
vn 1.000000 0.000000 0.000000
vn 1.000000 0.000000 0.000000
vn 0.000000 0.000000 -1.000000
vn 0.000001 0.000000 -1.000000
vn 0.000001 0.000000 -1.000000
vn 0.000000 0.000000 -1.000000
vn 0.000002 0.000000 -1.000000
vn 0.000001 0.000000 -1.000000
vn 0.000000 0.000000 -1.000000
vn 0.000000 0.000000 -1.000000
vn 0.000000 0.000000 -1.000000
vn 0.000000 0.000000 -1.000000
vn 0.000000 0.000000 -1.000000
vn 0.000000 0.000000 -1.000000
vn 0.000000 0.000000 -1.000000
vn 0.000000 0.000000 -1.000000
vn 0.000000 0.000000 -1.000000
vn 0.000000 0.000000 -1.000000
vn 0.000000 0.000000 -1.000000
vn -0.000006 0.000000 -1.000000
vn -0.000003 0.000000 -1.000000
vn 0.000000 0.000000 -1.000000
vn -0.000006 0.000000 -1.000000
vn -0.000003 0.000000 -1.000000
vn -1.000000 0.000000 -0.000000
vn -1.000000 0.000000 -0.000001
vn -1.000000 0.000000 -0.000001
vn -1.000000 0.000000 -0.000000
vn -1.000000 0.000000 0.000002
vn -1.000000 0.000000 0.000002
vn -1.000000 0.000000 0.000000
vn -1.000000 0.000000 0.000000
vn -1.000000 0.000000 -0.000002
vn -1.000000 0.000000 -0.000002
vn 0.000000 0.000000 1.000000
vn 0.000000 0.000000 1.000000
vn -0.000000 0.000000 1.000000
vn 0.000001 0.000000 1.000000
vn -0.000002 0.000000 1.000000
vn -0.000002 0.000000 1.000000
vn -0.000001 0.000000 1.000000
vn -0.000001 0.000000 1.000000
vn 0.000001 0.000000 1.000000
vn 0.000001 0.000000 1.000000
vn 0.999991 0.000053 0.004197
vn 0.999991 0.000202 0.004295
vn -0.000003 0.000000 -1.000000
vn 0.000000 0.000000 -1.000000
vn 0.000000 0.000000 -1.000000
vn -1.000000 0.000000 -0.000001
vn -1.000000 0.000000 -0.000000
vn -1.000000 0.000000 0.000002
vn -1.000000 0.000000 0.000000
vn -1.000000 0.000000 -0.000002
vn 0.000001 0.000000 1.000000
vn -0.000001 0.000000 1.000000
vn -0.000002 0.000000 1.000000
vn 0.000000 0.000000 1.000000
vn 0.000001 0.000000 1.000000
vn -0.000000 1.000000 0.000000
vn 0.000000 1.000000 0.000000
vn 0.000000 1.000000 0.000000
vn -0.000000 1.000000 -0.000000
vn -0.000000 1.000000 -0.000000
vn 0.000000 1.000000 0.000000
vn 0.000001 1.000000 0.000000
vn 0.999991 0.000250 0.004295
vn 0.999995 0.000271 0.003261
vn 0.999995 0.000272 0.003211
s 1
g Quater_LRG_Bowl
usemtl lambert4SG
f 136/1/1 140/2/2 120/3/3 14/4/4
s 2
f 117/150/5 138/151/6 139/152/7 16/153/8
s 3
usemtl lambert3SG
f 2/30/9 32/31/10 23/32/11
f 2/30/9 10/33/12 28/34/13
f 2/30/9 28/34/13 29/35/14
f 2/30/9 29/35/14 30/36/15
f 2/30/9 30/36/15 31/37/16
f 2/30/9 31/37/16 32/31/10
f 32/31/10 37/38/17 22/39/18 23/32/11
f 10/33/12 9/40/19 33/41/20 28/34/13
f 28/34/13 33/41/20 34/42/21 29/35/14
f 29/35/14 34/42/21 35/43/22 30/36/15
f 30/36/15 35/43/22 36/44/23 31/37/16
f 31/37/16 36/44/23 37/38/17 32/31/10
f 37/38/17 42/45/24 25/46/25 22/39/18
f 9/40/19 12/47/26 38/48/27 33/41/20
f 33/41/20 38/48/27 39/49/28 34/42/21
f 34/42/21 39/49/28 40/50/29 35/43/22
f 35/43/22 40/50/29 41/51/30 36/44/23
f 36/44/23 41/51/30 42/45/24 37/38/17
f 42/45/24 47/52/31 21/53/32 25/46/25
f 12/47/26 8/54/33 43/55/34 38/48/27
f 38/48/27 43/55/34 44/56/35 39/49/28
f 39/49/28 44/56/35 45/57/36 40/50/29
f 40/50/29 45/57/36 46/73/37 41/51/30
f 41/51/30 46/73/37 47/52/31 42/45/24
f 47/52/31 52/74/38 20/75/39 21/53/32
f 8/54/33 7/76/40 48/77/41 43/55/34
f 43/55/34 48/77/41 49/78/42 44/56/35
f 44/56/35 49/78/42 50/79/43 45/57/36
f 45/57/36 50/79/43 51/80/44 46/73/37
f 46/73/37 51/80/44 52/74/38 47/52/31
f 52/74/38 57/81/45 19/82/46 20/75/39
f 7/76/40 6/83/47 53/84/48 48/77/41
f 48/77/41 53/84/48 54/85/49 49/78/42
f 49/78/42 54/85/49 55/86/50 50/79/43
f 50/79/43 55/86/50 56/87/51 51/80/44
f 51/80/44 56/87/51 57/81/45 52/74/38
f 57/81/45 62/88/52 18/89/53 19/82/46
f 6/83/47 5/90/54 58/91/55 53/84/48
f 53/84/48 58/91/55 59/92/56 54/85/49
f 54/85/49 59/92/56 60/93/57 55/86/50
f 55/86/50 60/93/57 61/94/58 56/87/51
f 56/87/51 61/94/58 62/88/52 57/81/45
f 62/88/52 67/95/59 17/96/60 18/89/53
f 5/90/54 4/97/61 63/98/62 58/91/55
f 58/91/55 63/98/62 64/99/63 59/92/56
f 59/92/56 64/99/63 65/100/64 60/93/57
f 60/93/57 65/100/64 66/101/65 61/94/58
f 61/94/58 66/101/65 67/95/59 62/88/52
f 67/95/59 72/102/66 24/103/67 17/96/60
f 4/97/61 11/104/68 68/105/69 63/98/62
f 63/98/62 68/105/69 69/106/70 64/99/63
f 64/99/63 69/106/70 70/107/71 65/100/64
f 65/100/64 70/107/71 71/108/72 66/101/65
f 66/101/65 71/108/72 72/102/66 67/95/59
usemtl lambert2SG
f 73/109/73 15/110/74 110/111/75 111/112/76
f 74/113/77 73/109/73 111/112/76 112/114/78
f 75/115/79 74/113/77 112/114/78 113/116/80
f 113/116/80 114/117/81 76/118/82 75/115/79
f 114/117/81 115/119/83 77/120/84 76/118/82
f 115/119/83 116/121/85 3/122/86 77/120/84
s 5
usemtl lambert3SG
f 128/124/87 136/125/88 14/126/89 78/127/90
f 137/130/91 128/124/87 78/127/90 79/131/92 131/132/93
f 132/134/94 137/130/91 131/132/93 79/131/92 80/135/95
f 135/147/96 129/144/97 81/145/98 26/148/99
f 129/144/97 130/141/100 82/142/101 81/145/98
f 130/141/100 133/140/102 83/139/103 82/142/101
f 134/137/104 132/134/94 80/135/95 84/138/105
f 83/139/103 133/140/102 134/137/104 84/138/105
s 2
usemtl lambert4SG
f 24/158/106 110/159/107 117/150/5 16/153/8 85/160/108
f 17/162/109 24/158/106 85/160/108 86/163/110
f 18/164/111 17/162/109 86/163/110 87/165/112
f 19/166/113 18/164/111 87/165/112 88/167/114
f 20/168/115 19/166/113 88/167/114 89/169/116
f 21/170/117 20/168/115 89/169/116 90/171/118
f 25/172/119 21/170/117 90/171/118 91/173/120
f 23/176/121 22/174/122 92/175/123 93/177/124
f 2/178/125 23/176/121 93/177/124
f 22/174/122 25/172/119 91/173/120 92/175/123
s 1
f 4/13/126 5/15/127 95/16/128 94/14/129
f 5/15/127 6/17/130 96/18/131 95/16/128
f 6/17/130 7/19/132 97/20/133 96/18/131
f 7/19/132 8/21/134 98/22/135 97/20/133
f 8/21/134 12/23/136 99/24/137 98/22/135
f 9/25/138 10/27/139 101/28/140 100/26/141
f 10/27/139 2/29/142 101/28/140
f 11/11/143 4/13/126 94/14/129 102/12/144
f 12/23/136 9/25/138 100/26/141 99/24/137
f 3/6/145 116/10/146 119/5/147
s 9
f 78/191/148 14/192/149 120/190/150 121/189/151
f 79/186/152 78/191/148 121/189/151 122/185/153
f 80/183/154 79/186/152 122/185/153 123/182/155
f 84/180/156 80/183/154 123/182/155 124/179/157
s 10
f 26/58/158 81/59/159 127/60/160 118/61/161
f 81/59/159 82/62/162 126/63/163 127/60/160
f 82/62/162 83/66/164 125/67/165 126/63/163
f 83/66/164 84/69/166 124/70/167 125/67/165
s 3
usemtl lambert3SG
f 111/112/76 110/111/75 24/103/67 72/102/66
f 112/114/78 111/112/76 72/102/66 71/108/72
f 113/116/80 112/114/78 71/108/72 70/107/71
f 114/117/81 113/116/80 70/107/71 69/106/70
f 115/119/83 114/117/81 69/106/70 68/105/69
f 11/104/68 116/121/85 115/119/83 68/105/69
s 2
usemtl lambert4SG
f 117/150/5 110/159/107 15/154/168
f 15/154/168 135/155/169 138/151/6 117/150/5
s 1
f 119/5/147 116/10/146 11/11/143 102/12/144 1/9/170
f 140/2/2 141/7/171 13/8/172 120/3/3
s 9
f 121/189/151 120/190/150 13/188/173 103/187/174
f 122/185/153 121/189/151 103/187/174 104/184/175
f 123/182/155 122/185/153 104/184/175 105/181/176
f 124/179/157 123/182/155 105/181/176 106/123/177
s 10
f 125/67/165 124/70/167 106/72/178 109/71/179
f 126/63/163 125/67/165 109/71/179 108/68/180
f 127/60/160 126/63/163 108/68/180 107/64/181
f 118/61/161 127/60/160 107/64/181 27/65/182
s 5
usemtl lambert2SG
f 15/149/183 73/146/184 129/144/97 135/147/96
f 73/146/184 74/143/185 130/141/100 129/144/97
f 74/143/185 75/136/186 133/140/102 130/141/100
f 134/137/104 133/140/102 75/136/186
f 75/136/186 132/134/94 134/137/104
f 75/136/186 76/133/187 137/130/91 132/134/94
f 76/133/187 77/128/188 128/124/87 137/130/91
f 77/128/188 3/129/189 136/125/88 128/124/87
s 2
usemtl lambert4SG
f 138/151/6 135/155/169 26/161/190 118/156/191
f 139/152/7 138/151/6 118/156/191 27/157/192
s 1
f 119/5/147 140/2/2 136/1/1 3/6/145
f 1/9/170 141/7/171 140/2/2 119/5/147
