# This file uses centimeters as units for non-parametric coordinates.

mtllib Quater_SML_Drop_Half.mtl
g default
v -66.999901 0.000000 36.000000
v -66.999901 0.005000 27.390392
v -66.999901 0.090591 28.797245
v -66.999901 0.486721 30.199608
v -66.999901 1.195666 31.556730
v -66.999901 2.126468 32.812683
v -66.999901 3.176983 33.908150
v -66.999901 4.267813 34.791008
v -66.999901 4.729436 35.252815
v -66.999901 4.995035 35.745541
v -66.999901 5.000000 36.000000
v -66.999901 -0.000001 28.798622
v -66.999901 -0.000001 30.199608
v -66.999901 -0.000001 31.556730
v -66.999901 -0.000000 32.812683
v -66.999901 -0.000000 33.908150
v -66.999901 0.000002 34.791008
v -66.999901 0.000001 35.252815
v -66.999901 0.000001 35.745541
v -66.999901 -0.005000 25.999804
v -61.999950 0.000000 36.000000
v -61.999950 0.005000 27.390491
v -61.999950 0.090591 28.797245
v -61.999950 0.486721 30.199608
v -61.999950 1.195666 31.556730
v -61.999950 2.126468 32.812683
v -61.999950 3.176983 33.908150
v -61.999950 4.267813 34.791008
v -61.999950 4.729436 35.252815
v -61.999950 4.995035 35.745541
v -61.999950 5.000000 36.000000
v -61.999962 -0.005000 25.999935
v -61.999901 -0.000001 28.798622
v -61.999901 -0.000001 30.199608
v -61.999901 -0.000001 31.556730
v -61.999901 -0.000000 32.812683
v -61.999901 -0.000000 33.908150
v -61.999901 0.000002 34.791008
v -61.999901 0.000001 35.252815
v -61.999901 0.000001 35.745541
vt 0.998008 0.541523
vt 0.998008 0.852708
vt 0.686826 0.852708
vt 0.686826 0.541523
vt 0.001992 0.088254
vt 0.001993 0.001710
vt 0.313174 0.001702
vt 0.313174 0.088248
vt 0.001992 0.175806
vt 0.313174 0.175806
vt 0.001992 0.263085
vt 0.313174 0.263085
vt 0.001992 0.347548
vt 0.313174 0.347548
vt 0.001992 0.425715
vt 0.313174 0.425715
vt 0.001992 0.493893
vt 0.313174 0.493893
vt 0.001992 0.548840
vt 0.313174 0.548840
vt 0.001992 0.577581
vt 0.313174 0.577581
vt 0.001992 0.608247
vt 0.313174 0.608247
vt 0.001992 0.624084
vt 0.313174 0.624084
vt 0.625413 0.089260
vt 0.630740 0.001702
vt 0.631051 0.089346
vt 0.600759 0.176539
vt 0.631051 0.176539
vt 0.556636 0.261002
vt 0.631051 0.261002
vt 0.498706 0.339169
vt 0.631051 0.339169
vt 0.433325 0.407347
vt 0.631051 0.407347
vt 0.365435 0.462294
vt 0.631051 0.462294
vt 0.336705 0.491035
vt 0.631051 0.491035
vt 0.320175 0.521701
vt 0.631051 0.521701
vt 0.319866 0.537538
vt 0.631051 0.537538
vt 0.643184 0.089254
vt 0.637545 0.089340
vt 0.637857 0.001702
vt 0.667838 0.176533
vt 0.637545 0.176533
vt 0.711960 0.260996
vt 0.637545 0.260996
vt 0.769890 0.339163
vt 0.637545 0.339163
vt 0.835271 0.407341
vt 0.637545 0.407341
vt 0.903161 0.462288
vt 0.637546 0.462288
vt 0.931891 0.491029
vt 0.637545 0.491029
vt 0.948421 0.521695
vt 0.637545 0.521695
vt 0.948730 0.537532
vt 0.637545 0.537532
vn 0.000000 0.999417 -0.034152
vn 0.000000 0.999974 -0.007191
vn 0.000000 0.999974 -0.007191
vn 0.000000 0.999417 -0.034152
vn -1.000000 -0.000007 0.000000
vn -1.000000 -0.000058 0.000000
vn -1.000000 -0.000008 0.000000
vn -1.000000 0.000000 0.000000
vn -1.000000 0.000000 0.000000
vn -1.000000 0.000000 0.000000
vn -1.000000 0.000000 0.000000
vn -1.000000 0.000000 0.000000
vn -1.000000 0.000000 0.000000
vn -1.000000 0.000000 0.000000
vn -1.000000 0.000000 0.000000
vn -1.000000 0.000000 0.000000
vn -1.000000 0.000000 0.000000
vn -1.000000 0.000000 0.000000
vn -1.000000 0.000000 0.000000
vn -1.000000 0.000000 0.000000
vn -1.000000 0.000000 0.000000
vn -1.000000 0.000000 0.000000
vn -1.000000 0.000000 0.000000
vn 0.000000 0.985614 -0.169015
vn 0.000000 0.985614 -0.169015
vn 0.000000 0.928328 -0.371762
vn 0.000000 0.928328 -0.371762
vn 0.000000 0.847039 -0.531531
vn 0.000000 0.847039 -0.531531
vn 0.000000 0.764723 -0.644359
vn 0.000000 0.764723 -0.644359
vn 0.000000 0.678595 -0.734513
vn 0.000000 0.678595 -0.734513
vn 0.000000 0.654710 -0.755881
vn 0.000000 0.654710 -0.755881
vn 0.000000 0.795448 -0.606022
vn 0.000000 0.795448 -0.606022
vn 0.000000 0.940253 -0.340476
vn 0.000000 0.940253 -0.340476
vn 0.000000 0.999810 -0.019509
vn 0.000000 0.999810 -0.019509
vn 0.000000 0.000000 1.000000
vn 0.000000 0.000000 1.000000
vn 0.000000 0.000000 1.000000
vn 0.000000 0.000000 1.000000
vn 1.000000 0.000219 -0.000025
vn 1.000000 0.000227 -0.000025
vn 1.000000 0.000598 -0.000033
vn 1.000000 0.000080 -0.000017
vn 1.000000 0.000089 -0.000018
vn 1.000000 0.000036 -0.000012
vn 1.000000 0.000040 -0.000013
vn 1.000000 0.000021 -0.000009
vn 1.000000 0.000023 -0.000010
vn 1.000000 0.000015 -0.000008
vn 1.000000 0.000016 -0.000009
vn 1.000000 0.000012 -0.000006
vn 1.000000 0.000013 -0.000007
vn 1.000000 0.000011 -0.000003
vn 1.000000 0.000011 -0.000004
vn 1.000000 0.000008 0.000041
vn 1.000000 0.000009 0.000032
vn 1.000000 0.000005 0.000097
vn 1.000000 0.000005 0.000097
s 1
g Quater_SML_Drop_Half
usemtl lambert3SG
f 22/5/1 32/6/2 20/7/3 2/8/4
s 2
usemtl lambert4SG
f 3/27/5 2/28/6 12/29/7
f 4/30/8 3/27/5 12/29/7 13/31/9
f 5/32/10 4/30/8 13/31/9 14/33/11
f 6/34/12 5/32/10 14/33/11 15/35/13
f 7/36/14 6/34/12 15/35/13 16/37/15
f 8/38/16 7/36/14 16/37/15 17/39/17
f 9/40/18 8/38/16 17/39/17 18/41/19
f 10/42/20 9/40/18 18/41/19 19/43/21
f 11/44/22 10/42/20 19/43/21 1/45/23
s 1
usemtl lambert3SG
f 23/9/24 22/5/1 2/8/4 3/10/25
f 24/11/26 23/9/24 3/10/25 4/12/27
f 25/13/28 24/11/26 4/12/27 5/14/29
f 26/15/30 25/13/28 5/14/29 6/16/31
f 27/17/32 26/15/30 6/16/31 7/18/33
f 28/19/34 27/17/32 7/18/33 8/20/35
f 29/21/36 28/19/34 8/20/35 9/22/37
f 30/23/38 29/21/36 9/22/37 10/24/39
f 31/25/40 30/23/38 10/24/39 11/26/41
s off
usemtl lambert4SG
f 21/1/42 31/2/43 11/3/44 1/4/45
s 3
f 23/46/46 33/47/47 22/48/48
f 24/49/49 34/50/50 33/47/47 23/46/46
f 25/51/51 35/52/52 34/50/50 24/49/49
f 26/53/53 36/54/54 35/52/52 25/51/51
f 27/55/55 37/56/56 36/54/54 26/53/53
f 28/57/57 38/58/58 37/56/56 27/55/55
f 29/59/59 39/60/60 38/58/58 28/57/57
f 30/61/61 40/62/62 39/60/60 29/59/59
f 31/63/63 21/64/64 40/62/62 30/61/61
