# This file uses centimeters as units for non-parametric coordinates.

mtllib Quater_SML_Corner.mtl
g default
v -32.000000 5.000000 25.000000
v -31.426998 3.187092 25.000000
v -30.791046 2.213345 25.000000
v -29.908184 1.432974 25.000000
v -28.812721 0.846063 25.000000
v -27.556767 0.438784 25.000000
v -26.199646 0.186208 25.000000
v -24.797281 0.055123 25.000000
v -23.000000 0.002279 25.000006
v -33.000000 5.000000 24.000000
v -33.000000 3.187092 23.426964
v -33.000000 2.213345 22.791014
v -33.000000 1.432974 21.908154
v -33.000000 0.846063 20.812689
v -33.000000 0.438784 19.556736
v -33.000000 0.186208 18.199614
v -33.000000 0.055123 16.797249
v -33.000004 0.002279 15.000006
v -23.000000 -0.003358 21.722124
v -24.876793 0.047564 21.825287
v -23.000000 -0.009398 19.406906
v -25.358255 0.042541 19.895700
v -23.000000 -0.011448 15.000000
v -26.373507 0.041015 18.372999
v -27.407017 -0.008831 15.000000
v -27.896000 0.043022 17.357708
v -29.722160 -0.002786 15.000000
v -29.825371 0.048086 16.876415
v -26.269146 0.186228 22.234447
v -26.658451 0.186235 20.683033
v -27.468670 0.186229 19.468636
v -28.683071 0.186218 18.658421
v -30.234486 0.186210 18.269115
v -27.610376 0.438284 22.632265
v -27.908323 0.438328 21.444326
v -28.522911 0.438785 20.523159
v -29.444145 0.439242 19.908493
v -30.632248 0.439285 19.610443
v -28.851673 0.846153 23.003300
v -29.065248 0.846144 22.151457
v -29.500042 0.846063 21.499828
v -30.151625 0.845982 21.065069
v -31.003372 0.845974 20.851563
v -29.934122 1.432963 23.331213
v -30.074055 1.432964 22.772575
v -30.353624 1.432974 22.353613
v -30.772594 1.432983 22.074036
v -31.331251 1.432984 21.934095
v -30.806435 2.213373 23.599842
v -30.887144 2.213369 23.277288
v -31.043392 2.213345 23.043198
v -31.277454 2.213321 22.887001
v -31.599918 2.213317 22.806355
v -31.434616 3.187100 23.798573
v -31.472713 3.187099 23.645988
v -31.542156 3.187092 23.541992
v -31.646132 3.187085 23.472593
v -31.798641 3.187084 23.434547
v -32.035873 5.000000 24.108963
v -32.047482 5.000000 24.062481
v -32.068993 5.000000 24.030260
v -32.101215 5.000000 24.008751
v -32.147701 5.000000 23.997143
v -33.000000 5.000000 25.000000
v -32.999996 0.000001 24.000000
v -32.999996 0.000000 24.999996
v -32.000000 0.000001 24.999996
v -31.426998 0.000000 24.999996
v -32.999992 0.000000 23.426964
v -30.791046 -0.000000 24.999996
v -32.999992 -0.000000 22.791014
v -29.908184 -0.000000 24.999996
v -32.999992 -0.000000 21.908154
v -28.812721 -0.000000 24.999996
v -32.999992 -0.000000 20.812689
v -27.556767 -0.000000 24.999996
v -32.999992 -0.000000 19.556736
v -26.199646 -0.000000 24.999996
v -32.999992 -0.000000 18.199614
v -24.797281 -0.000000 24.999996
v -32.999992 -0.000000 16.797249
v -33.000000 -0.000003 23.740000
v -33.000000 4.093546 23.740000
v -31.957754 4.093542 23.694681
v -31.856205 4.093543 23.720020
v -31.786688 4.093546 23.766420
v -31.740261 4.093549 23.835949
v -31.714897 4.093550 23.937531
v -31.739998 4.093546 25.000000
v -31.739998 -0.000003 25.000000
v -31.934998 4.773386 25.000000
v -31.955627 4.773387 24.066105
v -31.970676 4.773387 24.005848
v -31.998415 4.773386 23.964300
v -32.039963 4.773386 23.936567
v -32.100212 4.773386 23.921528
v -33.000000 4.773386 23.934999
v -32.250000 5.000000 25.000000
v -32.250000 0.000002 24.999996
v -33.000000 5.000000 24.250000
v -32.999992 0.000002 24.250000
v -32.031746 5.000000 24.211428
v -32.252579 5.000000 24.220318
v -32.253323 5.000000 23.997498
v -32.000000 4.773386 25.000000
v -33.000000 4.773386 24.000000
v -31.934998 0.000002 25.000000
v -33.000000 0.000002 23.934999
vt 0.000500 0.144006
vt 0.000499 0.000825
vt 0.261632 0.000825
vt 0.253414 0.150340
vt 0.446075 0.000825
vt 0.407135 0.188696
vt 0.797152 0.000825
vt 0.528441 0.269576
vt 0.797152 0.351911
vt 0.609324 0.390866
vt 0.797152 0.536347
vt 0.647667 0.544570
vt 0.797151 0.797477
vt 0.653974 0.797477
vt 0.536717 0.577162
vt 0.542254 0.797477
vt 0.000500 0.255726
vt 0.220818 0.261262
vt 0.344412 0.292276
vt 0.441157 0.356823
vt 0.505703 0.453568
vt 0.429860 0.608850
vt 0.434138 0.797477
vt 0.000500 0.363841
vt 0.189126 0.368111
vt 0.283763 0.391847
vt 0.357148 0.440809
vt 0.406116 0.514199
vt 0.330986 0.638415
vt 0.999501 0.766245
vt 0.801865 0.766245
vt 0.999501 0.756363
vt 0.801865 0.795890
vt 0.999501 0.794281
vt 0.990543 0.756363
vt 0.801865 0.756363
vt 0.990543 0.753794
vt 0.801865 0.753794
vt 0.963671 0.746086
vt 0.801865 0.746086
vt 0.801865 0.733714
vt 0.927842 0.733714
vt 0.889352 0.708577
vt 0.801865 0.708577
vt 0.858506 0.673679
vt 0.801865 0.673679
vt 0.835307 0.630379
vt 0.801865 0.630379
vt 0.819209 0.580735
vt 0.801865 0.580735
vt 0.809225 0.527092
vt 0.801865 0.527092
vt 0.804044 0.471660
vt 0.801865 0.471660
vt 0.801955 0.400619
vt 0.334083 0.797477
vt 0.000500 0.463897
vt 0.159567 0.467000
vt 0.227430 0.484014
vt 0.279342 0.518652
vt 0.313977 0.570561
vt 0.244746 0.664536
vt 0.246812 0.797477
vt 0.000500 0.551167
vt 0.133444 0.553233
vt 0.177948 0.564381
vt 0.211325 0.586653
vt 0.233597 0.620030
vt 0.175257 0.685939
vt 0.176479 0.797477
vt 0.000500 0.621500
vt 0.112044 0.622726
vt 0.137740 0.629156
vt 0.156389 0.641604
vt 0.168832 0.660250
vt 0.125212 0.701771
vt 0.125816 0.797477
vt 0.000500 0.672164
vt 0.096212 0.672770
vt 0.108367 0.675805
vt 0.116652 0.681338
vt 0.122181 0.689621
vt 0.100878 0.797477
vt 0.104488 0.714446
vt 0.085142 0.695099
vt 0.000500 0.697099
vt 0.093234 0.697120
vt 0.098773 0.700818
vt 0.102470 0.706356
vt 0.060249 0.796667
vt 0.062613 0.737934
vt 0.080364 0.737993
vt 0.080165 0.797477
vt 0.086417 0.725795
vt 0.085343 0.797477
vt 0.080393 0.729578
vt 0.079468 0.725875
vt 0.085218 0.720996
vt 0.077754 0.723308
vt 0.083009 0.717685
vt 0.075188 0.721594
vt 0.079699 0.715476
vt 0.071485 0.720670
vt 0.074899 0.714277
vt 0.000500 0.712633
vt 0.063322 0.720341
vt 0.000500 0.717812
vt 0.003872 0.794235
vt 0.001343 0.737728
vt 0.999410 0.000399
vt 0.999500 0.071438
vt 0.997321 0.071438
vt 0.999500 0.126870
vt 0.992140 0.126870
vt 0.999500 0.180513
vt 0.982157 0.180513
vt 0.999500 0.230157
vt 0.966058 0.230157
vt 0.999500 0.273458
vt 0.942859 0.273458
vt 0.999500 0.308355
vt 0.912013 0.308355
vt 0.873524 0.333492
vt 0.999500 0.333492
vt 0.999500 0.345865
vt 0.837694 0.345865
vt 0.999500 0.353573
vt 0.999500 0.356142
vt 0.810822 0.353573
vt 0.810822 0.356142
vt 0.801865 0.356142
vt 0.999500 0.395669
vt 0.801865 0.393996
vt 0.801865 0.366024
vt 0.999500 0.366024
vn 0.055553 0.998452 -0.002908
vn 0.028164 0.999601 -0.002391
vn 0.026075 0.999653 -0.003696
vn 0.050496 0.998700 -0.006970
vn 0.018015 0.999830 -0.003861
vn 0.032820 0.999392 -0.011757
vn 0.009730 0.999907 -0.009591
vn 0.019293 0.999630 -0.019157
vn 0.003977 0.999832 -0.017921
vn 0.011842 0.999396 -0.032685
vn 0.003605 0.999654 -0.026059
vn 0.006881 0.998706 -0.050395
vn 0.002220 0.999601 -0.028158
vn 0.002768 0.998456 -0.055478
vn 0.014680 0.991567 -0.128758
vn 0.003904 0.990812 -0.135188
vn 0.135120 0.990821 -0.004035
vn 0.128711 0.991573 -0.014743
vn 0.113010 0.992332 -0.050051
vn 0.085260 0.992717 -0.085107
vn 0.050150 0.992335 -0.112939
vn 0.022657 0.973370 -0.228117
vn 0.005272 0.970893 -0.239458
vn 0.239427 0.970899 -0.005453
vn 0.228048 0.973384 -0.022760
vn 0.197224 0.976623 -0.085501
vn 0.147469 0.978049 -0.147217
vn 0.085694 0.976608 -0.197215
vn 0.032429 0.929993 -0.366143
vn 0.007334 0.924040 -0.382226
vn 0.382390 0.923971 -0.007426
vn 0.366391 0.929892 -0.032531
vn 0.317362 0.938403 -0.136678
vn 0.237289 0.942058 -0.237110
vn 0.136653 0.938527 -0.317006
vn 0.040190 0.839682 -0.541589
vn 0.008687 0.828013 -0.560642
vn 0.560628 0.828022 -0.008670
vn 0.541564 0.839699 -0.040179
vn 0.470600 0.859147 -0.201001
vn 0.352813 0.866608 -0.352866
vn 0.200976 0.859123 -0.470655
vn 0.040911 0.678799 -0.733184
vn 0.008309 0.661797 -0.749637
vn 0.749634 0.661800 -0.008315
vn 0.733184 0.678797 -0.040934
vn 0.642648 0.716459 -0.271460
vn 0.484140 0.728805 -0.484202
vn 0.271386 0.716462 -0.642675
vn 0.027982 0.464317 -0.885227
vn -0.002302 0.447906 -0.894078
vn 0.892423 0.451198 -0.001284
vn 0.883962 0.466577 -0.030278
vn 0.792955 0.511183 -0.331533
vn 0.602002 0.525244 -0.601425
vn 0.332632 0.509024 -0.793883
vn -0.021159 0.297478 -0.954494
vn 0.002718 0.300912 -0.953648
vn 0.950030 0.311745 -0.016050
vn 0.951273 0.308306 0.005260
vn 0.865519 0.347165 -0.361045
vn 0.659570 0.358599 -0.660587
vn 0.361272 0.337370 -0.869289
vn 0.000000 1.000000 0.000000
vn 0.000000 1.000000 0.000000
vn 0.000000 1.000000 0.000000
vn 0.000000 1.000000 0.000000
vn -1.000000 -0.000002 -0.000003
vn -1.000000 -0.000002 -0.000003
vn -1.000000 -0.000002 -0.000002
vn -1.000000 -0.000002 -0.000000
vn 0.000000 -0.000001 1.000000
vn -0.000002 -0.000001 1.000000
vn 0.000000 -0.000001 1.000000
vn 0.000011 -0.000000 1.000000
vn -0.000017 -0.000001 1.000000
vn -1.000000 -0.000002 -0.000003
vn -1.000000 -0.000000 -0.000006
vn -1.000000 -0.000000 -0.000001
vn -1.000000 -0.000001 -0.000008
vn 0.000008 -0.000000 1.000000
vn 0.000005 -0.000000 1.000000
vn -0.000002 -0.000001 1.000000
vn 0.000000 -0.000001 1.000000
vn -0.000003 -0.000002 1.000000
vn -0.000002 -0.000002 1.000000
vn -1.000000 -0.000004 0.000002
vn -1.000000 -0.000004 0.000002
vn 0.000000 -0.000002 1.000000
vn 0.000000 -0.000003 1.000000
vn -1.000000 -0.000006 0.000002
vn -1.000000 -0.000007 0.000002
vn -0.000001 -0.000004 1.000000
vn -0.000001 -0.000004 1.000000
vn -1.000000 -0.000009 0.000002
vn -1.000000 -0.000009 0.000002
vn -0.000002 -0.000008 1.000000
vn -0.000002 -0.000008 1.000000
vn -1.000000 -0.000014 0.000002
vn -1.000000 -0.000015 0.000002
vn -0.000002 -0.000017 1.000000
vn -0.000002 -0.000018 1.000000
vn -1.000000 -0.000037 0.000002
vn -1.000000 -0.000039 0.000002
vn -0.000003 -0.000040 1.000000
vn -0.000004 -0.000040 1.000000
vn -1.000000 -0.000053 0.000004
vn -1.000000 -0.000052 0.000004
vn -0.000006 -0.000069 1.000000
vn -1.000000 0.000000 0.000006
vn -1.000000 -0.000002 0.000000
vn -1.000000 0.000000 0.000019
vn -1.000000 -0.000000 0.000028
vn -0.008401 0.300462 -0.953757
vn -0.026225 0.292313 -0.955963
vn 0.011469 0.317929 -0.948045
vn -0.003198 0.275722 -0.961232
vn -0.003223 0.275714 -0.961234
vn 0.350563 0.368943 -0.860806
vn 0.353437 0.369300 -0.859476
vn 0.649469 0.391926 -0.651601
vn 0.649827 0.391932 -0.651240
vn 0.856465 0.378098 -0.351439
vn 0.855479 0.378309 -0.353607
vn 0.939603 0.339599 -0.042659
vn 0.949502 0.313287 -0.017245
vn 0.952978 0.303033 -0.002204
vn 0.960542 0.275432 -0.038682
vn 0.960520 0.275512 -0.038668
vn 0.000000 -0.000001 1.000000
vn 0.000000 -0.000001 1.000000
vn -1.000000 -0.000001 0.000020
vn 0.000000 1.000000 0.000000
vn 0.000000 1.000000 0.000000
vn 0.000000 1.000000 0.000000
vn 0.000000 1.000000 0.000000
vn 0.000000 1.000000 0.000000
vn 0.000000 1.000000 0.000000
vn 0.000000 1.000000 0.000000
vn 0.000000 1.000000 0.000000
vn 0.000000 1.000000 0.000000
vn -0.000013 -0.000000 1.000000
vn 0.000000 -0.000000 1.000000
vn -1.000000 0.000000 0.000008
s 1
g Quater_SML_Corner
usemtl lambert3SG
f 8/1/1 9/2/2 19/3/3 20/4/4
f 20/4/4 19/3/3 21/5/5 22/6/6
f 22/6/6 21/5/5 23/7/7 24/8/8
f 24/8/8 23/7/7 25/9/9 26/10/10
f 26/10/10 25/9/9 27/11/11 28/12/12
f 28/12/12 27/11/11 18/13/13 17/14/14
f 33/15/15 28/12/12 17/14/14 16/16/16
f 7/17/17 8/1/1 20/4/4 29/18/18
f 29/18/18 20/4/4 22/6/6 30/19/19
f 30/19/19 22/6/6 24/8/8 31/20/20
f 31/20/20 24/8/8 26/10/10 32/21/21
f 32/21/21 26/10/10 28/12/12 33/15/15
f 38/22/22 33/15/15 16/16/16 15/23/23
f 6/24/24 7/17/17 29/18/18 34/25/25
f 34/25/25 29/18/18 30/19/19 35/26/26
f 35/26/26 30/19/19 31/20/20 36/27/27
f 36/27/27 31/20/20 32/21/21 37/28/28
f 37/28/28 32/21/21 33/15/15 38/22/22
f 43/29/29 38/22/22 15/23/23 14/56/30
f 5/57/31 6/24/24 34/25/25 39/58/32
f 39/58/32 34/25/25 35/26/26 40/59/33
f 40/59/33 35/26/26 36/27/27 41/60/34
f 41/60/34 36/27/27 37/28/28 42/61/35
f 42/61/35 37/28/28 38/22/22 43/29/29
f 48/62/36 43/29/29 14/56/30 13/63/37
f 4/64/38 5/57/31 39/58/32 44/65/39
f 44/65/39 39/58/32 40/59/33 45/66/40
f 45/66/40 40/59/33 41/60/34 46/67/41
f 46/67/41 41/60/34 42/61/35 47/68/42
f 47/68/42 42/61/35 43/29/29 48/62/36
f 53/69/43 48/62/36 13/63/37 12/70/44
f 3/71/45 4/64/38 44/65/39 49/72/46
f 49/72/46 44/65/39 45/66/40 50/73/47
f 50/73/47 45/66/40 46/67/41 51/74/48
f 51/74/48 46/67/41 47/68/42 52/75/49
f 52/75/49 47/68/42 48/62/36 53/69/43
f 58/76/50 53/69/43 12/70/44 11/77/51
f 2/78/52 3/71/45 49/72/46 54/79/53
f 54/79/53 49/72/46 50/73/47 55/80/54
f 55/80/54 50/73/47 51/74/48 56/81/55
f 56/81/55 51/74/48 52/75/49 57/82/56
f 57/82/56 52/75/49 53/69/43 58/76/50
f 83/83/57 84/84/58 58/76/50 11/77/51
f 54/79/53 88/85/59 89/86/60 2/78/52
f 55/80/54 87/87/61 88/85/59 54/79/53
f 56/81/55 86/88/62 87/87/61 55/80/54
f 57/82/56 85/89/63 86/88/62 56/81/55
f 58/76/50 84/84/58 85/89/63 57/82/56
s 2
usemtl lambert2SG
f 100/90/64 103/91/65 104/92/66 10/93/67
s 3
usemtl lambert4SG
f 66/132/68 64/133/69 100/134/70 101/135/71
s 4
f 98/30/72 99/31/73 1/32/74
f 1/32/74 99/31/73 105/35/75
f 99/31/73 67/36/76 105/35/75
s 3
f 69/124/77 82/125/78 83/126/79 11/123/80
s 4
f 89/39/81 90/40/82 68/41/83 2/42/84
f 3/43/85 2/42/84 68/41/83 70/44/86
s 3
f 11/123/80 12/122/87 71/121/88 69/124/77
s 4
f 4/45/89 3/43/85 70/44/86 72/46/90
s 3
f 12/122/87 13/120/91 73/119/92 71/121/88
s 4
f 5/47/93 4/45/89 72/46/90 74/48/94
s 3
f 13/120/91 14/118/95 75/117/96 73/119/92
s 4
f 6/49/97 5/47/93 74/48/94 76/50/98
s 3
f 14/118/95 15/116/99 77/115/100 75/117/96
s 4
f 7/51/101 6/49/97 76/50/98 78/52/102
s 3
f 15/116/99 16/114/103 79/113/104 77/115/100
s 4
f 8/53/105 7/51/101 78/52/102 80/54/106
s 3
f 16/114/103 17/112/107 81/111/108 79/113/104
s 4
f 9/55/109 8/53/105 80/54/106
s 3
f 17/112/107 18/110/110 81/111/108
f 10/131/111 97/129/112 106/130/113
s 1
usemtl lambert2SG
f 96/94/114 97/95/115 63/96/116
f 63/96/116 97/95/115 104/92/117
f 10/93/118 104/92/117 97/95/115
f 63/96/116 62/97/119 95/98/120 96/94/114
f 62/97/119 61/99/121 94/100/122 95/98/120
f 61/99/121 60/101/123 93/102/124 94/100/122
f 60/101/123 59/103/125 92/104/126 93/102/124
f 92/104/126 59/103/125 91/105/127
f 59/103/125 102/106/128 91/105/127
f 102/106/128 1/107/129 91/105/127
usemtl lambert3SG
f 88/85/59 92/104/126 91/105/127 89/86/60
f 87/87/61 93/102/124 92/104/126 88/85/59
f 86/88/62 94/100/122 93/102/124 87/87/61
f 85/89/63 95/98/120 94/100/122 86/88/62
f 84/84/58 96/94/114 95/98/120 85/89/63
f 83/83/57 97/95/115 96/94/114 84/84/58
s 4
usemtl lambert4SG
f 66/33/130 99/31/73 98/30/72 64/34/131
s 3
f 100/134/70 10/131/111 101/135/71
f 10/131/111 106/130/113 101/135/71
f 101/135/71 106/130/113 65/128/132
s 2
usemtl lambert3SG
f 64/108/133 98/109/134 103/91/65 100/90/64
usemtl lambert2SG
f 103/91/65 98/109/134 1/107/135 102/106/136
f 59/103/137 103/91/65 102/106/136
f 62/97/138 103/91/65 61/99/139
f 63/96/140 103/91/65 62/97/138
f 104/92/66 103/91/65 63/96/140
f 61/99/139 103/91/65 60/101/141
f 60/101/141 103/91/65 59/103/137
s 4
usemtl lambert4SG
f 105/35/75 91/37/142 1/32/74
f 89/39/81 91/37/142 107/38/143 90/40/82
s 3
f 97/129/112 83/126/79 82/125/78 108/127/144
s 4
f 91/37/142 105/35/75 67/36/76 107/38/143
s 3
f 106/130/113 97/129/112 108/127/144 65/128/132
