# This file uses centimeters as units for non-parametric coordinates.

mtllib Quater_SML_Kicker_Full.mtl
g default
v -18.000000 -0.000000 37.000000
v -28.000000 -0.000000 37.000000
v -18.000000 2.213345 47.000267
v -28.000000 2.213345 47.000267
v -18.000000 1.432974 46.116344
v -28.000000 1.432974 46.116344
v -18.000000 0.846063 45.020878
v -28.000000 0.846063 45.020878
v -18.000000 0.438784 43.764927
v -28.000000 0.438784 43.764927
v -18.000000 0.186208 42.407806
v -28.000000 0.186208 42.407806
v -18.000000 0.055123 41.005440
v -28.000000 0.055123 41.005440
v -18.000000 0.006837 39.599770
v -28.000000 0.006837 39.599770
v -28.000000 -0.000000 39.598164
v -28.000000 -0.000000 41.012848
v -28.000000 -0.000000 42.408131
v -28.000000 -0.000000 43.767216
v -28.000000 -0.000000 45.018818
v -28.000000 -0.000000 46.116230
v -28.000000 -0.000000 46.999191
v -18.000000 0.000001 39.598785
v -18.000000 -0.000001 42.408131
v -18.000000 0.000001 41.008129
v -18.000000 -0.000001 43.768017
v -18.000000 0.000001 45.018127
v -18.000000 0.000001 46.116230
v -18.000000 -0.000000 46.999191
v -23.000000 -0.000000 46.999191
v -23.000000 -0.000000 37.000000
v -23.000000 0.006837 39.599770
v -23.000000 0.055123 41.005440
v -23.000000 0.186208 42.407806
v -23.000000 0.438784 43.764927
v -23.000000 0.846063 45.020878
v -23.000000 1.432974 46.116344
v -23.000000 2.213345 47.000267
v -18.000000 -0.000001 43.208199
v -28.000000 -0.000000 43.208199
v -18.000000 0.312496 43.208195
v -28.000000 0.312496 43.208195
v -23.000000 0.312496 43.208195
vt 0.709589 0.998008
vt 0.709589 0.749827
vt 0.819452 0.749827
vt 0.819452 0.998008
vt 0.819452 0.501645
vt 0.709589 0.501645
vt 0.249817 0.400119
vt 0.249817 0.454493
vt 0.001636 0.454493
vt 0.001636 0.400119
vt 0.497998 0.454493
vt 0.497998 0.400119
vt 0.249817 0.498368
vt 0.001636 0.498368
vt 0.249817 0.337778
vt 0.001636 0.337778
vt 0.497998 0.498368
vt 0.497998 0.337778
vt 0.001636 0.310144
vt 0.249817 0.310144
vt 0.497998 0.310144
vt 0.249817 0.270415
vt 0.001636 0.270415
vt 0.497998 0.270415
vt 0.249817 0.200807
vt 0.001636 0.200807
vt 0.497998 0.200807
vt 0.249817 0.131035
vt 0.001636 0.131035
vt 0.497998 0.131035
vt 0.249817 0.001992
vt 0.001636 0.001992
vt 0.497998 0.001992
vt 0.613800 0.131035
vt 0.614139 0.001992
vt 0.614139 0.130955
vt 0.611403 0.200807
vt 0.614139 0.201175
vt 0.604897 0.270415
vt 0.614139 0.270431
vt 0.614139 0.310144
vt 0.598628 0.310144
vt 0.592360 0.337778
vt 0.614139 0.337891
vt 0.572144 0.400118
vt 0.614139 0.400016
vt 0.543012 0.454493
vt 0.614139 0.454488
vt 0.504277 0.498368
vt 0.614139 0.498315
vt 0.619496 0.001992
vt 0.619835 0.131035
vt 0.619496 0.130986
vt 0.622232 0.200807
vt 0.619496 0.200941
vt 0.628739 0.270415
vt 0.619496 0.270431
vt 0.635007 0.310144
vt 0.619496 0.310144
vt 0.641276 0.337778
vt 0.619496 0.337931
vt 0.661491 0.400119
vt 0.619496 0.399982
vt 0.690624 0.454493
vt 0.619496 0.454488
vt 0.729358 0.498368
vt 0.619496 0.498315
vn 0.000000 0.822788 -0.568349
vn 0.000000 0.749653 -0.661831
vn 0.000000 0.749653 -0.661831
vn 0.000000 0.822788 -0.568349
vn 0.000000 0.921057 -0.389427
vn 0.000000 0.921057 -0.389427
vn 0.000000 0.959305 -0.282373
vn 0.000000 0.959305 -0.282373
vn 0.000000 0.993243 -0.116052
vn 0.000000 0.983119 -0.182969
vn 0.000000 0.983119 -0.182969
vn 0.000000 0.993243 -0.116052
vn 0.000000 0.997966 -0.063748
vn 0.000000 0.997966 -0.063748
vn 0.000000 0.999905 -0.013761
vn 0.000000 0.999905 -0.013761
vn 0.000000 0.999997 -0.002630
vn 0.000000 0.999997 -0.002630
vn -1.000000 0.000000 0.000000
vn -1.000000 0.000000 0.000000
vn -1.000000 0.000000 0.000000
vn -1.000000 0.000000 0.000000
vn -1.000000 0.000000 0.000000
vn -1.000000 0.000000 0.000000
vn -1.000000 0.000000 0.000000
vn -1.000000 0.000000 0.000000
vn -1.000000 0.000000 0.000000
vn -1.000000 0.000000 0.000000
vn -1.000000 0.000000 0.000000
vn -1.000000 0.000000 0.000000
vn -1.000000 0.000000 0.000000
vn -1.000000 0.000000 0.000000
vn -1.000000 0.000000 0.000000
vn -1.000000 0.000000 0.000000
vn -1.000000 0.000000 0.000000
vn 1.000000 0.000000 0.000000
vn 1.000000 0.000000 0.000000
vn 1.000000 0.000000 0.000000
vn 1.000000 0.000000 0.000000
vn 1.000000 0.000000 0.000000
vn 1.000000 0.000000 0.000000
vn 1.000000 0.000000 0.000000
vn 1.000000 0.000000 0.000000
vn 1.000000 0.000000 0.000000
vn 1.000000 0.000000 0.000000
vn 1.000000 0.000000 0.000000
vn 1.000000 0.000000 0.000000
vn 1.000000 0.000000 0.000000
vn 1.000000 0.000000 0.000000
vn 1.000000 0.000000 0.000000
vn 1.000000 0.000000 0.000000
vn 1.000000 0.000000 0.000000
vn 0.000000 0.999905 -0.013761
vn 0.000000 0.999997 -0.002630
vn 0.000000 0.997966 -0.063748
vn 0.000000 0.993243 -0.116052
vn 0.000000 0.983119 -0.182969
vn 0.000000 0.921057 -0.389427
vn 0.000000 0.959305 -0.282373
vn 0.000000 0.822788 -0.568349
vn 0.000000 0.749653 -0.661831
vn 0.000000 -0.000486 1.000000
vn 0.000000 -0.000486 1.000000
vn 0.000000 -0.000486 1.000000
vn 0.000000 -0.000486 1.000000
vn 0.000000 -0.000486 1.000000
vn 0.000000 -0.000486 1.000000
s 1
g Quater_SML_Kicker_Full
usemtl lambert3SG
f 38/8/1 39/13/2 3/14/3 5/9/4
f 37/7/5 38/8/1 5/9/4 7/10/6
f 36/15/7 37/7/5 7/10/6 9/16/8
f 35/22/9 44/20/10 42/19/11 11/23/12
f 34/25/13 35/22/9 11/23/12 13/26/14
f 33/28/15 34/25/13 13/26/14 15/29/16
f 32/31/17 33/28/15 15/29/16 1/32/18
s 3
usemtl lambert4SG
f 16/34/19 2/35/20 17/36/21
f 14/37/22 16/34/19 17/36/21 18/38/23
f 12/39/24 14/37/22 18/38/23 19/40/25
f 41/41/26 43/42/27 12/39/24 19/40/25
f 8/45/28 10/43/29 20/44/30 21/46/31
f 6/47/32 8/45/28 21/46/31 22/48/33
f 4/49/34 6/47/32 22/48/33 23/50/35
s 4
f 1/51/36 15/52/37 24/53/38
f 13/54/39 11/56/40 25/57/41 26/55/42
f 15/52/37 13/54/39 26/55/42 24/53/38
f 40/59/43 42/58/44 9/60/45 27/61/46
f 9/60/45 7/62/47 28/63/48 27/61/46
f 7/62/47 5/64/49 29/65/50 28/63/48
f 5/64/49 3/66/51 30/67/52 29/65/50
s 1
usemtl lambert3SG
f 16/30/53 33/28/15 32/31/17 2/33/54
f 14/27/55 34/25/13 33/28/15 16/30/53
f 12/24/56 35/22/9 34/25/13 14/27/55
f 43/21/57 44/20/10 35/22/9 12/24/56
f 8/12/58 37/7/5 36/15/7 10/18/59
f 6/11/60 38/8/1 37/7/5 8/12/58
f 4/17/61 39/13/2 38/8/1 6/11/60
s 4
usemtl lambert4SG
f 11/56/40 42/58/44 40/59/43 25/57/41
s 3
f 10/43/29 43/42/27 41/41/26 20/44/30
s 1
usemtl lambert3SG
f 10/18/59 36/15/7 44/20/10 43/21/57
f 42/19/11 44/20/10 36/15/7 9/16/8
s 6
usemtl lambert4SG
f 23/1/62 31/2/63 39/3/64 4/4/65
f 3/5/66 39/3/64 31/2/63 30/6/67
