# This file uses centimeters as units for non-parametric coordinates.

mtllib Quater_SML_EuroGap_Full.mtl
g default
v -43.999962 -0.000010 15.000000
v -43.999908 0.073379 15.797273
v -43.999908 0.394244 17.199638
v -43.999908 0.968489 18.556759
v -43.999908 1.722439 19.812714
v -43.999908 2.573357 20.908176
v -43.999908 3.456928 21.791039
v -43.999908 3.830843 22.252842
v -43.999912 3.997989 22.745567
v -43.999962 4.001005 23.000029
v -38.999973 -0.000000 15.000029
v -38.999935 0.073379 15.797274
v -38.999935 0.394244 17.199636
v -38.999939 0.968489 18.556759
v -38.999935 1.722439 19.812712
v -38.999939 2.573357 20.908176
v -38.999935 3.456928 21.791037
v -38.999935 3.830843 22.252844
v -38.999935 3.997989 22.745567
v -38.999973 4.001005 23.000029
v -33.999985 -0.000010 15.000057
v -33.999962 0.073379 15.797274
v -33.999962 0.394244 17.199636
v -33.999962 0.968489 18.556759
v -33.999962 1.722439 19.812712
v -33.999962 2.573357 20.908176
v -33.999958 3.456928 21.791039
v -33.999962 3.830843 22.252844
v -33.999962 3.997989 22.745569
v -33.999985 4.001005 23.000029
v -34.000011 -0.000000 25.000029
v -44.000011 0.000000 25.000029
v -34.000011 4.000000 25.000029
v -44.000011 4.000000 25.000029
v -39.000011 0.000000 25.000029
v -39.000011 4.000000 25.000029
v -34.000011 -0.000000 24.000029
v -44.000011 0.000000 24.000029
v -44.000011 4.000000 24.000029
v -39.000011 4.000000 24.000029
v -34.000011 4.000000 24.000029
v -39.000011 5.000000 25.000029
v -39.000011 5.000000 24.000029
v -44.000011 5.000000 24.000029
v -44.000011 5.000000 25.000029
v -34.000011 5.000000 25.000029
v -34.000011 5.000000 24.000029
v -33.999996 0.000010 23.000027
v -43.999985 0.000010 23.000029
v -43.999939 -0.000014 15.798639
v -43.999939 -0.000010 17.199821
v -43.999939 -0.000006 18.554649
v -43.999943 -0.000000 19.812622
v -43.999943 0.000005 20.909100
v -43.999947 0.000011 21.792244
v -43.999947 0.000013 22.253887
v -43.999947 0.000015 22.747799
v -33.999977 -0.000014 15.798664
v -33.999973 -0.000010 17.199842
v -33.999977 -0.000006 18.554663
v -33.999977 -0.000000 19.812634
v -33.999977 0.000005 20.909107
v -33.999981 0.000011 21.792248
v -33.999981 0.000013 22.253891
v -33.999981 0.000015 22.747799
v -39.000011 4.750000 25.000029
v -44.000011 4.750000 25.000029
v -44.000011 4.750000 24.000029
v -39.000011 4.750000 24.000029
v -34.000011 4.750000 24.000029
v -34.000011 4.750000 25.000029
v -34.000011 -0.000000 24.250029
v -34.000011 4.000000 24.250029
v -34.000011 4.750000 24.250029
v -34.000011 5.000000 24.250029
v -39.000011 5.000000 24.250029
v -44.000011 5.000000 24.250029
v -44.000011 4.750000 24.250029
v -44.000011 4.000000 24.250029
v -44.000011 0.000000 24.250029
vt 0.697197 0.998008
vt 0.697197 0.749949
vt 0.895644 0.749949
vt 0.895644 0.998008
vt 0.697197 0.501891
vt 0.895644 0.501891
vt 0.932853 0.749949
vt 0.932853 0.998008
vt 0.932853 0.501891
vt 0.945256 0.749949
vt 0.945256 0.998008
vt 0.945256 0.501891
vt 0.623560 0.501891
vt 0.623560 0.749949
vt 0.586352 0.749949
vt 0.586352 0.501891
vt 0.635963 0.501891
vt 0.635963 0.749949
vt 0.623560 0.998008
vt 0.586352 0.998008
vt 0.635963 0.998008
vt 0.408839 0.250049
vt 0.448392 0.250051
vt 0.448393 0.498109
vt 0.408839 0.498107
vt 0.408839 0.001992
vt 0.448391 0.001993
vt 0.339266 0.250049
vt 0.339266 0.498107
vt 0.339266 0.001992
vt 0.271937 0.250049
vt 0.271937 0.498107
vt 0.271937 0.001992
vt 0.209627 0.250049
vt 0.209627 0.498107
vt 0.209627 0.001992
vt 0.155279 0.250049
vt 0.155279 0.498107
vt 0.155279 0.001992
vt 0.111479 0.250049
vt 0.111479 0.498107
vt 0.111479 0.001992
vt 0.088568 0.250049
vt 0.088568 0.498107
vt 0.088568 0.001992
vt 0.064123 0.250049
vt 0.064123 0.498107
vt 0.064123 0.001992
vt 0.051498 0.250051
vt 0.051498 0.498109
vt 0.051498 0.001993
vt 0.001887 0.498112
vt 0.001887 0.250053
vt 0.001887 0.001994
vt 0.641774 0.998008
vt 0.641774 0.749949
vt 0.678983 0.749949
vt 0.678983 0.998008
vt 0.641774 0.501891
vt 0.678983 0.501891
vt 0.691386 0.749949
vt 0.691386 0.998008
vt 0.691386 0.501891
vt 0.702384 0.460902
vt 0.702384 0.498110
vt 0.503937 0.498110
vt 0.503937 0.460902
vt 0.466728 0.498110
vt 0.466728 0.460902
vt 0.503937 0.448499
vt 0.702384 0.448499
vt 0.454325 0.498110
vt 0.454325 0.460902
vt 0.466728 0.448499
vt 0.503887 0.398887
vt 0.702383 0.398887
vt 0.454325 0.448499
vt 0.504037 0.386263
vt 0.702383 0.386374
vt 0.512329 0.361818
vt 0.702383 0.361870
vt 0.530880 0.338907
vt 0.702383 0.338967
vt 0.574715 0.295107
vt 0.702384 0.295152
vt 0.616931 0.240759
vt 0.702384 0.240754
vt 0.654336 0.178449
vt 0.702384 0.178344
vt 0.682825 0.111120
vt 0.702384 0.111129
vt 0.698744 0.041546
vt 0.702385 0.041614
vt 0.702384 0.001992
vt 0.530929 0.998008
vt 0.332482 0.998008
vt 0.332482 0.960799
vt 0.530929 0.960799
vt 0.332482 0.948396
vt 0.530929 0.948396
vt 0.568138 0.998008
vt 0.568138 0.960799
vt 0.332483 0.898784
vt 0.530979 0.898784
vt 0.568138 0.948396
vt 0.580541 0.998008
vt 0.580541 0.960799
vt 0.530829 0.886160
vt 0.332483 0.886271
vt 0.580541 0.948396
vt 0.522537 0.861715
vt 0.332483 0.861767
vt 0.503986 0.838804
vt 0.332483 0.838864
vt 0.460151 0.795004
vt 0.332482 0.795050
vt 0.417935 0.740656
vt 0.332482 0.740652
vt 0.380531 0.678346
vt 0.332482 0.678242
vt 0.352041 0.611017
vt 0.332482 0.611027
vt 0.336123 0.541443
vt 0.332482 0.541512
vt 0.332482 0.501892
vn 0.000000 0.984314 -0.176424
vn 0.000000 0.995790 -0.091660
vn -0.000001 0.995791 -0.091658
vn -0.000000 0.984315 -0.176422
vn -0.000000 0.951209 -0.308549
vn -0.000000 0.951209 -0.308549
vn -0.000000 0.891452 -0.453115
vn -0.000000 0.891452 -0.453115
vn -0.000000 0.825961 -0.563727
vn -0.000000 0.825961 -0.563727
vn -0.000000 0.751926 -0.659248
vn -0.000000 0.751926 -0.659248
vn 0.000000 0.730387 -0.683033
vn -0.000000 0.730387 -0.683033
vn 0.000000 0.869960 -0.493123
vn 0.000000 0.869960 -0.493123
vn 0.000000 0.975035 -0.222051
vn 0.000000 0.975037 -0.222042
vn 0.000000 0.999999 -0.001603
vn 0.000000 0.999999 -0.001603
vn 0.000000 0.984314 -0.176426
vn 0.000001 0.995790 -0.091661
vn 0.000000 0.951209 -0.308549
vn 0.000000 0.891452 -0.453115
vn 0.000000 0.825961 -0.563727
vn 0.000000 0.751926 -0.659248
vn 0.000000 0.730387 -0.683033
vn 0.000000 0.869959 -0.493123
vn 0.000000 0.975034 -0.222055
vn 0.000000 0.999999 -0.001603
vn 0.000000 0.000000 1.000000
vn 0.000000 0.000000 1.000000
vn 0.000000 0.000000 1.000000
vn 0.000000 0.000000 1.000000
vn 0.000000 0.000000 1.000000
vn 0.000000 0.000000 1.000000
vn -1.000000 0.000000 0.000000
vn -1.000000 0.000000 0.000000
vn -1.000000 0.000000 0.000000
vn -1.000000 0.000000 0.000000
vn 0.000000 1.000000 0.000000
vn 0.000000 1.000000 0.000000
vn 0.000000 1.000000 0.000000
vn 0.000000 1.000000 0.000000
vn 0.000000 1.000000 0.000000
vn 0.000000 1.000000 0.000000
vn 1.000000 0.000000 0.000000
vn 1.000000 0.000000 0.000000
vn 1.000000 0.000000 0.000000
vn 1.000000 0.000000 0.000000
vn 0.000000 0.000000 -1.000000
vn 0.000000 0.000000 -1.000000
vn 0.000000 0.000000 -1.000000
vn 0.000000 0.000000 -1.000000
vn -1.000000 0.000000 0.000000
vn -1.000000 0.000000 0.000000
vn 0.000000 0.000000 1.000000
vn 0.000000 0.000000 1.000000
vn 1.000000 0.000000 0.000000
vn 1.000000 0.000000 0.000000
vn 0.000000 0.000000 -1.000000
vn 0.000000 0.000000 -1.000000
vn 0.000000 0.000000 1.000000
vn -1.000000 0.000004 -0.000065
vn -1.000000 0.000004 -0.000065
vn -1.000000 0.000003 -0.000031
vn -1.000000 0.000003 -0.000029
vn 0.000000 1.000000 0.001005
vn 0.000000 1.000000 0.001005
vn 0.000000 1.000000 0.001005
vn 1.000000 -0.000001 0.000016
vn 1.000000 -0.000001 0.000017
vn 1.000000 -0.000002 0.000032
vn 1.000000 -0.000002 0.000032
vn -1.000000 0.000167 -0.000012
vn -1.000000 0.000524 0.000029
vn -1.000000 0.000171 -0.000011
vn -1.000000 0.000064 -0.000011
vn -1.000000 0.000070 -0.000011
vn -1.000000 0.000028 -0.000009
vn -1.000000 0.000031 -0.000009
vn -1.000000 0.000018 -0.000007
vn -1.000000 0.000019 -0.000007
vn -1.000000 0.000014 -0.000008
vn -1.000000 0.000014 -0.000007
vn -1.000000 0.000011 -0.000006
vn -1.000000 0.000012 -0.000007
vn -1.000000 0.000010 -0.000005
vn -1.000000 0.000010 -0.000005
vn -1.000000 0.000009 -0.000073
vn -1.000000 0.000009 -0.000063
vn 1.000000 -0.000195 -0.000010
vn 1.000000 -0.000078 0.000004
vn 1.000000 -0.000080 0.000004
vn 1.000000 -0.000034 0.000005
vn 1.000000 -0.000037 0.000005
vn 1.000000 -0.000014 0.000004
vn 1.000000 -0.000016 0.000004
vn 1.000000 -0.000008 0.000003
vn 1.000000 -0.000009 0.000003
vn 1.000000 -0.000005 0.000003
vn 1.000000 -0.000006 0.000003
vn 1.000000 -0.000005 0.000005
vn 1.000000 -0.000005 0.000004
vn 1.000000 -0.000005 0.000002
vn 1.000000 -0.000005 0.000003
vn 1.000000 -0.000004 0.000031
vn 1.000000 -0.000005 0.000026
vn 0.000000 0.000000 1.000000
vn 0.000000 0.000000 1.000000
vn -1.000000 0.000000 0.000000
vn -1.000000 0.000000 0.000000
vn 0.000000 0.000000 -1.000000
vn 0.000000 0.000000 -1.000000
vn 0.000000 0.000000 -1.000000
vn 1.000000 0.000000 0.000000
vn 1.000000 0.000000 0.000000
vn 0.000000 0.000000 1.000000
vn 1.000000 0.000000 0.000000
vn 1.000000 0.000000 0.000000
vn 0.000000 1.000000 0.000000
vn 0.000000 1.000000 0.000000
vn 0.000000 1.000000 0.000000
vn -1.000000 0.000000 0.000000
vn -1.000000 0.000000 0.000000
s 1
g Quater_SML_EuroGap_Full
usemtl lambert3SG
f 12/22/1 11/23/2 1/24/3 2/25/4
f 13/28/5 12/22/1 2/25/4 3/29/6
f 14/31/7 13/28/5 3/29/6 4/32/8
f 15/34/9 14/31/7 4/32/8 5/35/10
f 16/37/11 15/34/9 5/35/10 6/38/12
f 17/40/13 16/37/11 6/38/12 7/41/14
f 18/43/15 17/40/13 7/41/14 8/44/16
f 19/46/17 18/43/15 8/44/16 9/47/18
f 20/49/19 19/46/17 9/47/18 10/50/20
f 22/26/21 21/27/22 11/23/2 12/22/1
f 23/30/23 22/26/21 12/22/1 13/28/5
f 24/33/24 23/30/23 13/28/5 14/31/7
f 25/36/25 24/33/24 14/31/7 15/34/9
f 26/39/26 25/36/25 15/34/9 16/37/11
f 27/42/27 26/39/26 16/37/11 17/40/13
f 28/45/28 27/42/27 17/40/13 18/43/15
f 29/48/29 28/45/28 18/43/15 19/46/17
f 30/51/30 29/48/29 19/46/17 20/49/19
s 2
usemtl lambert4SG
f 32/1/31 35/2/32 36/3/33 34/4/34
f 36/3/33 35/2/32 31/5/35 33/6/36
s 3
f 80/64/37 32/65/38 34/66/39 79/67/40
s 4
usemtl lambert3SG
f 45/55/41 42/56/42 76/57/43 77/58/44
f 42/56/42 46/59/45 75/60/46 76/57/43
s 5
usemtl lambert4SG
f 33/95/47 31/96/48 72/97/49 73/98/50
s 6
f 68/13/51 69/14/52 40/15/53 39/16/54
s 3
f 34/66/39 67/68/55 78/69/56 79/67/40
s 2
f 36/3/33 66/7/57 67/8/58 34/4/34
s 5
f 71/101/59 33/95/47 73/98/50 74/102/60
s 6
f 69/14/52 70/19/61 41/20/62 40/15/53
s 2
f 71/9/63 66/7/57 36/3/33 33/6/36
s 3
f 10/75/64 49/76/65 38/71/66 39/70/67
s 1
usemtl lambert3SG
f 39/52/68 40/53/69 20/49/19 10/50/20
f 40/53/69 41/54/70 30/51/30 20/49/19
s 5
usemtl lambert4SG
f 41/100/71 37/99/72 48/103/73 30/104/74
s 3
f 2/92/75 1/94/76 50/93/77
f 3/90/78 2/92/75 50/93/77 51/91/79
f 4/88/80 3/90/78 51/91/79 52/89/81
f 5/86/82 4/88/80 52/89/81 53/87/83
f 6/84/84 5/86/82 53/87/83 54/85/85
f 7/82/86 6/84/84 54/85/85 55/83/87
f 8/80/88 7/82/86 55/83/87 56/81/89
f 9/78/90 8/80/88 56/81/89 57/79/91
f 10/75/64 9/78/90 57/79/91 49/76/65
s 5
f 21/125/92 22/123/93 58/124/94
f 22/123/93 23/121/95 59/122/96 58/124/94
f 23/121/95 24/119/97 60/120/98 59/122/96
f 24/119/97 25/117/99 61/118/100 60/120/98
f 25/117/99 26/115/101 62/116/102 61/118/100
f 26/115/101 27/113/103 63/114/104 62/116/102
f 27/113/103 28/111/105 64/112/106 63/114/104
f 28/111/105 29/108/107 65/109/108 64/112/106
f 29/108/107 30/104/74 48/103/73 65/109/108
s 2
f 67/8/58 66/7/57 42/10/109 45/11/110
s 3
f 67/68/55 45/72/111 77/73/112 78/69/56
s 6
usemtl lambert2SG
f 69/14/52 68/13/51 44/17/113 43/18/114
f 70/19/61 69/14/52 43/18/114 47/21/115
s 5
usemtl lambert4SG
f 46/106/116 71/101/59 74/102/60 75/107/117
s 2
f 66/7/57 71/9/63 46/12/118 42/10/109
s 5
f 73/98/50 72/97/49 37/99/72 41/100/71
f 41/100/71 70/105/119 74/102/60 73/98/50
f 75/107/117 74/102/60 70/105/119 47/110/120
s 4
usemtl lambert2SG
f 76/57/43 75/60/46 47/63/121 43/61/122
f 77/58/44 76/57/43 43/61/122 44/62/123
s 3
usemtl lambert4SG
f 68/74/124 78/69/56 77/73/112 44/77/125
f 78/69/56 68/74/124 39/70/67 79/67/40
f 39/70/67 38/71/66 80/64/37 79/67/40
