# This file uses centimeters as units for non-parametric coordinates.

mtllib Quater_LRG_Straight_Half.mtl
g default
v -74.000000 10.000002 66.000000
v -74.000000 0.000001 66.000000
v -74.000000 0.000001 48.000000
v -74.000000 6.374185 64.853912
v -74.000000 4.426692 63.582016
v -74.000000 2.865950 61.816284
v -74.000000 1.692128 59.625366
v -74.000000 0.877569 57.113449
v -74.000000 0.372418 54.399216
v -74.000000 0.110247 51.594482
v -74.000000 0.009118 48.782059
v -74.000000 8.187094 65.479996
v -74.000000 0.000001 51.609299
v -74.000000 0.000001 54.399857
v -74.000000 0.000001 57.118042
v -74.000000 0.000001 59.621231
v -74.000000 0.000001 61.816071
v -74.000000 0.000001 63.579865
v -74.000000 0.000001 64.859863
v -74.000000 0.000001 65.479996
v -74.000000 0.000001 56.000000
v -74.000000 0.624993 56.000000
v -74.000000 10.000002 68.000000
v -74.000000 0.000001 68.000000
v -74.000000 10.000002 66.500000
v -74.000000 0.000001 66.500000
v -74.000000 9.546774 66.000000
v -74.000000 9.546774 66.500000
v -74.000000 9.546774 68.000000
v -74.000000 9.546774 65.869995
v -64.000000 0.000001 66.000000
v -64.000000 0.000001 48.000000
v -64.000000 10.000002 66.000000
v -64.000000 6.374185 64.853912
v -64.000000 4.426692 63.582016
v -64.000000 2.865950 61.816284
v -64.000000 1.692128 59.625366
v -64.000000 0.877569 57.113449
v -64.000000 0.372418 54.399216
v -64.000000 0.110247 51.594482
v -64.000000 0.006840 48.782166
v -64.000000 8.187094 65.479996
v -64.000000 -0.000001 54.399857
v -64.000000 0.000003 51.599869
v -64.000000 -0.000000 57.119644
v -64.000000 0.000003 59.619858
v -64.000000 0.000004 61.816071
v -64.000000 0.000001 63.579865
v -64.000000 0.000001 64.859863
v -64.000000 0.000001 65.479996
v -64.000000 -0.000001 56.000000
v -64.000000 0.624993 56.000000
v -64.000000 0.000001 68.000000
v -64.000000 10.000002 68.000000
v -64.000000 0.000001 66.500000
v -64.000000 10.000002 66.500000
v -64.000000 9.546776 68.000000
v -64.000000 9.546776 66.500000
v -64.000000 9.546776 66.000000
v -64.000000 9.546774 65.869995
vt 0.712971 0.371892
vt 0.710681 0.435576
vt 0.710475 0.371557
vt 0.718908 0.308383
vt 0.710475 0.308368
vt 0.710475 0.272135
vt 0.724627 0.272135
vt 0.730347 0.246922
vt 0.710475 0.246818
vt 0.748791 0.190043
vt 0.710475 0.190137
vt 0.775371 0.140433
vt 0.710475 0.140438
vt 0.810712 0.100450
vt 0.710475 0.100499
vt 0.854810 0.071650
vt 0.710475 0.071515
vt 0.895861 0.057473
vt 0.710475 0.057473
vt 0.710475 0.045698
vt 0.926649 0.045698
vt 0.926649 0.048642
vt 0.710475 0.034376
vt 0.926649 0.034376
vt 0.936912 0.045698
vt 0.926649 0.000410
vt 0.710475 0.000410
vt 0.936912 0.034376
vt 0.936912 0.000410
vt 0.775560 0.216649
vt 0.781496 0.280159
vt 0.773063 0.280173
vt 0.773063 0.216771
vt 0.787216 0.316406
vt 0.773063 0.316406
vt 0.773219 0.152968
vt 0.792935 0.341619
vt 0.773063 0.341759
vt 0.811379 0.398498
vt 0.773063 0.398373
vt 0.837959 0.448109
vt 0.773063 0.448104
vt 0.873300 0.488091
vt 0.773063 0.488042
vt 0.917399 0.516892
vt 0.773063 0.517026
vt 0.958449 0.531069
vt 0.773063 0.531069
vt 0.773063 0.542843
vt 0.989238 0.539899
vt 0.989238 0.542843
vt 0.999501 0.542843
vt 0.989238 0.554165
vt 0.773063 0.554165
vt 0.999501 0.554165
vt 0.989238 0.588131
vt 0.773063 0.588131
vt 0.999501 0.588131
vt 0.705881 0.006132
vt 0.000500 0.006132
vt 0.000500 0.001037
vt 0.705881 0.001037
vt 0.000500 0.095793
vt 0.000500 0.045950
vt 0.705881 0.045950
vt 0.705881 0.095793
vt 0.000500 0.164988
vt 0.705881 0.164988
vt 0.000500 0.250846
vt 0.705881 0.250846
vt 0.000500 0.349282
vt 0.705881 0.349282
vt 0.000500 0.455647
vt 0.000500 0.392916
vt 0.705881 0.392916
vt 0.705881 0.455647
vt 0.000500 0.565559
vt 0.705881 0.565559
vt 0.985015 0.522048
vt 0.951049 0.522048
vt 0.951049 0.295611
vt 0.985015 0.295611
vt 0.996337 0.295611
vt 0.996337 0.522048
vt 0.000500 0.675771
vt 0.705881 0.675767
vt 0.000500 0.706419
vt 0.705881 0.706419
vt 0.000500 0.021415
vt 0.705881 0.021415
vt 0.936912 0.594858
vt 0.710475 0.594858
vt 0.710475 0.811032
vt 0.936912 0.811032
vt 0.936912 0.821295
vt 0.710475 0.821295
vt 0.926649 0.034376
vt 0.926649 0.000410
vt 0.710475 0.034376
vn -1.000000 0.000000 0.000000
vn -1.000000 0.000000 0.000000
vn -1.000000 0.000000 0.000000
vn -1.000000 0.000000 0.000000
vn -1.000000 0.000000 0.000000
vn -1.000000 0.000000 0.000000
vn -1.000000 0.000000 0.000000
vn -1.000000 0.000000 0.000000
vn -1.000000 0.000000 0.000000
vn -1.000000 0.000000 0.000000
vn -1.000000 0.000000 0.000000
vn -1.000000 0.000000 0.000000
vn -1.000000 0.000000 0.000000
vn -1.000000 0.000000 0.000000
vn -1.000000 0.000000 0.000000
vn -1.000000 0.000000 0.000000
vn -1.000000 0.000000 0.000000
vn -1.000000 0.000000 0.000000
vn -1.000000 0.000000 0.000000
vn -1.000000 0.000000 0.000000
vn -1.000000 0.000000 0.000000
vn -1.000000 0.000000 0.000000
vn -1.000000 0.000000 0.000000
vn -1.000000 0.000000 0.000000
vn -1.000000 0.000000 0.000000
vn -1.000000 0.000000 0.000000
vn -1.000000 0.000000 0.000000
vn -1.000000 0.000000 0.000000
vn -1.000000 0.000000 0.000000
vn -1.000000 0.000000 0.000000
vn -1.000000 0.000000 0.000000
vn -1.000000 0.000000 0.000000
vn 0.000000 0.275716 -0.961239
vn 0.000000 0.275716 -0.961239
vn 0.000000 0.275724 -0.961237
vn 0.000000 0.275724 -0.961237
vn 0.000000 0.654581 -0.755992
vn 0.000000 0.450587 -0.892733
vn 0.000000 0.450587 -0.892733
vn 0.000000 0.654581 -0.755992
vn 0.000000 0.822645 -0.568556
vn 0.000000 0.822645 -0.568556
vn 0.000000 0.921057 -0.389427
vn 0.000000 0.921057 -0.389427
vn 0.000000 0.959305 -0.282373
vn 0.000000 0.959305 -0.282373
vn 0.000000 0.993243 -0.116052
vn 0.000000 0.983119 -0.182970
vn 0.000000 0.983119 -0.182970
vn 0.000000 0.993243 -0.116052
vn 0.000057 0.997902 -0.064744
vn 0.000057 0.997902 -0.064744
vn 0.000114 0.999530 -0.030656
vn 0.000114 0.999530 -0.030656
vn 0.000114 0.999948 -0.010199
vn 0.000114 0.999948 -0.010199
vn 0.000000 0.305008 -0.952350
vn 0.000000 0.305008 -0.952350
vn 1.000000 0.000000 0.000000
vn 1.000000 0.000000 0.000000
vn 1.000000 0.000000 0.000000
vn 1.000000 0.000000 0.000000
vn 1.000000 0.000000 0.000000
vn 1.000000 0.000000 0.000000
vn 1.000000 0.000000 0.000000
vn 1.000000 0.000000 0.000000
vn 1.000000 0.000000 0.000000
vn 1.000000 0.000000 0.000000
vn 1.000000 0.000000 0.000000
vn 1.000000 0.000000 0.000000
vn 1.000000 0.000000 0.000000
vn 1.000000 0.000000 0.000000
vn 1.000000 0.000000 0.000000
vn 1.000000 0.000000 0.000000
vn 1.000000 0.000000 0.000000
vn 1.000000 0.000000 0.000000
vn 1.000000 0.000000 0.000000
vn 1.000000 0.000000 0.000000
vn 1.000000 0.000000 0.000000
vn 1.000000 0.000000 0.000000
vn 1.000000 0.000000 0.000000
vn 1.000000 0.000000 0.000000
vn 1.000000 0.000000 0.000000
vn 1.000000 0.000000 0.000000
vn 0.000000 0.000000 1.000000
vn 0.000000 0.000000 1.000000
vn 0.000000 0.000000 1.000000
vn 0.000000 0.000000 1.000000
vn 0.000000 1.000000 0.000000
vn 0.000000 1.000000 0.000000
vn 0.000000 1.000000 0.000000
vn 0.000000 1.000000 0.000000
vn 1.000000 0.000000 0.000000
vn 0.000000 1.000000 0.000000
vn 0.000000 1.000000 0.000000
vn 0.000000 0.000000 1.000000
vn 0.000000 0.000000 1.000000
vn 1.000000 0.000000 0.000000
vn 1.000000 0.000000 0.000000
s 1
g Quater_LRG_Straight_Half
usemtl lambert4SG
f 10/1/1 11/2/2 13/3/3
f 9/4/4 10/1/1 13/3/3 14/5/5
f 21/6/6 22/7/7 9/4/4 14/5/5
f 7/10/8 8/8/9 15/9/10 16/11/11
f 6/12/12 7/10/8 16/11/11 17/13/13
f 5/14/14 6/12/12 17/13/13 18/15/15
f 4/16/16 5/14/14 18/15/15 19/17/17
f 12/18/18 4/16/16 19/17/17 20/19/19
f 1/25/20 30/22/21 27/21/22
f 8/8/9 22/7/7 21/6/6 15/9/10
f 28/24/23 29/26/24 23/29/25 25/28/26
f 1/25/20 27/21/22 28/24/23 25/28/26
f 26/23/27 28/24/23 27/21/22 2/20/28
s off
f 26/98/29 24/97/30 29/99/31 28/27/32
s 1
f 2/20/28 27/21/22 30/22/21 12/18/18 20/19/19
s 2
usemtl lambert2SG
f 60/59/33 30/60/34 1/61/35 33/62/36
usemtl lambert3SG
f 5/63/37 4/64/38 34/65/39 35/66/40
f 6/67/41 5/63/37 35/66/40 36/68/42
f 7/69/43 6/67/41 36/68/42 37/70/44
f 8/71/45 7/69/43 37/70/44 38/72/46
f 9/73/47 22/74/48 52/75/49 39/76/50
f 10/77/51 9/73/47 39/76/50 40/78/52
f 11/85/53 10/77/51 40/78/52 41/86/54
f 3/87/55 11/85/53 41/86/54 32/88/56
f 4/64/38 12/89/57 42/90/58 34/65/39
s 4
usemtl lambert4SG
f 40/30/59 39/31/60 43/32/61 44/33/62
f 41/36/63 40/30/59 44/33/62
f 51/35/64 52/34/65 38/37/66 45/38/67
f 38/37/66 37/39/68 46/40/69 45/38/67
f 37/39/68 36/41/70 47/42/71 46/40/69
f 36/41/70 35/43/72 48/44/73 47/42/71
f 35/43/72 34/45/74 49/46/75 48/44/73
f 34/45/74 42/47/76 50/48/77 49/46/75
f 31/49/78 50/48/77 42/47/76 60/50/79 59/51/80
f 39/31/60 52/34/65 51/35/64 43/32/61
s 2
usemtl lambert3SG
f 52/75/49 22/74/48 8/71/45 38/72/46
s 4
usemtl lambert4SG
f 56/55/81 54/58/82 57/56/83 58/53/84
s 6
f 29/93/85 57/94/86 54/95/87 23/96/88
s 7
usemtl lambert3SG
f 25/79/89 23/80/90 54/81/91 56/82/92
s 4
usemtl lambert4SG
f 59/51/80 60/50/79 33/52/93
f 56/55/81 58/53/84 59/51/80 33/52/93
s 7
usemtl lambert2SG
f 25/79/89 56/82/92 33/83/94 1/84/95
s 6
usemtl lambert4SG
f 57/94/86 29/93/85 24/92/96 53/91/97
s 4
f 55/54/98 58/53/84 57/56/83 53/57/99
f 31/49/78 59/51/80 58/53/84 55/54/98
s 2
usemtl lambert3SG
f 12/89/57 30/60/34 60/59/33 42/90/58
