# This file uses centimeters as units for non-parametric coordinates.

mtllib Quater_SML_Straight_Half.mtl
g default
v -60.500000 5.000000 24.000000
v -60.500000 0.000000 24.000000
v -60.500000 0.000000 15.000000
v -60.500000 3.187092 23.426956
v -60.500000 2.213345 22.791008
v -60.500000 1.432974 21.908142
v -60.500000 0.846063 20.812683
v -60.500000 0.438784 19.556725
v -60.500000 0.186208 18.199608
v -60.500000 0.055123 16.797241
v -60.500000 0.004558 15.391029
v -60.500000 4.093546 23.739998
v -60.500000 0.000000 16.804649
v -60.500000 0.000000 18.199928
v -60.500000 0.000000 19.559021
v -60.500000 0.000000 20.810616
v -60.500000 0.000000 21.908035
v -60.500000 0.000000 22.789932
v -60.500000 0.000000 23.429932
v -60.500000 0.000000 23.739998
v -60.500000 0.000000 19.000000
v -60.500000 0.312496 19.000000
v -60.500000 5.000000 25.000000
v -60.500000 0.000000 25.000000
v -60.500000 5.000000 24.250000
v -60.500000 0.000000 24.250000
v -60.500000 4.773386 24.000000
v -60.500000 4.773386 24.250000
v -60.500000 4.773386 25.000000
v -60.500000 4.773386 23.934998
v -55.500000 0.000000 24.000000
v -55.500000 0.000000 15.000000
v -55.500000 5.000000 24.000000
v -55.500000 3.187092 23.426956
v -55.500000 2.213345 22.791008
v -55.500000 1.432974 21.908142
v -55.500000 0.846063 20.812683
v -55.500000 0.438784 19.556725
v -55.500000 0.186208 18.199608
v -55.500000 0.055123 16.797241
v -55.500000 0.003419 15.391083
v -55.500000 4.093546 23.739998
v -55.500000 -0.000001 18.199928
v -55.500000 0.000001 16.799934
v -55.500000 -0.000001 19.559822
v -55.500000 0.000001 20.809929
v -55.500000 0.000001 21.908035
v -55.500000 0.000000 22.789932
v -55.500000 0.000000 23.429932
v -55.500000 0.000000 23.739998
v -55.500000 -0.000001 19.000000
v -55.500000 0.312496 19.000000
v -55.500000 0.000000 25.000000
v -55.500000 5.000000 25.000000
v -55.500000 0.000000 24.250000
v -55.500000 5.000000 24.250000
v -55.500000 4.773387 25.000000
v -55.500000 4.773387 24.250000
v -55.500000 4.773387 24.000000
v -55.500000 4.773386 23.934998
vt 0.712971 0.371892
vt 0.710681 0.435576
vt 0.710475 0.371557
vt 0.718908 0.308383
vt 0.710475 0.308368
vt 0.710475 0.272135
vt 0.724627 0.272135
vt 0.730347 0.246922
vt 0.710475 0.246818
vt 0.748791 0.190043
vt 0.710475 0.190137
vt 0.775371 0.140433
vt 0.710475 0.140438
vt 0.810712 0.100450
vt 0.710475 0.100499
vt 0.854810 0.071650
vt 0.710475 0.071515
vt 0.895861 0.057473
vt 0.710475 0.057473
vt 0.710475 0.045698
vt 0.926649 0.045698
vt 0.926649 0.048642
vt 0.710475 0.034376
vt 0.926649 0.034376
vt 0.936912 0.045698
vt 0.926649 0.000410
vt 0.710475 0.000410
vt 0.936912 0.034376
vt 0.936912 0.000410
vt 0.775560 0.216649
vt 0.781496 0.280159
vt 0.773063 0.280173
vt 0.773063 0.216771
vt 0.787216 0.316406
vt 0.773063 0.316406
vt 0.773219 0.152968
vt 0.792935 0.341619
vt 0.773063 0.341759
vt 0.811379 0.398498
vt 0.773063 0.398373
vt 0.837959 0.448109
vt 0.773063 0.448104
vt 0.873300 0.488091
vt 0.773063 0.488042
vt 0.917399 0.516892
vt 0.773063 0.517026
vt 0.958449 0.531069
vt 0.773063 0.531069
vt 0.773063 0.542843
vt 0.989238 0.539899
vt 0.989238 0.542843
vt 0.999501 0.542843
vt 0.989238 0.554165
vt 0.773063 0.554165
vt 0.999501 0.554165
vt 0.989238 0.588131
vt 0.773063 0.588131
vt 0.999501 0.588131
vt 0.705881 0.006132
vt 0.000500 0.006132
vt 0.000500 0.001037
vt 0.705881 0.001037
vt 0.000500 0.095793
vt 0.000500 0.045950
vt 0.705881 0.045950
vt 0.705881 0.095793
vt 0.000500 0.164988
vt 0.705881 0.164988
vt 0.000500 0.250846
vt 0.705881 0.250846
vt 0.000500 0.349282
vt 0.705881 0.349282
vt 0.000500 0.455647
vt 0.000500 0.392916
vt 0.705881 0.392916
vt 0.705881 0.455647
vt 0.000500 0.565559
vt 0.705881 0.565559
vt 0.985015 0.522048
vt 0.951049 0.522048
vt 0.951049 0.295611
vt 0.985015 0.295611
vt 0.996337 0.295611
vt 0.996337 0.522048
vt 0.000500 0.675771
vt 0.705881 0.675767
vt 0.000500 0.706419
vt 0.705881 0.706419
vt 0.000500 0.021415
vt 0.705881 0.021415
vt 0.936912 0.594858
vt 0.710475 0.594858
vt 0.710475 0.811032
vt 0.936912 0.811032
vt 0.936912 0.821295
vt 0.710475 0.821295
vn -1.000000 -0.000020 0.000000
vn -1.000000 -0.000098 0.000000
vn -1.000000 -0.000016 0.000000
vn -1.000000 0.000000 0.000000
vn -1.000000 0.000000 0.000000
vn -1.000000 0.000000 0.000000
vn -1.000000 0.000000 0.000000
vn -1.000000 -0.000006 0.000000
vn -1.000000 -0.000004 0.000000
vn -1.000000 -0.000004 0.000000
vn -1.000000 -0.000006 0.000000
vn -1.000000 -0.000002 0.000000
vn -1.000000 -0.000003 0.000000
vn -1.000000 0.000000 0.000000
vn -1.000000 0.000000 0.000000
vn -1.000000 0.000000 0.000000
vn -1.000000 0.000000 0.000000
vn -1.000000 0.000000 0.000000
vn -1.000000 0.000000 0.000000
vn -1.000000 0.000000 0.000000
vn -1.000000 0.000000 0.000000
vn -1.000000 0.000000 0.000000
vn -1.000000 0.000000 0.000000
vn -1.000000 0.000000 0.000000
vn -1.000000 0.000000 0.000000
vn -1.000000 0.000000 0.000000
vn -1.000000 0.000000 0.000000
vn -1.000000 0.000000 0.000000
vn -1.000000 0.000000 0.000000
vn 0.000000 0.275716 -0.961239
vn 0.000000 0.275716 -0.961239
vn 0.000000 0.275724 -0.961237
vn 0.000000 0.275724 -0.961237
vn 0.000000 0.654581 -0.755992
vn 0.000000 0.450587 -0.892733
vn 0.000000 0.450587 -0.892733
vn 0.000000 0.654581 -0.755992
vn 0.000000 0.822645 -0.568556
vn 0.000000 0.822645 -0.568556
vn 0.000000 0.921057 -0.389428
vn 0.000000 0.921057 -0.389428
vn 0.000000 0.959305 -0.282374
vn 0.000000 0.959305 -0.282374
vn 0.000000 0.993243 -0.116052
vn 0.000000 0.983119 -0.182970
vn 0.000000 0.983119 -0.182970
vn 0.000000 0.993243 -0.116052
vn 0.000057 0.997902 -0.064744
vn 0.000057 0.997902 -0.064744
vn 0.000114 0.999530 -0.030656
vn 0.000114 0.999530 -0.030656
vn 0.000114 0.999948 -0.010199
vn 0.000114 0.999948 -0.010199
vn 0.000000 0.305008 -0.952350
vn 0.000000 0.305008 -0.952350
vn 1.000000 -0.000018 0.000000
vn 1.000000 -0.000009 0.000000
vn 1.000000 -0.000010 0.000000
vn 1.000000 -0.000019 0.000000
vn 1.000000 0.000000 0.000000
vn 1.000000 0.000000 0.000000
vn 1.000000 0.000000 0.000000
vn 1.000000 0.000000 0.000000
vn 1.000000 0.000000 0.000000
vn 1.000000 0.000000 0.000000
vn 1.000000 0.000000 0.000000
vn 1.000000 0.000000 0.000000
vn 1.000000 0.000000 0.000000
vn 1.000000 0.000000 0.000000
vn 1.000000 0.000000 0.000000
vn 1.000000 0.000000 0.000000
vn 1.000000 0.000000 0.000000
vn 1.000000 0.000000 0.000000
vn 1.000000 0.000000 0.000000
vn 1.000000 0.000000 0.000000
vn 1.000000 0.000000 0.000000
vn 1.000000 0.000000 0.000000
vn 1.000000 0.000000 0.000000
vn 1.000000 0.000000 0.000000
vn 1.000000 0.000000 0.000000
vn 1.000000 0.000000 0.000000
vn 0.000000 0.000000 1.000000
vn 0.000000 0.000000 1.000000
vn 0.000000 0.000000 1.000000
vn 0.000000 0.000000 1.000000
vn 0.000000 1.000000 0.000000
vn 0.000000 1.000000 0.000000
vn 0.000000 1.000000 0.000000
vn 0.000000 1.000000 0.000000
vn 1.000000 0.000000 0.000000
vn 0.000000 1.000000 0.000000
vn 0.000000 1.000000 0.000000
vn 0.000000 0.000000 1.000000
vn 0.000000 0.000000 1.000000
vn 1.000000 0.000000 0.000000
vn 1.000000 0.000000 0.000000
s 1
g Quater_SML_Straight_Half
usemtl lambert4SG
f 10/1/1 11/2/2 13/3/3
f 9/4/4 10/1/1 13/3/3 14/5/5
f 21/6/6 22/7/7 9/4/4 14/5/5
f 7/10/8 8/8/9 15/9/10 16/11/11
f 6/12/12 7/10/8 16/11/11 17/13/13
f 5/14/14 6/12/12 17/13/13 18/15/15
f 4/16/16 5/14/14 18/15/15 19/17/17
f 12/18/18 4/16/16 19/17/17 20/19/19
f 1/25/20 30/22/21 27/21/22
f 8/8/9 22/7/7 21/6/6 15/9/10
f 28/24/23 29/26/24 23/29/25 25/28/26
f 1/25/20 27/21/22 28/24/23 25/28/26
f 26/23/27 28/24/23 27/21/22 2/20/28
f 29/26/24 28/24/23 26/23/27 24/27/29
f 2/20/28 27/21/22 30/22/21 12/18/18 20/19/19
s 3
usemtl lambert2SG
f 60/59/30 30/60/31 1/61/32 33/62/33
usemtl lambert3SG
f 5/63/34 4/64/35 34/65/36 35/66/37
f 6/67/38 5/63/34 35/66/37 36/68/39
f 7/69/40 6/67/38 36/68/39 37/70/41
f 8/71/42 7/69/40 37/70/41 38/72/43
f 9/73/44 22/74/45 52/75/46 39/76/47
f 10/77/48 9/73/44 39/76/47 40/78/49
f 11/85/50 10/77/48 40/78/49 41/86/51
f 3/87/52 11/85/50 41/86/51 32/88/53
f 4/64/35 12/89/54 42/90/55 34/65/36
s 5
usemtl lambert4SG
f 40/30/56 39/31/57 43/32/58 44/33/59
f 41/36/60 40/30/56 44/33/59
f 51/35/61 52/34/62 38/37/63 45/38/64
f 38/37/63 37/39/65 46/40/66 45/38/64
f 37/39/65 36/41/67 47/42/68 46/40/66
f 36/41/67 35/43/69 48/44/70 47/42/68
f 35/43/69 34/45/71 49/46/72 48/44/70
f 34/45/71 42/47/73 50/48/74 49/46/72
f 31/49/75 50/48/74 42/47/73 60/50/76 59/51/77
f 39/31/57 52/34/62 51/35/61 43/32/58
s 3
usemtl lambert3SG
f 52/75/46 22/74/45 8/71/42 38/72/43
s 5
usemtl lambert4SG
f 56/55/78 54/58/79 57/56/80 58/53/81
s 7
f 29/93/82 57/94/83 54/95/84 23/96/85
s 8
usemtl lambert3SG
f 25/79/86 23/80/87 54/81/88 56/82/89
s 5
usemtl lambert4SG
f 59/51/77 60/50/76 33/52/90
f 56/55/78 58/53/81 59/51/77 33/52/90
s 8
usemtl lambert2SG
f 25/79/86 56/82/89 33/83/91 1/84/92
s 7
usemtl lambert4SG
f 57/94/83 29/93/82 24/92/93 53/91/94
s 5
f 55/54/95 58/53/81 57/56/80 53/57/96
f 31/49/75 59/51/77 58/53/81 55/54/95
s 3
usemtl lambert3SG
f 12/89/54 30/60/31 60/59/30 42/90/55
