# This file uses centimeters as units for non-parametric coordinates.

mtllib Rail_Block_Short.mtl
g default
v 132.000000 0.000000 47.000000
v 142.000000 0.000000 47.000000
v 132.000000 0.000000 37.000000
v 142.000000 0.000000 37.000000
v 132.000000 5.000000 47.000000
v 142.000000 5.000000 47.000000
v 142.000000 5.000000 37.000000
v 132.000000 5.000000 37.000000
v 134.000000 0.000000 47.000000
v 134.000000 0.000000 37.000000
v 134.000000 5.000000 37.000000
v 134.000000 5.000000 47.000000
v 140.000000 0.000000 47.000000
v 140.000000 5.000000 47.000000
v 140.000000 5.000000 37.000000
v 140.000000 0.000000 37.000000
v 135.000000 0.000000 47.000000
v 135.000000 0.000000 37.000000
v 135.000000 5.000000 37.000000
v 135.000000 5.000000 47.000000
v 139.000000 0.000000 47.000000
v 139.000000 0.000000 37.000000
v 139.000000 5.000000 37.000000
v 139.000000 5.000000 47.000000
v 132.000000 0.000000 42.499950
v 132.000000 0.000000 41.500050
v 132.000000 5.000000 41.500050
v 132.000000 5.000000 42.499950
v 134.000000 5.000000 41.500050
v 134.000000 5.000000 42.499950
v 142.000000 5.000000 42.499950
v 142.000000 5.000000 41.500050
v 142.000000 0.000000 41.500050
v 142.000000 0.000000 42.499950
v 135.000000 5.000000 41.500050
v 135.000000 5.000000 42.499950
v 140.000000 5.000000 42.499950
v 140.000000 5.000000 41.500050
v 139.000000 5.000000 41.500050
v 139.000000 5.000000 42.499950
v 134.000000 7.500000 42.499950
v 134.000000 7.500000 41.500050
v 135.000000 7.500000 42.499950
v 135.000000 7.500000 41.500050
v 140.000000 7.500000 41.500050
v 140.000000 7.500000 42.499950
v 139.000000 7.500000 41.500050
v 139.000000 7.500000 42.499950
v 134.000000 8.000000 42.499950
v 134.000000 8.000000 41.500050
v 135.000000 8.000000 42.499950
v 135.000000 8.000000 41.500050
v 140.000000 8.000000 41.500050
v 140.000000 8.000000 42.499950
v 139.000000 8.000000 41.500050
v 139.000000 8.000000 42.499950
v 142.000000 7.500000 41.500050
v 142.000000 7.500000 42.499950
v 142.000000 8.000000 41.500050
v 142.000000 8.000000 42.499950
v 132.000000 7.500000 42.499950
v 132.000000 7.500000 41.500050
v 132.000000 8.000000 42.499950
v 132.000000 8.000000 41.500050
vt 0.423161 0.226591
vt 0.423161 0.185734
vt 0.627469 0.185734
vt 0.627469 0.226591
vt 0.423161 0.001855
vt 0.627469 0.001855
vt 0.423161 0.410471
vt 0.627469 0.410471
vt 0.536263 0.598343
vt 0.536263 0.639200
vt 0.331955 0.639200
vt 0.331955 0.598343
vt 0.331955 0.823080
vt 0.536263 0.823080
vt 0.331955 0.414463
vt 0.536263 0.414463
vt 0.001992 0.581901
vt 0.042850 0.581901
vt 0.042850 0.684055
vt 0.001992 0.684055
vt 0.050911 0.827072
vt 0.091768 0.827072
vt 0.091768 0.929226
vt 0.050911 0.929226
vt 0.099635 0.827072
vt 0.140492 0.827072
vt 0.140492 0.929226
vt 0.099635 0.929226
vt 0.148359 0.827072
vt 0.189216 0.827072
vt 0.189216 0.929226
vt 0.148359 0.929226
vt 0.294530 0.867929
vt 0.294530 0.827072
vt 0.314961 0.827072
vt 0.314961 0.867929
vt 0.321815 0.867929
vt 0.321815 0.827072
vt 0.342245 0.827072
vt 0.342245 0.867929
vt 0.589392 0.639201
vt 0.589392 0.598344
vt 0.671115 0.598344
vt 0.671115 0.639201
vt 0.671115 0.414464
vt 0.589392 0.414464
vt 0.671115 0.823081
vt 0.589392 0.823081
vt 0.711977 0.414464
vt 0.711977 0.598344
vt 0.711977 0.639201
vt 0.711977 0.823081
vt 0.875423 0.414464
vt 0.875423 0.598344
vt 0.875423 0.639201
vt 0.875423 0.823081
vt 0.916285 0.414464
vt 0.916285 0.598344
vt 0.916285 0.639201
vt 0.916285 0.823081
vt 0.998008 0.414464
vt 0.998008 0.598344
vt 0.998008 0.639201
vt 0.998008 0.823081
vt 0.583256 0.741358
vt 0.542399 0.741358
vt 0.542399 0.700495
vt 0.583256 0.700495
vt 0.583256 0.823081
vt 0.542399 0.823081
vt 0.542399 0.537049
vt 0.583256 0.537049
vt 0.542399 0.496187
vt 0.583256 0.496187
vt 0.542399 0.414464
vt 0.583256 0.414464
vt 0.068377 0.577910
vt 0.027520 0.577910
vt 0.027520 0.414463
vt 0.068377 0.414463
vt 0.237940 0.908795
vt 0.197083 0.908795
vt 0.197083 0.827072
vt 0.237940 0.827072
vt 0.245806 0.827072
vt 0.286664 0.827072
vt 0.286664 0.908796
vt 0.245806 0.908796
vt 0.206300 0.287886
vt 0.001992 0.287886
vt 0.001992 0.124440
vt 0.206300 0.124440
vt 0.206300 0.328748
vt 0.001992 0.328748
vt 0.001992 0.083578
vt 0.206300 0.083578
vt 0.001992 0.410471
vt 0.206300 0.410471
vt 0.001992 0.001855
vt 0.206300 0.001855
vt 0.416982 0.287888
vt 0.212674 0.287888
vt 0.212674 0.124442
vt 0.416982 0.124442
vt 0.416982 0.328748
vt 0.212674 0.328748
vt 0.212674 0.083577
vt 0.416982 0.083577
vt 0.416982 0.410472
vt 0.212674 0.410472
vt 0.212674 0.001856
vt 0.416982 0.001856
vt 0.203235 0.741357
vt 0.203235 0.700495
vt 0.305389 0.700495
vt 0.305389 0.741357
vt 0.325819 0.700495
vt 0.325819 0.741357
vt 0.305389 0.537049
vt 0.325819 0.537049
vt 0.325819 0.823080
vt 0.305389 0.823080
vt 0.305389 0.496187
vt 0.325819 0.496187
vt 0.203235 0.537049
vt 0.203235 0.496187
vt 0.305389 0.414463
vt 0.325819 0.414463
vt 0.197099 0.700497
vt 0.197099 0.741356
vt 0.094945 0.741356
vt 0.094945 0.700497
vt 0.074513 0.741356
vt 0.074513 0.700497
vt 0.094945 0.823081
vt 0.074513 0.823081
vt 0.074513 0.537048
vt 0.094945 0.537048
vt 0.094945 0.496188
vt 0.074513 0.496188
vt 0.197099 0.496188
vt 0.197099 0.537048
vt 0.074513 0.414464
vt 0.094945 0.414464
vn 0.000000 0.000000 1.000000
vn 0.000000 0.000000 1.000000
vn 0.000000 0.000000 1.000000
vn 0.000000 0.000000 1.000000
vn 0.000000 0.000000 -1.000000
vn 0.000000 0.000000 -1.000000
vn 0.000000 0.000000 -1.000000
vn 0.000000 0.000000 -1.000000
vn 0.000000 0.000000 -1.000000
vn 0.000000 0.000000 -1.000000
vn 0.000000 0.000000 -1.000000
vn 0.000000 0.000000 -1.000000
vn 0.000000 0.000000 1.000000
vn 0.000000 0.000000 1.000000
vn 0.000000 0.000000 1.000000
vn 0.000000 0.000000 1.000000
vn 0.000000 0.000000 1.000000
vn 0.000000 0.000000 1.000000
vn 0.000000 0.000000 -1.000000
vn 0.000000 0.000000 -1.000000
vn 0.000000 0.000000 1.000000
vn 0.000000 0.000000 1.000000
vn 0.000000 0.000000 -1.000000
vn 0.000000 0.000000 -1.000000
vn -1.000000 0.000000 0.000000
vn -1.000000 0.000000 0.000000
vn -1.000000 0.000000 0.000000
vn -1.000000 0.000000 0.000000
vn 0.000000 1.000000 0.000000
vn 0.000000 1.000000 0.000000
vn 0.000000 1.000000 0.000000
vn 0.000000 1.000000 0.000000
vn 0.000000 1.000000 0.000000
vn 0.000000 1.000000 0.000000
vn 0.000000 1.000000 0.000000
vn 0.000000 1.000000 0.000000
vn 0.000000 1.000000 0.000000
vn 0.000000 1.000000 0.000000
vn 0.000000 1.000000 0.000000
vn 0.000000 1.000000 0.000000
vn 1.000000 0.000000 0.000000
vn 1.000000 0.000000 0.000000
vn 1.000000 0.000000 0.000000
vn 1.000000 0.000000 0.000000
vn 0.000000 1.000000 0.000000
vn 0.000000 1.000000 0.000000
vn 0.000000 1.000000 0.000000
vn 0.000000 1.000000 0.000000
vn 0.000000 1.000000 0.000000
vn 0.000000 1.000000 0.000000
vn 0.000000 1.000000 0.000000
vn 0.000000 1.000000 0.000000
vn 0.000000 1.000000 0.000000
vn 0.000000 1.000000 0.000000
vn 1.000000 0.000000 0.000000
vn 1.000000 0.000000 0.000000
vn -1.000000 0.000000 0.000000
vn -1.000000 0.000000 0.000000
vn -1.000000 0.000000 0.000000
vn -1.000000 0.000000 0.000000
vn 0.000000 1.000000 0.000000
vn 0.000000 1.000000 0.000000
vn 1.000000 0.000000 0.000000
vn 1.000000 0.000000 0.000000
vn 0.000000 1.000000 0.000000
vn 0.000000 1.000000 0.000000
vn 0.000000 1.000000 0.000000
vn 0.000000 1.000000 0.000000
vn 0.000000 1.000000 0.000000
vn 0.000000 1.000000 0.000000
vn 0.000000 1.000000 0.000000
vn 0.000000 1.000000 0.000000
vn -1.000000 0.000000 0.000000
vn -1.000000 0.000000 0.000000
vn -1.000000 0.000000 0.000000
vn -1.000000 0.000000 0.000000
vn 0.000000 0.000000 1.000000
vn 0.000000 0.000000 1.000000
vn 0.000000 0.000000 1.000000
vn 0.000000 0.000000 1.000000
vn 1.000000 0.000000 0.000000
vn 1.000000 0.000000 0.000000
vn 1.000000 0.000000 0.000000
vn 1.000000 0.000000 0.000000
vn 0.000000 0.000000 -1.000000
vn 0.000000 0.000000 -1.000000
vn 0.000000 0.000000 -1.000000
vn 0.000000 0.000000 -1.000000
vn 1.000000 0.000000 0.000000
vn 1.000000 0.000000 0.000000
vn 1.000000 0.000000 0.000000
vn 1.000000 0.000000 0.000000
vn 0.000000 0.000000 -1.000000
vn 0.000000 0.000000 -1.000000
vn 0.000000 0.000000 -1.000000
vn 0.000000 0.000000 -1.000000
vn -1.000000 0.000000 0.000000
vn -1.000000 0.000000 0.000000
vn -1.000000 0.000000 0.000000
vn -1.000000 0.000000 0.000000
vn 0.000000 0.000000 1.000000
vn 0.000000 0.000000 1.000000
vn 0.000000 0.000000 1.000000
vn 0.000000 0.000000 1.000000
vn -1.000000 0.000000 0.000000
vn -1.000000 0.000000 0.000000
vn -1.000000 0.000000 0.000000
vn -1.000000 0.000000 0.000000
vn 0.000000 0.000000 1.000000
vn 0.000000 0.000000 1.000000
vn 0.000000 0.000000 -1.000000
vn 0.000000 0.000000 -1.000000
vn 1.000000 0.000000 0.000000
vn 1.000000 0.000000 0.000000
vn 1.000000 0.000000 0.000000
vn 1.000000 0.000000 0.000000
vn 0.000000 0.000000 -1.000000
vn 0.000000 0.000000 -1.000000
vn 0.000000 0.000000 1.000000
vn 0.000000 0.000000 1.000000
vn 0.000000 -1.000000 0.000000
vn 0.000000 -1.000000 0.000000
vn 0.000000 -1.000000 0.000000
vn 0.000000 -1.000000 0.000000
vn 0.000000 -1.000000 0.000000
vn 0.000000 -1.000000 0.000000
vn 0.000000 -1.000000 0.000000
vn 0.000000 -1.000000 0.000000
vn 0.000000 0.000000 -1.000000
vn 0.000000 0.000000 -1.000000
vn 0.000000 1.000000 0.000000
vn 0.000000 1.000000 0.000000
vn 0.000000 0.000000 1.000000
vn 0.000000 0.000000 1.000000
vn 0.000000 -1.000000 0.000000
vn 0.000000 -1.000000 0.000000
vn 0.000000 -1.000000 0.000000
vn 0.000000 -1.000000 0.000000
vn 0.000000 0.000000 1.000000
vn 0.000000 0.000000 1.000000
vn 0.000000 1.000000 0.000000
vn 0.000000 1.000000 0.000000
vn 0.000000 0.000000 -1.000000
vn 0.000000 0.000000 -1.000000
s 1
g Rail_Block_Short
usemtl lambert4SG
f 20/89/1 17/90/2 21/91/3 24/92/4
s 2
f 18/101/5 19/102/6 23/103/7 22/104/8
f 11/106/9 10/105/10 3/109/11 8/110/12
s 1
f 1/97/13 9/94/14 12/93/15 5/98/16
f 24/92/4 21/91/3 13/95/17 14/96/18
s 2
f 15/107/19 16/108/20 22/104/8 23/103/7
s 1
f 14/96/18 13/95/17 2/99/21 6/100/22
s 2
f 16/108/20 15/107/19 7/111/23 4/112/24
f 19/102/6 18/101/5 10/105/10 11/106/9
s 1
f 12/93/15 9/94/14 17/90/2 20/89/1
s 3
f 26/1/25 25/2/26 28/3/27 27/4/28
s 4
usemtl lambert3SG
f 27/41/29 28/42/30 30/43/31 29/44/32
s 5
usemtl lambert2SG
f 50/65/33 49/66/34 51/67/35 52/68/36
s 4
usemtl lambert3SG
f 31/62/37 32/63/38 38/59/39 37/58/40
s 7
usemtl lambert4SG
f 32/9/41 31/10/42 34/11/43 33/12/44
s 4
usemtl lambert3SG
f 35/51/45 36/50/46 40/54/47 39/55/48
s 5
usemtl lambert2SG
f 54/73/49 53/74/50 55/72/51 56/71/52
s 4
usemtl lambert3SG
f 19/52/53 35/51/45 39/55/48 23/56/54
s 7
usemtl lambert4SG
f 32/9/41 33/12/44 4/15/55 7/16/56
s 3
f 3/7/57 26/1/25 27/4/28 8/8/58
f 28/3/27 25/2/26 1/5/59 5/6/60
s 4
usemtl lambert3SG
f 36/50/46 20/49/61 24/53/62 40/54/47
s 7
usemtl lambert4SG
f 2/13/63 34/11/43 31/10/42 6/14/64
s 4
usemtl lambert3SG
f 29/44/32 11/47/65 8/48/66 27/41/29
f 12/45/67 30/43/31 28/42/30 5/46/68
f 40/54/47 24/53/62 14/57/69 37/58/40
f 23/56/54 39/55/48 38/59/39 15/60/70
f 37/58/40 14/57/69 6/61/71 31/62/37
f 15/60/70 38/59/39 32/63/38 7/64/72
f 11/47/65 29/44/32 35/51/45 19/52/53
f 30/43/31 12/45/67 20/49/61 36/50/46
s off
usemtl lambert2SG
f 29/17/73 30/18/74 41/19/75 42/20/76
s 10
f 30/113/77 36/114/78 43/115/79 41/116/80
s off
f 36/21/81 35/22/82 44/23/83 43/24/84
s 11
f 35/129/85 29/130/86 42/131/87 44/132/88
s off
f 37/25/89 38/26/90 45/27/91 46/28/92
s 11
f 38/141/93 39/142/94 47/138/95 45/139/96
s off
f 39/29/97 40/30/98 48/31/99 47/32/100
s 10
f 40/125/101 37/126/102 46/123/103 48/119/104
s off
f 62/33/105 61/34/106 63/35/107 64/36/108
s 10
f 41/116/80 43/115/79 51/117/109 49/118/110
s 11
f 44/132/88 42/131/87 50/133/111 52/134/112
s off
f 58/37/113 57/38/114 59/39/115 60/40/116
s 11
f 45/139/96 47/138/95 55/137/117 53/140/118
s 10
f 48/119/104 46/123/103 54/124/119 56/120/120
s 11
f 44/132/88 52/134/112 55/137/117 47/138/95
s 5
f 52/68/36 51/67/35 56/71/52 55/72/51
s 10
f 51/117/109 43/115/79 48/119/104 56/120/120
s off
f 43/77/121 44/78/122 47/79/123 48/80/124
f 46/81/125 45/82/126 57/83/127 58/84/128
s 11
f 45/139/96 53/140/118 59/143/129 57/144/130
s 5
f 53/74/50 54/73/49 60/75/131 59/76/132
s 10
f 54/124/119 46/123/103 58/127/133 60/128/134
s off
f 42/85/135 41/86/136 61/87/137 62/88/138
s 10
f 41/116/80 49/118/110 63/121/139 61/122/140
s 5
f 49/66/34 50/65/33 64/69/141 63/70/142
s 11
f 50/133/111 42/131/87 62/135/143 64/136/144
