# This file uses centimeters as units for non-parametric coordinates.

mtllib Rail_Con.mtl
g default
v 154.000000 2.000000 47.499950
v 154.000000 2.000000 46.500050
v 154.000000 1.500000 46.500050
v 154.000000 1.500000 47.499950
v 164.000000 4.000000 47.499950
v 164.000000 4.000000 46.500050
v 164.000000 3.500000 46.500050
v 164.000000 3.500000 47.499950
v 159.000000 3.000000 46.500050
v 159.000000 3.000000 47.499950
v 159.000000 2.500000 47.499950
v 159.000000 2.500000 46.500050
v 156.000046 2.400010 46.500050
v 156.999954 2.599990 46.500050
v 156.999954 2.599990 47.499950
v 156.000046 2.400010 47.499950
v 156.999954 2.099990 47.499950
v 156.000046 1.900010 47.499950
v 156.999954 2.099990 46.500050
v 156.000046 1.900010 46.500050
v 161.000046 3.400010 46.500050
v 161.999954 3.599990 46.500050
v 161.999954 3.599990 47.499950
v 161.000046 3.400010 47.499950
v 161.999954 3.099990 47.499950
v 161.000046 2.900010 47.499950
v 161.999954 3.099990 46.500050
v 161.000046 2.900010 46.500050
v 156.000046 -0.000006 47.499950
v 156.999954 -0.000004 47.499950
v 156.000046 -0.000006 46.500050
v 156.999954 -0.000004 46.500050
v 161.000046 0.000004 47.499950
v 161.999954 0.000006 47.499950
v 161.000046 0.000004 46.500050
v 161.999954 0.000006 46.500050
vt 0.612701 0.989737
vt 0.530031 0.989737
vt 0.530031 0.832647
vt 0.612701 0.832647
vt 0.878548 0.510209
vt 0.795879 0.510209
vt 0.795879 0.336585
vt 0.878548 0.336585
vt 0.967162 0.501933
vt 0.884493 0.501933
vt 0.884493 0.262165
vt 0.967162 0.262165
vt 0.938488 0.258296
vt 0.855819 0.258296
vt 0.855819 0.001995
vt 0.938488 0.001995
vt 0.346857 0.832647
vt 0.346857 0.915316
vt 0.305520 0.915316
vt 0.305520 0.832647
vt 0.299571 0.832642
vt 0.299571 0.915311
vt 0.258233 0.915311
vt 0.258233 0.832642
vt 0.422868 0.580747
vt 0.422868 0.663416
vt 0.340199 0.663416
vt 0.340199 0.580747
vt 0.422868 0.828777
vt 0.340199 0.828777
vt 0.340199 0.415385
vt 0.422868 0.415385
vt 0.340199 0.250024
vt 0.422868 0.250024
vt 0.422868 0.167355
vt 0.340199 0.167355
vt 0.340199 0.001994
vt 0.422868 0.001994
vt 0.524085 0.832647
vt 0.524085 0.915317
vt 0.441415 0.915317
vt 0.441415 0.832647
vt 0.435470 0.915317
vt 0.352801 0.915317
vt 0.352801 0.832647
vt 0.435470 0.832647
vt 0.789931 0.998008
vt 0.707262 0.998008
vt 0.707262 0.832647
vt 0.789931 0.832647
vt 0.849718 0.332717
vt 0.767049 0.332717
vt 0.767049 0.167356
vt 0.849718 0.167356
vt 0.767049 0.001995
vt 0.849718 0.001995
vt 0.701317 0.998007
vt 0.618647 0.998007
vt 0.618647 0.832647
vt 0.701317 0.832647
vt 0.134215 0.663418
vt 0.117678 0.580744
vt 0.159021 0.580744
vt 0.175552 0.663418
vt 0.084610 0.415385
vt 0.125947 0.415385
vt 0.332643 0.580744
vt 0.332643 0.663418
vt 0.208626 0.828777
vt 0.167284 0.828777
vt 0.051536 0.250027
vt 0.092873 0.250027
vt 0.035004 0.167352
vt 0.076341 0.167352
vt 0.001930 0.001994
vt 0.043267 0.001994
vt 0.332643 0.167352
vt 0.332643 0.250027
vt 0.643933 0.580748
vt 0.627398 0.663417
vt 0.586059 0.663417
vt 0.602593 0.580748
vt 0.594326 0.828779
vt 0.552987 0.828779
vt 0.428969 0.663417
vt 0.428969 0.580748
vt 0.635665 0.415387
vt 0.677005 0.415387
vt 0.668738 0.250025
vt 0.710076 0.250025
vt 0.726611 0.167356
vt 0.685271 0.167356
vt 0.428969 0.250025
vt 0.428969 0.167356
vt 0.718344 0.001995
vt 0.759683 0.001995
vn -0.000001 0.000000 -1.000000
vn -0.000001 0.000000 -1.000000
vn 0.000002 0.000000 -1.000000
vn 0.000002 0.000000 -1.000000
vn -0.196116 0.980581 0.000000
vn -0.196115 0.980581 0.000000
vn -0.196115 0.980581 0.000000
vn -0.196116 0.980581 0.000000
vn 0.000001 0.000000 1.000000
vn 0.000001 0.000000 1.000000
vn 0.000000 0.000000 1.000000
vn 0.000001 0.000000 1.000000
vn 0.000002 -1.000000 0.000000
vn 0.000002 -1.000000 0.000000
vn 0.000002 -1.000000 0.000000
vn 0.000002 -1.000000 0.000000
vn -0.000001 0.000000 -1.000000
vn -0.000001 0.000000 -1.000000
vn 0.000003 0.000000 -1.000000
vn 0.000003 0.000000 -1.000000
vn -0.196115 0.980581 0.000000
vn -0.196115 0.980581 0.000000
vn -0.196115 0.980581 0.000000
vn -0.196115 0.980581 0.000000
vn -0.000001 0.000000 1.000000
vn -0.000001 0.000000 1.000000
vn -0.000004 0.000000 1.000000
vn -0.000004 0.000000 1.000000
vn 0.000002 -1.000000 0.000000
vn 0.000002 -1.000000 0.000000
vn 0.000002 -1.000000 0.000000
vn 0.000002 -1.000000 0.000000
vn -0.196116 0.980581 0.000000
vn -0.196116 0.980581 0.000000
vn 0.000000 0.000000 1.000000
vn 0.000000 0.000000 1.000000
vn 0.196116 -0.980581 0.000000
vn 0.196116 -0.980581 0.000000
vn 0.196116 -0.980581 0.000000
vn 0.196116 -0.980581 0.000000
vn -0.000002 0.000000 -1.000000
vn -0.000002 0.000000 -1.000000
vn -0.196117 0.980581 0.000000
vn -0.196117 0.980581 0.000000
vn 0.000000 0.000000 1.000000
vn 0.000000 0.000000 1.000000
vn 0.196117 -0.980581 0.000000
vn 0.196117 -0.980581 0.000000
vn 0.196117 -0.980581 0.000000
vn 0.196117 -0.980581 0.000000
vn -0.000002 0.000000 -1.000000
vn -0.000002 0.000000 -1.000000
vn -0.196116 0.980581 0.000000
vn -0.196116 0.980581 0.000000
vn 0.000000 0.000000 1.000000
vn 0.000000 0.000000 1.000000
vn 0.196116 -0.980581 0.000000
vn 0.196116 -0.980581 0.000000
vn 0.196116 -0.980581 0.000000
vn 0.196116 -0.980581 0.000000
vn -0.000002 0.000000 -1.000000
vn -0.000002 0.000000 -1.000000
vn 0.196116 -0.980581 0.000000
vn 0.196116 -0.980581 0.000000
vn 0.000000 0.000000 1.000000
vn 0.000000 0.000000 1.000000
vn -1.000000 0.000000 0.000000
vn -1.000000 0.000000 0.000000
vn -1.000000 0.000000 0.000000
vn -1.000000 0.000000 0.000000
vn 0.000004 0.000000 -1.000000
vn 0.000004 0.000000 -1.000000
vn 1.000000 0.000000 0.000000
vn 1.000000 0.000000 0.000000
vn 1.000000 0.000000 0.000000
vn 1.000000 0.000000 0.000000
vn -0.000005 0.000000 1.000000
vn -0.000005 0.000000 1.000000
vn -1.000000 0.000000 0.000000
vn -1.000000 0.000000 0.000000
vn -1.000000 0.000000 0.000000
vn -1.000000 0.000000 0.000000
vn 0.000005 0.000000 -1.000000
vn 0.000005 0.000000 -1.000000
vn 1.000000 0.000000 0.000000
vn 1.000000 0.000000 0.000000
vn 1.000000 0.000000 0.000000
vn 1.000000 0.000000 0.000000
vn 1.000000 0.000000 0.000000
vn 1.000000 0.000000 0.000000
vn 1.000000 0.000000 0.000000
vn 1.000000 0.000000 0.000000
vn -1.000000 0.000000 0.000000
vn -1.000000 0.000000 0.000000
vn -1.000000 0.000000 0.000000
vn -1.000000 0.000000 0.000000
s 1
g Rail_Con
usemtl lambert2SG
f 13/61/1 14/62/2 19/63/3 20/64/4
s 2
f 14/25/5 13/26/6 16/27/7 15/28/8
s 3
f 15/79/9 16/80/10 18/81/11 17/82/12
s off
f 30/39/13 29/40/14 31/41/15 32/42/16
s 1
f 21/71/17 22/73/18 27/74/19 28/72/20
s 2
f 22/35/21 21/34/22 24/33/23 23/36/24
s 3
f 23/91/25 24/90/26 26/89/27 25/92/28
s off
f 34/43/29 33/44/30 35/45/31 36/46/32
s 2
f 22/35/21 23/36/24 5/37/33 6/38/34
s 3
f 23/91/25 25/92/28 8/95/35 5/96/36
s off
f 25/47/37 27/48/38 7/49/39 8/50/40
s 1
f 27/74/19 22/73/18 6/75/41 7/76/42
s 2
f 14/25/5 15/28/8 10/31/43 9/32/44
s 3
f 15/79/9 17/82/12 11/87/45 10/88/46
s 7
f 17/51/47 19/52/48 12/53/49 11/54/50
s 1
f 19/63/3 14/62/2 9/65/51 12/66/52
s 2
f 2/29/53 1/30/54 16/27/7 13/26/6
s 3
f 1/83/55 4/84/56 18/81/11 16/80/10
s off
f 4/57/57 3/58/58 20/59/59 18/60/60
s 1
f 3/69/61 2/70/62 13/61/1 20/64/4
s 2
f 9/32/44 10/31/43 24/33/23 21/34/22
s 3
f 10/88/46 11/87/45 26/89/27 24/90/26
s 7
f 11/54/50 12/53/49 28/55/63 26/56/64
s 1
f 12/66/52 9/65/51 21/71/17 28/72/20
s 3
f 17/82/12 18/81/11 29/85/65 30/86/66
s off
f 18/1/67 20/2/68 31/3/69 29/4/70
s 1
f 20/64/4 19/63/3 32/67/71 31/68/72
s off
f 19/5/73 17/6/74 30/7/75 32/8/76
s 3
f 25/92/28 26/89/27 33/93/77 34/94/78
s off
f 26/9/79 28/10/80 35/11/81 33/12/82
s 1
f 28/72/20 27/74/19 36/77/83 35/78/84
s off
f 27/13/85 25/14/86 34/15/87 36/16/88
f 6/17/89 5/18/90 8/19/91 7/20/92
f 1/21/93 2/22/94 3/23/95 4/24/96
