# This file uses centimeters as units for non-parametric coordinates.

mtllib Rail_LRG_StairCon_LRG.mtl
g default
v 157.000000 4.000000 53.499950
v 157.000000 4.000000 52.500050
v 157.000000 3.500000 53.499950
v 157.000000 3.500000 52.500050
v 155.000000 4.500000 53.499950
v 155.000000 4.500000 52.500050
v 155.000000 5.000000 53.499950
v 155.000000 5.000000 52.500050
v 157.000000 0.000000 53.499950
v 157.000000 3.500000 53.499950
v 157.000000 4.000000 53.499950
v 157.000000 4.000000 52.500050
v 157.000000 3.500000 52.500050
v 157.000000 0.000000 52.500050
v 158.000000 0.000000 53.499950
v 158.000000 3.500000 53.499950
v 158.000000 4.000000 53.499950
v 158.000000 4.000000 52.500050
v 158.000000 3.500000 52.500050
v 158.000000 0.000000 52.500050
v 163.000000 0.000000 53.499950
v 163.000000 3.500000 53.499950
v 163.000000 4.000000 53.499950
v 163.000000 4.000000 52.500050
v 163.000000 3.500000 52.500050
v 163.000000 0.000000 52.500050
v 162.000000 0.000000 53.499950
v 162.000000 3.500000 53.499950
v 162.000000 4.000000 53.499950
v 162.000000 4.000000 52.500050
v 162.000000 3.500000 52.500050
v 162.000000 0.000000 52.500050
v 165.000000 3.500000 53.499950
v 165.000000 4.000000 53.499950
v 165.000000 3.500000 52.500050
v 165.000000 4.000000 52.500050
vt 0.021241 0.782329
vt 0.021241 0.696068
vt 0.064376 0.696068
vt 0.064376 0.782329
vt 0.045091 0.872514
vt 0.001959 0.872514
vt 0.001959 0.786255
vt 0.045091 0.786255
vt 0.895035 0.303932
vt 0.895035 0.001993
vt 0.981294 0.001993
vt 0.981294 0.303932
vt 0.889005 0.350990
vt 0.889005 0.652930
vt 0.802744 0.652930
vt 0.802744 0.350990
vt 0.710455 0.998008
vt 0.710455 0.696068
vt 0.796714 0.696068
vt 0.796714 0.998008
vt 0.704423 0.696068
vt 0.704423 0.998008
vt 0.618162 0.998008
vt 0.618162 0.696068
vt 0.525869 0.696068
vt 0.612129 0.696068
vt 0.612129 0.868605
vt 0.525869 0.868605
vt 0.298139 0.696067
vt 0.384398 0.696067
vt 0.384398 0.868603
vt 0.298139 0.868603
vt 0.441012 0.692141
vt 0.354753 0.692141
vt 0.354753 0.605871
vt 0.441012 0.605871
vt 0.354753 0.260798
vt 0.441012 0.260798
vt 0.354753 0.174528
vt 0.441012 0.174528
vt 0.354753 0.001991
vt 0.441012 0.001991
vt 0.138237 0.872528
vt 0.138237 0.958798
vt 0.051977 0.958798
vt 0.051977 0.872528
vt 0.145876 0.958798
vt 0.145876 0.872528
vt 0.232136 0.872528
vt 0.232136 0.958798
vt 0.887514 0.347066
vt 0.801254 0.347066
vt 0.801254 0.001993
vt 0.887514 0.001993
vt 0.156669 0.868604
vt 0.070409 0.868604
vt 0.070409 0.696067
vt 0.156669 0.696067
vt 0.390431 0.696069
vt 0.433566 0.696069
vt 0.519834 0.868605
vt 0.476700 0.868605
vt 0.248973 0.696069
vt 0.292105 0.696069
vt 0.205836 0.868603
vt 0.162703 0.868603
vt 0.303900 0.692142
vt 0.001960 0.692142
vt 0.001960 0.605872
vt 0.303900 0.605872
vt 0.347035 0.692142
vt 0.347035 0.605872
vt 0.303900 0.260799
vt 0.347035 0.260799
vt 0.303900 0.174529
vt 0.347035 0.174529
vt 0.001960 0.260799
vt 0.001960 0.174529
vt 0.303900 0.001993
vt 0.347035 0.001993
vt 0.448652 0.605871
vt 0.491784 0.605871
vt 0.491784 0.692146
vt 0.448652 0.692146
vt 0.448652 0.260803
vt 0.491784 0.260803
vt 0.793726 0.605871
vt 0.793726 0.692146
vt 0.448652 0.174528
vt 0.491784 0.174528
vt 0.448652 0.001994
vt 0.491784 0.001994
vt 0.793726 0.174528
vt 0.793726 0.260803
vn -1.000000 0.000000 0.000000
vn -1.000000 0.000000 0.000000
vn -1.000000 0.000000 0.000000
vn -1.000000 0.000000 0.000000
vn -0.447211 -0.894429 0.000000
vn -0.447211 -0.894429 0.000000
vn -0.447211 -0.894429 0.000000
vn -0.447211 -0.894429 0.000000
vn 0.000004 0.000000 1.000000
vn 0.000004 0.000000 1.000000
vn 0.000004 0.000000 1.000000
vn 0.000004 0.000000 1.000000
vn 0.447211 0.894429 0.000000
vn 0.447211 0.894429 0.000000
vn 0.447211 0.894429 0.000000
vn 0.447211 0.894429 0.000000
vn 0.000000 0.000000 -1.000000
vn 0.000000 0.000000 -1.000000
vn 0.000000 0.000000 -1.000000
vn 0.000000 0.000000 -1.000000
vn 0.000000 0.000000 1.000000
vn 0.000000 0.000000 1.000000
vn 0.000000 0.000000 1.000000
vn 0.000000 0.000000 1.000000
vn 0.000000 0.000000 1.000000
vn 0.000000 0.000000 1.000000
vn 0.000000 1.000000 0.000000
vn 0.000000 1.000000 0.000000
vn 0.000000 1.000000 0.000000
vn 0.000000 1.000000 0.000000
vn 0.000000 0.000000 -1.000000
vn 0.000000 0.000000 -1.000000
vn 0.000000 0.000000 -1.000000
vn 0.000000 0.000000 -1.000000
vn 0.000000 0.000000 -1.000000
vn 0.000000 0.000000 -1.000000
vn 0.000000 0.000000 1.000000
vn 0.000000 0.000000 1.000000
vn 0.000000 0.000000 1.000000
vn 0.000000 0.000000 1.000000
vn 0.000000 0.000000 1.000000
vn 0.000000 0.000000 1.000000
vn 0.000000 1.000000 0.000000
vn 0.000000 1.000000 0.000000
vn 0.000000 1.000000 0.000000
vn 0.000000 1.000000 0.000000
vn 0.000000 0.000000 -1.000000
vn 0.000000 0.000000 -1.000000
vn 0.000000 0.000000 -1.000000
vn 0.000000 0.000000 -1.000000
vn 0.000000 0.000000 -1.000000
vn 0.000000 0.000000 -1.000000
vn 1.000000 0.000000 0.000000
vn 1.000000 0.000000 0.000000
vn 1.000000 0.000000 0.000000
vn 1.000000 0.000000 0.000000
vn 1.000000 0.000000 0.000000
vn 1.000000 0.000000 0.000000
vn 1.000000 0.000000 0.000000
vn 1.000000 0.000000 0.000000
vn -1.000000 0.000000 0.000000
vn -1.000000 0.000000 0.000000
vn -1.000000 0.000000 0.000000
vn -1.000000 0.000000 0.000000
vn 0.000000 -1.000000 0.000000
vn 0.000000 -1.000000 0.000000
vn 0.000000 -1.000000 0.000000
vn 0.000000 -1.000000 0.000000
vn 1.000000 0.000000 0.000000
vn 1.000000 0.000000 0.000000
vn 1.000000 0.000000 0.000000
vn 1.000000 0.000000 0.000000
vn -1.000000 0.000000 0.000000
vn -1.000000 0.000000 0.000000
vn -1.000000 0.000000 0.000000
vn -1.000000 0.000000 0.000000
vn 0.000000 -1.000000 0.000000
vn 0.000000 -1.000000 0.000000
vn 0.000000 -1.000000 0.000000
vn 0.000000 -1.000000 0.000000
vn 0.000000 -1.000000 0.000000
vn 0.000000 -1.000000 0.000000
vn 0.000000 -1.000000 0.000000
vn 0.000000 -1.000000 0.000000
vn 0.000000 0.000000 1.000000
vn 0.000000 0.000000 1.000000
vn 0.000000 -1.000000 0.000000
vn 0.000000 -1.000000 0.000000
vn 0.000000 -1.000000 0.000000
vn 0.000000 -1.000000 0.000000
vn 0.000000 0.000000 -1.000000
vn 0.000000 0.000000 -1.000000
vn 0.000000 1.000000 0.000000
vn 0.000000 1.000000 0.000000
s off
g Rail_LRG_StairCon_LRG
usemtl lambert2SG
f 6/1/1 5/2/2 7/3/3 8/4/4
f 4/25/5 3/26/6 5/27/7 6/28/8
f 3/59/9 1/60/10 7/61/11 5/62/12
f 1/29/13 2/30/14 8/31/15 7/32/16
f 2/63/17 4/64/18 6/65/19 8/66/20
s 1
f 10/67/21 9/68/22 15/69/23 16/70/24
f 11/71/25 10/67/21 16/70/24 17/72/26
s 2
f 12/33/27 11/34/28 17/35/29 18/36/30
s 3
f 18/81/31 19/82/32 13/83/33 12/84/34
f 19/82/32 20/87/35 14/88/36 13/83/33
s 1
f 28/73/37 27/77/38 21/78/39 22/75/40
f 29/74/41 28/73/37 22/75/40 23/76/42
s 2
f 30/38/43 29/37/44 23/39/45 24/40/46
s 3
f 24/89/47 25/90/48 31/86/49 30/85/50
f 25/90/48 26/93/51 32/94/52 31/86/49
s off
f 34/5/53 33/6/54 35/7/55 36/8/56
f 22/9/57 21/10/58 26/11/59 25/12/60
f 27/13/61 28/14/62 31/15/63 32/16/64
f 21/43/65 27/44/66 32/45/67 26/46/68
f 16/17/69 15/18/70 20/19/71 19/20/72
f 9/21/73 10/22/74 13/23/75 14/24/76
f 14/47/77 20/48/78 15/49/79 9/50/80
s 1
f 17/72/26 16/70/24 28/73/37 29/74/41
s off
f 16/51/81 19/52/82 31/53/83 28/54/84
s 3
f 19/82/32 18/81/31 30/85/50 31/86/49
s 2
f 18/36/30 17/35/29 29/37/44 30/38/43
s 1
f 23/76/42 22/75/40 33/79/85 34/80/86
s off
f 22/55/87 25/56/88 35/57/89 33/58/90
s 3
f 25/90/48 24/89/47 36/91/91 35/92/92
s 2
f 24/40/46 23/39/45 34/41/93 36/42/94
