# This file uses centimeters as units for non-parametric coordinates.

mtllib Rail_SML_Con.mtl
g default
v 165.000000 2.000000 46.499950
v 165.000000 2.000000 45.500050
v 165.000000 1.500000 45.500050
v 165.000000 1.500000 46.499950
v 167.000061 2.400010 45.500050
v 167.999939 2.599990 45.500050
v 167.999939 2.599990 46.499950
v 167.000061 2.400010 46.499950
v 167.999939 2.099990 46.499950
v 167.000061 1.900010 46.499950
v 167.999939 2.099990 45.500050
v 167.000061 1.900010 45.500050
v 167.000061 -0.000006 46.499950
v 167.999939 -0.000004 46.499950
v 167.000061 -0.000006 45.500050
v 167.999939 -0.000004 45.500050
v 170.000000 3.000000 45.500050
v 170.000000 3.000000 46.499950
v 170.000000 2.500000 46.499950
v 170.000000 2.500000 45.500050
vt 0.586661 0.909718
vt 0.455681 0.909718
vt 0.455681 0.660829
vt 0.586661 0.660829
vt 0.998007 0.935914
vt 0.867028 0.935914
vt 0.867028 0.660828
vt 0.998007 0.660828
vt 0.312432 0.660830
vt 0.312432 0.791809
vt 0.246937 0.791809
vt 0.246937 0.660830
vt 0.240798 0.660830
vt 0.240798 0.791809
vt 0.175304 0.791809
vt 0.175304 0.660830
vt 0.532701 0.263864
vt 0.532701 0.394843
vt 0.401722 0.394843
vt 0.401722 0.263864
vt 0.532701 0.656838
vt 0.401722 0.656838
vt 0.401722 0.001870
vt 0.532701 0.001870
vt 0.449546 0.791811
vt 0.318567 0.791811
vt 0.318567 0.660831
vt 0.449546 0.660831
vt 0.860892 0.922824
vt 0.729912 0.922824
vt 0.729912 0.660829
vt 0.860892 0.660829
vt 0.723777 0.922824
vt 0.592797 0.922824
vt 0.592797 0.660829
vt 0.723777 0.660829
vt 0.080586 0.394835
vt 0.054386 0.263864
vt 0.119887 0.263864
vt 0.146080 0.394835
vt 0.001992 0.001866
vt 0.067486 0.001866
vt 0.394970 0.263864
vt 0.394970 0.394835
vt 0.198481 0.656834
vt 0.132980 0.656834
vt 0.880681 0.263862
vt 0.854485 0.394841
vt 0.788987 0.394841
vt 0.815184 0.263862
vt 0.802085 0.656836
vt 0.736590 0.656836
vt 0.540098 0.394841
vt 0.540098 0.263862
vt 0.867583 0.001868
vt 0.933080 0.001868
vn 0.000000 0.000000 -1.000000
vn 0.000000 0.000000 -1.000000
vn -0.000002 0.000000 -1.000000
vn -0.000002 0.000000 -1.000000
vn -0.196117 0.980581 0.000000
vn -0.196118 0.980580 0.000000
vn -0.196118 0.980580 0.000000
vn -0.196117 0.980581 0.000000
vn 0.000000 0.000000 1.000000
vn 0.000000 0.000000 1.000000
vn 0.000002 0.000000 1.000000
vn 0.000002 0.000000 1.000000
vn 0.000002 -1.000000 0.000000
vn 0.000002 -1.000000 0.000000
vn 0.000002 -1.000000 0.000000
vn 0.000002 -1.000000 0.000000
vn -0.196115 0.980581 0.000000
vn -0.196115 0.980581 0.000000
vn 0.000000 0.000000 1.000000
vn 0.000000 0.000000 1.000000
vn 0.196115 -0.980581 0.000000
vn 0.196115 -0.980581 0.000000
vn 0.196115 -0.980581 0.000000
vn 0.196115 -0.980581 0.000000
vn 0.000000 0.000000 -1.000000
vn 0.000000 0.000000 -1.000000
vn -0.196117 0.980581 0.000000
vn -0.196117 0.980581 0.000000
vn 0.000000 0.000000 1.000000
vn 0.000000 0.000000 1.000000
vn 0.196117 -0.980581 0.000000
vn 0.196117 -0.980581 0.000000
vn 0.196117 -0.980581 0.000000
vn 0.196117 -0.980581 0.000000
vn 0.000000 0.000000 -1.000000
vn 0.000000 0.000000 -1.000000
vn 0.000004 0.000000 1.000000
vn 0.000004 0.000000 1.000000
vn -1.000000 0.000000 0.000000
vn -1.000000 0.000000 0.000000
vn -1.000000 0.000000 0.000000
vn -1.000000 0.000000 0.000000
vn -0.000004 0.000000 -1.000000
vn -0.000004 0.000000 -1.000000
vn 1.000000 0.000000 0.000000
vn 1.000000 0.000000 0.000000
vn 1.000000 0.000000 0.000000
vn 1.000000 0.000000 0.000000
vn -1.000000 0.000000 0.000000
vn -1.000000 0.000000 0.000000
vn -1.000000 0.000000 0.000000
vn -1.000000 0.000000 0.000000
vn 1.000000 0.000000 0.000000
vn 1.000000 0.000000 0.000000
vn 1.000000 0.000000 0.000000
vn 1.000000 0.000000 0.000000
s 1
g Rail_SML_Con
usemtl lambert2SG
f 5/37/1 6/38/2 11/39/3 12/40/4
s 2
f 6/17/5 5/18/6 8/19/7 7/20/8
s 3
f 7/47/9 8/48/10 10/49/11 9/50/12
s off
f 14/25/13 13/26/14 15/27/15 16/28/16
s 2
f 6/17/5 7/20/8 18/23/17 17/24/18
s 3
f 7/47/9 9/50/12 19/55/19 18/56/20
s off
f 9/29/21 11/30/22 20/31/23 19/32/24
s 1
f 11/39/3 6/38/2 17/41/25 20/42/26
s 2
f 2/21/27 1/22/28 8/19/7 5/18/6
s 3
f 1/51/29 4/52/30 10/49/11 8/48/10
s off
f 4/33/31 3/34/32 12/35/33 10/36/34
s 1
f 3/45/35 2/46/36 5/37/1 12/40/4
s 3
f 9/50/12 10/49/11 13/53/37 14/54/38
s off
f 10/1/39 12/2/40 15/3/41 13/4/42
s 1
f 12/40/4 11/39/3 16/43/43 15/44/44
s off
f 11/5/45 9/6/46 14/7/47 16/8/48
f 1/9/49 2/10/50 3/11/51 4/12/52
f 17/13/53 18/14/54 19/15/55 20/16/56
