# This file uses centimeters as units for non-parametric coordinates.

mtllib Ramp_1.mtl
g default
v 11.000000 0.000000 25.000000
v 21.000000 0.000000 25.000000
v 11.000000 0.000000 15.000000
v 21.000000 0.000000 15.000000
v 21.000000 1.000000 25.000000
v 21.000000 1.000000 15.000000
vt 0.159199 0.751270
vt 0.084221 0.751270
vt 0.084221 0.001500
vt 0.159199 0.001500
vt 0.248238 0.751269
vt 0.248238 0.001499
vt 0.998008 0.001499
vt 0.998008 0.751269
vt 0.001992 0.751270
vt 0.001992 0.001500
vt 0.076970 0.001500
vt 0.241208 0.001503
vt 0.241208 0.751274
vt 0.166230 0.001503
vn 0.000000 0.000000 1.000000
vn 0.000000 0.000000 1.000000
vn 0.000000 0.000000 1.000000
vn 1.000000 0.000000 0.000000
vn 1.000000 0.000000 0.000000
vn 1.000000 0.000000 0.000000
vn 1.000000 0.000000 0.000000
vn 0.000000 0.000000 -1.000000
vn 0.000000 0.000000 -1.000000
vn 0.000000 0.000000 -1.000000
vn -0.099504 0.995037 0.000000
vn -0.099504 0.995037 0.000000
vn -0.099504 0.995037 0.000000
vn -0.099504 0.995037 0.000000
s off
g Ramp_1
usemtl lambert4SG
f 1/9/1 2/10/2 5/11/3
f 5/1/4 2/2/5 4/3/6 6/4/7
f 4/12/8 3/13/9 6/14/10
usemtl lambert3SG
f 3/5/11 1/6/12 5/7/13 6/8/14
