# This file uses centimeters as units for non-parametric coordinates.

mtllib Ramp_10.mtl
g default
v 0.000000 0.000000 102.000000
v 10.000000 0.000000 102.000000
v 0.000000 0.000000 92.000000
v 10.000000 0.000000 92.000000
v 10.000000 10.000000 102.000000
v 10.000000 10.000000 92.000000
vt 0.462140 0.455431
vt 0.462140 0.001822
vt 0.915749 0.001822
vt 0.915749 0.455431
vt 0.001992 0.001822
vt 0.455601 0.001822
vt 0.455601 0.455431
vt 0.998008 0.913031
vt 0.544399 0.913031
vt 0.998008 0.459423
vt 0.084656 0.459422
vt 0.538264 0.459422
vt 0.538264 0.913031
vt 0.084656 0.913031
vn 0.000000 0.000000 1.000000
vn 0.000000 0.000000 1.000000
vn 0.000000 0.000000 1.000000
vn 1.000000 0.000000 0.000000
vn 1.000000 0.000000 0.000000
vn 1.000000 0.000000 0.000000
vn 1.000000 0.000000 0.000000
vn 0.000000 0.000000 -1.000000
vn 0.000000 0.000000 -1.000000
vn 0.000000 0.000000 -1.000000
vn -0.707107 0.707107 0.000000
vn -0.707107 0.707107 0.000000
vn -0.707107 0.707107 0.000000
vn -0.707107 0.707107 0.000000
s off
g Ramp_10
usemtl lambert4SG
f 1/5/1 2/6/2 5/7/3
f 5/1/4 2/2/5 4/3/6 6/4/7
f 4/8/8 3/9/9 6/10/10
usemtl lambert3SG
f 3/11/11 1/12/12 5/13/13 6/14/14
