# This file uses centimeters as units for non-parametric coordinates.

mtllib Ramp_Half_10.mtl
g default
v 0.000000 0.000000 103.000000
v 10.000000 0.000000 103.000000
v 10.000000 10.000000 103.000000
v 10.000000 0.000025 108.000000
v 0.000000 -0.000017 108.000000
v 10.000000 10.000000 108.000000
vt 0.001850 0.498146
vt 0.001850 0.001993
vt 0.249927 0.001992
vt 0.249927 0.498146
vt 0.753375 0.498147
vt 0.257221 0.498147
vt 0.753375 0.001993
vt 0.673008 0.998008
vt 0.176854 0.501853
vt 0.673008 0.501855
vt 0.678705 0.501854
vt 0.926782 0.501853
vt 0.926782 0.998008
vt 0.678705 0.998008
vn 1.000000 0.000000 0.000000
vn 1.000000 0.000000 0.000000
vn 1.000000 0.000000 0.000000
vn 1.000000 0.000000 0.000000
vn 0.000000 0.000000 -1.000000
vn 0.000000 0.000000 -1.000000
vn 0.000000 0.000000 -1.000000
vn -0.707108 0.707106 0.000001
vn -0.707108 0.707106 0.000001
vn -0.707108 0.707106 0.000001
vn -0.707108 0.707106 0.000001
vn 0.000000 0.000000 1.000000
vn 0.000000 0.000000 1.000000
vn 0.000000 0.000000 1.000000
s off
g Ramp_Half_10
usemtl lambert4SG
f 6/1/1 4/2/2 2/3/3 3/4/4
f 2/5/5 1/6/6 3/7/7
usemtl lambert3SG
f 1/11/8 5/12/9 6/13/10 3/14/11
usemtl lambert4SG
f 6/8/12 5/9/13 4/10/14
