# This file uses centimeters as units for non-parametric coordinates.

mtllib Ramp_Half_2_Left.mtl
g default
v 44.000000 0.000000 33.000000
v 54.000000 0.000000 33.000000
v 54.000000 2.000000 33.000000
v 54.000000 0.000005 38.000000
v 44.000000 -0.000003 38.000000
v 54.000000 2.000000 38.000000
v 54.000000 0.000002 35.500000
v 54.000000 2.000000 35.500000
v 44.000000 -0.000002 35.500000
v 54.000000 0.000000 33.500000
v 54.000000 2.000000 33.500000
v 44.000000 -0.000000 33.500000
v 44.000000 -0.000003 37.500000
v 54.000000 2.000000 37.500000
v 54.000000 0.000005 37.500000
v 54.000000 1.500000 33.000000
v 54.000000 1.500000 33.500000
v 54.000000 1.500000 35.500000
v 54.000000 1.500001 37.500000
v 54.000000 1.500001 38.000000
v 45.000000 0.000000 33.000000
v 45.000000 -0.000002 38.000000
vt 0.820435 0.401321
vt 0.820435 0.223747
vt 0.953615 0.223747
vt 0.953615 0.401321
vt 0.820435 0.046172
vt 0.953615 0.046172
vt 0.998009 0.401321
vt 0.998009 0.223747
vt 0.820435 0.445716
vt 0.953615 0.445716
vt 0.820435 0.001778
vt 0.953615 0.001778
vt 0.998009 0.046172
vt 0.998009 0.445716
vt 0.998009 0.001778
vt 0.408164 0.001778
vt 0.408164 0.889654
vt 0.230589 0.889654
vt 0.230589 0.001778
vt 0.585738 0.889654
vt 0.585738 0.001778
vt 0.186195 0.889654
vt 0.186195 0.001778
vt 0.630133 0.889654
vt 0.630133 0.001778
vt 0.046389 0.001775
vt 0.179569 0.800862
vt 0.179569 0.889651
vt 0.001992 0.001775
vt 0.179569 0.001775
vt 0.636424 0.889654
vt 0.636424 0.800866
vt 0.769606 0.001778
vt 0.814000 0.001778
vt 0.636425 0.001778
vn 1.000000 0.000000 0.000000
vn 1.000000 0.000000 0.000000
vn 1.000000 0.000000 0.000000
vn 1.000000 0.000000 0.000000
vn 0.000000 0.000000 -1.000000
vn 0.000000 0.000000 -1.000000
vn 0.000000 0.000000 -1.000000
vn 0.000000 0.000000 -1.000000
vn -0.196116 0.980581 0.000000
vn -0.196116 0.980581 0.000000
vn -0.196116 0.980581 0.000000
vn -0.196116 0.980581 0.000000
vn 0.000000 0.000000 1.000000
vn 0.000000 0.000000 1.000000
vn 0.000000 0.000000 1.000000
vn 0.000000 0.000000 1.000000
vn 1.000000 0.000000 0.000000
vn 1.000000 0.000000 0.000000
vn -0.196116 0.980581 0.000000
vn -0.196116 0.980581 0.000000
vn 1.000000 0.000000 0.000000
vn 1.000000 0.000000 0.000000
vn -0.196116 0.980581 0.000000
vn -0.196116 0.980581 0.000000
vn -0.196118 0.980580 0.000001
vn -0.196118 0.980580 0.000001
vn 1.000000 0.000000 0.000000
vn 1.000000 0.000000 0.000000
vn 1.000000 0.000000 0.000000
vn 1.000000 0.000000 0.000000
vn 1.000000 0.000000 0.000000
vn 1.000000 0.000000 0.000000
vn 1.000000 0.000000 0.000000
vn 0.000000 0.000000 -1.000000
vn 0.000001 0.000000 1.000000
s 1
g Ramp_Half_2_Left
usemtl lambert4SG
f 15/1/1 7/2/2 18/3/3 19/4/4
s 2
usemtl lambert2SG
f 16/26/5 21/27/6 1/28/7 3/29/8
s 3
usemtl lambert3SG
f 8/16/9 9/17/10 13/18/11 14/19/12
s 4
usemtl lambert4SG
f 5/31/13 22/32/14 20/33/15 6/34/16
s 1
f 7/2/2 10/5/17 17/6/18 18/3/3
s 3
usemtl lambert3SG
f 12/20/19 9/17/10 8/16/9 11/21/20
s 1
usemtl lambert4SG
f 10/5/17 2/11/21 16/12/22 17/6/18
s 3
usemtl lambert2SG
f 1/24/23 12/20/19 11/21/20 3/25/24
usemtl lambert3SG
f 14/19/12 13/18/11 5/22/25 6/23/26
s 1
usemtl lambert4SG
f 4/9/27 15/1/1 19/4/4 20/10/28
f 17/6/18 16/12/22 3/15/29 11/13/30
f 8/8/31 18/3/3 17/6/18 11/13/30
f 14/7/32 19/4/4 18/3/3 8/8/31
f 6/14/33 20/10/28 19/4/4 14/7/32
s 2
f 16/26/5 2/30/34 21/27/6
s 4
f 20/33/15 22/32/14 4/35/35
