# This file uses centimeters as units for non-parametric coordinates.

mtllib Ramp_Half_5_Left.mtl
g default
v 44.000000 0.000000 69.000000
v 54.000000 0.000000 69.000000
v 54.000000 5.000000 69.000000
v 54.000000 0.000012 74.000000
v 44.000000 -0.000009 74.000000
v 54.000000 5.000000 74.000000
v 54.000000 4.499999 69.000000
v 54.000000 4.500001 74.000000
v 45.000000 0.000000 69.000000
v 45.000000 -0.000007 74.000000
v 54.000000 0.000006 71.500000
v 54.000000 4.500000 71.500000
v 54.000000 5.000000 71.500000
v 44.000000 -0.000004 71.500000
v 54.000000 0.000001 69.500000
v 54.000000 4.500000 69.500000
v 54.000000 5.000000 69.500000
v 44.000000 -0.000001 69.500000
v 44.000000 -0.000008 73.500000
v 54.000000 5.000000 73.500000
v 54.000000 4.500000 73.500000
v 54.000000 0.000011 73.500000
vt 0.845045 0.617686
vt 0.845045 0.893018
vt 0.722676 0.893018
vt 0.722676 0.617687
vt 0.845045 0.923611
vt 0.692083 0.617687
vt 0.692083 0.893018
vt 0.722676 0.923611
vt 0.967415 0.617686
vt 0.967415 0.893018
vt 0.692083 0.923611
vt 0.998008 0.617686
vt 0.998008 0.893018
vt 0.967415 0.923611
vt 0.998008 0.923611
vt 0.468931 0.001844
vt 0.468931 0.613694
vt 0.346561 0.613694
vt 0.346561 0.001844
vt 0.591300 0.001844
vt 0.591300 0.613694
vt 0.315968 0.613694
vt 0.315968 0.001844
vt 0.621893 0.613694
vt 0.621893 0.001844
vt 0.032583 0.001842
vt 0.307917 0.001842
vt 0.307917 0.552507
vt 0.307917 0.613692
vt 0.001992 0.001842
vt 0.905081 0.001844
vt 0.629749 0.552508
vt 0.629750 0.001844
vt 0.629749 0.613694
vt 0.935674 0.001844
vn 1.000000 0.000000 0.000000
vn 1.000000 0.000000 0.000000
vn 1.000000 0.000000 0.000000
vn 1.000000 0.000000 0.000000
vn 0.000000 0.000000 -1.000000
vn 0.000000 0.000000 -1.000000
vn 0.000000 0.000000 -1.000000
vn -0.447214 0.894427 0.000001
vn -0.447214 0.894427 0.000001
vn -0.447215 0.894427 0.000001
vn -0.447214 0.894427 0.000001
vn 0.000000 0.000000 1.000000
vn 0.000000 0.000000 1.000000
vn 0.000000 0.000000 1.000000
vn 1.000000 0.000000 0.000000
vn 1.000000 0.000000 0.000000
vn 0.000001 0.000000 -1.000000
vn 0.000001 0.000000 -1.000000
vn 0.000000 0.000000 1.000000
vn 0.000000 0.000000 1.000000
vn 1.000000 0.000000 0.000000
vn 1.000000 0.000000 0.000000
vn 1.000000 0.000000 0.000000
vn -0.447214 0.894427 0.000001
vn -0.447214 0.894427 0.000001
vn 1.000000 0.000000 0.000000
vn 1.000000 0.000000 0.000000
vn 1.000000 0.000000 0.000000
vn -0.447214 0.894427 0.000001
vn -0.447214 0.894427 0.000001
vn -0.447218 0.894425 0.000001
vn -0.447218 0.894425 0.000001
vn 1.000000 0.000000 0.000000
vn 1.000000 0.000000 0.000000
vn 1.000000 0.000000 0.000000
s 1
g Ramp_Half_5_Left
usemtl lambert4SG
f 22/4/1 11/1/2 12/2/3 21/3/4
s 2
f 7/26/5 2/27/6 9/28/7
s 3
usemtl lambert3SG
f 13/16/8 14/17/9 19/18/10 20/19/11
s 4
usemtl lambert4SG
f 8/31/12 10/32/13 4/33/14
s 1
f 12/2/3 13/5/15 20/8/16 21/3/4
s 2
usemtl lambert2SG
f 7/26/5 9/28/7 1/29/17 3/30/18
s 4
usemtl lambert4SG
f 5/34/19 10/32/13 8/31/12 6/35/20
s 1
f 12/2/3 11/1/2 15/9/21 16/10/22
f 13/5/15 12/2/3 16/10/22 17/14/23
s 3
usemtl lambert3SG
f 18/21/24 14/17/9 13/16/8 17/20/25
s 1
usemtl lambert4SG
f 16/10/22 15/9/21 2/12/26 7/13/27
f 17/14/23 16/10/22 7/13/27 3/15/28
s 3
usemtl lambert2SG
f 1/24/29 18/21/24 17/20/25 3/25/30
usemtl lambert3SG
f 20/19/11 19/18/10 5/22/31 6/23/32
s 1
usemtl lambert4SG
f 6/11/33 8/7/34 21/3/4 20/8/16
f 4/6/35 22/4/1 21/3/4 8/7/34
