# This file uses centimeters as units for non-parametric coordinates.

mtllib Ramp_Half_3.mtl
g default
v 22.000000 0.000000 45.000000
v 32.000000 0.000000 45.000000
v 32.000000 3.000000 45.000000
v 32.000000 0.000008 50.000000
v 22.000000 -0.000005 50.000000
v 32.000000 3.000000 50.000000
vt 0.926717 0.998008
vt 0.728255 0.998008
vt 0.728255 0.667239
vt 0.926717 0.667239
vt 0.537300 0.663532
vt 0.206531 0.663532
vt 0.206531 0.001994
vt 0.537300 0.001994
vt 0.200310 0.001992
vt 0.200310 0.663530
vt 0.001850 0.001992
vt 0.741602 0.001994
vt 0.543141 0.663532
vt 0.543142 0.001994
vn 1.000000 0.000000 0.000000
vn 1.000000 0.000000 0.000000
vn 1.000000 0.000000 0.000000
vn 1.000000 0.000000 0.000000
vn 0.000000 0.000000 -1.000000
vn 0.000000 0.000000 -1.000000
vn 0.000000 0.000000 -1.000000
vn -0.287348 0.957826 0.000001
vn -0.287348 0.957826 0.000001
vn -0.287348 0.957826 0.000001
vn -0.287348 0.957826 0.000001
vn 0.000000 0.000000 1.000000
vn 0.000000 0.000000 1.000000
vn 0.000000 0.000000 1.000000
s off
g Ramp_Half_3
usemtl lambert4SG
f 6/1/1 4/2/2 2/3/3 3/4/4
f 2/9/5 1/10/6 3/11/7
usemtl lambert3SG
f 1/5/8 5/6/9 6/7/10 3/8/11
usemtl lambert4SG
f 6/12/12 5/13/13 4/14/14
