# This file uses centimeters as units for non-parametric coordinates.

mtllib Ramp_Half_1.mtl
g default
v 22.000000 0.000000 21.000000
v 32.000000 0.000000 21.000000
v 32.000000 1.000000 21.000000
v 32.000000 0.000002 26.000000
v 22.000000 -0.000002 26.000000
v 32.000000 1.000000 26.000000
vt 0.817759 0.500001
vt 0.718157 0.500001
vt 0.718157 0.001995
vt 0.817759 0.001995
vt 0.605005 0.998007
vt 0.106999 0.998007
vt 0.106999 0.001994
vt 0.605005 0.001994
vt 0.101235 0.001991
vt 0.101235 0.998004
vt 0.001632 0.001991
vt 0.710761 0.001995
vt 0.611159 0.998008
vt 0.611160 0.001995
vn 1.000000 0.000000 0.000000
vn 1.000000 0.000000 0.000000
vn 1.000000 0.000000 0.000000
vn 1.000000 0.000000 0.000000
vn 0.000000 0.000000 -1.000000
vn 0.000000 0.000000 -1.000000
vn 0.000000 0.000000 -1.000000
vn -0.099504 0.995037 0.000000
vn -0.099504 0.995037 0.000000
vn -0.099504 0.995037 0.000000
vn -0.099504 0.995037 0.000000
vn 0.000000 0.000000 1.000000
vn 0.000000 0.000000 1.000000
vn 0.000000 0.000000 1.000000
s off
g Ramp_Half_1
usemtl lambert4SG
f 6/1/1 4/2/2 2/3/3 3/4/4
f 2/9/5 1/10/6 3/11/7
usemtl lambert3SG
f 1/5/8 5/6/9 6/7/10 3/8/11
usemtl lambert4SG
f 6/12/12 5/13/13 4/14/14
