# This file uses centimeters as units for non-parametric coordinates.

mtllib Ramp_5.mtl
g default
v 11.000000 0.000000 69.000000
v 21.000000 0.000000 69.000000
v 11.000000 0.000000 59.000000
v 21.000000 0.000000 59.000000
v 21.000000 5.000000 69.000000
v 21.000000 5.000000 59.000000
vt 0.505444 0.498119
vt 0.257381 0.498119
vt 0.257381 0.001992
vt 0.505444 0.001992
vt 0.444464 0.998008
vt 0.444464 0.501882
vt 0.940590 0.501882
vt 0.940590 0.998008
vt 0.001877 0.498119
vt 0.001877 0.001992
vt 0.249941 0.001992
vt 0.760762 0.001993
vt 0.760762 0.498119
vt 0.512698 0.001993
vn 0.000000 0.000000 1.000000
vn 0.000000 0.000000 1.000000
vn 0.000000 0.000000 1.000000
vn 1.000000 0.000000 0.000000
vn 1.000000 0.000000 0.000000
vn 1.000000 0.000000 0.000000
vn 1.000000 0.000000 0.000000
vn 0.000000 0.000000 -1.000000
vn 0.000000 0.000000 -1.000000
vn 0.000000 0.000000 -1.000000
vn -0.447214 0.894427 0.000000
vn -0.447214 0.894427 0.000000
vn -0.447214 0.894427 0.000000
vn -0.447214 0.894427 0.000000
s off
g Ramp_5
usemtl lambert4SG
f 1/9/1 2/10/2 5/11/3
f 5/1/4 2/2/5 4/3/6 6/4/7
f 4/12/8 3/13/9 6/14/10
usemtl lambert3SG
f 3/5/11 1/6/12 5/7/13 6/8/14
