# This file uses centimeters as units for non-parametric coordinates.

mtllib Ramp_Half_5.mtl
g default
v 22.000000 0.000000 69.000000
v 32.000000 0.000000 69.000000
v 32.000000 5.000000 69.000000
v 32.000000 0.000012 74.000000
v 22.000000 -0.000009 74.000000
v 32.000000 5.000000 74.000000
vt 0.692083 0.923611
vt 0.692083 0.617687
vt 0.998008 0.617686
vt 0.998008 0.923611
vt 0.621893 0.613694
vt 0.315968 0.613694
vt 0.315968 0.001844
vt 0.621893 0.001844
vt 0.307917 0.001842
vt 0.307917 0.613692
vt 0.001992 0.001842
vt 0.935674 0.001844
vt 0.629749 0.613694
vt 0.629750 0.001844
vn 1.000000 0.000000 0.000000
vn 1.000000 0.000000 0.000000
vn 1.000000 0.000000 0.000000
vn 1.000000 0.000000 0.000000
vn 0.000000 0.000000 -1.000000
vn 0.000000 0.000000 -1.000000
vn 0.000000 0.000000 -1.000000
vn -0.447214 0.894427 0.000001
vn -0.447214 0.894427 0.000001
vn -0.447214 0.894427 0.000001
vn -0.447214 0.894427 0.000001
vn 0.000000 0.000000 1.000000
vn 0.000000 0.000000 1.000000
vn 0.000000 0.000000 1.000000
s off
g Ramp_Half_5
usemtl lambert4SG
f 6/1/1 4/2/2 2/3/3 3/4/4
f 2/9/5 1/10/6 3/11/7
usemtl lambert3SG
f 1/5/8 5/6/9 6/7/10 3/8/11
usemtl lambert4SG
f 6/12/12 5/13/13 4/14/14
