# This file uses centimeters as units for non-parametric coordinates.

mtllib Ramp_6.mtl
g default
v 11.000000 0.000000 80.000000
v 21.000000 0.000000 80.000000
v 11.000000 0.000000 70.000000
v 21.000000 0.000000 70.000000
v 21.000000 6.000000 80.000000
v 21.000000 6.000000 70.000000
vt 0.603078 0.498128
vt 0.305397 0.498128
vt 0.305397 0.001992
vt 0.603078 0.001992
vt 0.001868 0.498128
vt 0.001868 0.001992
vt 0.299549 0.001992
vt 0.908252 0.001993
vt 0.908252 0.498129
vt 0.610570 0.001993
vt 0.638077 0.998008
vt 0.638077 0.501872
vt 0.935758 0.501872
vt 0.935758 0.998008
vn 0.000000 0.000000 1.000000
vn 0.000000 0.000000 1.000000
vn 0.000000 0.000000 1.000000
vn 1.000000 0.000000 0.000000
vn 1.000000 0.000000 0.000000
vn 1.000000 0.000000 0.000000
vn 1.000000 0.000000 0.000000
vn 0.000000 0.000000 -1.000000
vn 0.000000 0.000000 -1.000000
vn 0.000000 0.000000 -1.000000
vn -0.514496 0.857493 0.000000
vn -0.514496 0.857493 0.000000
vn -0.514496 0.857493 0.000000
vn -0.514496 0.857493 0.000000
s off
g Ramp_6
usemtl lambert4SG
f 1/5/1 2/6/2 5/7/3
f 5/1/4 2/2/5 4/3/6 6/4/7
f 4/8/8 3/9/9 6/10/10
usemtl lambert3SG
f 3/11/11 1/12/12 5/13/13 6/14/14
