# This file uses centimeters as units for non-parametric coordinates.

mtllib Ramp_3.mtl
g default
v 11.000000 0.000000 47.000000
v 21.000000 0.000000 47.000000
v 11.000000 0.000000 37.000000
v 21.000000 0.000000 37.000000
v 21.000000 3.000000 47.000000
v 21.000000 3.000000 37.000000
vt 0.305216 0.498185
vt 0.156359 0.498185
vt 0.156359 0.001993
vt 0.305216 0.001993
vt 0.412401 0.998007
vt 0.412401 0.501816
vt 0.908593 0.501816
vt 0.908593 0.998007
vt 0.001814 0.498185
vt 0.001814 0.001993
vt 0.150671 0.001993
vt 0.461357 0.001993
vt 0.461357 0.498185
vt 0.312501 0.001993
vn 0.000000 0.000000 1.000000
vn 0.000000 0.000000 1.000000
vn 0.000000 0.000000 1.000000
vn 1.000000 0.000000 0.000000
vn 1.000000 0.000000 0.000000
vn 1.000000 0.000000 0.000000
vn 1.000000 0.000000 0.000000
vn 0.000000 0.000000 -1.000000
vn 0.000000 0.000000 -1.000000
vn 0.000000 0.000000 -1.000000
vn -0.287348 0.957826 0.000000
vn -0.287348 0.957826 0.000000
vn -0.287348 0.957826 0.000000
vn -0.287348 0.957826 0.000000
s off
g Ramp_3
usemtl lambert4SG
f 1/9/1 2/10/2 5/11/3
f 5/1/4 2/2/5 4/3/6 6/4/7
f 4/12/8 3/13/9 6/14/10
usemtl lambert3SG
f 3/5/11 1/6/12 5/7/13 6/8/14
