# This file uses centimeters as units for non-parametric coordinates.

mtllib Stairs_Full.mtl
g default
v 121.000000 -0.000000 36.000000
v 123.000000 -0.000000 36.000000
v 125.000000 -0.000000 36.000000
v 127.000000 -0.000000 36.000000
v 129.000000 -0.000000 36.000000
v 131.000000 -0.000000 36.000000
v 121.000000 0.000000 31.000000
v 131.000000 0.000000 31.000000
v 121.000000 0.000000 26.000000
v 123.000000 0.000000 26.000000
v 125.000000 0.000000 26.000000
v 127.000000 0.000000 26.000000
v 129.000000 0.000000 26.000000
v 131.000000 0.000000 26.000000
v 121.000000 1.000000 36.000000
v 123.000000 1.000000 36.000000
v 125.000000 1.000000 36.000000
v 127.000000 1.000000 36.000000
v 129.000000 1.000000 36.000000
v 131.000000 1.000000 36.000000
v 121.000000 1.000000 31.000000
v 129.000000 1.000000 31.000000
v 131.000000 1.000000 31.000000
v 121.000000 1.000000 26.000000
v 123.000000 1.000000 26.000000
v 125.000000 1.000000 26.000000
v 127.000000 1.000000 26.000000
v 129.000000 1.000000 26.000000
v 131.000000 1.000000 26.000000
v 121.000000 2.000000 36.000000
v 123.000000 2.000000 36.000000
v 125.000000 2.000000 36.000000
v 127.000000 2.000000 36.000000
v 129.000000 2.000000 36.000000
v 121.000000 2.000000 31.000000
v 127.000000 2.000000 31.000000
v 129.000000 2.000000 31.000000
v 121.000000 2.000000 26.000000
v 123.000000 2.000000 26.000000
v 125.000000 2.000000 26.000000
v 127.000000 2.000000 26.000000
v 129.000000 2.000000 26.000000
v 121.000000 3.000000 36.000000
v 123.000000 3.000000 36.000000
v 125.000000 3.000000 36.000000
v 127.000000 3.000000 36.000000
v 121.000000 3.000000 31.000000
v 125.000000 3.000000 31.000000
v 127.000000 3.000000 31.000000
v 121.000000 3.000000 26.000000
v 123.000000 3.000000 26.000000
v 125.000000 3.000000 26.000000
v 127.000000 3.000000 26.000000
v 121.000000 3.999999 36.000000
v 123.000000 3.999999 36.000000
v 125.000000 3.999999 36.000000
v 121.000000 3.999999 31.000000
v 123.000000 3.999999 31.000000
v 125.000000 3.999999 31.000000
v 121.000000 3.999999 26.000000
v 123.000000 3.999999 26.000000
v 125.000000 3.999999 26.000000
v 121.000000 4.999999 36.000000
v 123.000000 4.999999 36.000000
v 121.000000 4.999999 31.000000
v 123.000000 4.999999 31.000000
v 121.000000 4.999999 26.000000
v 123.000000 4.999999 26.000000
vt 0.831696 0.498147
vt 0.782082 0.498147
vt 0.782082 0.250069
vt 0.831696 0.250069
vt 0.782082 0.001992
vt 0.831696 0.001992
vt 0.728320 0.749931
vt 0.678705 0.749931
vt 0.678705 0.501853
vt 0.728320 0.501853
vt 0.728320 0.998008
vt 0.678705 0.998008
vt 0.777936 0.749931
vt 0.777936 0.501853
vt 0.777936 0.998008
vt 0.827552 0.749931
vt 0.827552 0.501853
vt 0.827552 0.998008
vt 0.877167 0.749931
vt 0.877167 0.501853
vt 0.877167 0.998008
vt 0.926782 0.501853
vt 0.926782 0.749931
vt 0.926782 0.998008
vt 0.419233 0.998008
vt 0.369618 0.998008
vt 0.369618 0.749931
vt 0.419233 0.749931
vt 0.369618 0.501853
vt 0.419233 0.501853
vt 0.363922 0.998008
vt 0.314305 0.998008
vt 0.314305 0.749931
vt 0.363922 0.749931
vt 0.314305 0.501853
vt 0.363922 0.501853
vt 0.308607 0.998008
vt 0.258993 0.998008
vt 0.258993 0.749931
vt 0.308607 0.749931
vt 0.258993 0.501853
vt 0.308607 0.501853
vt 0.253295 0.998008
vt 0.203680 0.998008
vt 0.203680 0.749931
vt 0.253295 0.749931
vt 0.203680 0.501853
vt 0.253295 0.501853
vt 0.001850 0.250069
vt 0.001850 0.001991
vt 0.101081 0.001991
vt 0.101081 0.250069
vt 0.001850 0.498146
vt 0.101081 0.498146
vt 0.107003 0.250069
vt 0.107003 0.001991
vt 0.206234 0.001991
vt 0.206234 0.250069
vt 0.107003 0.498146
vt 0.206234 0.498146
vt 0.211975 0.250069
vt 0.211975 0.001991
vt 0.311205 0.001991
vt 0.311205 0.250069
vt 0.211975 0.498146
vt 0.311205 0.498146
vt 0.316946 0.250069
vt 0.316946 0.001991
vt 0.416178 0.001991
vt 0.416178 0.250069
vt 0.316946 0.498146
vt 0.416178 0.498146
vt 0.421918 0.250069
vt 0.421918 0.001991
vt 0.521149 0.001991
vt 0.521149 0.250069
vt 0.421918 0.498146
vt 0.521149 0.498146
vt 0.576506 0.498147
vt 0.526890 0.498147
vt 0.526890 0.398916
vt 0.576506 0.398916
vt 0.526890 0.299685
vt 0.576506 0.299685
vt 0.626121 0.498147
vt 0.626121 0.398916
vt 0.526890 0.200454
vt 0.576506 0.200454
vt 0.626121 0.299685
vt 0.675737 0.498147
vt 0.675737 0.398916
vt 0.526890 0.101223
vt 0.576506 0.101223
vt 0.626121 0.200454
vt 0.675737 0.299685
vt 0.725352 0.498147
vt 0.725352 0.398916
vt 0.526890 0.001992
vt 0.576506 0.001992
vt 0.626121 0.101223
vt 0.675737 0.200454
vt 0.725352 0.299685
vt 0.774968 0.498147
vt 0.774968 0.398916
vt 0.623391 0.898777
vt 0.673007 0.898777
vt 0.673007 0.998009
vt 0.623391 0.998009
vt 0.623391 0.799548
vt 0.673007 0.799548
vt 0.573775 0.898777
vt 0.573775 0.998009
vt 0.623391 0.700315
vt 0.673007 0.700315
vt 0.573775 0.799548
vt 0.524162 0.898777
vt 0.524162 0.998009
vt 0.623391 0.601086
vt 0.673007 0.601086
vt 0.573775 0.700315
vt 0.524162 0.799548
vt 0.474546 0.898777
vt 0.474546 0.998009
vt 0.623391 0.501854
vt 0.673007 0.501854
vt 0.573775 0.601086
vt 0.524162 0.700315
vt 0.474546 0.799548
vt 0.424930 0.998009
vt 0.424930 0.898777
vn 0.000000 1.000000 0.000000
vn 0.000000 1.000000 0.000000
vn 0.000000 1.000000 0.000000
vn 0.000000 1.000000 0.000000
vn 0.000000 1.000000 0.000000
vn 0.000000 1.000000 -0.000000
vn 0.000000 1.000000 -0.000000
vn 0.000000 1.000000 0.000000
vn 0.000000 1.000000 0.000000
vn 0.000000 1.000000 -0.000000
vn 0.000000 1.000000 -0.000000
vn 0.000000 1.000000 0.000000
vn 0.000000 1.000000 0.000000
vn 0.000000 1.000000 -0.000000
vn 0.000000 1.000000 -0.000000
vn 0.000000 1.000000 0.000000
vn -0.000000 1.000000 0.000000
vn -0.000000 1.000000 -0.000000
vn -0.000000 1.000000 -0.000000
vn -0.000000 1.000000 0.000000
vn 0.000000 1.000000 0.000000
vn 0.000000 1.000000 0.000000
vn 0.000000 1.000000 0.000000
vn 0.000000 1.000000 0.000000
vn 0.000000 1.000000 0.000000
vn 0.000000 1.000000 0.000000
vn 0.000000 1.000000 0.000000
vn 0.000000 1.000000 0.000000
vn -0.000000 1.000000 0.000000
vn -0.000000 1.000000 0.000000
vn 0.000000 0.000000 1.000000
vn 0.000000 0.000000 1.000000
vn 0.000000 0.000000 1.000000
vn 0.000000 0.000000 1.000000
vn 0.000000 0.000000 1.000000
vn 0.000000 0.000000 1.000000
vn 0.000000 0.000000 1.000000
vn 0.000000 0.000000 1.000000
vn 0.000000 0.000000 1.000000
vn 0.000000 0.000000 1.000000
vn 0.000000 0.000000 1.000000
vn 0.000000 0.000000 1.000000
vn 1.000000 0.000000 0.000000
vn 1.000000 0.000000 0.000000
vn 1.000000 0.000000 0.000000
vn 1.000000 0.000000 0.000000
vn -1.000000 0.000000 0.000000
vn -1.000000 0.000000 0.000000
vn -1.000000 0.000000 0.000000
vn -1.000000 0.000000 0.000000
vn 1.000000 0.000000 0.000000
vn 1.000000 0.000000 0.000000
vn -1.000000 0.000000 0.000000
vn -1.000000 0.000000 0.000000
vn 0.000000 0.000000 -1.000000
vn 0.000000 0.000000 -1.000000
vn 0.000000 0.000000 -1.000000
vn 0.000000 0.000000 -1.000000
vn 0.000000 0.000000 -1.000000
vn 0.000000 0.000000 -1.000000
vn 0.000000 0.000000 -1.000000
vn 0.000000 0.000000 -1.000000
vn 0.000000 0.000000 -1.000000
vn 0.000000 0.000000 -1.000000
vn 0.000000 0.000000 -1.000000
vn 0.000000 0.000000 -1.000000
vn 0.000000 0.000000 1.000000
vn 0.000000 0.000000 1.000000
vn 0.000000 0.000000 1.000000
vn 0.000000 0.000000 1.000000
vn 0.000000 0.000000 1.000000
vn 1.000000 0.000000 0.000000
vn 1.000000 0.000000 0.000000
vn 1.000000 0.000000 0.000000
vn 1.000000 0.000000 0.000000
vn -1.000000 0.000000 0.000000
vn -1.000000 0.000000 0.000000
vn 1.000000 0.000000 0.000000
vn 1.000000 0.000000 0.000000
vn -1.000000 0.000000 0.000000
vn 0.000000 0.000000 -1.000000
vn 0.000000 0.000000 -1.000000
vn 0.000000 0.000000 -1.000000
vn 0.000000 0.000000 -1.000000
vn 0.000000 0.000000 -1.000000
vn 0.000000 0.000000 1.000000
vn 0.000000 0.000000 1.000000
vn 0.000000 0.000000 1.000000
vn 0.000000 0.000000 1.000000
vn 1.000000 0.000000 0.000000
vn 1.000000 0.000000 0.000000
vn 1.000000 0.000000 0.000000
vn 1.000000 0.000000 0.000000
vn -1.000000 0.000000 0.000000
vn -1.000000 0.000000 0.000000
vn 1.000000 0.000000 0.000000
vn 1.000000 0.000000 0.000000
vn -1.000000 0.000000 0.000000
vn 0.000000 0.000000 -1.000000
vn 0.000000 0.000000 -1.000000
vn 0.000000 0.000000 -1.000000
vn 0.000000 0.000000 -1.000000
vn 0.000000 0.000000 1.000000
vn 0.000000 0.000000 1.000000
vn 0.000000 0.000000 1.000000
vn 1.000000 0.000000 0.000000
vn 1.000000 0.000000 0.000000
vn 1.000000 0.000000 0.000000
vn 1.000000 0.000000 0.000000
vn -1.000000 0.000000 0.000000
vn -1.000000 0.000000 0.000000
vn 1.000000 0.000000 0.000000
vn 1.000000 0.000000 0.000000
vn -1.000000 0.000000 0.000000
vn 0.000000 0.000000 -1.000000
vn 0.000000 0.000000 -1.000000
vn 0.000000 0.000000 -1.000000
vn 0.000000 0.000000 1.000000
vn 0.000000 0.000000 1.000000
vn 1.000000 0.000000 0.000000
vn 1.000000 0.000000 0.000000
vn 1.000000 0.000000 0.000000
vn 1.000000 0.000000 0.000000
vn -1.000000 0.000000 0.000000
vn -1.000000 0.000000 0.000000
vn 1.000000 0.000000 0.000000
vn 1.000000 0.000000 0.000000
vn -1.000000 0.000000 0.000000
vn 0.000000 0.000000 -1.000000
vn 0.000000 0.000000 -1.000000
s 1
g Stairs_Full
usemtl lambert3SG
f 65/49/1 63/50/2 64/51/3 66/52/4
s 2
f 58/55/5 55/56/6 56/57/7 59/58/8
s 3
f 48/61/9 45/62/10 46/63/11 49/64/12
s 4
f 36/67/13 33/68/14 34/69/15 37/70/16
s 5
f 22/73/17 19/74/18 20/75/19 23/76/20
s 1
f 67/53/21 65/49/1 66/52/4 68/54/22
s 2
f 61/59/23 58/55/5 59/58/8 62/60/24
s 3
f 52/65/25 48/61/9 49/64/12 53/66/26
s 4
f 41/71/27 36/67/13 37/70/16 42/72/28
s 5
f 28/77/29 22/73/17 23/76/20 29/78/30
s 6
usemtl lambert4SG
f 15/79/31 1/80/32 2/81/33 16/82/34
f 16/82/34 2/81/33 3/83/35 17/84/36
f 17/84/36 3/83/35 4/87/37 18/88/38
f 18/88/38 4/87/37 5/92/39 19/93/40
f 19/93/40 5/92/39 6/98/41 20/99/42
s 7
f 20/1/43 6/2/44 8/3/45 23/4/46
s 8
f 21/7/47 7/8/48 1/9/49 15/10/50
s 7
f 23/4/46 8/3/45 14/5/51 29/6/52
s 8
f 24/11/53 9/12/54 7/8/48 21/7/47
s 9
f 25/105/55 10/106/56 9/107/57 24/108/58
f 26/109/59 11/110/60 10/106/56 25/105/55
f 27/113/61 12/114/62 11/110/60 26/109/59
f 28/118/63 13/119/64 12/114/62 27/113/61
f 28/118/63 29/124/65 14/125/66 13/119/64
s 6
f 30/85/67 15/79/31 16/82/34 31/86/68
f 31/86/68 16/82/34 17/84/36 32/89/69
f 32/89/69 17/84/36 18/88/38 33/94/70
f 33/94/70 18/88/38 19/93/40 34/100/71
s 10
f 34/25/72 19/26/73 22/27/74 37/28/75
s 8
f 35/13/76 21/7/47 15/10/50 30/14/77
s 10
f 37/28/75 22/27/74 28/29/78 42/30/79
s 8
f 38/15/80 24/11/53 21/7/47 35/13/76
s 9
f 39/111/81 25/105/55 24/108/58 38/112/82
f 40/115/83 26/109/59 25/105/55 39/111/81
f 41/120/84 27/113/61 26/109/59 40/115/83
f 41/120/84 42/126/85 28/118/63 27/113/61
s 6
f 43/90/86 30/85/67 31/86/68 44/91/87
f 44/91/87 31/86/68 32/89/69 45/95/88
f 45/95/88 32/89/69 33/94/70 46/101/89
s 11
f 46/31/90 33/32/91 36/33/92 49/34/93
s 8
f 47/16/94 35/13/76 30/14/77 43/17/95
s 11
f 49/34/93 36/33/92 41/35/96 53/36/97
s 8
f 50/18/98 38/15/80 35/13/76 47/16/94
s 9
f 51/116/99 39/111/81 38/112/82 50/117/100
f 52/121/101 40/115/83 39/111/81 51/116/99
f 52/121/101 53/127/102 41/120/84 40/115/83
s 6
f 54/96/103 43/90/86 44/91/87 55/97/104
f 55/97/104 44/91/87 45/95/88 56/102/105
s 12
f 56/37/106 45/38/107 48/39/108 59/40/109
s 8
f 57/19/110 47/16/94 43/17/95 54/20/111
s 12
f 59/40/109 48/39/108 52/41/112 62/42/113
s 8
f 60/21/114 50/18/98 47/16/94 57/19/110
s 9
f 61/122/115 51/116/99 50/117/100 60/123/116
f 61/122/115 62/128/117 52/121/101 51/116/99
s 6
f 63/103/118 54/96/103 55/97/104 64/104/119
s 13
f 64/43/120 55/44/121 58/45/122 66/46/123
s 8
f 63/22/124 65/23/125 57/19/110 54/20/111
s 13
f 66/46/123 58/45/122 61/47/126 68/48/127
s 8
f 65/23/125 67/24/128 60/21/114 57/19/110
s 9
f 67/129/129 68/130/130 61/122/115 60/123/116
