# Created by Kenney (www.kenney.nl)

mtllib structure-platform.mtl

g structure-platform

v 0.5 0.7 0 1 1 1
v -0.5 0.7 0 1 1 1
v 0.5 0.8 0 1 1 1
v -0.5 0.8 0 1 1 1
v 0.5 0.8 -0.5 1 1 1
v -0.5 0.8 -0.5 1 1 1
v 0.5 0.7 -0.5 1 1 1
v -0.5 0.7 -0.5 1 1 1
v 0.5 -4.284233E-17 -0.5 1 1 1
v 0.5 0.7 -0.4 1 1 1
v 0.5 -4.284233E-17 -0.4 1 1 1
v 0.4 -4.284233E-17 -0.5 1 1 1
v 0.4 0.7 -0.5 1 1 1
v 0.4 -4.284233E-17 -0.4 1 1 1
v 0.4 0.7 -0.4 1 1 1
v -0.4 -4.284233E-17 -0.4 1 1 1
v -0.4 -4.284233E-17 -0.5 1 1 1
v -0.5 -4.284233E-17 -0.4 1 1 1
v -0.5 -4.284233E-17 -0.5 1 1 1
v -0.4 0.7 -0.4 1 1 1
v -0.5 0.7 -0.4 1 1 1
v -0.4 0.7 -0.5 1 1 1
v 0.4 0.45 -0.425 1 1 1
v 0.4 0.45 -0.475 1 1 1
v -0.4 0.45 -0.425 1 1 1
v -0.4 0.45 -0.475 1 1 1
v -0.4 0.5 -0.475 1 1 1
v 0.4 0.5 -0.475 1 1 1
v -0.4 0.5 -0.425 1 1 1
v 0.4 0.5 -0.425 1 1 1
v -0.425 0.5 0 1 1 1
v -0.475 0.5 0 1 1 1
v -0.425 0.5 -0.4 1 1 1
v -0.475 0.5 -0.4 1 1 1
v 0.475 0.45 -0.4 1 1 1
v 0.475 0.45 0 1 1 1
v 0.475 0.5 -0.4 1 1 1
v 0.475 0.5 0 1 1 1
v -0.425 0.45 0 1 1 1
v -0.425 0.45 -0.4 1 1 1
v -0.475 0.45 0 1 1 1
v -0.475 0.45 -0.4 1 1 1
v 0.425 0.45 0 1 1 1
v 0.425 0.45 -0.4 1 1 1
v 0.425 0.5 -0.4 1 1 1
v 0.425 0.5 0 1 1 1
v 0.425 0.2136039 -0.4 1 1 1
v 0.425 0.2843146 -0.4 1 1 1
v 0.425 0.45 -0.1636039 1 1 1
v 0.425 0.45 -0.2343146 1 1 1
v 0.475 0.2136039 -0.4 1 1 1
v 0.475 0.45 -0.1636039 1 1 1
v 0.475 0.2843146 -0.4 1 1 1
v 0.475 0.45 -0.2343146 1 1 1
v 0.2343146 0.45 -0.475 1 1 1
v 0.4 0.2843146 -0.475 1 1 1
v 0.2343146 0.45 -0.425 1 1 1
v 0.4 0.2843146 -0.425 1 1 1
v 0.1636039 0.45 -0.475 1 1 1
v 0.1636039 0.45 -0.425 1 1 1
v 0.4 0.2136039 -0.475 1 1 1
v 0.4 0.2136039 -0.425 1 1 1
v -0.4 0.2136039 -0.475 1 1 1
v -0.1636039 0.45 -0.475 1 1 1
v -0.4 0.2843146 -0.475 1 1 1
v -0.2343146 0.45 -0.475 1 1 1
v -0.4 0.2136039 -0.425 1 1 1
v -0.4 0.2843146 -0.425 1 1 1
v -0.1636039 0.45 -0.425 1 1 1
v -0.2343146 0.45 -0.425 1 1 1
v -0.425 0.2843146 -0.4 1 1 1
v -0.425 0.2136039 -0.4 1 1 1
v -0.425 0.45 -0.2343146 1 1 1
v -0.425 0.45 -0.1636039 1 1 1
v -0.475 0.2843146 -0.4 1 1 1
v -0.475 0.45 -0.2343146 1 1 1
v -0.475 0.2136039 -0.4 1 1 1
v -0.475 0.45 -0.1636039 1 1 1

vn 0 0 1
vn 0 0 -1
vn 0 1 0
vn 0 -1 0
vn 1 0 0
vn -1 0 0
vn 0 -0.7071067 0.7071068
vn 0 0.7071067 -0.7071068
vn 0.7071068 0.7071067 0
vn -0.7071068 -0.7071067 0
vn 0.7071068 -0.7071067 0
vn -0.7071068 0.7071067 0

vt 0.59375 0.025
vt 0.59375 0.225
vt 0.59375 0.075
vt 0.59375 0.175
vt 0.59375 0.07500005
vt 0.59375 0.175
vt 0.59375 0.145088

usemtl colormap

f 3/2/1 2/1/1 1/1/1
f 2/1/1 3/2/1 4/2/1
f 1/1/2 2/1/2 3/2/2
f 4/2/2 3/2/2 2/1/2
f 6/2/3 3/2/3 5/2/3
f 3/2/3 6/2/3 4/2/3
f 5/2/4 3/2/4 6/2/4
f 4/2/4 6/2/4 3/2/4
f 3/2/5 7/1/5 5/2/5
f 7/1/5 3/2/5 1/1/5
f 5/2/6 7/1/6 3/2/6
f 1/1/6 3/2/6 7/1/6
f 1/1/4 8/1/4 7/1/4
f 8/1/4 1/1/4 2/1/4
f 7/1/3 8/1/3 1/1/3
f 2/1/3 1/1/3 8/1/3
f 6/2/2 7/1/2 8/1/2
f 7/1/2 6/2/2 5/2/2
f 8/1/1 7/1/1 6/2/1
f 5/2/1 6/2/1 7/1/1
f 8/1/6 4/2/6 6/2/6
f 4/2/6 8/1/6 2/1/6
f 6/2/5 4/2/5 8/1/5
f 2/1/5 8/1/5 4/2/5
f 10/3/5 9/4/5 7/3/5
f 9/4/5 10/3/5 11/4/5
f 14/4/6 13/3/6 12/4/6
f 13/3/6 14/4/6 15/3/6
f 10/3/1 14/4/1 11/4/1
f 14/4/1 10/3/1 15/3/1
f 14/4/4 9/4/4 11/4/4
f 9/4/4 14/4/4 12/4/4
f 13/3/2 9/4/2 12/4/2
f 9/4/2 13/3/2 7/3/2
f 7/3/3 15/3/3 10/3/3
f 15/3/3 7/3/3 13/3/3
f 18/4/4 17/4/4 16/4/4
f 17/4/4 18/4/4 19/4/4
f 22/3/3 21/3/3 20/3/3
f 21/3/3 22/3/3 8/3/3
f 20/3/1 18/4/1 16/4/1
f 18/4/1 20/3/1 21/3/1
f 18/4/6 8/3/6 19/4/6
f 8/3/6 18/4/6 21/3/6
f 20/3/5 17/4/5 22/3/5
f 17/4/5 20/3/5 16/4/5
f 8/3/2 17/4/2 19/4/2
f 17/4/2 8/3/2 22/3/2
f 25/3/4 24/5/4 23/5/4
f 24/5/4 25/3/4 26/3/4
f 27/6/2 24/5/2 26/3/2
f 24/5/2 27/6/2 28/4/2
f 23/5/1 29/6/1 25/3/1
f 29/6/1 23/5/1 30/4/1
f 28/4/3 29/6/3 30/4/3
f 29/6/3 28/4/3 27/6/3
f 33/4/3 32/6/3 31/6/3
f 32/6/3 33/4/3 34/4/3
f 37/4/5 36/3/5 35/5/5
f 36/3/5 37/4/5 38/6/5
f 41/3/4 40/5/4 39/3/4
f 40/5/4 41/3/4 42/5/4
f 43/3/4 35/5/4 36/3/4
f 35/5/4 43/3/4 44/5/4
f 41/3/6 34/4/6 42/5/6
f 34/4/6 41/3/6 32/6/6
f 33/4/5 39/3/5 40/5/5
f 39/3/5 33/4/5 31/6/5
f 43/3/6 45/4/6 44/5/6
f 45/4/6 43/3/6 46/6/6
f 37/4/3 46/6/3 38/6/3
f 46/6/3 37/4/3 45/4/3
f 31/6/1 41/3/1 39/3/1
f 41/3/1 31/6/1 32/6/1
f 38/6/1 43/3/1 36/3/1
f 43/3/1 38/6/1 46/6/1
f 49/3/6 48/7/6 47/4/6
f 48/7/6 49/3/6 50/3/6
f 51/4/7 49/3/7 47/4/7
f 49/3/7 51/4/7 52/3/7
f 54/3/5 51/4/5 53/7/5
f 51/4/5 54/3/5 52/3/5
f 48/7/8 54/3/8 53/7/8
f 54/3/8 48/7/8 50/3/8
f 57/3/9 56/7/9 55/3/9
f 56/7/9 57/3/9 58/7/9
f 61/4/10 60/3/10 59/3/10
f 60/3/10 61/4/10 62/4/10
f 59/3/2 56/7/2 61/4/2
f 56/7/2 59/3/2 55/3/2
f 58/7/1 60/3/1 62/4/1
f 60/3/1 58/7/1 57/3/1
f 65/7/2 64/3/2 63/4/2
f 64/3/2 65/7/2 66/3/2
f 69/3/1 68/7/1 67/4/1
f 68/7/1 69/3/1 70/3/1
f 64/3/11 67/4/11 63/4/11
f 67/4/11 64/3/11 69/3/11
f 68/7/12 66/3/12 65/7/12
f 66/3/12 68/7/12 70/3/12
f 73/3/5 72/4/5 71/7/5
f 72/4/5 73/3/5 74/3/5
f 75/7/8 73/3/8 71/7/8
f 73/3/8 75/7/8 76/3/8
f 72/4/7 78/3/7 77/4/7
f 78/3/7 72/4/7 74/3/7
f 78/3/6 75/7/6 77/4/6
f 75/7/6 78/3/6 76/3/6

g structure-platform




usemtl colormap

f 3/2/1 2/1/1 1/1/1
f 2/1/1 3/2/1 4/2/1
f 1/1/2 2/1/2 3/2/2
f 4/2/2 3/2/2 2/1/2
f 6/2/3 3/2/3 5/2/3
f 3/2/3 6/2/3 4/2/3
f 5/2/4 3/2/4 6/2/4
f 4/2/4 6/2/4 3/2/4
f 3/2/5 7/1/5 5/2/5
f 7/1/5 3/2/5 1/1/5
f 5/2/6 7/1/6 3/2/6
f 1/1/6 3/2/6 7/1/6
f 1/1/4 8/1/4 7/1/4
f 8/1/4 1/1/4 2/1/4
f 7/1/3 8/1/3 1/1/3
f 2/1/3 1/1/3 8/1/3
f 6/2/2 7/1/2 8/1/2
f 7/1/2 6/2/2 5/2/2
f 8/1/1 7/1/1 6/2/1
f 5/2/1 6/2/1 7/1/1
f 8/1/6 4/2/6 6/2/6
f 4/2/6 8/1/6 2/1/6
f 6/2/5 4/2/5 8/1/5
f 2/1/5 8/1/5 4/2/5
f 10/3/5 9/4/5 7/3/5
f 9/4/5 10/3/5 11/4/5
f 14/4/6 13/3/6 12/4/6
f 13/3/6 14/4/6 15/3/6
f 10/3/1 14/4/1 11/4/1
f 14/4/1 10/3/1 15/3/1
f 14/4/4 9/4/4 11/4/4
f 9/4/4 14/4/4 12/4/4
f 13/3/2 9/4/2 12/4/2
f 9/4/2 13/3/2 7/3/2
f 7/3/3 15/3/3 10/3/3
f 15/3/3 7/3/3 13/3/3
f 18/4/4 17/4/4 16/4/4
f 17/4/4 18/4/4 19/4/4
f 22/3/3 21/3/3 20/3/3
f 21/3/3 22/3/3 8/3/3
f 20/3/1 18/4/1 16/4/1
f 18/4/1 20/3/1 21/3/1
f 18/4/6 8/3/6 19/4/6
f 8/3/6 18/4/6 21/3/6
f 20/3/5 17/4/5 22/3/5
f 17/4/5 20/3/5 16/4/5
f 8/3/2 17/4/2 19/4/2
f 17/4/2 8/3/2 22/3/2
f 25/3/4 24/5/4 23/5/4
f 24/5/4 25/3/4 26/3/4
f 27/6/2 24/5/2 26/3/2
f 24/5/2 27/6/2 28/4/2
f 23/5/1 29/6/1 25/3/1
f 29/6/1 23/5/1 30/4/1
f 28/4/3 29/6/3 30/4/3
f 29/6/3 28/4/3 27/6/3
f 33/4/3 32/6/3 31/6/3
f 32/6/3 33/4/3 34/4/3
f 37/4/5 36/3/5 35/5/5
f 36/3/5 37/4/5 38/6/5
f 41/3/4 40/5/4 39/3/4
f 40/5/4 41/3/4 42/5/4
f 43/3/4 35/5/4 36/3/4
f 35/5/4 43/3/4 44/5/4
f 41/3/6 34/4/6 42/5/6
f 34/4/6 41/3/6 32/6/6
f 33/4/5 39/3/5 40/5/5
f 39/3/5 33/4/5 31/6/5
f 43/3/6 45/4/6 44/5/6
f 45/4/6 43/3/6 46/6/6
f 37/4/3 46/6/3 38/6/3
f 46/6/3 37/4/3 45/4/3
f 31/6/1 41/3/1 39/3/1
f 41/3/1 31/6/1 32/6/1
f 38/6/1 43/3/1 36/3/1
f 43/3/1 38/6/1 46/6/1
f 49/3/6 48/7/6 47/4/6
f 48/7/6 49/3/6 50/3/6
f 51/4/7 49/3/7 47/4/7
f 49/3/7 51/4/7 52/3/7
f 54/3/5 51/4/5 53/7/5
f 51/4/5 54/3/5 52/3/5
f 48/7/8 54/3/8 53/7/8
f 54/3/8 48/7/8 50/3/8
f 57/3/9 56/7/9 55/3/9
f 56/7/9 57/3/9 58/7/9
f 61/4/10 60/3/10 59/3/10
f 60/3/10 61/4/10 62/4/10
f 59/3/2 56/7/2 61/4/2
f 56/7/2 59/3/2 55/3/2
f 58/7/1 60/3/1 62/4/1
f 60/3/1 58/7/1 57/3/1
f 65/7/2 64/3/2 63/4/2
f 64/3/2 65/7/2 66/3/2
f 69/3/1 68/7/1 67/4/1
f 68/7/1 69/3/1 70/3/1
f 64/3/11 67/4/11 63/4/11
f 67/4/11 64/3/11 69/3/11
f 68/7/12 66/3/12 65/7/12
f 66/3/12 68/7/12 70/3/12
f 73/3/5 72/4/5 71/7/5
f 72/4/5 73/3/5 74/3/5
f 75/7/8 73/3/8 71/7/8
f 73/3/8 75/7/8 76/3/8
f 72/4/7 78/3/7 77/4/7
f 78/3/7 72/4/7 74/3/7
f 78/3/6 75/7/6 77/4/6
f 75/7/6 78/3/6 76/3/6

