# Created by Kenney (www.kenney.nl)

mtllib bowl-corner-inner.mtl

g bowl-corner-inner

v 0.2964724 0.6964723 -0.2595754 1 1 1
v 0.1068148 0.6964723 -0.1810167 1 1 1
v 0.2929448 0.8 -0.2727407 1 1 1
v 0.1 0.8 -0.1928203 1 1 1
v -0.2727407 0.8 0.2929448 1 1 1
v -0.2595754 0.6964723 0.2964724 1 1 1
v -0.3 0.8 0.5 1 1 1
v -0.2863703 0.6964723 0.5 1 1 1
v -0.05604779 0.6964723 -0.05604779 1 1 1
v -0.06568542 0.8 -0.06568542 1 1 1
v -0.1928203 0.8 0.1 1 1 1
v -0.1810167 0.6964723 0.1068148 1 1 1
v 0.5 0.8 -0.4 1 1 1
v 0.5 0.8 -0.3 1 1 1
v 0.2670629 0.8 -0.3693332 1 1 1
v 0.05 0.8 -0.2794228 1 1 1
v -0.1363961 0.8 -0.1363961 1 1 1
v -0.2794228 0.8 0.05 1 1 1
v -0.3693332 0.8 0.2670629 1 1 1
v -0.4 0.8 0.5 1 1 1
v 0.5 0.6964723 -0.2863703 1 1 1
v 0.4 0.01362967 0.4732051 1 1 1
v 0.5 0 0.5 1 1 1
v 0.3964724 0.01362967 0.5 1 1 1
v 0.4482362 0.01362967 0.4103425 1 1 1
v 0.4267949 0.01362967 0.4267949 1 1 1
v 0.4103425 0.01362967 0.4482362 1 1 1
v 0.5 0.01362967 0.3964724 1 1 1
v 0.4732051 0.01362967 0.4 1 1 1
v 0.5 0.6964723 -0.2863703 1 1 1
v 0.5 0.8 -0.3 1 1 1
v 0.5 0.5929447 -0.2727407 1 1 1
v 0.5 0.8 -0.5 1 1 1
v 0.5 0.8 -0.4 1 1 1
v -0.5 0.8 -0.5 1 1 1
v 0.2670629 0.8 -0.3693332 1 1 1
v -0.3693332 0.8 0.2670629 1 1 1
v -0.4 0.8 0.5 1 1 1
v -0.5 0.8 0.5 1 1 1
v -0.5 0 -0.5 1 1 1
v 0.5 0 -0.5 1 1 1
v -0.2863703 0.6964723 0.5 1 1 1
v -0.3 0.8 0.5 1 1 1
v -0.2727407 0.5929447 0.5 1 1 1
v -0.1928203 0.4 0.5 1 1 1
v -0.06568542 0.2343146 0.5 1 1 1
v -0.5 0 0.5 1 1 1
v 0.1 0.1071797 0.5 1 1 1
v 0.2929448 0.02725934 0.5 1 1 1
v 0.3964724 0.01362967 0.5 1 1 1
v 0.5 0.4 -0.1928203 1 1 1
v 0.5 0.2343146 -0.06568542 1 1 1
v 0.5 0.1071797 0.1 1 1 1
v 0.5 0.02725934 0.2929448 1 1 1
v 0.5 0.01362967 0.3964724 1 1 1
v 0.4732051 0.01362967 0.4 1 1 1
v 0.4464101 0.02725934 0.3 1 1 1
v 0.3535898 0.2343146 -0.04641016 1 1 1
v 0.2171573 0.2343146 0.01010205 1 1 1
v 0.3206849 0.4 -0.169213 1 1 1
v 0.1535898 0.4 -0.1 1 1 1
v -0.2464101 0.5929447 0.3 1 1 1
v -0.169213 0.4 0.3206849 1 1 1
v 0.4482362 0.01362967 0.4103424 1 1 1
v 0.3964724 0.02725934 0.3206849 1 1 1
v -0.04641016 0.5929447 -0.04641016 1 1 1
v 0.01010205 0.4 0.01010205 1 1 1
v -0.169213 0.5929447 0.1136297 1 1 1
v -0.1 0.4 0.1535898 1 1 1
v -0.04641016 0.2343146 0.3535898 1 1 1
v 0.4267949 0.01362967 0.4267949 1 1 1
v 0.4103424 0.01362967 0.4482362 1 1 1
v 0.3535898 0.02725934 0.3535898 1 1 1
v 0.3206849 0.02725934 0.3964724 1 1 1
v 0.3964724 0.1071797 0.1136297 1 1 1
v 0.3 0.1071797 0.1535898 1 1 1
v 0.3 0.5929447 -0.2464101 1 1 1
v 0.1136297 0.5929447 -0.169213 1 1 1
v 0.4 0.01362967 0.4732051 1 1 1
v 0.3 0.02725934 0.4464101 1 1 1
v 0.01010205 0.2343146 0.2171573 1 1 1
v 0.1535898 0.1071797 0.3 1 1 1
v 0.1136297 0.1071797 0.3964724 1 1 1
v 0.1 0.2343146 0.1 1 1 1
v -0.0560478 0.6964723 -0.0560478 1 1 1
v 0.2171573 0.1071797 0.2171573 1 1 1

vn 0.2566049 0.1305262 0.9576622
vn 0.4957224 0.1305262 0.8586164
vn 0.9576622 0.1305262 0.2566049
vn 0.9831056 0.1294283 0.1294283
vn 0.7010574 0.1305262 0.7010574
vn 0.8586164 0.1305262 0.4957224
vn 0 1 0
vn 0.1294283 0.1294283 0.9831056
vn 0.1260786 0.9914449 0.03378266
vn 0.08417487 0.9928893 0.08417487
vn 0.1305069 0.9912985 0.01718156
vn 0.06526309 0.9914449 0.113039
vn 0.09229595 0.9914449 0.09229595
vn 0.113039 0.9914449 0.06526309
vn 0.01718156 0.9912985 0.1305069
vn 0.03378266 0.9914449 0.1260786
vn 1 0 0
vn 0 0 -1
vn 0 0 1
vn 0 -1 0
vn -1 0 0
vn 0.03538033 0.9625627 0.2687402
vn 0.06959867 0.9631657 0.2597458
vn 0.1843973 0.7017164 0.68818
vn 0.3562281 0.7017164 0.6170053
vn 0.2248334 0.4953571 0.8390896
vn 0.4343447 0.4953571 0.7523071
vn 0.9337004 0.2561471 0.2501842
vn 0.8390896 0.4953571 0.2248334
vn 0.9589042 0.2540977 0.1262421
vn 0.8630636 0.4921491 0.1136245
vn 0.1344543 0.9631657 0.2328817
vn 0.6835161 0.2561471 0.6835161
vn 0.6142562 0.4953571 0.6142562
vn 0.8371329 0.2561471 0.4833189
vn 0.7523071 0.4953571 0.4343447
vn 0.68818 0.7017164 0.1843973
vn 0.7093428 0.6986499 0.09338676
vn 0.1901471 0.9631657 0.1901471
vn 0.2328817 0.9631657 0.1344543
vn 0.1314969 0.8613188 0.4907531
vn 0.2540325 0.8613188 0.4399972
vn 0.09338676 0.6986499 0.7093428
vn 0.1136245 0.4921491 0.8630636
vn 0.2501842 0.2561471 0.9337004
vn 0.4833189 0.2561471 0.8371329
vn 0.2597458 0.9631657 0.06959867
vn 0.1262421 0.2540977 0.9589042
vn 0.6170053 0.7017164 0.3562281
vn 0.4399972 0.8613188 0.2540325
vn 0.4907531 0.8613188 0.1314969
vn 0.5037826 0.7017165 0.5037826
vn 0.5069323 0.8593984 0.06673889
vn 0.3592562 0.8613188 0.3592562
vn 0.2687402 0.9625627 0.03538033
vn 0.06673889 0.8593984 0.5069323

vt 0.46875 0.4491181
vt 0.46875 0.475
vt 0.21875 0.02840742
vt 0.21875 0.025
vt 0.21875 0.1991181
vt 0.21875 0.225
vt 0.21875 0.1732362
vt 0.21875 0.125
vt 0.21875 0.08357865
vt 0.21875 0.05179492
vt 0.21875 0.03181484
vt 0.34375 0.02840742
vt 0.34375 0.03181484
vt 0.34375 0.08357865
vt 0.34375 0.125
vt 0.34375 0.1732362
vt 0.34375 0.1991181
vt 0.34375 0.05179492

usemtl colormap

f 3/2/1 2/1/2 1/1/1
f 2/1/2 3/2/1 4/2/2
f 7/2/4 6/1/3 5/2/3
f 6/1/3 7/2/4 8/1/4
f 4/2/2 9/1/5 2/1/2
f 9/1/5 4/2/2 10/2/5
f 5/2/3 12/1/6 11/2/6
f 12/1/6 5/2/3 6/1/3
f 15/2/7 14/2/7 13/2/7
f 14/2/7 15/2/7 3/2/7
f 3/2/7 15/2/7 4/2/7
f 4/2/7 15/2/7 16/2/7
f 4/2/7 16/2/7 10/2/7
f 10/2/7 16/2/7 17/2/7
f 10/2/7 17/2/7 11/2/7
f 11/2/7 17/2/7 18/2/7
f 11/2/7 18/2/7 5/2/7
f 5/2/7 18/2/7 7/2/7
f 7/2/7 18/2/7 19/2/7
f 7/2/7 19/2/7 20/2/7
f 14/2/8 1/1/1 21/1/8
f 1/1/1 14/2/8 3/2/1
f 11/2/6 9/1/5 10/2/5
f 9/1/5 11/2/6 12/1/6
f 24/3/11 23/4/10 22/3/9
f 26/3/13 23/4/10 25/3/12
f 22/3/9 23/4/10 27/3/14
f 27/3/14 23/4/10 26/3/13
f 29/3/16 23/4/10 28/3/15
f 25/3/12 23/4/10 29/3/16
f 32/7/17 31/6/17 30/5/17
f 35/6/7 34/6/7 33/6/7
f 34/6/7 35/6/7 36/6/7
f 36/6/7 35/6/7 16/6/7
f 16/6/7 35/6/7 17/6/7
f 17/6/7 35/6/7 18/6/7
f 18/6/7 35/6/7 37/6/7
f 37/6/7 35/6/7 38/6/7
f 38/6/7 35/6/7 39/6/7
f 35/6/18 41/4/18 40/4/18
f 41/4/18 35/6/18 33/6/18
f 43/6/19 38/6/19 42/5/19
f 39/6/19 42/5/19 38/6/19
f 39/6/19 44/7/19 42/5/19
f 39/6/19 45/8/19 44/7/19
f 39/6/19 46/9/19 45/8/19
f 47/4/19 46/9/19 39/6/19
f 47/4/19 48/10/19 46/9/19
f 47/4/19 49/11/19 48/10/19
f 47/4/19 50/3/19 49/11/19
f 50/3/19 47/4/19 23/4/19
f 34/6/17 41/4/17 33/6/17
f 41/4/17 34/6/17 51/8/17
f 51/8/17 34/6/17 32/7/17
f 32/7/17 34/6/17 31/6/17
f 41/4/17 51/8/17 52/9/17
f 41/4/17 52/9/17 53/10/17
f 41/4/17 53/10/17 54/11/17
f 41/4/17 54/11/17 23/4/17
f 23/4/17 54/11/17 55/3/17
f 47/4/20 41/4/20 23/4/20
f 41/4/20 47/4/20 40/4/20
f 47/4/21 35/6/21 40/4/21
f 35/6/21 47/4/21 39/6/21
f 54/13/22 56/12/16 55/12/15
f 56/12/16 54/13/22 57/13/23
f 60/15/26 59/14/25 58/14/24
f 59/14/25 60/15/26 61/15/27
f 44/16/30 63/15/29 62/16/28
f 63/15/29 44/16/30 45/15/31
f 42/17/4 62/16/28 6/17/3
f 62/16/28 42/17/4 44/16/30
f 57/13/23 64/12/12 56/12/16
f 64/12/12 57/13/23 65/13/32
f 68/16/35 67/15/34 66/16/33
f 67/15/34 68/16/35 69/15/36
f 45/15/31 70/14/37 63/15/29
f 70/14/37 45/15/31 46/14/38
f 73/13/39 72/12/14 71/12/13
f 72/12/14 73/13/39 74/13/40
f 58/14/24 76/18/42 75/18/41
f 76/18/42 58/14/24 59/14/25
f 51/15/44 58/14/24 52/14/43
f 58/14/24 51/15/44 60/15/26
f 77/16/45 61/15/27 60/15/26
f 61/15/27 77/16/45 78/16/46
f 74/13/40 79/12/9 72/12/14
f 79/12/9 74/13/40 80/13/47
f 32/16/48 60/15/26 51/15/44
f 60/15/26 32/16/48 77/16/45
f 63/15/29 81/14/49 69/15/36
f 81/14/49 63/15/29 70/14/37
f 82/18/50 80/13/47 74/13/40
f 80/13/47 82/18/50 83/18/51
f 61/15/27 84/14/52 59/14/25
f 84/14/52 61/15/27 67/15/34
f 70/14/37 48/18/53 83/18/51
f 48/18/53 70/14/37 46/14/38
f 78/16/46 67/15/34 61/15/27
f 67/15/34 78/16/46 66/16/33
f 1/17/1 78/16/46 77/16/45
f 78/16/46 1/17/1 2/17/2
f 30/17/8 77/16/45 32/16/48
f 77/16/45 30/17/8 1/17/1
f 12/17/6 66/16/33 85/17/5
f 66/16/33 12/17/6 68/16/35
f 59/14/25 86/18/54 76/18/42
f 86/18/54 59/14/25 84/14/52
f 83/18/51 49/13/55 80/13/47
f 49/13/55 83/18/51 48/18/53
f 81/14/49 83/18/51 82/18/50
f 83/18/51 81/14/49 70/14/37
f 80/13/47 50/12/11 79/12/9
f 50/12/11 80/13/47 49/13/55
f 58/14/24 53/18/56 52/14/43
f 53/18/56 58/14/24 75/18/41
f 86/18/54 74/13/40 73/13/39
f 74/13/40 86/18/54 82/18/50
f 76/18/42 73/13/39 65/13/32
f 73/13/39 76/18/42 86/18/54
f 65/13/32 71/12/13 64/12/12
f 71/12/13 65/13/32 73/13/39
f 69/15/36 84/14/52 67/15/34
f 84/14/52 69/15/36 81/14/49
f 84/14/52 82/18/50 86/18/54
f 82/18/50 84/14/52 81/14/49
f 2/17/2 66/16/33 78/16/46
f 66/16/33 2/17/2 85/17/5
f 62/16/28 69/15/36 68/16/35
f 69/15/36 62/16/28 63/15/29
f 75/18/41 65/13/32 57/13/23
f 65/13/32 75/18/41 76/18/42
f 75/18/41 54/13/22 53/18/56
f 54/13/22 75/18/41 57/13/23
f 6/17/3 68/16/35 12/17/6
f 68/16/35 6/17/3 62/16/28

g bowl-corner-inner




usemtl colormap

f 3/2/1 2/1/2 1/1/1
f 2/1/2 3/2/1 4/2/2
f 7/2/4 6/1/3 5/2/3
f 6/1/3 7/2/4 8/1/4
f 4/2/2 9/1/5 2/1/2
f 9/1/5 4/2/2 10/2/5
f 5/2/3 12/1/6 11/2/6
f 12/1/6 5/2/3 6/1/3
f 15/2/7 14/2/7 13/2/7
f 14/2/7 15/2/7 3/2/7
f 3/2/7 15/2/7 4/2/7
f 4/2/7 15/2/7 16/2/7
f 4/2/7 16/2/7 10/2/7
f 10/2/7 16/2/7 17/2/7
f 10/2/7 17/2/7 11/2/7
f 11/2/7 17/2/7 18/2/7
f 11/2/7 18/2/7 5/2/7
f 5/2/7 18/2/7 7/2/7
f 7/2/7 18/2/7 19/2/7
f 7/2/7 19/2/7 20/2/7
f 14/2/8 1/1/1 21/1/8
f 1/1/1 14/2/8 3/2/1
f 11/2/6 9/1/5 10/2/5
f 9/1/5 11/2/6 12/1/6
f 24/3/11 23/4/10 22/3/9
f 26/3/13 23/4/10 25/3/12
f 22/3/9 23/4/10 27/3/14
f 27/3/14 23/4/10 26/3/13
f 29/3/16 23/4/10 28/3/15
f 25/3/12 23/4/10 29/3/16
f 32/7/17 31/6/17 30/5/17
f 35/6/7 34/6/7 33/6/7
f 34/6/7 35/6/7 36/6/7
f 36/6/7 35/6/7 16/6/7
f 16/6/7 35/6/7 17/6/7
f 17/6/7 35/6/7 18/6/7
f 18/6/7 35/6/7 37/6/7
f 37/6/7 35/6/7 38/6/7
f 38/6/7 35/6/7 39/6/7
f 35/6/18 41/4/18 40/4/18
f 41/4/18 35/6/18 33/6/18
f 43/6/19 38/6/19 42/5/19
f 39/6/19 42/5/19 38/6/19
f 39/6/19 44/7/19 42/5/19
f 39/6/19 45/8/19 44/7/19
f 39/6/19 46/9/19 45/8/19
f 47/4/19 46/9/19 39/6/19
f 47/4/19 48/10/19 46/9/19
f 47/4/19 49/11/19 48/10/19
f 47/4/19 50/3/19 49/11/19
f 50/3/19 47/4/19 23/4/19
f 34/6/17 41/4/17 33/6/17
f 41/4/17 34/6/17 51/8/17
f 51/8/17 34/6/17 32/7/17
f 32/7/17 34/6/17 31/6/17
f 41/4/17 51/8/17 52/9/17
f 41/4/17 52/9/17 53/10/17
f 41/4/17 53/10/17 54/11/17
f 41/4/17 54/11/17 23/4/17
f 23/4/17 54/11/17 55/3/17
f 47/4/20 41/4/20 23/4/20
f 41/4/20 47/4/20 40/4/20
f 47/4/21 35/6/21 40/4/21
f 35/6/21 47/4/21 39/6/21
f 54/13/22 56/12/16 55/12/15
f 56/12/16 54/13/22 57/13/23
f 60/15/26 59/14/25 58/14/24
f 59/14/25 60/15/26 61/15/27
f 44/16/30 63/15/29 62/16/28
f 63/15/29 44/16/30 45/15/31
f 42/17/4 62/16/28 6/17/3
f 62/16/28 42/17/4 44/16/30
f 57/13/23 64/12/12 56/12/16
f 64/12/12 57/13/23 65/13/32
f 68/16/35 67/15/34 66/16/33
f 67/15/34 68/16/35 69/15/36
f 45/15/31 70/14/37 63/15/29
f 70/14/37 45/15/31 46/14/38
f 73/13/39 72/12/14 71/12/13
f 72/12/14 73/13/39 74/13/40
f 58/14/24 76/18/42 75/18/41
f 76/18/42 58/14/24 59/14/25
f 51/15/44 58/14/24 52/14/43
f 58/14/24 51/15/44 60/15/26
f 77/16/45 61/15/27 60/15/26
f 61/15/27 77/16/45 78/16/46
f 74/13/40 79/12/9 72/12/14
f 79/12/9 74/13/40 80/13/47
f 32/16/48 60/15/26 51/15/44
f 60/15/26 32/16/48 77/16/45
f 63/15/29 81/14/49 69/15/36
f 81/14/49 63/15/29 70/14/37
f 82/18/50 80/13/47 74/13/40
f 80/13/47 82/18/50 83/18/51
f 61/15/27 84/14/52 59/14/25
f 84/14/52 61/15/27 67/15/34
f 70/14/37 48/18/53 83/18/51
f 48/18/53 70/14/37 46/14/38
f 78/16/46 67/15/34 61/15/27
f 67/15/34 78/16/46 66/16/33
f 1/17/1 78/16/46 77/16/45
f 78/16/46 1/17/1 2/17/2
f 30/17/8 77/16/45 32/16/48
f 77/16/45 30/17/8 1/17/1
f 12/17/6 66/16/33 85/17/5
f 66/16/33 12/17/6 68/16/35
f 59/14/25 86/18/54 76/18/42
f 86/18/54 59/14/25 84/14/52
f 83/18/51 49/13/55 80/13/47
f 49/13/55 83/18/51 48/18/53
f 81/14/49 83/18/51 82/18/50
f 83/18/51 81/14/49 70/14/37
f 80/13/47 50/12/11 79/12/9
f 50/12/11 80/13/47 49/13/55
f 58/14/24 53/18/56 52/14/43
f 53/18/56 58/14/24 75/18/41
f 86/18/54 74/13/40 73/13/39
f 74/13/40 86/18/54 82/18/50
f 76/18/42 73/13/39 65/13/32
f 73/13/39 76/18/42 86/18/54
f 65/13/32 71/12/13 64/12/12
f 71/12/13 65/13/32 73/13/39
f 69/15/36 84/14/52 67/15/34
f 84/14/52 69/15/36 81/14/49
f 84/14/52 82/18/50 86/18/54
f 82/18/50 84/14/52 81/14/49
f 2/17/2 66/16/33 78/16/46
f 66/16/33 2/17/2 85/17/5
f 62/16/28 69/15/36 68/16/35
f 69/15/36 62/16/28 63/15/29
f 75/18/41 65/13/32 57/13/23
f 65/13/32 75/18/41 76/18/42
f 75/18/41 54/13/22 53/18/56
f 54/13/22 75/18/41 57/13/23
f 6/17/3 68/16/35 12/17/6
f 68/16/35 6/17/3 62/16/28

