# Created by Kenney (www.kenney.nl)

mtllib rail-low.mtl

g rail-low

v -0.05000001 0.2 0.5 1 1 1
v 0.05 0.2 0.5 1 1 1
v -0.04999989 0.2 -0.5000001 1 1 1
v 0.05000012 0.2 -0.5000001 1 1 1
v 0.05000012 0.25 -0.5000001 1 1 1
v 0.05 0.25 0.5 1 1 1
v -0.04999989 0.25 -0.5000001 1 1 1
v -0.05000001 0.25 0.5 1 1 1
v 0.07500002 2.142478E-17 0.02500001 1 1 1
v 0.07500002 2.142478E-17 -0.02499999 1 1 1
v -0.075 2.142478E-17 0.02499999 1 1 1
v -0.075 2.142478E-17 -0.02500001 1 1 1
v -0.025 0.03125 0.025 1 1 1
v -0.075 0.01875 0.02499999 1 1 1
v -0.02499999 0.03125 -0.02500001 1 1 1
v -0.075 0.01875 -0.02500001 1 1 1
v 0.07500002 0.01875 0.02500001 1 1 1
v 0.02500001 0.03125 0.02500001 1 1 1
v 0.07500002 0.01875 -0.02499999 1 1 1
v 0.02500001 0.03125 -0.025 1 1 1
v 0.03375001 0.2 0.02500001 1 1 1
v -0.03375 0.2 0.025 1 1 1
v -0.03374999 0.2 -0.02500001 1 1 1
v 0.03375001 0.2 -0.025 1 1 1
v 0.07500002 2.142478E-17 0.375 1 1 1
v 0.07500002 2.142478E-17 0.325 1 1 1
v -0.075 2.142478E-17 0.375 1 1 1
v -0.075 2.142478E-17 0.325 1 1 1
v -0.025 0.03125 0.375 1 1 1
v -0.075 0.01875 0.375 1 1 1
v -0.02499999 0.03125 0.325 1 1 1
v -0.075 0.01875 0.325 1 1 1
v 0.07500002 0.01875 0.375 1 1 1
v 0.02500001 0.03125 0.375 1 1 1
v 0.07500002 0.01875 0.325 1 1 1
v 0.02500001 0.03125 0.325 1 1 1
v 0.03375001 0.2 0.375 1 1 1
v -0.03375 0.2 0.375 1 1 1
v -0.03374999 0.2 0.325 1 1 1
v 0.03375001 0.2 0.325 1 1 1
v 0.07500002 2.142478E-17 -0.325 1 1 1
v 0.07500002 2.142478E-17 -0.375 1 1 1
v -0.075 2.142478E-17 -0.325 1 1 1
v -0.075 2.142478E-17 -0.375 1 1 1
v -0.025 0.03125 -0.325 1 1 1
v -0.075 0.01875 -0.325 1 1 1
v -0.02499999 0.03125 -0.375 1 1 1
v -0.075 0.01875 -0.375 1 1 1
v 0.07500002 0.01875 -0.325 1 1 1
v 0.02500001 0.03125 -0.325 1 1 1
v 0.07500002 0.01875 -0.375 1 1 1
v 0.02500001 0.03125 -0.375 1 1 1
v 0.03375001 0.2 -0.325 1 1 1
v -0.03375 0.2 -0.325 1 1 1
v -0.03374999 0.2 -0.375 1 1 1
v 0.03375001 0.2 -0.375 1 1 1

vn 0 -1 0
vn 1 0 1.192093E-07
vn 0.7071068 0.7071068 8.42937E-08
vn 1.192093E-07 0 -1
vn -1 0 -1.192093E-07
vn -0.7071068 0.7071068 -8.42937E-08
vn -1.192093E-07 0 1
vn -0.2425357 0.9701425 -2.89125E-08
vn -0.7882056 0.6154122 -9.396141E-08
vn 0.7882056 0.6154122 9.396141E-08
vn 0.2425357 0.9701425 2.89125E-08
vn 0.9986585 -0.05178229 1.190494E-07
vn -0.9986585 -0.05178229 -1.190494E-07

vt 0.46875 0.275
vt 0.46875 0.475
vt 0.46875 0.225
vt 0.46875 0.19375
vt 0.46875 0.20625
vt 0.46875 0.025

usemtl colormap

f 3/1/1 2/1/1 1/1/1
f 2/1/1 3/1/1 4/1/1
f 5/2/3 2/1/2 4/1/2
f 2/1/2 5/2/3 6/2/3
f 3/1/4 5/2/4 4/1/4
f 5/2/4 3/1/4 7/2/4
f 8/2/6 3/1/5 1/1/5
f 3/1/5 8/2/6 7/2/6
f 8/2/7 2/1/7 6/2/7
f 2/1/7 8/2/7 1/1/7
f 5/2/3 8/2/6 6/2/3
f 8/2/6 5/2/3 7/2/6
f 11/3/1 10/3/1 9/3/1
f 10/3/1 11/3/1 12/3/1
f 15/4/8 14/5/9 13/4/8
f 14/5/9 15/4/8 16/5/9
f 19/5/10 18/4/11 17/5/10
f 18/4/11 19/5/10 20/4/11
f 14/5/9 12/3/5 11/3/5
f 12/3/5 14/5/9 16/5/9
f 19/5/10 9/3/2 10/3/2
f 9/3/2 19/5/10 17/5/10
f 22/6/7 18/4/7 21/6/7
f 18/4/7 22/6/7 13/4/7
f 11/3/7 18/4/7 13/4/7
f 11/3/7 13/4/7 14/5/7
f 9/3/7 18/4/7 11/3/7
f 18/4/7 9/3/7 17/5/7
f 10/3/4 20/4/4 19/5/4
f 20/4/4 10/3/4 12/3/4
f 20/4/4 12/3/4 15/4/4
f 15/4/4 12/3/4 16/5/4
f 23/6/4 20/4/4 15/4/4
f 20/4/4 23/6/4 24/6/4
f 24/6/12 18/4/12 20/4/12
f 18/4/12 24/6/12 21/6/12
f 22/6/13 15/4/13 13/4/13
f 15/4/13 22/6/13 23/6/13
f 27/3/1 26/3/1 25/3/1
f 26/3/1 27/3/1 28/3/1
f 31/4/8 30/5/9 29/4/8
f 30/5/9 31/4/8 32/5/9
f 35/5/10 34/4/11 33/5/10
f 34/4/11 35/5/10 36/4/11
f 30/5/9 28/3/5 27/3/5
f 28/3/5 30/5/9 32/5/9
f 35/5/10 25/3/2 26/3/2
f 25/3/2 35/5/10 33/5/10
f 38/6/7 34/4/7 37/6/7
f 34/4/7 38/6/7 29/4/7
f 27/3/7 34/4/7 29/4/7
f 27/3/7 29/4/7 30/5/7
f 25/3/7 34/4/7 27/3/7
f 34/4/7 25/3/7 33/5/7
f 26/3/4 36/4/4 35/5/4
f 36/4/4 26/3/4 28/3/4
f 36/4/4 28/3/4 31/4/4
f 31/4/4 28/3/4 32/5/4
f 39/6/4 36/4/4 31/4/4
f 36/4/4 39/6/4 40/6/4
f 40/6/12 34/4/12 36/4/12
f 34/4/12 40/6/12 37/6/12
f 38/6/13 31/4/13 29/4/13
f 31/4/13 38/6/13 39/6/13
f 43/3/1 42/3/1 41/3/1
f 42/3/1 43/3/1 44/3/1
f 47/4/8 46/5/9 45/4/8
f 46/5/9 47/4/8 48/5/9
f 51/5/10 50/4/11 49/5/10
f 50/4/11 51/5/10 52/4/11
f 46/5/9 44/3/5 43/3/5
f 44/3/5 46/5/9 48/5/9
f 51/5/10 41/3/2 42/3/2
f 41/3/2 51/5/10 49/5/10
f 54/6/7 50/4/7 53/6/7
f 50/4/7 54/6/7 45/4/7
f 43/3/7 50/4/7 45/4/7
f 43/3/7 45/4/7 46/5/7
f 41/3/7 50/4/7 43/3/7
f 50/4/7 41/3/7 49/5/7
f 42/3/4 52/4/4 51/5/4
f 52/4/4 42/3/4 44/3/4
f 52/4/4 44/3/4 47/4/4
f 47/4/4 44/3/4 48/5/4
f 55/6/4 52/4/4 47/4/4
f 52/4/4 55/6/4 56/6/4
f 56/6/12 50/4/12 52/4/12
f 50/4/12 56/6/12 53/6/12
f 54/6/13 47/4/13 45/4/13
f 47/4/13 54/6/13 55/6/13

g rail-low




usemtl colormap

f 3/1/1 2/1/1 1/1/1
f 2/1/1 3/1/1 4/1/1
f 5/2/3 2/1/2 4/1/2
f 2/1/2 5/2/3 6/2/3
f 3/1/4 5/2/4 4/1/4
f 5/2/4 3/1/4 7/2/4
f 8/2/6 3/1/5 1/1/5
f 3/1/5 8/2/6 7/2/6
f 8/2/7 2/1/7 6/2/7
f 2/1/7 8/2/7 1/1/7
f 5/2/3 8/2/6 6/2/3
f 8/2/6 5/2/3 7/2/6
f 11/3/1 10/3/1 9/3/1
f 10/3/1 11/3/1 12/3/1
f 15/4/8 14/5/9 13/4/8
f 14/5/9 15/4/8 16/5/9
f 19/5/10 18/4/11 17/5/10
f 18/4/11 19/5/10 20/4/11
f 14/5/9 12/3/5 11/3/5
f 12/3/5 14/5/9 16/5/9
f 19/5/10 9/3/2 10/3/2
f 9/3/2 19/5/10 17/5/10
f 22/6/7 18/4/7 21/6/7
f 18/4/7 22/6/7 13/4/7
f 11/3/7 18/4/7 13/4/7
f 11/3/7 13/4/7 14/5/7
f 9/3/7 18/4/7 11/3/7
f 18/4/7 9/3/7 17/5/7
f 10/3/4 20/4/4 19/5/4
f 20/4/4 10/3/4 12/3/4
f 20/4/4 12/3/4 15/4/4
f 15/4/4 12/3/4 16/5/4
f 23/6/4 20/4/4 15/4/4
f 20/4/4 23/6/4 24/6/4
f 24/6/12 18/4/12 20/4/12
f 18/4/12 24/6/12 21/6/12
f 22/6/13 15/4/13 13/4/13
f 15/4/13 22/6/13 23/6/13
f 27/3/1 26/3/1 25/3/1
f 26/3/1 27/3/1 28/3/1
f 31/4/8 30/5/9 29/4/8
f 30/5/9 31/4/8 32/5/9
f 35/5/10 34/4/11 33/5/10
f 34/4/11 35/5/10 36/4/11
f 30/5/9 28/3/5 27/3/5
f 28/3/5 30/5/9 32/5/9
f 35/5/10 25/3/2 26/3/2
f 25/3/2 35/5/10 33/5/10
f 38/6/7 34/4/7 37/6/7
f 34/4/7 38/6/7 29/4/7
f 27/3/7 34/4/7 29/4/7
f 27/3/7 29/4/7 30/5/7
f 25/3/7 34/4/7 27/3/7
f 34/4/7 25/3/7 33/5/7
f 26/3/4 36/4/4 35/5/4
f 36/4/4 26/3/4 28/3/4
f 36/4/4 28/3/4 31/4/4
f 31/4/4 28/3/4 32/5/4
f 39/6/4 36/4/4 31/4/4
f 36/4/4 39/6/4 40/6/4
f 40/6/12 34/4/12 36/4/12
f 34/4/12 40/6/12 37/6/12
f 38/6/13 31/4/13 29/4/13
f 31/4/13 38/6/13 39/6/13
f 43/3/1 42/3/1 41/3/1
f 42/3/1 43/3/1 44/3/1
f 47/4/8 46/5/9 45/4/8
f 46/5/9 47/4/8 48/5/9
f 51/5/10 50/4/11 49/5/10
f 50/4/11 51/5/10 52/4/11
f 46/5/9 44/3/5 43/3/5
f 44/3/5 46/5/9 48/5/9
f 51/5/10 41/3/2 42/3/2
f 41/3/2 51/5/10 49/5/10
f 54/6/7 50/4/7 53/6/7
f 50/4/7 54/6/7 45/4/7
f 43/3/7 50/4/7 45/4/7
f 43/3/7 45/4/7 46/5/7
f 41/3/7 50/4/7 43/3/7
f 50/4/7 41/3/7 49/5/7
f 42/3/4 52/4/4 51/5/4
f 52/4/4 42/3/4 44/3/4
f 52/4/4 44/3/4 47/4/4
f 47/4/4 44/3/4 48/5/4
f 55/6/4 52/4/4 47/4/4
f 52/4/4 55/6/4 56/6/4
f 56/6/12 50/4/12 52/4/12
f 50/4/12 56/6/12 53/6/12
f 54/6/13 47/4/13 45/4/13
f 47/4/13 54/6/13 55/6/13

